<svg xmlns="http://www.w3.org/2000/svg" xmlns:xlink="http://www.w3.org/1999/xlink" contentStyleType="text/css" data-diagram-type="SEQUENCE" height="574px" preserveAspectRatio="none" style="width:1071px;height:574px;background:#FFFFFF;" version="1.1" viewBox="0 0 1071 574" width="1071px" zoomAndPan="magnify"><defs/><g><rect fill="#F8F8FF" height="562.25" style="stroke:#181818;stroke-width:0.5;" width="505.9614" x="144.8936" y="6"/><text fill="#000000" font-family="Helvetica" font-size="10" font-weight="bold" x="389.4124" y="15.2822">LEI</text><rect fill="#E6E6FA" height="545.6094" style="stroke:#181818;stroke-width:0.5;" width="342.8784" x="144.8936" y="22.6406"/><text fill="#000000" font-family="Helvetica" font-size="10" font-weight="bold" x="277.2361" y="31.9229">Prim&#228;rsystem</text><rect fill="#F4A460" height="528.9688" style="stroke:#181818;stroke-width:0.5;" width="89" x="144.8936" y="39.2813"/><text fill="#000000" font-family="Helvetica" font-size="10" font-weight="bold" x="156.8936" y="48.5635">ZETA Client</text><rect fill="#C9FFC9" height="562.25" style="stroke:#181818;stroke-width:0.5;" width="402.3867" x="662.855" y="6"/><text fill="#000000" font-family="Helvetica" font-size="10" font-weight="bold" x="839.688" y="15.2822">Anbieter</text><rect fill="#F4A460" height="545.6094" style="stroke:#181818;stroke-width:0.5;" width="291.3232" x="662.855" y="22.6406"/><text fill="#000000" font-family="Helvetica" font-size="10" font-weight="bold" x="775.3721" y="31.9229">ZETA Guard</text><rect fill="#8FBC8F" height="545.6094" style="stroke:#181818;stroke-width:0.5;" width="99.0635" x="966.1782" y="22.6406"/><text fill="#000000" font-family="Helvetica" font-size="10" font-weight="bold" x="978.1782" y="31.9229">TI 2.0 Dienst</text><g><title>User</title><rect fill="#000000" fill-opacity="0.00000" height="364.0469" width="8" x="39.5" y="126.5625"/><line style="stroke:#181818;stroke-width:0.5;stroke-dasharray:5.0,5.0;" x1="43" x2="43" y1="126.5625" y2="490.6094"/></g><g><title>ZETA</title><rect fill="#000000" fill-opacity="0.00000" height="364.0469" width="8" x="185.8936" y="126.5625"/><line style="stroke:#181818;stroke-width:0.5;stroke-dasharray:5.0,5.0;" x1="189.3936" x2="189.3936" y1="126.5625" y2="490.6094"/></g><g><title/><rect fill="#FFFFFF" height="351.0469" style="stroke:#181818;stroke-width:1;" width="10" x="184.3936" y="134.5625"/></g><g><title>TPM</title><rect fill="#000000" fill-opacity="0.00000" height="364.0469" width="8" x="454.6504" y="126.5625"/><line style="stroke:#181818;stroke-width:0.5;stroke-dasharray:5.0,5.0;" x1="458.1504" x2="458.1504" y1="126.5625" y2="490.6094"/></g><g><title/><rect fill="#FFFFFF" height="25.6406" style="stroke:#181818;stroke-width:1;" width="10" x="453.1504" y="270.4063"/></g><g><title>Konnektor or</title><rect fill="#000000" fill-opacity="0.00000" height="364.0469" width="8" x="539.6987" y="126.5625"/><line style="stroke:#181818;stroke-width:0.5;stroke-dasharray:5.0,5.0;" x1="543.1987" x2="543.1987" y1="126.5625" y2="490.6094"/></g><g><title>SM(C)-B</title><rect fill="#000000" fill-opacity="0.00000" height="364.0469" width="8" x="616.2402" y="126.5625"/><line style="stroke:#181818;stroke-width:0.5;stroke-dasharray:5.0,5.0;" x1="619.7402" x2="619.7402" y1="126.5625" y2="490.6094"/></g><g><title>PEP</title><rect fill="#000000" fill-opacity="0.00000" height="364.0469" width="8" x="696.2559" y="126.5625"/><line style="stroke:#181818;stroke-width:0.5;stroke-dasharray:5.0,5.0;" x1="699.7559" x2="699.7559" y1="126.5625" y2="490.6094"/></g><g><title>PDP</title><rect fill="#000000" fill-opacity="0.00000" height="364.0469" width="8" x="797.6313" y="126.5625"/><line style="stroke:#181818;stroke-width:0.5;stroke-dasharray:5.0,5.0;" x1="801.1313" x2="801.1313" y1="126.5625" y2="490.6094"/></g><g><title>PDP</title><rect fill="#000000" fill-opacity="0.00000" height="364.0469" width="8" x="906.3921" y="126.5625"/><line style="stroke:#181818;stroke-width:0.5;stroke-dasharray:5.0,5.0;" x1="909.8921" x2="909.8921" y1="126.5625" y2="490.6094"/></g><g><title>Resource</title><rect fill="#000000" fill-opacity="0.00000" height="364.0469" width="8" x="1012.21" y="126.5625"/><line style="stroke:#181818;stroke-width:0.5;stroke-dasharray:5.0,5.0;" x1="1015.71" x2="1015.71" y1="126.5625" y2="490.6094"/></g><text fill="#000000" font-family="Helvetica" font-size="10" x="28.6035" y="124.2041">User</text><ellipse cx="43" cy="63.4219" fill="#E2E2F0" rx="8" ry="8" style="stroke:#181818;stroke-width:0.5;"/><path d="M43,71.4219 L43,98.4219 M30,79.4219 L56,79.4219 M43,98.4219 L30,113.4219 M43,98.4219 L56,113.4219" fill="none" style="stroke:#181818;stroke-width:0.5;"/><rect fill="#E2E2F0" height="37.2813" rx="2.5" ry="2.5" style="stroke:#181818;stroke-width:0.5;" width="42.9502" x="167.9185" y="88.2813"/><text fill="#000000" font-family="Helvetica" font-size="10" x="176.3345" y="104.5635">ZETA</text><text fill="#000000" font-family="Helvetica" font-size="10" x="174.9185" y="116.2041">Client</text><rect fill="#E2E2F0" height="25.6406" rx="2.5" ry="2.5" style="stroke:#181818;stroke-width:0.5;" width="34.7666" x="440.7671" y="99.9219"/><text fill="#000000" font-family="Helvetica" font-size="10" x="447.7671" y="116.2041">TPM</text><rect fill="#E2E2F0" height="37.2813" rx="2.5" ry="2.5" style="stroke:#181818;stroke-width:0.5;" width="78.8535" x="503.772" y="88.2813"/><text fill="#000000" font-family="Helvetica" font-size="10" x="510.772" y="104.5635">Konnektor or</text><text fill="#000000" font-family="Helvetica" font-size="10" x="514.7783" y="116.2041">TI-Gateway</text><rect fill="#E2E2F0" height="25.6406" rx="2.5" ry="2.5" style="stroke:#181818;stroke-width:0.5;" width="54.2295" x="592.6255" y="99.9219"/><text fill="#000000" font-family="Helvetica" font-size="10" x="599.6255" y="116.2041">SM(C)-B</text><rect fill="#E2E2F0" height="37.2813" rx="2.5" ry="2.5" style="stroke:#181818;stroke-width:0.5;" width="65.8018" x="666.855" y="88.2813"/><text fill="#000000" font-family="Helvetica" font-size="10" x="690.5664" y="104.5635">PEP</text><text fill="#000000" font-family="Helvetica" font-size="10" x="673.855" y="116.2041">http Proxy</text><rect fill="#E2E2F0" height="37.2813" rx="2.5" ry="2.5" style="stroke:#181818;stroke-width:0.5;" width="116.9492" x="742.6567" y="88.2813"/><text fill="#000000" font-family="Helvetica" font-size="10" x="791.251" y="104.5635">PDP</text><text fill="#000000" font-family="Helvetica" font-size="10" x="749.6567" y="116.2041">Authorization Server</text><rect fill="#E2E2F0" height="37.2813" rx="2.5" ry="2.5" style="stroke:#181818;stroke-width:0.5;" width="80.5723" x="869.606" y="88.2813"/><text fill="#000000" font-family="Helvetica" font-size="10" x="900.0117" y="104.5635">PDP</text><text fill="#000000" font-family="Helvetica" font-size="10" x="876.606" y="116.2041">Policy Engine</text><rect fill="#E2E2F0" height="37.2813" rx="2.5" ry="2.5" style="stroke:#181818;stroke-width:0.5;" width="60.5283" x="985.4458" y="88.2813"/><text fill="#000000" font-family="Helvetica" font-size="10" x="992.4458" y="104.5635">Resource</text><text fill="#000000" font-family="Helvetica" font-size="10" x="999.3135" y="116.2041">Server</text><text fill="#000000" font-family="Helvetica" font-size="10" x="28.6035" y="559.8916">User</text><ellipse cx="43" cy="499.1094" fill="#E2E2F0" rx="8" ry="8" style="stroke:#181818;stroke-width:0.5;"/><path d="M43,507.1094 L43,534.1094 M30,515.1094 L56,515.1094 M43,534.1094 L30,549.1094 M43,534.1094 L56,549.1094" fill="none" style="stroke:#181818;stroke-width:0.5;"/><rect fill="#E2E2F0" height="37.2813" rx="2.5" ry="2.5" style="stroke:#181818;stroke-width:0.5;" width="42.9502" x="167.9185" y="490.6094"/><text fill="#000000" font-family="Helvetica" font-size="10" x="176.3345" y="506.8916">ZETA</text><text fill="#000000" font-family="Helvetica" font-size="10" x="174.9185" y="518.5322">Client</text><rect fill="#E2E2F0" height="25.6406" rx="2.5" ry="2.5" style="stroke:#181818;stroke-width:0.5;" width="34.7666" x="440.7671" y="490.6094"/><text fill="#000000" font-family="Helvetica" font-size="10" x="447.7671" y="506.8916">TPM</text><rect fill="#E2E2F0" height="37.2813" rx="2.5" ry="2.5" style="stroke:#181818;stroke-width:0.5;" width="78.8535" x="503.772" y="490.6094"/><text fill="#000000" font-family="Helvetica" font-size="10" x="510.772" y="506.8916">Konnektor or</text><text fill="#000000" font-family="Helvetica" font-size="10" x="514.7783" y="518.5322">TI-Gateway</text><rect fill="#E2E2F0" height="25.6406" rx="2.5" ry="2.5" style="stroke:#181818;stroke-width:0.5;" width="54.2295" x="592.6255" y="490.6094"/><text fill="#000000" font-family="Helvetica" font-size="10" x="599.6255" y="506.8916">SM(C)-B</text><rect fill="#E2E2F0" height="37.2813" rx="2.5" ry="2.5" style="stroke:#181818;stroke-width:0.5;" width="65.8018" x="666.855" y="490.6094"/><text fill="#000000" font-family="Helvetica" font-size="10" x="690.5664" y="506.8916">PEP</text><text fill="#000000" font-family="Helvetica" font-size="10" x="673.855" y="518.5322">http Proxy</text><rect fill="#E2E2F0" height="37.2813" rx="2.5" ry="2.5" style="stroke:#181818;stroke-width:0.5;" width="116.9492" x="742.6567" y="490.6094"/><text fill="#000000" font-family="Helvetica" font-size="10" x="791.251" y="506.8916">PDP</text><text fill="#000000" font-family="Helvetica" font-size="10" x="749.6567" y="518.5322">Authorization Server</text><rect fill="#E2E2F0" height="37.2813" rx="2.5" ry="2.5" style="stroke:#181818;stroke-width:0.5;" width="80.5723" x="869.606" y="490.6094"/><text fill="#000000" font-family="Helvetica" font-size="10" x="900.0117" y="506.8916">PDP</text><text fill="#000000" font-family="Helvetica" font-size="10" x="876.606" y="518.5322">Policy Engine</text><rect fill="#E2E2F0" height="37.2813" rx="2.5" ry="2.5" style="stroke:#181818;stroke-width:0.5;" width="60.5283" x="985.4458" y="490.6094"/><text fill="#000000" font-family="Helvetica" font-size="10" x="992.4458" y="506.8916">Resource</text><text fill="#000000" font-family="Helvetica" font-size="10" x="999.3135" y="518.5322">Server</text><path d="M8,138.5625 L67.9561,138.5625 L67.9561,142.2031 L57.9561,152.2031 L8,152.2031 L8,138.5625" fill="#EEEEEE" style="stroke:#000000;stroke-width:1.5;"/><rect fill="none" height="247.7656" style="stroke:#000000;stroke-width:1.5;" width="496.1504" x="8" y="138.5625"/><text fill="#000000" font-family="Helvetica" font-size="10" font-weight="bold" x="23" y="148.8447">alt</text><text fill="#000000" font-family="Helvetica" font-size="10" font-weight="bold" x="82.9561" y="149.8447">[Client has no Client Attestation Key Pair]</text><path d="M27,166.2031 L86.9561,166.2031 L86.9561,169.8438 L76.9561,179.8438 L27,179.8438 L27,166.2031" fill="#EEEEEE" style="stroke:#000000;stroke-width:1.5;"/><rect fill="none" height="206.125" style="stroke:#000000;stroke-width:1.5;" width="452.1504" x="27" y="166.2031"/><text fill="#000000" font-family="Helvetica" font-size="10" font-weight="bold" x="42" y="176.4854">alt</text><text fill="#000000" font-family="Helvetica" font-size="10" font-weight="bold" x="101.9561" y="177.4854">[Client uses TPM]</text><line style="stroke:#000000;stroke-width:1;stroke-dasharray:2.0,2.0;" x1="27" x2="479.1504" y1="315.0469" y2="315.0469"/><text fill="#000000" font-family="Helvetica" font-size="10" font-weight="bold" x="32" y="326.3291">[Client uses self signed Attestation Key (deprecated)]</text><polygon fill="#181818" points="54,215.125,44,219.125,54,223.125,50,219.125" style="stroke:#181818;stroke-width:1;"/><line style="stroke:#181818;stroke-width:1;" x1="48" x2="183.3936" y1="219.125" y2="219.125"/><text fill="#000000" font-family="Helvetica" font-size="10" x="60" y="208.9463">(01)</text><text fill="#000000" font-family="Helvetica" font-size="10" x="84.5273" y="203.126">Obtain Admin</text><text fill="#000000" font-family="Helvetica" font-size="10" x="84.5273" y="214.7666">access to TPM</text><polygon fill="#181818" points="172.3936,240.7656,182.3936,244.7656,172.3936,248.7656,176.3936,244.7656" style="stroke:#181818;stroke-width:1;"/><line style="stroke:#181818;stroke-width:1;stroke-dasharray:2.0,2.0;" x1="43" x2="178.3936" y1="244.7656" y2="244.7656"/><text fill="#000000" font-family="Helvetica" font-size="10" x="50" y="240.4072">(02)</text><text fill="#000000" font-family="Helvetica" font-size="10" x="74.5273" y="240.4072">TPM Admin access</text><polygon fill="#181818" points="441.1504,266.4063,451.1504,270.4063,441.1504,274.4063,445.1504,270.4063" style="stroke:#181818;stroke-width:1;"/><line style="stroke:#181818;stroke-width:1;" x1="194.3936" x2="447.1504" y1="270.4063" y2="270.4063"/><text fill="#000000" font-family="Helvetica" font-size="10" x="201.3936" y="266.0479">(03)</text><text fill="#000000" font-family="Helvetica" font-size="10" x="225.9209" y="266.0479">Create Client Attestation Key Pair in TPM</text><polygon fill="#181818" points="205.3936,292.0469,195.3936,296.0469,205.3936,300.0469,201.3936,296.0469" style="stroke:#181818;stroke-width:1;"/><line style="stroke:#181818;stroke-width:1;stroke-dasharray:2.0,2.0;" x1="199.3936" x2="452.1504" y1="296.0469" y2="296.0469"/><text fill="#000000" font-family="Helvetica" font-size="10" x="211.3936" y="291.6885">(04)</text><text fill="#000000" font-family="Helvetica" font-size="10" x="235.9209" y="291.6885">Public Attestation Key</text><line style="stroke:#181818;stroke-width:1;" x1="194.3936" x2="236.3936" y1="351.3281" y2="351.3281"/><line style="stroke:#181818;stroke-width:1;" x1="236.3936" x2="236.3936" y1="351.3281" y2="364.3281"/><line style="stroke:#181818;stroke-width:1;" x1="195.3936" x2="236.3936" y1="364.3281" y2="364.3281"/><polygon fill="#181818" points="205.3936,360.3281,195.3936,364.3281,205.3936,368.3281,201.3936,364.3281" style="stroke:#181818;stroke-width:1;"/><text fill="#000000" font-family="Helvetica" font-size="10" x="201.3936" y="346.9697">(05)</text><text fill="#000000" font-family="Helvetica" font-size="10" x="225.9209" y="346.9697">Create self signed Client Attestation Key Pair</text><path d="M173.3936,404.3281 L233.3496,404.3281 L233.3496,407.9688 L223.3496,417.9688 L173.3936,417.9688 L173.3936,404.3281" fill="#EEEEEE" style="stroke:#000000;stroke-width:1.5;"/><rect fill="none" height="62.2813" style="stroke:#000000;stroke-width:1.5;" width="312.1816" x="173.3936" y="404.3281"/><text fill="#000000" font-family="Helvetica" font-size="10" font-weight="bold" x="188.3936" y="414.6104">alt</text><text fill="#000000" font-family="Helvetica" font-size="10" font-weight="bold" x="248.3496" y="415.6104">[Client has no Client Instance Key Pair]</text><line style="stroke:#181818;stroke-width:1;" x1="194.3936" x2="236.3936" y1="445.6094" y2="445.6094"/><line style="stroke:#181818;stroke-width:1;" x1="236.3936" x2="236.3936" y1="445.6094" y2="458.6094"/><line style="stroke:#181818;stroke-width:1;" x1="195.3936" x2="236.3936" y1="458.6094" y2="458.6094"/><polygon fill="#181818" points="205.3936,454.6094,195.3936,458.6094,205.3936,462.6094,201.3936,458.6094" style="stroke:#181818;stroke-width:1;"/><text fill="#000000" font-family="Helvetica" font-size="10" x="201.3936" y="441.251">(06)</text><text fill="#000000" font-family="Helvetica" font-size="10" x="225.9209" y="441.251">Create Client Instance Key Pair</text><!--SRC=[XPJDSjf03CVlVWhLEIGvqD0SS-YC-IXX4X9FJAVJ3fV5gy0MMqjtPHBdUVecVR6kFm37G7l2k_lxI_fB6aJ6ch9qZWRyYsxtqlViIj5Q6962n6UH9Vn54qVg3U5Jz_ZZWqWHRZ7P8AjOD9X1nKmqQRiMCSeTtTUPKMWQR8Aqu6KWVsQMWJHXuytYhmmfnYTyHbDyz4IyMXYTaUphH1lujbJS54HjmTx3jNTr_Z-GymHXhXFfdLzvdlTXRSGY5S2etu1DXfuNnEpIVhNEmbo_Wdy_7FjmDbfgorKj0ELzQ5JwvxUnkMLC7N4lDaZIgG1guiTm6a0_KKZitYD1CkyP_K8b0U3AT4rLQq5SKo1ifPfHBIjH5xO8wBL5qt1IAjnl0Uwn9dIdYN1LM2hG_KcR6Kt7dP5WV16vtr95arx9HvEB_cMdvtlRu5LF0fehP3JErdJOltrul7ySVVUQjaUPCFBGTJF7RLYc28VXZ9RCQmYDVitz0ox8U1bLwC2XnL4RzIPOQN9JDfkYZWDLEDnBGfseE8SXBHJX-rPLDK_7SFsn2mFNSxUYPmDXLX6AaK4yDgodgfedj6xLOvnHNSIxOUqQ9c9M6zVbUiQUI7RZNhemfBUdW1ajLxRkC8TGg6AP6dncqHPJBnFLTvtFvQxUmEESXI88PAfeHYAEqLfWlUCB2ZeEhuGtvVgKD5HmAwfxle6-mNtfHoi4fz-cs5dTNXGfcYd3REucqOvJeX9RQamilZDkCNa6gnQ4yg2I2ubhWx5JoykMZstksaepohyRxoPOJF7qmCPkMOJxOscAJkOzgIbIU0ttzPhy1G00]--></g></svg>