<svg xmlns="http://www.w3.org/2000/svg" xmlns:xlink="http://www.w3.org/1999/xlink" contentStyleType="text/css" data-diagram-type="SEQUENCE" height="1042px" preserveAspectRatio="none" style="width:1042px;height:1042px;background:#FFFFFF;" version="1.1" viewBox="0 0 1042 1042" width="1042px" zoomAndPan="magnify"><defs/><g><rect fill="#F8F8FF" height="1030.8594" style="stroke:#181818;stroke-width:0.5;" width="405.7173" x="145.5586" y="6"/><text fill="#000000" font-family="Helvetica" font-size="10" font-weight="bold" x="339.9553" y="15.2822">LEI</text><rect fill="#E6E6FA" height="1014.2188" style="stroke:#181818;stroke-width:0.5;" width="242.6343" x="145.5586" y="22.6406"/><text fill="#000000" font-family="Helvetica" font-size="10" font-weight="bold" x="227.7791" y="31.9229">Prim&#228;rsystem</text><rect fill="#F4A460" height="997.5781" style="stroke:#181818;stroke-width:0.5;" width="89" x="145.5586" y="39.2813"/><text fill="#000000" font-family="Helvetica" font-size="10" font-weight="bold" x="157.5586" y="48.5635">ZETA Client</text><rect fill="#C9FFC9" height="1030.8594" style="stroke:#181818;stroke-width:0.5;" width="442.0239" x="563.2759" y="6"/><text fill="#000000" font-family="Helvetica" font-size="10" font-weight="bold" x="759.9275" y="15.2822">Anbieter</text><rect fill="#F4A460" height="1014.2188" style="stroke:#181818;stroke-width:0.5;" width="330.9604" x="563.2759" y="22.6406"/><text fill="#000000" font-family="Helvetica" font-size="10" font-weight="bold" x="695.6116" y="31.9229">ZETA Guard</text><rect fill="#8FBC8F" height="1014.2188" style="stroke:#181818;stroke-width:0.5;" width="99.0635" x="906.2363" y="22.6406"/><text fill="#000000" font-family="Helvetica" font-size="10" font-weight="bold" x="918.2363" y="31.9229">TI 2.0 Dienst</text><g><title>User</title><rect fill="#000000" fill-opacity="0.00000" height="832.6563" width="8" x="34.8965" y="126.5625"/><line style="stroke:#181818;stroke-width:0.5;stroke-dasharray:5.0,5.0;" x1="38.3965" x2="38.3965" y1="126.5625" y2="959.2188"/></g><g><title>ZETA</title><rect fill="#000000" fill-opacity="0.00000" height="832.6563" width="8" x="186.5586" y="126.5625"/><line style="stroke:#181818;stroke-width:0.5;stroke-dasharray:5.0,5.0;" x1="190.0586" x2="190.0586" y1="126.5625" y2="959.2188"/></g><g><title/><rect fill="#FFFFFF" height="765.7344" style="stroke:#181818;stroke-width:1;" width="10" x="185.0586" y="175.4844"/></g><g><title>TPM</title><rect fill="#000000" fill-opacity="0.00000" height="832.6563" width="8" x="355.0713" y="126.5625"/><line style="stroke:#181818;stroke-width:0.5;stroke-dasharray:5.0,5.0;" x1="358.5713" x2="358.5713" y1="126.5625" y2="959.2188"/></g><g><title>Konnektor or</title><rect fill="#000000" fill-opacity="0.00000" height="832.6563" width="8" x="440.1196" y="126.5625"/><line style="stroke:#181818;stroke-width:0.5;stroke-dasharray:5.0,5.0;" x1="443.6196" x2="443.6196" y1="126.5625" y2="959.2188"/></g><g><title>SM(C)-B</title><rect fill="#000000" fill-opacity="0.00000" height="832.6563" width="8" x="516.6611" y="126.5625"/><line style="stroke:#181818;stroke-width:0.5;stroke-dasharray:5.0,5.0;" x1="520.1611" x2="520.1611" y1="126.5625" y2="959.2188"/></g><g><title>PEP</title><rect fill="#000000" fill-opacity="0.00000" height="832.6563" width="8" x="596.6768" y="126.5625"/><line style="stroke:#181818;stroke-width:0.5;stroke-dasharray:5.0,5.0;" x1="600.1768" x2="600.1768" y1="126.5625" y2="959.2188"/></g><g><title/><rect fill="#FFFFFF" height="212.4063" style="stroke:#181818;stroke-width:1;" width="10" x="595.1768" y="703.1719"/></g><g><title>PDP</title><rect fill="#000000" fill-opacity="0.00000" height="832.6563" width="8" x="737.6895" y="126.5625"/><line style="stroke:#181818;stroke-width:0.5;stroke-dasharray:5.0,5.0;" x1="741.1895" x2="741.1895" y1="126.5625" y2="959.2188"/></g><g><title>PDP</title><rect fill="#000000" fill-opacity="0.00000" height="832.6563" width="8" x="846.4502" y="126.5625"/><line style="stroke:#181818;stroke-width:0.5;stroke-dasharray:5.0,5.0;" x1="849.9502" x2="849.9502" y1="126.5625" y2="959.2188"/></g><g><title>Resource</title><rect fill="#000000" fill-opacity="0.00000" height="832.6563" width="8" x="952.2681" y="126.5625"/><line style="stroke:#181818;stroke-width:0.5;stroke-dasharray:5.0,5.0;" x1="955.7681" x2="955.7681" y1="126.5625" y2="959.2188"/></g><g><title/><rect fill="#FFFFFF" height="87.5625" style="stroke:#181818;stroke-width:1;" width="10" x="950.7681" y="802.375"/></g><text fill="#000000" font-family="Helvetica" font-size="10" x="24" y="124.2041">User</text><ellipse cx="38.3965" cy="63.4219" fill="#E2E2F0" rx="8" ry="8" style="stroke:#181818;stroke-width:0.5;"/><path d="M38.3965,71.4219 L38.3965,98.4219 M25.3965,79.4219 L51.3965,79.4219 M38.3965,98.4219 L25.3965,113.4219 M38.3965,98.4219 L51.3965,113.4219" fill="none" style="stroke:#181818;stroke-width:0.5;"/><rect fill="#E2E2F0" height="37.2813" rx="2.5" ry="2.5" style="stroke:#181818;stroke-width:0.5;" width="42.9502" x="168.5835" y="88.2813"/><text fill="#000000" font-family="Helvetica" font-size="10" x="176.9995" y="104.5635">ZETA</text><text fill="#000000" font-family="Helvetica" font-size="10" x="175.5835" y="116.2041">Client</text><rect fill="#E2E2F0" height="25.6406" rx="2.5" ry="2.5" style="stroke:#181818;stroke-width:0.5;" width="34.7666" x="341.188" y="99.9219"/><text fill="#000000" font-family="Helvetica" font-size="10" x="348.188" y="116.2041">TPM</text><rect fill="#E2E2F0" height="37.2813" rx="2.5" ry="2.5" style="stroke:#181818;stroke-width:0.5;" width="78.8535" x="404.1929" y="88.2813"/><text fill="#000000" font-family="Helvetica" font-size="10" x="411.1929" y="104.5635">Konnektor or</text><text fill="#000000" font-family="Helvetica" font-size="10" x="415.1992" y="116.2041">TI-Gateway</text><rect fill="#E2E2F0" height="25.6406" rx="2.5" ry="2.5" style="stroke:#181818;stroke-width:0.5;" width="54.2295" x="493.0464" y="99.9219"/><text fill="#000000" font-family="Helvetica" font-size="10" x="500.0464" y="116.2041">SM(C)-B</text><rect fill="#E2E2F0" height="37.2813" rx="2.5" ry="2.5" style="stroke:#181818;stroke-width:0.5;" width="65.8018" x="567.2759" y="88.2813"/><text fill="#000000" font-family="Helvetica" font-size="10" x="590.9873" y="104.5635">PEP</text><text fill="#000000" font-family="Helvetica" font-size="10" x="574.2759" y="116.2041">http Proxy</text><rect fill="#E2E2F0" height="37.2813" rx="2.5" ry="2.5" style="stroke:#181818;stroke-width:0.5;" width="116.9492" x="682.7148" y="88.2813"/><text fill="#000000" font-family="Helvetica" font-size="10" x="731.3091" y="104.5635">PDP</text><text fill="#000000" font-family="Helvetica" font-size="10" x="689.7148" y="116.2041">Authorization Server</text><rect fill="#E2E2F0" height="37.2813" rx="2.5" ry="2.5" style="stroke:#181818;stroke-width:0.5;" width="80.5723" x="809.6641" y="88.2813"/><text fill="#000000" font-family="Helvetica" font-size="10" x="840.0698" y="104.5635">PDP</text><text fill="#000000" font-family="Helvetica" font-size="10" x="816.6641" y="116.2041">Policy Engine</text><rect fill="#E2E2F0" height="37.2813" rx="2.5" ry="2.5" style="stroke:#181818;stroke-width:0.5;" width="60.5283" x="925.5039" y="88.2813"/><text fill="#000000" font-family="Helvetica" font-size="10" x="932.5039" y="104.5635">Resource</text><text fill="#000000" font-family="Helvetica" font-size="10" x="939.3716" y="116.2041">Server</text><text fill="#000000" font-family="Helvetica" font-size="10" x="24" y="1028.501">User</text><ellipse cx="38.3965" cy="967.7188" fill="#E2E2F0" rx="8" ry="8" style="stroke:#181818;stroke-width:0.5;"/><path d="M38.3965,975.7188 L38.3965,1002.7188 M25.3965,983.7188 L51.3965,983.7188 M38.3965,1002.7188 L25.3965,1017.7188 M38.3965,1002.7188 L51.3965,1017.7188" fill="none" style="stroke:#181818;stroke-width:0.5;"/><rect fill="#E2E2F0" height="37.2813" rx="2.5" ry="2.5" style="stroke:#181818;stroke-width:0.5;" width="42.9502" x="168.5835" y="959.2188"/><text fill="#000000" font-family="Helvetica" font-size="10" x="176.9995" y="975.501">ZETA</text><text fill="#000000" font-family="Helvetica" font-size="10" x="175.5835" y="987.1416">Client</text><rect fill="#E2E2F0" height="25.6406" rx="2.5" ry="2.5" style="stroke:#181818;stroke-width:0.5;" width="34.7666" x="341.188" y="959.2188"/><text fill="#000000" font-family="Helvetica" font-size="10" x="348.188" y="975.501">TPM</text><rect fill="#E2E2F0" height="37.2813" rx="2.5" ry="2.5" style="stroke:#181818;stroke-width:0.5;" width="78.8535" x="404.1929" y="959.2188"/><text fill="#000000" font-family="Helvetica" font-size="10" x="411.1929" y="975.501">Konnektor or</text><text fill="#000000" font-family="Helvetica" font-size="10" x="415.1992" y="987.1416">TI-Gateway</text><rect fill="#E2E2F0" height="25.6406" rx="2.5" ry="2.5" style="stroke:#181818;stroke-width:0.5;" width="54.2295" x="493.0464" y="959.2188"/><text fill="#000000" font-family="Helvetica" font-size="10" x="500.0464" y="975.501">SM(C)-B</text><rect fill="#E2E2F0" height="37.2813" rx="2.5" ry="2.5" style="stroke:#181818;stroke-width:0.5;" width="65.8018" x="567.2759" y="959.2188"/><text fill="#000000" font-family="Helvetica" font-size="10" x="590.9873" y="975.501">PEP</text><text fill="#000000" font-family="Helvetica" font-size="10" x="574.2759" y="987.1416">http Proxy</text><rect fill="#E2E2F0" height="37.2813" rx="2.5" ry="2.5" style="stroke:#181818;stroke-width:0.5;" width="116.9492" x="682.7148" y="959.2188"/><text fill="#000000" font-family="Helvetica" font-size="10" x="731.3091" y="975.501">PDP</text><text fill="#000000" font-family="Helvetica" font-size="10" x="689.7148" y="987.1416">Authorization Server</text><rect fill="#E2E2F0" height="37.2813" rx="2.5" ry="2.5" style="stroke:#181818;stroke-width:0.5;" width="80.5723" x="809.6641" y="959.2188"/><text fill="#000000" font-family="Helvetica" font-size="10" x="840.0698" y="975.501">PDP</text><text fill="#000000" font-family="Helvetica" font-size="10" x="816.6641" y="987.1416">Policy Engine</text><rect fill="#E2E2F0" height="37.2813" rx="2.5" ry="2.5" style="stroke:#181818;stroke-width:0.5;" width="60.5283" x="925.5039" y="959.2188"/><text fill="#000000" font-family="Helvetica" font-size="10" x="932.5039" y="975.501">Resource</text><text fill="#000000" font-family="Helvetica" font-size="10" x="939.3716" y="987.1416">Server</text><polygon fill="#181818" points="173.0586,171.4844,183.0586,175.4844,173.0586,179.4844,177.0586,175.4844" style="stroke:#181818;stroke-width:1;"/><line style="stroke:#181818;stroke-width:1;" x1="38.3965" x2="179.0586" y1="175.4844" y2="175.4844"/><text fill="#000000" font-family="Helvetica" font-size="10" x="45.3965" y="159.4854">(01)</text><text fill="#000000" font-family="Helvetica" font-size="10" x="69.9238" y="147.8447">User wants to</text><text fill="#000000" font-family="Helvetica" font-size="10" x="69.9238" y="159.4854">access resource</text><text fill="#000000" font-family="Helvetica" font-size="10" x="69.9238" y="171.126">on Resource Server</text><rect fill="#FFFFFF" height="37.9375" style="stroke:#000000;stroke-width:1.5;" width="627.0806" x="170.5835" y="183.4844"/><path d="M170.5835,183.4844 L234.5835,183.4844 L234.5835,188.4844 L224.5835,198.4844 L170.5835,198.4844 L170.5835,183.4844" fill="#EEEEEE" style="stroke:#000000;stroke-width:2;"/><text fill="#000000" font-family="Helvetica" font-size="12" font-weight="bold" x="183.5835" y="196.623">ref</text><text fill="#000000" font-family="Helvetica" font-size="12" font-weight="bold" x="387.8367" y="213.623">Discovery and Configuration</text><path d="M152.5835,230.4219 L212.5396,230.4219 L212.5396,234.0625 L202.5396,244.0625 L152.5835,244.0625 L152.5835,230.4219" fill="#EEEEEE" style="stroke:#000000;stroke-width:1.5;"/><rect fill="none" height="66.5781" style="stroke:#000000;stroke-width:1.5;" width="663.0806" x="152.5835" y="230.4219"/><text fill="#000000" font-family="Helvetica" font-size="10" font-weight="bold" x="167.5835" y="240.7041">alt</text><text fill="#000000" font-family="Helvetica" font-size="10" font-weight="bold" x="227.5396" y="241.7041">[Client has no client_id]</text><rect fill="#FFFFFF" height="37.9375" style="stroke:#000000;stroke-width:1.5;" width="627.0806" x="170.5835" y="254.0625"/><path d="M170.5835,254.0625 L234.5835,254.0625 L234.5835,259.0625 L224.5835,269.0625 L170.5835,269.0625 L170.5835,254.0625" fill="#EEEEEE" style="stroke:#000000;stroke-width:2;"/><text fill="#000000" font-family="Helvetica" font-size="12" font-weight="bold" x="183.5835" y="267.2012">ref</text><text fill="#000000" font-family="Helvetica" font-size="12" font-weight="bold" x="389.3367" y="284.2012">Dynamic Client Registration</text><path d="M8,315 L67.9561,315 L67.9561,318.6406 L57.9561,328.6406 L8,328.6406 L8,315" fill="#EEEEEE" style="stroke:#000000;stroke-width:1.5;"/><rect fill="none" height="80.5469" style="stroke:#000000;stroke-width:1.5;" width="481.5127" x="8" y="315"/><text fill="#000000" font-family="Helvetica" font-size="10" font-weight="bold" x="23" y="325.2822">alt</text><text fill="#000000" font-family="Helvetica" font-size="10" font-weight="bold" x="82.9561" y="326.2822">[Client has no Client Attestation Key Pair or Client Instance Key Pair]</text><rect fill="#FFFFFF" height="51.9063" style="stroke:#000000;stroke-width:1.5;" width="347.9546" x="26" y="338.6406"/><path d="M26,338.6406 L90,338.6406 L90,343.6406 L80,353.6406 L26,353.6406 L26,338.6406" fill="#EEEEEE" style="stroke:#000000;stroke-width:2;"/><text fill="#000000" font-family="Helvetica" font-size="12" font-weight="bold" x="39" y="351.7793">ref</text><text fill="#000000" font-family="Helvetica" font-size="12" font-weight="bold" x="147.5974" y="368.7793">Key Generation</text><text fill="#000000" font-family="Helvetica" font-size="12" x="41.4167" y="382.748">(Client Attestation Key Pair, Client Instance Key Pair)</text><path d="M152.5835,413.5469 L212.5396,413.5469 L212.5396,417.1875 L202.5396,427.1875 L152.5835,427.1875 L152.5835,413.5469" fill="#EEEEEE" style="stroke:#000000;stroke-width:1.5;"/><rect fill="none" height="196.0625" style="stroke:#000000;stroke-width:1.5;" width="753.6528" x="152.5835" y="413.5469"/><text fill="#000000" font-family="Helvetica" font-size="10" font-weight="bold" x="167.5835" y="423.8291">alt</text><text fill="#000000" font-family="Helvetica" font-size="10" font-weight="bold" x="227.5396" y="424.8291">[Client has no valid refresh token]</text><line style="stroke:#000000;stroke-width:1;stroke-dasharray:2.0,2.0;" x1="152.5835" x2="906.2363" y1="548.0313" y2="548.0313"/><text fill="#000000" font-family="Helvetica" font-size="10" font-weight="bold" x="157.5835" y="559.3135">[Client has valid Refresh token]</text><rect fill="#FFFFFF" height="51.9063" style="stroke:#000000;stroke-width:1.5;" width="627.0806" x="170.5835" y="437.1875"/><path d="M170.5835,437.1875 L234.5835,437.1875 L234.5835,442.1875 L224.5835,452.1875 L170.5835,452.1875 L170.5835,437.1875" fill="#EEEEEE" style="stroke:#000000;stroke-width:2;"/><text fill="#000000" font-family="Helvetica" font-size="12" font-weight="bold" x="183.5835" y="450.3262">ref</text><text fill="#000000" font-family="Helvetica" font-size="12" font-weight="bold" x="423.8279" y="467.3262">Token Generation</text><text fill="#000000" font-family="Helvetica" font-size="12" x="203.5154" y="481.2949">(SM(C)-B Access Token JWT, Client Attestation JWT, Client Attestation PoP JWT and DPoP JWT)</text><rect fill="#FFFFFF" height="37.9375" style="stroke:#000000;stroke-width:1.5;" width="717.6528" x="170.5835" y="494.0938"/><path d="M170.5835,494.0938 L234.5835,494.0938 L234.5835,499.0938 L224.5835,509.0938 L170.5835,509.0938 L170.5835,494.0938" fill="#EEEEEE" style="stroke:#000000;stroke-width:2;"/><text fill="#000000" font-family="Helvetica" font-size="12" font-weight="bold" x="183.5835" y="507.2324">ref</text><text fill="#000000" font-family="Helvetica" font-size="12" font-weight="bold" x="474.2937" y="524.2324">Token Exchange</text><rect fill="#FFFFFF" height="37.9375" style="stroke:#000000;stroke-width:1.5;" width="717.6528" x="170.5835" y="566.6719"/><path d="M170.5835,566.6719 L234.5835,566.6719 L234.5835,571.6719 L224.5835,581.6719 L170.5835,581.6719 L170.5835,566.6719" fill="#EEEEEE" style="stroke:#000000;stroke-width:2;"/><text fill="#000000" font-family="Helvetica" font-size="12" font-weight="bold" x="183.5835" y="579.8105">ref</text><text fill="#000000" font-family="Helvetica" font-size="12" font-weight="bold" x="446.0339" y="596.8105">Refresh Token Exchange</text><line style="stroke:#181818;stroke-width:1;" x1="195.0586" x2="237.0586" y1="641.25" y2="641.25"/><line style="stroke:#181818;stroke-width:1;" x1="237.0586" x2="237.0586" y1="641.25" y2="654.25"/><line style="stroke:#181818;stroke-width:1;" x1="196.0586" x2="237.0586" y1="654.25" y2="654.25"/><polygon fill="#181818" points="206.0586,650.25,196.0586,654.25,206.0586,658.25,202.0586,654.25" style="stroke:#181818;stroke-width:1;"/><text fill="#000000" font-family="Helvetica" font-size="10" x="202.0586" y="636.8916">(02)</text><text fill="#000000" font-family="Helvetica" font-size="10" x="226.5859" y="636.8916">Create DPoP Proof for RS</text><polygon fill="#181818" points="583.1768,699.1719,593.1768,703.1719,583.1768,707.1719,587.1768,703.1719" style="stroke:#181818;stroke-width:1;"/><line style="stroke:#181818;stroke-width:1;" x1="195.0586" x2="589.1768" y1="703.1719" y2="703.1719"/><text fill="#000000" font-family="Helvetica" font-size="10" x="202.0586" y="687.1729">(03)</text><text fill="#000000" font-family="Helvetica" font-size="10" x="226.5859" y="675.5322">GET /resource</text><text fill="#000000" font-family="Helvetica" font-size="10" x="232.9434" y="687.1729">Authorization: DPoP ... (Accesss token)</text><text fill="#000000" font-family="Helvetica" font-size="10" x="232.9434" y="698.8135">DPoP: ... (DPoP token)</text><line style="stroke:#181818;stroke-width:1;" x1="605.1768" x2="647.1768" y1="740.4531" y2="740.4531"/><line style="stroke:#181818;stroke-width:1;" x1="647.1768" x2="647.1768" y1="740.4531" y2="753.4531"/><line style="stroke:#181818;stroke-width:1;" x1="606.1768" x2="647.1768" y1="753.4531" y2="753.4531"/><polygon fill="#181818" points="616.1768,749.4531,606.1768,753.4531,616.1768,757.4531,612.1768,753.4531" style="stroke:#181818;stroke-width:1;"/><text fill="#000000" font-family="Helvetica" font-size="10" x="612.1768" y="730.2744">(04)</text><text fill="#000000" font-family="Helvetica" font-size="10" x="636.7041" y="724.4541">verify Access token</text><text fill="#000000" font-family="Helvetica" font-size="10" x="636.7041" y="736.0947">and DPoP Proof</text><polygon fill="#181818" points="938.7681,798.375,948.7681,802.375,938.7681,806.375,942.7681,802.375" style="stroke:#181818;stroke-width:1;"/><line style="stroke:#181818;stroke-width:1;" x1="605.1768" x2="944.7681" y1="802.375" y2="802.375"/><text fill="#000000" font-family="Helvetica" font-size="10" x="612.1768" y="786.376">(05)</text><text fill="#000000" font-family="Helvetica" font-size="10" x="636.7041" y="774.7354">forward GET /resource</text><text fill="#000000" font-family="Helvetica" font-size="10" x="636.7041" y="786.376">with header and</text><text fill="#000000" font-family="Helvetica" font-size="10" x="636.7041" y="798.0166">PEP header as json</text><line style="stroke:#181818;stroke-width:1;" x1="960.7681" x2="1002.7681" y1="851.2969" y2="851.2969"/><line style="stroke:#181818;stroke-width:1;" x1="1002.7681" x2="1002.7681" y1="851.2969" y2="864.2969"/><line style="stroke:#181818;stroke-width:1;" x1="961.7681" x2="1002.7681" y1="864.2969" y2="864.2969"/><polygon fill="#181818" points="971.7681,860.2969,961.7681,864.2969,971.7681,868.2969,967.7681,864.2969" style="stroke:#181818;stroke-width:1;"/><text fill="#000000" font-family="Helvetica" font-size="10" x="967.7681" y="835.2979">(06)</text><text fill="#000000" font-family="Helvetica" font-size="10" x="992.2954" y="823.6572">provide</text><text fill="#000000" font-family="Helvetica" font-size="10" x="992.2954" y="835.2979">resource</text><text fill="#000000" font-family="Helvetica" font-size="10" x="992.2954" y="846.9385">access</text><polygon fill="#181818" points="616.1768,885.9375,606.1768,889.9375,616.1768,893.9375,612.1768,889.9375" style="stroke:#181818;stroke-width:1;"/><line style="stroke:#181818;stroke-width:1;stroke-dasharray:2.0,2.0;" x1="610.1768" x2="949.7681" y1="889.9375" y2="889.9375"/><text fill="#000000" font-family="Helvetica" font-size="10" x="622.1768" y="885.5791">(07)</text><text fill="#000000" font-family="Helvetica" font-size="10" x="646.7041" y="885.5791">200 OK, Resource</text><polygon fill="#181818" points="206.0586,911.5781,196.0586,915.5781,206.0586,919.5781,202.0586,915.5781" style="stroke:#181818;stroke-width:1;"/><line style="stroke:#181818;stroke-width:1;stroke-dasharray:2.0,2.0;" x1="200.0586" x2="594.1768" y1="915.5781" y2="915.5781"/><text fill="#000000" font-family="Helvetica" font-size="10" x="212.0586" y="911.2197">(08)</text><text fill="#000000" font-family="Helvetica" font-size="10" x="236.5859" y="911.2197">200 OK, Resource</text><polygon fill="#181818" points="49.3965,937.2188,39.3965,941.2188,49.3965,945.2188,45.3965,941.2188" style="stroke:#181818;stroke-width:1;"/><line style="stroke:#181818;stroke-width:1;stroke-dasharray:2.0,2.0;" x1="43.3965" x2="184.0586" y1="941.2188" y2="941.2188"/><text fill="#000000" font-family="Helvetica" font-size="10" x="55.3965" y="936.8604">(09)</text><text fill="#000000" font-family="Helvetica" font-size="10" x="79.9238" y="936.8604">Resource</text><!--SRC=[XLN1Sk8u4BtxAtgPmoGf9s5pvB1L1BoGJJ9n0LjJkqNLbc8tM8EHM4c6EDypVx8_jYrBs2R0p2cH-_LJlzVTWXL6YcBzYWew5ztkPIVGAousJB4rfBXWHMv-by9C-Jl2hztJmIziZJ36V8k69wo56JhCinHIRrY2QOqUo49nL2riZc9fidxwhT06X1JOYcdyjq2Hu0GNgEm_zonPBPKiH3gGkLJmDUEcdJ3zcD1ek0jkF_yCQCeSuLNcQV3vDWY2NpQABTSC3CftCAh08EWdXgxzKvE4L_a6dQVeeGEVHfdKnjK2K7sF5L__zrtfKXjS4-A9RL6ab0NW4Nz7ipuCSex2K7pAH5hUAxaJ5GA0oYHJ-OO9ur70jCkQ2vzMGOdM4WOVasRnSvL1VosmWRL1Zr88N5b95jgSf9gBsSFrY1dSiRBp8MlwV5_XfyyNWylh-qwm9tUUzCKhHuEAPCsYmVZBozFBwA-WBNjKC9KUgsxVCOwhA-8edelCc0t4IhwLdIDSlp3Pr4671BL7gVWxCrmAwhBQsZgEikAeIObbpfCI8h7a0W-jSZNF7k3kfWj3yfn6zDEGgTKKsKWXdchMn5KpGKsZdk1S-28EcbKRPYS9hd_pBUvLamKxuj5Wv5om946jGTLa96hFxDK5B35yIuto746WS06I8lv3I5w6pgSUN5qDkKvij0God_PHBFYoK9LVLrS1o-jnoqY6a91KftzuMWauucvuIy7MFDbdJt39jQbvIN1mWjoV-iQWDgvdZrX2pBYTmNtuWNndjADrxB0KwrbO5qJpxhi2L9ND6A70kf1zwE87LuTdBxwikqYtdnErPJcl0DIsZDguydDov1sL6ZOh6DgzyeQs5Cni_XaDVW6XxyR4GV_uEWjF6NlkUonZ6wl6OUWFXphFDpwaJUhLHKPlISR44cs_SurjMvmdavzxSa2xnn_JM-SzVMjx1Whj8bGgwBsG2rZG54scBUWuxi4eci5jirC01wz6p-NVtDp0XJDMku8lBTJ6UYvOmLoaMS9n7D3JvIyYONnHxjjJGMcdzpvN5NhqX7Q8QjtHk_Ynl1qt6MJ8wDV3zeWUh2Ykpng-QIcQwqahFK2USAFabgT4qP2v1wN2-1hlkbruUGphPoL8iSrcosiv_2CqIJ_CtRjE-NP7UoUp_AlrFm00]--></g></svg>