<svg xmlns="http://www.w3.org/2000/svg" xmlns:xlink="http://www.w3.org/1999/xlink" contentStyleType="text/css" data-diagram-type="SEQUENCE" height="293px" preserveAspectRatio="none" style="width:706px;height:293px;background:#FFFFFF;" version="1.1" viewBox="0 0 706 293" width="706px" zoomAndPan="magnify"><defs/><g><g><title>AS</title><rect fill="#FFFFFF" height="29.1328" style="stroke:#181818;stroke-width:1;" width="10" x="426.9131" y="67.4297"/></g><g><title>AS</title><rect fill="#FFFFFF" height="39.6992" style="stroke:#181818;stroke-width:1;" width="10" x="426.9131" y="136.2617"/></g><g><title>RS</title><rect fill="#FFFFFF" height="32.1328" style="stroke:#181818;stroke-width:1;" width="10" x="469.4521" y="208.0938"/></g><g><title>Client</title><rect fill="#000000" fill-opacity="0.00000" height="221.9297" width="8" x="28.2651" y="36.2969"/><line style="stroke:#181818;stroke-width:0.5;stroke-dasharray:5.0,5.0;" x1="32" x2="32" y1="36.2969" y2="258.2266"/></g><g><title>AS</title><rect fill="#000000" fill-opacity="0.00000" height="221.9297" width="8" x="427.9131" y="36.2969"/><line style="stroke:#181818;stroke-width:0.5;stroke-dasharray:5.0,5.0;" x1="431.6812" x2="431.6812" y1="36.2969" y2="258.2266"/></g><g><title>RS</title><rect fill="#000000" fill-opacity="0.00000" height="221.9297" width="8" x="470.4521" y="36.2969"/><line style="stroke:#181818;stroke-width:0.5;stroke-dasharray:5.0,5.0;" x1="474.145" x2="474.145" y1="36.2969" y2="258.2266"/></g><g class="participant participant-head" data-participant="Client"><rect fill="#E2E2F0" height="30.2969" rx="2.5" ry="2.5" style="stroke:#181818;stroke-width:0.5;" width="54.5303" x="5" y="5"/><text fill="#000000" font-family="sans-serif" font-size="14" lengthAdjust="spacing" textLength="40.5303" x="12" y="24.9951">Client</text></g><g class="participant participant-tail" data-participant="Client"><rect fill="#E2E2F0" height="30.2969" rx="2.5" ry="2.5" style="stroke:#181818;stroke-width:0.5;" width="54.5303" x="5" y="257.2266"/><text fill="#000000" font-family="sans-serif" font-size="14" lengthAdjust="spacing" textLength="40.5303" x="12" y="277.2217">Client</text></g><g class="participant participant-head" data-participant="AS"><rect fill="#E2E2F0" height="30.2969" rx="2.5" ry="2.5" style="stroke:#181818;stroke-width:0.5;" width="32.4639" x="415.6812" y="5"/><text fill="#000000" font-family="sans-serif" font-size="14" lengthAdjust="spacing" textLength="18.4639" x="422.6812" y="24.9951">AS</text></g><g class="participant participant-tail" data-participant="AS"><rect fill="#E2E2F0" height="30.2969" rx="2.5" ry="2.5" style="stroke:#181818;stroke-width:0.5;" width="32.4639" x="415.6812" y="257.2266"/><text fill="#000000" font-family="sans-serif" font-size="14" lengthAdjust="spacing" textLength="18.4639" x="422.6812" y="277.2217">AS</text></g><g class="participant participant-head" data-participant="RS"><rect fill="#E2E2F0" height="30.2969" rx="2.5" ry="2.5" style="stroke:#181818;stroke-width:0.5;" width="32.6143" x="458.145" y="5"/><text fill="#000000" font-family="sans-serif" font-size="14" lengthAdjust="spacing" textLength="18.6143" x="465.145" y="24.9951">RS</text></g><g class="participant participant-tail" data-participant="RS"><rect fill="#E2E2F0" height="30.2969" rx="2.5" ry="2.5" style="stroke:#181818;stroke-width:0.5;" width="32.6143" x="458.145" y="257.2266"/><text fill="#000000" font-family="sans-serif" font-size="14" lengthAdjust="spacing" textLength="18.6143" x="465.145" y="277.2217">RS</text></g><g><title>AS</title><rect fill="#FFFFFF" height="29.1328" style="stroke:#181818;stroke-width:1;" width="10" x="426.9131" y="67.4297"/></g><g><title>AS</title><rect fill="#FFFFFF" height="39.6992" style="stroke:#181818;stroke-width:1;" width="10" x="426.9131" y="136.2617"/></g><g><title>RS</title><rect fill="#FFFFFF" height="32.1328" style="stroke:#181818;stroke-width:1;" width="10" x="469.4521" y="208.0938"/></g><g class="message" data-participant-1="Client" data-participant-2="AS"><polygon fill="#181818" points="414.9131,63.4297,424.9131,67.4297,414.9131,71.4297,418.9131,67.4297" style="stroke:#181818;stroke-width:1;"/><line style="stroke:#181818;stroke-width:1;" x1="32.2651" x2="420.9131" y1="67.4297" y2="67.4297"/><text fill="#000000" font-family="sans-serif" font-size="13" lengthAdjust="spacing" textLength="227.9888" x="39.2651" y="62.3638">Clientregistrierung (mit public key)</text></g><g class="message" data-participant-1="AS" data-participant-2="Client"><polygon fill="#181818" points="43.2651,92.5625,33.2651,96.5625,43.2651,100.5625,39.2651,96.5625" style="stroke:#181818;stroke-width:1;"/><line style="stroke:#181818;stroke-width:1;stroke-dasharray:2.0,2.0;" x1="37.2651" x2="430.9131" y1="96.5625" y2="96.5625"/><text fill="#000000" font-family="sans-serif" font-size="13" lengthAdjust="spacing" textLength="54.0693" x="49.2651" y="91.4966">client_id</text></g><g class="message" data-participant-1="Client" data-participant-2="AS"><polygon fill="#181818" points="414.9131,132.2617,424.9131,136.2617,414.9131,140.2617,418.9131,136.2617" style="stroke:#181818;stroke-width:1;"/><line style="stroke:#181818;stroke-width:1;" x1="32.2651" x2="420.9131" y1="136.2617" y2="136.2617"/><text fill="#000000" font-family="sans-serif" font-size="13" lengthAdjust="spacing" textLength="375.6479" x="39.2651" y="131.1958">Token Request mit JWT client_assertion und DPoP Header</text></g><path d="M441,109.5625 L441,149.5625 L699,149.5625 L699,119.5625 L689,109.5625 L441,109.5625" fill="#FEFFDD" style="stroke:#181818;stroke-width:0.5;"/><path d="M689,109.5625 L689,119.5625 L699,119.5625 L689,109.5625" fill="#FEFFDD" style="stroke:#181818;stroke-width:0.5;"/><text fill="#000000" font-family="sans-serif" font-size="13" lengthAdjust="spacing" textLength="153.8799" x="447" y="126.6294">Client Authentifizierung</text><text fill="#000000" font-family="sans-serif" font-size="13" lengthAdjust="spacing" textLength="233.2827" x="451.1323" y="141.7622">mit JWT und Benutzerinformationen</text><g class="message" data-participant-1="AS" data-participant-2="Client"><polygon fill="#181818" points="43.2651,171.9609,33.2651,175.9609,43.2651,179.9609,39.2651,175.9609" style="stroke:#181818;stroke-width:1;"/><line style="stroke:#181818;stroke-width:1;stroke-dasharray:2.0,2.0;" x1="37.2651" x2="430.9131" y1="175.9609" y2="175.9609"/><text fill="#000000" font-family="sans-serif" font-size="13" lengthAdjust="spacing" textLength="206.0449" x="49.2651" y="170.895">Access Token (DPoP gebunden)</text></g><g class="message" data-participant-1="Client" data-participant-2="RS"><polygon fill="#181818" points="457.4521,204.0938,467.4521,208.0938,457.4521,212.0938,461.4521,208.0938" style="stroke:#181818;stroke-width:1;"/><line style="stroke:#181818;stroke-width:1;" x1="32.2651" x2="463.4521" y1="208.0938" y2="208.0938"/><text fill="#000000" font-family="sans-serif" font-size="13" lengthAdjust="spacing" textLength="376.0796" x="39.2651" y="203.0278">Zugriff auf Ressource mit Access Token und DPoP Header</text></g><path d="M484,188.9609 L484,213.9609 L660,213.9609 L660,198.9609 L650,188.9609 L484,188.9609" fill="#FEFFDD" style="stroke:#181818;stroke-width:0.5;"/><path d="M650,188.9609 L650,198.9609 L660,198.9609 L650,188.9609" fill="#FEFFDD" style="stroke:#181818;stroke-width:0.5;"/><text fill="#000000" font-family="sans-serif" font-size="13" lengthAdjust="spacing" textLength="155.8794" x="490" y="206.0278">Zugriffsschutz mit DPoP</text><g class="message" data-participant-1="RS" data-participant-2="Client"><polygon fill="#181818" points="43.2651,236.2266,33.2651,240.2266,43.2651,244.2266,39.2651,240.2266" style="stroke:#181818;stroke-width:1;"/><line style="stroke:#181818;stroke-width:1;stroke-dasharray:2.0,2.0;" x1="37.2651" x2="473.4521" y1="240.2266" y2="240.2266"/><text fill="#000000" font-family="sans-serif" font-size="13" lengthAdjust="spacing" textLength="67.2598" x="49.2651" y="235.1606">Ressource</text></g><!--SRC=[TO_DQWCn38JlVWeTaqDU88V2jZsKde8tK2Y5udZbNP54tjfoeNdwUdyIre6SX2tDDpEz2KAMUiC2BoT25jKllggwUEfQgUaADazvkPqr0LkA4WX3uXPMPnBeq-545exujrR62lqQmG5NrR39sact1JlERsfKWykpEvkzFoA3nf-4KM3Wlt_ihs8J8-QCdY5n0wyxluCtD0s6mfXzde7QJgwfeKhIvKcEBbFqBxwn1zGpSf8B1cBdmzaC5iZt3IfhCSOvuMfqR_6GvSZhnwLqBlMPsa3EWKakLulHfs1n350m7vRIPQaP5wFjSkgHCyYKBlFUd9RXCkeV]--></g></svg>