<svg xmlns="http://www.w3.org/2000/svg" xmlns:xlink="http://www.w3.org/1999/xlink" contentStyleType="text/css" data-diagram-type="SEQUENCE" height="2025px" preserveAspectRatio="none" style="width:1686px;height:2025px;background:#FFFFFF;" version="1.1" viewBox="0 0 1686 2025" width="1686px" zoomAndPan="magnify"><defs/><g><rect fill="#F8F8FF" height="2013.7656" style="stroke:#181818;stroke-width:0.5;" width="441.792" x="78.938" y="6"/><text fill="#000000" font-family="Helvetica" font-size="10" font-weight="bold" x="258.8428" y="15.2822">Mobiles Ger&#228;t</text><rect fill="#C9FFC9" height="2013.7656" style="stroke:#181818;stroke-width:0.5;" width="665.1533" x="986.6465" y="6"/><text fill="#000000" font-family="Helvetica" font-size="10" font-weight="bold" x="1292.624" y="15.2822">Betreiber</text><rect fill="#F4A460" height="1997.125" style="stroke:#181818;stroke-width:0.5;" width="541.9722" x="986.6465" y="22.6406"/><text fill="#000000" font-family="Helvetica" font-size="10" font-weight="bold" x="1228.6897" y="31.9229">ZT Cluster</text><rect fill="#8FBC8F" height="1997.125" style="stroke:#181818;stroke-width:0.5;" width="104.5" x="1547.2998" y="22.6406"/><text fill="#000000" font-family="Helvetica" font-size="10" font-weight="bold" x="1562.0181" y="31.9229">TI 2.0 Dienst</text><rect fill="#FFFFFF" height="74.9219" style="stroke:#FFFFFF;stroke-width:1;" width="410.7666" x="654.3545" y="682.7344"/><rect fill="#FFFFFF" height="177.4844" style="stroke:#FFFFFF;stroke-width:1;" width="1038.1211" x="27" y="812.9375"/><g><title>Nutzer</title><rect fill="#000000" fill-opacity="0.00000" height="1832.2031" width="8" x="39.5" y="109.9219"/><line style="stroke:#181818;stroke-width:0.5;stroke-dasharray:5.0,5.0;" x1="43" x2="43" y1="109.9219" y2="1942.125"/></g><g><title>App</title><rect fill="#000000" fill-opacity="0.00000" height="1832.2031" width="8" x="96.2061" y="109.9219"/><line style="stroke:#181818;stroke-width:0.5;stroke-dasharray:5.0,5.0;" x1="99.7061" x2="99.7061" y1="109.9219" y2="1942.125"/></g><g><title/><rect fill="#FFFFFF" height="1788.5625" style="stroke:#181818;stroke-width:1;" width="10" x="94.7061" y="135.5625"/></g><g><title>Authenticator</title><rect fill="#000000" fill-opacity="0.00000" height="1832.2031" width="8" x="472.0283" y="109.9219"/><line style="stroke:#181818;stroke-width:0.5;stroke-dasharray:5.0,5.0;" x1="475.5283" x2="475.5283" y1="109.9219" y2="1942.125"/></g><g><title/><rect fill="#FFFFFF" height="128.2031" style="stroke:#181818;stroke-width:1;" width="10" x="470.5283" y="854.2188"/></g><g><title>IDP</title><rect fill="#000000" fill-opacity="0.00000" height="1832.2031" width="8" x="666.8545" y="109.9219"/><line style="stroke:#181818;stroke-width:0.5;stroke-dasharray:5.0,5.0;" x1="670.3545" x2="670.3545" y1="109.9219" y2="1942.125"/></g><g><title/><rect fill="#FFFFFF" height="563.7344" style="stroke:#181818;stroke-width:1;" width="10" x="665.3545" y="670.7344"/></g><g><title>PEP</title><rect fill="#000000" fill-opacity="0.00000" height="1832.2031" width="8" x="1045.6211" y="109.9219"/><line style="stroke:#181818;stroke-width:0.5;stroke-dasharray:5.0,5.0;" x1="1049.1211" x2="1049.1211" y1="109.9219" y2="1942.125"/></g><g><title/><rect fill="#FFFFFF" height="1103.9063" style="stroke:#181818;stroke-width:1;" width="10" x="1044.1211" y="520.25"/></g><g><title>PEP</title><rect fill="#000000" fill-opacity="0.00000" height="1832.2031" width="8" x="1341.9463" y="109.9219"/><line style="stroke:#181818;stroke-width:0.5;stroke-dasharray:5.0,5.0;" x1="1345.4463" x2="1345.4463" y1="109.9219" y2="1942.125"/></g><g><title/><rect fill="#FFFFFF" height="25.6406" style="stroke:#181818;stroke-width:1;" width="10" x="1340.4463" y="188.8438"/></g><g><title/><rect fill="#FFFFFF" height="25.6406" style="stroke:#181818;stroke-width:1;" width="10" x="1340.4463" y="269.7656"/></g><g><title/><rect fill="#FFFFFF" height="212.4063" style="stroke:#181818;stroke-width:1;" width="10" x="1340.4463" y="1711.7188"/></g><g><title>PDP</title><rect fill="#000000" fill-opacity="0.00000" height="1832.2031" width="8" x="1504.2383" y="109.9219"/><line style="stroke:#181818;stroke-width:0.5;stroke-dasharray:5.0,5.0;" x1="1507.7383" x2="1507.7383" y1="109.9219" y2="1942.125"/></g><g><title/><rect fill="#FFFFFF" height="25.6406" style="stroke:#181818;stroke-width:1;" width="10" x="1502.7383" y="1534.2344"/></g><g><title>Resource Server</title><rect fill="#000000" fill-opacity="0.00000" height="1832.2031" width="8" x="1596.0498" y="109.9219"/><line style="stroke:#181818;stroke-width:0.5;stroke-dasharray:5.0,5.0;" x1="1599.5498" x2="1599.5498" y1="109.9219" y2="1942.125"/></g><g><title/><rect fill="#FFFFFF" height="87.5625" style="stroke:#181818;stroke-width:1;" width="10" x="1594.5498" y="1810.9219"/></g><text fill="#000000" font-family="Helvetica" font-size="10" x="23.374" y="107.5635">Nutzer</text><ellipse cx="43" cy="46.7813" fill="#E2E2F0" rx="8" ry="8" style="stroke:#181818;stroke-width:0.5;"/><path d="M43,54.7813 L43,81.7813 M30,62.7813 L56,62.7813 M43,81.7813 L30,96.7813 M43,81.7813 L56,96.7813" fill="none" style="stroke:#181818;stroke-width:0.5;"/><rect fill="#8FBC8F" height="25.6406" rx="2.5" ry="2.5" style="stroke:#181818;stroke-width:0.5;" width="33.5361" x="82.938" y="83.2813"/><text fill="#000000" font-family="Helvetica" font-size="10" x="89.938" y="99.5635">App</text><rect fill="#E2E2F0" height="37.2813" rx="2.5" ry="2.5" style="stroke:#181818;stroke-width:0.5;" width="82.4033" x="434.3267" y="71.6406"/><text fill="#000000" font-family="Helvetica" font-size="10" x="441.3267" y="87.9229">Authenticator</text><text fill="#000000" font-family="Helvetica" font-size="10" x="460.4233" y="99.5635">Modul</text><rect fill="#E2E2F0" height="25.6406" rx="2.5" ry="2.5" style="stroke:#181818;stroke-width:0.5;" width="30.6797" x="655.0146" y="83.2813"/><text fill="#000000" font-family="Helvetica" font-size="10" x="662.0146" y="99.5635">IDP</text><rect fill="#E2E2F0" height="37.2813" rx="2.5" ry="2.5" style="stroke:#181818;stroke-width:0.5;" width="116.9492" x="990.6465" y="71.6406"/><text fill="#000000" font-family="Helvetica" font-size="10" x="1039.9316" y="87.9229">PEP</text><text fill="#000000" font-family="Helvetica" font-size="10" x="997.6465" y="99.5635">Authorization Server</text><rect fill="#E2E2F0" height="37.2813" rx="2.5" ry="2.5" style="stroke:#181818;stroke-width:0.5;" width="65.8018" x="1312.5454" y="71.6406"/><text fill="#000000" font-family="Helvetica" font-size="10" x="1336.2568" y="87.9229">PEP</text><text fill="#000000" font-family="Helvetica" font-size="10" x="1319.5454" y="99.5635">http Proxy</text><rect fill="#E2E2F0" height="25.6406" rx="2.5" ry="2.5" style="stroke:#181818;stroke-width:0.5;" width="33.7607" x="1490.8579" y="83.2813"/><text fill="#000000" font-family="Helvetica" font-size="10" x="1497.8579" y="99.5635">PDP</text><rect fill="#E2E2F0" height="25.6406" rx="2.5" ry="2.5" style="stroke:#181818;stroke-width:0.5;" width="96.5" x="1551.2998" y="83.2813"/><text fill="#000000" font-family="Helvetica" font-size="10" x="1558.2998" y="99.5635">Resource Server</text><text fill="#000000" font-family="Helvetica" font-size="10" x="23.374" y="2011.4072">Nutzer</text><ellipse cx="43" cy="1950.625" fill="#E2E2F0" rx="8" ry="8" style="stroke:#181818;stroke-width:0.5;"/><path d="M43,1958.625 L43,1985.625 M30,1966.625 L56,1966.625 M43,1985.625 L30,2000.625 M43,1985.625 L56,2000.625" fill="none" style="stroke:#181818;stroke-width:0.5;"/><rect fill="#8FBC8F" height="25.6406" rx="2.5" ry="2.5" style="stroke:#181818;stroke-width:0.5;" width="33.5361" x="82.938" y="1942.125"/><text fill="#000000" font-family="Helvetica" font-size="10" x="89.938" y="1958.4072">App</text><rect fill="#E2E2F0" height="37.2813" rx="2.5" ry="2.5" style="stroke:#181818;stroke-width:0.5;" width="82.4033" x="434.3267" y="1942.125"/><text fill="#000000" font-family="Helvetica" font-size="10" x="441.3267" y="1958.4072">Authenticator</text><text fill="#000000" font-family="Helvetica" font-size="10" x="460.4233" y="1970.0479">Modul</text><rect fill="#E2E2F0" height="25.6406" rx="2.5" ry="2.5" style="stroke:#181818;stroke-width:0.5;" width="30.6797" x="655.0146" y="1942.125"/><text fill="#000000" font-family="Helvetica" font-size="10" x="662.0146" y="1958.4072">IDP</text><rect fill="#E2E2F0" height="37.2813" rx="2.5" ry="2.5" style="stroke:#181818;stroke-width:0.5;" width="116.9492" x="990.6465" y="1942.125"/><text fill="#000000" font-family="Helvetica" font-size="10" x="1039.9316" y="1958.4072">PEP</text><text fill="#000000" font-family="Helvetica" font-size="10" x="997.6465" y="1970.0479">Authorization Server</text><rect fill="#E2E2F0" height="37.2813" rx="2.5" ry="2.5" style="stroke:#181818;stroke-width:0.5;" width="65.8018" x="1312.5454" y="1942.125"/><text fill="#000000" font-family="Helvetica" font-size="10" x="1336.2568" y="1958.4072">PEP</text><text fill="#000000" font-family="Helvetica" font-size="10" x="1319.5454" y="1970.0479">http Proxy</text><rect fill="#E2E2F0" height="25.6406" rx="2.5" ry="2.5" style="stroke:#181818;stroke-width:0.5;" width="33.7607" x="1490.8579" y="1942.125"/><text fill="#000000" font-family="Helvetica" font-size="10" x="1497.8579" y="1958.4072">PDP</text><rect fill="#E2E2F0" height="25.6406" rx="2.5" ry="2.5" style="stroke:#181818;stroke-width:0.5;" width="96.5" x="1551.2998" y="1942.125"/><text fill="#000000" font-family="Helvetica" font-size="10" x="1558.2998" y="1958.4072">Resource Server</text><polygon fill="#181818" points="82.7061,131.5625,92.7061,135.5625,82.7061,139.5625,86.7061,135.5625" style="stroke:#181818;stroke-width:1;"/><line style="stroke:#181818;stroke-width:1;" x1="43" x2="88.7061" y1="135.5625" y2="135.5625"/><text fill="#000000" font-family="Helvetica" font-size="10" x="50" y="131.2041">(01)</text><text fill="#000000" font-family="Helvetica" font-size="10" x="74.5273" y="131.2041">&#160;</text><path d="M83.7061,147.5625 L143.6621,147.5625 L143.6621,151.2031 L133.6621,161.2031 L83.7061,161.2031 L83.7061,147.5625" fill="#EEEEEE" style="stroke:#000000;stroke-width:1.5;"/><rect fill="none" height="155.8438" style="stroke:#000000;stroke-width:1.5;" width="1282.7402" x="83.7061" y="147.5625"/><text fill="#000000" font-family="Helvetica" font-size="10" font-weight="bold" x="98.7061" y="157.8447">alt</text><text fill="#000000" font-family="Helvetica" font-size="10" font-weight="bold" x="158.6621" y="158.8447">[App has no Authorization Server FQDN]</text><line style="stroke:#000000;stroke-width:1;stroke-dasharray:2.0,2.0;" x1="83.7061" x2="1366.4463" y1="233.4844" y2="233.4844"/><text fill="#000000" font-family="Helvetica" font-size="10" font-weight="bold" x="88.7061" y="244.7666">[App has Authorization Server FQDN]</text><polygon fill="#181818" points="1328.4463,184.8438,1338.4463,188.8438,1328.4463,192.8438,1332.4463,188.8438" style="stroke:#181818;stroke-width:1;"/><line style="stroke:#181818;stroke-width:1;" x1="104.7061" x2="1334.4463" y1="188.8438" y2="188.8438"/><text fill="#000000" font-family="Helvetica" font-size="10" x="111.7061" y="184.4854">(02)</text><text fill="#000000" font-family="Helvetica" font-size="10" x="136.2334" y="184.4854">GET /resource</text><polygon fill="#181818" points="115.7061,210.4844,105.7061,214.4844,115.7061,218.4844,111.7061,214.4844" style="stroke:#181818;stroke-width:1;"/><line style="stroke:#181818;stroke-width:1;stroke-dasharray:2.0,2.0;" x1="109.7061" x2="1339.4463" y1="214.4844" y2="214.4844"/><text fill="#000000" font-family="Helvetica" font-size="10" x="121.7061" y="210.126">(03)</text><text fill="#000000" font-family="Helvetica" font-size="10" x="146.2334" y="210.126">401 Unauthorized; json body with Well-Known json Document (RFC8414)</text><polygon fill="#181818" points="1328.4463,265.7656,1338.4463,269.7656,1328.4463,273.7656,1332.4463,269.7656" style="stroke:#181818;stroke-width:1;"/><line style="stroke:#181818;stroke-width:1;" x1="104.7061" x2="1334.4463" y1="269.7656" y2="269.7656"/><text fill="#000000" font-family="Helvetica" font-size="10" x="111.7061" y="265.4072">(04)</text><text fill="#000000" font-family="Helvetica" font-size="10" x="136.2334" y="265.4072">GET /.well-known/oauth-authorization-server&#160;</text><polygon fill="#181818" points="115.7061,291.4063,105.7061,295.4063,115.7061,299.4063,111.7061,295.4063" style="stroke:#181818;stroke-width:1;"/><line style="stroke:#181818;stroke-width:1;stroke-dasharray:2.0,2.0;" x1="109.7061" x2="1339.4463" y1="295.4063" y2="295.4063"/><text fill="#000000" font-family="Helvetica" font-size="10" x="121.7061" y="291.0479">(05)</text><text fill="#000000" font-family="Helvetica" font-size="10" x="146.2334" y="291.0479">200 OK; json body with Well-Known json Document (RFC8414)</text><path d="M83.7061,321.4063 L143.6621,321.4063 L143.6621,325.0469 L133.6621,335.0469 L83.7061,335.0469 L83.7061,321.4063" fill="#EEEEEE" style="stroke:#000000;stroke-width:1.5;"/><rect fill="none" height="62.2813" style="stroke:#000000;stroke-width:1.5;" width="245.4141" x="83.7061" y="321.4063"/><text fill="#000000" font-family="Helvetica" font-size="10" font-weight="bold" x="98.7061" y="331.6885">alt</text><text fill="#000000" font-family="Helvetica" font-size="10" font-weight="bold" x="158.6621" y="332.6885">[App has no DPoP key pair]</text><line style="stroke:#181818;stroke-width:1;" x1="104.7061" x2="146.7061" y1="362.6875" y2="362.6875"/><line style="stroke:#181818;stroke-width:1;" x1="146.7061" x2="146.7061" y1="362.6875" y2="375.6875"/><line style="stroke:#181818;stroke-width:1;" x1="105.7061" x2="146.7061" y1="375.6875" y2="375.6875"/><polygon fill="#181818" points="115.7061,371.6875,105.7061,375.6875,115.7061,379.6875,111.7061,375.6875" style="stroke:#181818;stroke-width:1;"/><text fill="#000000" font-family="Helvetica" font-size="10" x="111.7061" y="358.3291">(06)</text><text fill="#000000" font-family="Helvetica" font-size="10" x="136.2334" y="358.3291">generate DPoP key pair</text><path d="M8,401.6875 L67.9561,401.6875 L67.9561,405.3281 L57.9561,415.3281 L8,415.3281 L8,401.6875" fill="#EEEEEE" style="stroke:#000000;stroke-width:1.5;"/><rect fill="none" height="1100.9063" style="stroke:#000000;stroke-width:1.5;" width="1281.5127" x="8" y="401.6875"/><text fill="#000000" font-family="Helvetica" font-size="10" font-weight="bold" x="23" y="411.9697">alt</text><text fill="#000000" font-family="Helvetica" font-size="10" font-weight="bold" x="82.9561" y="412.9697">[App has no valid refresh token]</text><line style="stroke:#000000;stroke-width:1;stroke-dasharray:2.0,2.0;" x1="8" x2="1289.5127" y1="1330.75" y2="1330.75"/><text fill="#000000" font-family="Helvetica" font-size="10" font-weight="bold" x="13" y="1342.0322">[App has valid Refresh token]</text><line style="stroke:#181818;stroke-width:1;" x1="104.7061" x2="146.7061" y1="442.9688" y2="442.9688"/><line style="stroke:#181818;stroke-width:1;" x1="146.7061" x2="146.7061" y1="442.9688" y2="455.9688"/><line style="stroke:#181818;stroke-width:1;" x1="105.7061" x2="146.7061" y1="455.9688" y2="455.9688"/><polygon fill="#181818" points="115.7061,451.9688,105.7061,455.9688,115.7061,459.9688,111.7061,455.9688" style="stroke:#181818;stroke-width:1;"/><text fill="#000000" font-family="Helvetica" font-size="10" x="111.7061" y="438.6104">(07)</text><text fill="#000000" font-family="Helvetica" font-size="10" x="136.2334" y="438.6104">Retrieve IDP list (from /idp.app.ti-dienste.de/directory/fed_idp_list)</text><line style="stroke:#181818;stroke-width:1;" x1="104.7061" x2="146.7061" y1="481.6094" y2="481.6094"/><line style="stroke:#181818;stroke-width:1;" x1="146.7061" x2="146.7061" y1="481.6094" y2="494.6094"/><line style="stroke:#181818;stroke-width:1;" x1="105.7061" x2="146.7061" y1="494.6094" y2="494.6094"/><polygon fill="#181818" points="115.7061,490.6094,105.7061,494.6094,115.7061,498.6094,111.7061,494.6094" style="stroke:#181818;stroke-width:1;"/><text fill="#000000" font-family="Helvetica" font-size="10" x="111.7061" y="477.251">(08)</text><text fill="#000000" font-family="Helvetica" font-size="10" x="136.2334" y="477.251">Select IDP</text><polygon fill="#181818" points="1032.1211,516.25,1042.1211,520.25,1032.1211,524.25,1036.1211,520.25" style="stroke:#181818;stroke-width:1;"/><line style="stroke:#181818;stroke-width:1;" x1="104.7061" x2="1038.1211" y1="520.25" y2="520.25"/><text fill="#000000" font-family="Helvetica" font-size="10" x="111.7061" y="515.8916">(09)</text><text fill="#000000" font-family="Helvetica" font-size="10" x="136.2334" y="515.8916">GET /nonce</text><polygon fill="#181818" points="115.7061,541.8906,105.7061,545.8906,115.7061,549.8906,111.7061,545.8906" style="stroke:#181818;stroke-width:1;"/><line style="stroke:#181818;stroke-width:1;stroke-dasharray:2.0,2.0;" x1="109.7061" x2="1043.1211" y1="545.8906" y2="545.8906"/><text fill="#000000" font-family="Helvetica" font-size="10" x="121.7061" y="541.5322">(10)</text><text fill="#000000" font-family="Helvetica" font-size="10" x="146.2334" y="541.5322">return 200 OK new-nonce: nonce</text><line style="stroke:#181818;stroke-width:1;" x1="104.7061" x2="146.7061" y1="571.5313" y2="571.5313"/><line style="stroke:#181818;stroke-width:1;" x1="146.7061" x2="146.7061" y1="571.5313" y2="584.5313"/><line style="stroke:#181818;stroke-width:1;" x1="105.7061" x2="146.7061" y1="584.5313" y2="584.5313"/><polygon fill="#181818" points="115.7061,580.5313,105.7061,584.5313,115.7061,588.5313,111.7061,584.5313" style="stroke:#181818;stroke-width:1;"/><text fill="#000000" font-family="Helvetica" font-size="10" x="111.7061" y="567.1729">(11)</text><text fill="#000000" font-family="Helvetica" font-size="10" x="136.2334" y="567.1729">Create DPoP JWT with nonce</text><polygon fill="#181818" points="1032.1211,617.8125,1042.1211,621.8125,1032.1211,625.8125,1036.1211,621.8125" style="stroke:#181818;stroke-width:1;"/><line style="stroke:#181818;stroke-width:1;" x1="104.7061" x2="1038.1211" y1="621.8125" y2="621.8125"/><text fill="#000000" font-family="Helvetica" font-size="10" x="111.7061" y="611.6338">(12)</text><text fill="#000000" font-family="Helvetica" font-size="10" x="136.2334" y="605.8135">GET /auth (selected_idp)</text><text fill="#000000" font-family="Helvetica" font-size="10" x="142.5908" y="617.4541">DPoP: ... (DPoP JWT)</text><polygon fill="#181818" points="686.3545,666.7344,676.3545,670.7344,686.3545,674.7344,682.3545,670.7344" style="stroke:#181818;stroke-width:1;"/><line style="stroke:#181818;stroke-width:1;" x1="680.3545" x2="1043.1211" y1="670.7344" y2="670.7344"/><text fill="#000000" font-family="Helvetica" font-size="10" x="692.3545" y="654.7354">(13)</text><text fill="#000000" font-family="Helvetica" font-size="10" x="716.8818" y="643.0947">POST /par (App_id, state, redirect_uri</text><text fill="#000000" font-family="Helvetica" font-size="10" x="716.8818" y="654.7354">code_challenge, code_challenge_method, response_type=code,</text><text fill="#000000" font-family="Helvetica" font-size="10" x="716.8818" y="666.376">nonce, scope, acr_values)</text><path d="M654.3545,682.7344 L714.3105,682.7344 L714.3105,686.375 L704.3105,696.375 L654.3545,696.375 L654.3545,682.7344" fill="#EEEEEE" style="stroke:#000000;stroke-width:1.5;"/><rect fill="none" height="74.9219" style="stroke:#000000;stroke-width:1.5;" width="410.7666" x="654.3545" y="682.7344"/><text fill="#000000" font-family="Helvetica" font-size="10" font-weight="bold" x="669.3545" y="693.0166">alt</text><text fill="#000000" font-family="Helvetica" font-size="10" font-weight="bold" x="729.3105" y="694.0166">[AS Entity statement is unknown]</text><polygon fill="#181818" points="1032.1211,720.0156,1042.1211,724.0156,1032.1211,728.0156,1036.1211,724.0156" style="stroke:#181818;stroke-width:1;"/><line style="stroke:#181818;stroke-width:1;" x1="675.3545" x2="1038.1211" y1="724.0156" y2="724.0156"/><text fill="#000000" font-family="Helvetica" font-size="10" x="682.3545" y="719.6572">(14)</text><text fill="#000000" font-family="Helvetica" font-size="10" x="706.8818" y="719.6572">GET /.well-known/openid-federation</text><polygon fill="#181818" points="686.3545,745.6563,676.3545,749.6563,686.3545,753.6563,682.3545,749.6563" style="stroke:#181818;stroke-width:1;"/><line style="stroke:#181818;stroke-width:1;stroke-dasharray:2.0,2.0;" x1="680.3545" x2="1043.1211" y1="749.6563" y2="749.6563"/><text fill="#000000" font-family="Helvetica" font-size="10" x="692.3545" y="745.2979">(15)</text><text fill="#000000" font-family="Helvetica" font-size="10" x="716.8818" y="745.2979">200 OK, (Entity statement)</text><polygon fill="#181818" points="1032.1211,796.9375,1042.1211,800.9375,1032.1211,804.9375,1036.1211,800.9375" style="stroke:#181818;stroke-width:1;"/><line style="stroke:#181818;stroke-width:1;stroke-dasharray:2.0,2.0;" x1="675.3545" x2="1038.1211" y1="800.9375" y2="800.9375"/><text fill="#000000" font-family="Helvetica" font-size="10" x="682.3545" y="790.7588">(16)</text><text fill="#000000" font-family="Helvetica" font-size="10" x="706.8818" y="784.9385">200 OK,</text><text fill="#000000" font-family="Helvetica" font-size="10" x="706.8818" y="796.5791">(request_uri, expires_in)</text><path d="M27,812.9375 L257.5469,812.9375 L257.5469,816.5781 L247.5469,826.5781 L27,826.5781 L27,812.9375" fill="#EEEEEE" style="stroke:#000000;stroke-width:1.5;"/><rect fill="none" height="177.4844" style="stroke:#000000;stroke-width:1.5;" width="1038.1211" x="27" y="812.9375"/><text fill="#000000" font-family="Helvetica" font-size="10" font-weight="bold" x="42" y="823.2197">User Authentication and consent</text><polygon fill="#181818" points="491.5283,850.2188,481.5283,854.2188,491.5283,858.2188,487.5283,854.2188" style="stroke:#181818;stroke-width:1;"/><line style="stroke:#181818;stroke-width:1;stroke-dasharray:2.0,2.0;" x1="485.5283" x2="1043.1211" y1="854.2188" y2="854.2188"/><text fill="#000000" font-family="Helvetica" font-size="10" x="497.5283" y="849.8604">(17)</text><text fill="#000000" font-family="Helvetica" font-size="10" x="522.0557" y="849.8604">302 Redirect (location: IDP authorization_endpoint, request_uri)</text><polygon fill="#181818" points="653.3545,875.8594,663.3545,879.8594,653.3545,883.8594,657.3545,879.8594" style="stroke:#181818;stroke-width:1;"/><line style="stroke:#181818;stroke-width:1;" x1="480.5283" x2="659.3545" y1="879.8594" y2="879.8594"/><text fill="#000000" font-family="Helvetica" font-size="10" x="487.5283" y="875.501">(18)</text><text fill="#000000" font-family="Helvetica" font-size="10" x="512.0557" y="875.501">GET /authorize (request_uri)</text><polygon fill="#181818" points="491.5283,901.5,481.5283,905.5,491.5283,909.5,487.5283,905.5" style="stroke:#181818;stroke-width:1;"/><line style="stroke:#181818;stroke-width:1;" x1="485.5283" x2="664.3545" y1="905.5" y2="905.5"/><text fill="#000000" font-family="Helvetica" font-size="10" x="497.5283" y="901.1416">(19)</text><text fill="#000000" font-family="Helvetica" font-size="10" x="522.0557" y="901.1416">Challenge (Consent page)</text><polygon fill="#181818" points="54,927.1406,44,931.1406,54,935.1406,50,931.1406" style="stroke:#181818;stroke-width:1;"/><line style="stroke:#181818;stroke-width:1;" x1="48" x2="469.5283" y1="931.1406" y2="931.1406"/><text fill="#000000" font-family="Helvetica" font-size="10" x="60" y="926.7822">(20)</text><text fill="#000000" font-family="Helvetica" font-size="10" x="84.5273" y="926.7822">Authentication and confirmation</text><polygon fill="#181818" points="458.5283,952.7813,468.5283,956.7813,458.5283,960.7813,462.5283,956.7813" style="stroke:#181818;stroke-width:1;"/><line style="stroke:#181818;stroke-width:1;stroke-dasharray:2.0,2.0;" x1="43" x2="464.5283" y1="956.7813" y2="956.7813"/><text fill="#000000" font-family="Helvetica" font-size="10" x="50" y="952.4229">(21)</text><text fill="#000000" font-family="Helvetica" font-size="10" x="74.5273" y="952.4229">&#160;</text><polygon fill="#181818" points="653.3545,978.4219,663.3545,982.4219,653.3545,986.4219,657.3545,982.4219" style="stroke:#181818;stroke-width:1;"/><line style="stroke:#181818;stroke-width:1;stroke-dasharray:2.0,2.0;" x1="480.5283" x2="659.3545" y1="982.4219" y2="982.4219"/><text fill="#000000" font-family="Helvetica" font-size="10" x="487.5283" y="978.0635">(22)</text><text fill="#000000" font-family="Helvetica" font-size="10" x="512.0557" y="978.0635">Challenge response</text><polygon fill="#181818" points="115.7061,1018.0625,105.7061,1022.0625,115.7061,1026.0625,111.7061,1022.0625" style="stroke:#181818;stroke-width:1;"/><line style="stroke:#181818;stroke-width:1;stroke-dasharray:2.0,2.0;" x1="109.7061" x2="664.3545" y1="1022.0625" y2="1022.0625"/><text fill="#000000" font-family="Helvetica" font-size="10" x="121.7061" y="1017.7041">(23)</text><text fill="#000000" font-family="Helvetica" font-size="10" x="146.2334" y="1017.7041">302 Redirect, (location: /app/op-intermediary-callback, code, state)</text><line style="stroke:#181818;stroke-width:1;" x1="104.7061" x2="146.7061" y1="1047.7031" y2="1047.7031"/><line style="stroke:#181818;stroke-width:1;" x1="146.7061" x2="146.7061" y1="1047.7031" y2="1060.7031"/><line style="stroke:#181818;stroke-width:1;" x1="105.7061" x2="146.7061" y1="1060.7031" y2="1060.7031"/><polygon fill="#181818" points="115.7061,1056.7031,105.7061,1060.7031,115.7061,1064.7031,111.7061,1060.7031" style="stroke:#181818;stroke-width:1;"/><text fill="#000000" font-family="Helvetica" font-size="10" x="111.7061" y="1043.3447">(24)</text><text fill="#000000" font-family="Helvetica" font-size="10" x="136.2334" y="1043.3447">create DPoP JWT with nonce</text><polygon fill="#181818" points="1032.1211,1105.625,1042.1211,1109.625,1032.1211,1113.625,1036.1211,1109.625" style="stroke:#181818;stroke-width:1;"/><line style="stroke:#181818;stroke-width:1;" x1="104.7061" x2="1038.1211" y1="1109.625" y2="1109.625"/><text fill="#000000" font-family="Helvetica" font-size="10" x="111.7061" y="1093.626">(25)</text><text fill="#000000" font-family="Helvetica" font-size="10" x="136.2334" y="1081.9854">POST /token</text><text fill="#000000" font-family="Helvetica" font-size="10" x="142.5908" y="1093.626">DPoP: eyJ... (DPoP JWT)</text><text fill="#000000" font-family="Helvetica" font-size="10" x="142.5908" y="1105.2666">(code, state)</text><line style="stroke:#181818;stroke-width:1;" x1="1054.1211" x2="1096.1211" y1="1135.2656" y2="1135.2656"/><line style="stroke:#181818;stroke-width:1;" x1="1096.1211" x2="1096.1211" y1="1135.2656" y2="1148.2656"/><line style="stroke:#181818;stroke-width:1;" x1="1055.1211" x2="1096.1211" y1="1148.2656" y2="1148.2656"/><polygon fill="#181818" points="1065.1211,1144.2656,1055.1211,1148.2656,1065.1211,1152.2656,1061.1211,1148.2656" style="stroke:#181818;stroke-width:1;"/><text fill="#000000" font-family="Helvetica" font-size="10" x="1061.1211" y="1130.9072">(26)</text><text fill="#000000" font-family="Helvetica" font-size="10" x="1085.6484" y="1130.9072">verify state and DPoP JWT</text><polygon fill="#181818" points="686.3545,1204.8281,676.3545,1208.8281,686.3545,1212.8281,682.3545,1208.8281" style="stroke:#181818;stroke-width:1;"/><line style="stroke:#181818;stroke-width:1;" x1="680.3545" x2="1043.1211" y1="1208.8281" y2="1208.8281"/><text fill="#000000" font-family="Helvetica" font-size="10" x="692.3545" y="1187.0088">(27)</text><text fill="#000000" font-family="Helvetica" font-size="10" x="716.8818" y="1169.5479">POST /token</text><text fill="#000000" font-family="Helvetica" font-size="10" x="723.2393" y="1181.1885">Authorization: Basic ... (App_id + App_secret)</text><text fill="#000000" font-family="Helvetica" font-size="10" x="723.2393" y="1192.8291">(authorization_code=code, grant_type=authoriz-ation_code,</text><text fill="#000000" font-family="Helvetica" font-size="10" x="723.2393" y="1204.4697">redirect_uri, code_verifier=...)</text><polygon fill="#181818" points="1032.1211,1230.4688,1042.1211,1234.4688,1032.1211,1238.4688,1036.1211,1234.4688" style="stroke:#181818;stroke-width:1;"/><line style="stroke:#181818;stroke-width:1;stroke-dasharray:2.0,2.0;" x1="675.3545" x2="1038.1211" y1="1234.4688" y2="1234.4688"/><text fill="#000000" font-family="Helvetica" font-size="10" x="682.3545" y="1230.1104">(28)</text><text fill="#000000" font-family="Helvetica" font-size="10" x="706.8818" y="1230.1104">200 OK, (id_token, expires_in)</text><line style="stroke:#181818;stroke-width:1;" x1="1054.1211" x2="1096.1211" y1="1260.1094" y2="1260.1094"/><line style="stroke:#181818;stroke-width:1;" x1="1096.1211" x2="1096.1211" y1="1260.1094" y2="1273.1094"/><line style="stroke:#181818;stroke-width:1;" x1="1055.1211" x2="1096.1211" y1="1273.1094" y2="1273.1094"/><polygon fill="#181818" points="1065.1211,1269.1094,1055.1211,1273.1094,1065.1211,1277.1094,1061.1211,1273.1094" style="stroke:#181818;stroke-width:1;"/><text fill="#000000" font-family="Helvetica" font-size="10" x="1061.1211" y="1255.751">(29)</text><text fill="#000000" font-family="Helvetica" font-size="10" x="1085.6484" y="1255.751">verify id_token</text><line style="stroke:#181818;stroke-width:1;" x1="1054.1211" x2="1096.1211" y1="1298.75" y2="1298.75"/><line style="stroke:#181818;stroke-width:1;" x1="1096.1211" x2="1096.1211" y1="1298.75" y2="1311.75"/><line style="stroke:#181818;stroke-width:1;" x1="1055.1211" x2="1096.1211" y1="1311.75" y2="1311.75"/><polygon fill="#181818" points="1065.1211,1307.75,1055.1211,1311.75,1065.1211,1315.75,1061.1211,1311.75" style="stroke:#181818;stroke-width:1;"/><text fill="#000000" font-family="Helvetica" font-size="10" x="1061.1211" y="1294.3916">(30)</text><text fill="#000000" font-family="Helvetica" font-size="10" x="1085.6484" y="1294.3916">Create state for Identity/App/Device</text><line style="stroke:#181818;stroke-width:1;" x1="104.7061" x2="146.7061" y1="1367.0313" y2="1367.0313"/><line style="stroke:#181818;stroke-width:1;" x1="146.7061" x2="146.7061" y1="1367.0313" y2="1380.0313"/><line style="stroke:#181818;stroke-width:1;" x1="105.7061" x2="146.7061" y1="1380.0313" y2="1380.0313"/><polygon fill="#181818" points="115.7061,1376.0313,105.7061,1380.0313,115.7061,1384.0313,111.7061,1380.0313" style="stroke:#181818;stroke-width:1;"/><text fill="#000000" font-family="Helvetica" font-size="10" x="111.7061" y="1362.6729">(31)</text><text fill="#000000" font-family="Helvetica" font-size="10" x="136.2334" y="1362.6729">create DPoP JWT without nonce</text><polygon fill="#181818" points="1032.1211,1413.3125,1042.1211,1417.3125,1032.1211,1421.3125,1036.1211,1417.3125" style="stroke:#181818;stroke-width:1;"/><line style="stroke:#181818;stroke-width:1;" x1="104.7061" x2="1038.1211" y1="1417.3125" y2="1417.3125"/><text fill="#000000" font-family="Helvetica" font-size="10" x="111.7061" y="1407.1338">(32)</text><text fill="#000000" font-family="Helvetica" font-size="10" x="136.2334" y="1401.3135">POST /token</text><text fill="#000000" font-family="Helvetica" font-size="10" x="142.5908" y="1412.9541">(Refresh token and DPoP JWT)</text><line style="stroke:#181818;stroke-width:1;" x1="1054.1211" x2="1096.1211" y1="1442.9531" y2="1442.9531"/><line style="stroke:#181818;stroke-width:1;" x1="1096.1211" x2="1096.1211" y1="1442.9531" y2="1455.9531"/><line style="stroke:#181818;stroke-width:1;" x1="1055.1211" x2="1096.1211" y1="1455.9531" y2="1455.9531"/><polygon fill="#181818" points="1065.1211,1451.9531,1055.1211,1455.9531,1065.1211,1459.9531,1061.1211,1455.9531" style="stroke:#181818;stroke-width:1;"/><text fill="#000000" font-family="Helvetica" font-size="10" x="1061.1211" y="1438.5947">(33)</text><text fill="#000000" font-family="Helvetica" font-size="10" x="1085.6484" y="1438.5947">verify Refresh token and DPoP JWT</text><line style="stroke:#181818;stroke-width:1;" x1="1054.1211" x2="1096.1211" y1="1481.5938" y2="1481.5938"/><line style="stroke:#181818;stroke-width:1;" x1="1096.1211" x2="1096.1211" y1="1481.5938" y2="1494.5938"/><line style="stroke:#181818;stroke-width:1;" x1="1055.1211" x2="1096.1211" y1="1494.5938" y2="1494.5938"/><polygon fill="#181818" points="1065.1211,1490.5938,1055.1211,1494.5938,1065.1211,1498.5938,1061.1211,1494.5938" style="stroke:#181818;stroke-width:1;"/><text fill="#000000" font-family="Helvetica" font-size="10" x="1061.1211" y="1477.2354">(34)</text><text fill="#000000" font-family="Helvetica" font-size="10" x="1085.6484" y="1477.2354">invalidate Refresh token</text><polygon fill="#181818" points="1490.7383,1530.2344,1500.7383,1534.2344,1490.7383,1538.2344,1494.7383,1534.2344" style="stroke:#181818;stroke-width:1;"/><line style="stroke:#181818;stroke-width:1;" x1="1054.1211" x2="1496.7383" y1="1534.2344" y2="1534.2344"/><text fill="#000000" font-family="Helvetica" font-size="10" x="1061.1211" y="1529.876">(35)</text><text fill="#000000" font-family="Helvetica" font-size="10" x="1085.6484" y="1529.876">POST /v1/data/authz, json body {  "input": {...}}</text><polygon fill="#181818" points="1065.1211,1555.875,1055.1211,1559.875,1065.1211,1563.875,1061.1211,1559.875" style="stroke:#181818;stroke-width:1;"/><line style="stroke:#181818;stroke-width:1;stroke-dasharray:2.0,2.0;" x1="1059.1211" x2="1501.7383" y1="1559.875" y2="1559.875"/><text fill="#000000" font-family="Helvetica" font-size="10" x="1071.1211" y="1555.5166">(36)</text><text fill="#000000" font-family="Helvetica" font-size="10" x="1095.6484" y="1555.5166">200 OK, json body {"result": {"allow": true, ...}}</text><line style="stroke:#181818;stroke-width:1;" x1="1054.1211" x2="1096.1211" y1="1585.5156" y2="1585.5156"/><line style="stroke:#181818;stroke-width:1;" x1="1096.1211" x2="1096.1211" y1="1585.5156" y2="1598.5156"/><line style="stroke:#181818;stroke-width:1;" x1="1055.1211" x2="1096.1211" y1="1598.5156" y2="1598.5156"/><polygon fill="#181818" points="1065.1211,1594.5156,1055.1211,1598.5156,1065.1211,1602.5156,1061.1211,1598.5156" style="stroke:#181818;stroke-width:1;"/><text fill="#000000" font-family="Helvetica" font-size="10" x="1061.1211" y="1581.1572">(37)</text><text fill="#000000" font-family="Helvetica" font-size="10" x="1085.6484" y="1581.1572">issue Access and Refresh token with DPoP Binding</text><polygon fill="#181818" points="115.7061,1620.1563,105.7061,1624.1563,115.7061,1628.1563,111.7061,1624.1563" style="stroke:#181818;stroke-width:1;"/><line style="stroke:#181818;stroke-width:1;stroke-dasharray:2.0,2.0;" x1="109.7061" x2="1043.1211" y1="1624.1563" y2="1624.1563"/><text fill="#000000" font-family="Helvetica" font-size="10" x="121.7061" y="1619.7979">(38)</text><text fill="#000000" font-family="Helvetica" font-size="10" x="146.2334" y="1619.7979">200 OK, Access token, Refresh token, bound to DPoP</text><line style="stroke:#181818;stroke-width:1;" x1="104.7061" x2="146.7061" y1="1649.7969" y2="1649.7969"/><line style="stroke:#181818;stroke-width:1;" x1="146.7061" x2="146.7061" y1="1649.7969" y2="1662.7969"/><line style="stroke:#181818;stroke-width:1;" x1="105.7061" x2="146.7061" y1="1662.7969" y2="1662.7969"/><polygon fill="#181818" points="115.7061,1658.7969,105.7061,1662.7969,115.7061,1666.7969,111.7061,1662.7969" style="stroke:#181818;stroke-width:1;"/><text fill="#000000" font-family="Helvetica" font-size="10" x="111.7061" y="1645.4385">(39)</text><text fill="#000000" font-family="Helvetica" font-size="10" x="136.2334" y="1645.4385">Create DPoP Proof for RS</text><polygon fill="#181818" points="1328.4463,1707.7188,1338.4463,1711.7188,1328.4463,1715.7188,1332.4463,1711.7188" style="stroke:#181818;stroke-width:1;"/><line style="stroke:#181818;stroke-width:1;" x1="104.7061" x2="1334.4463" y1="1711.7188" y2="1711.7188"/><text fill="#000000" font-family="Helvetica" font-size="10" x="111.7061" y="1695.7197">(40)</text><text fill="#000000" font-family="Helvetica" font-size="10" x="136.2334" y="1684.0791">GET /resource</text><text fill="#000000" font-family="Helvetica" font-size="10" x="142.5908" y="1695.7197">Authorization: DPoP ... (Accesss token)</text><text fill="#000000" font-family="Helvetica" font-size="10" x="142.5908" y="1707.3604">DPoP: ... (DPoP token)</text><line style="stroke:#181818;stroke-width:1;" x1="1350.4463" x2="1392.4463" y1="1749" y2="1749"/><line style="stroke:#181818;stroke-width:1;" x1="1392.4463" x2="1392.4463" y1="1749" y2="1762"/><line style="stroke:#181818;stroke-width:1;" x1="1351.4463" x2="1392.4463" y1="1762" y2="1762"/><polygon fill="#181818" points="1361.4463,1758,1351.4463,1762,1361.4463,1766,1357.4463,1762" style="stroke:#181818;stroke-width:1;"/><text fill="#000000" font-family="Helvetica" font-size="10" x="1357.4463" y="1738.8213">(41)</text><text fill="#000000" font-family="Helvetica" font-size="10" x="1381.9736" y="1733.001">verify access token and</text><text fill="#000000" font-family="Helvetica" font-size="10" x="1381.9736" y="1744.6416">DPoP Binding</text><polygon fill="#181818" points="1582.5498,1806.9219,1592.5498,1810.9219,1582.5498,1814.9219,1586.5498,1810.9219" style="stroke:#181818;stroke-width:1;"/><line style="stroke:#181818;stroke-width:1;" x1="1350.4463" x2="1588.5498" y1="1810.9219" y2="1810.9219"/><text fill="#000000" font-family="Helvetica" font-size="10" x="1357.4463" y="1794.9229">(42)</text><text fill="#000000" font-family="Helvetica" font-size="10" x="1381.9736" y="1783.2822">forward GET //resource</text><text fill="#000000" font-family="Helvetica" font-size="10" x="1388.3311" y="1794.9229">Authorization: DPoP ... (Accesss token)</text><text fill="#000000" font-family="Helvetica" font-size="10" x="1388.3311" y="1806.5635">DPoP: ... (DPoP token)</text><line style="stroke:#181818;stroke-width:1;" x1="1604.5498" x2="1646.5498" y1="1859.8438" y2="1859.8438"/><line style="stroke:#181818;stroke-width:1;" x1="1646.5498" x2="1646.5498" y1="1859.8438" y2="1872.8438"/><line style="stroke:#181818;stroke-width:1;" x1="1605.5498" x2="1646.5498" y1="1872.8438" y2="1872.8438"/><polygon fill="#181818" points="1615.5498,1868.8438,1605.5498,1872.8438,1615.5498,1876.8438,1611.5498,1872.8438" style="stroke:#181818;stroke-width:1;"/><text fill="#000000" font-family="Helvetica" font-size="10" x="1611.5498" y="1843.8447">(43)</text><text fill="#000000" font-family="Helvetica" font-size="10" x="1636.0771" y="1832.2041">provide</text><text fill="#000000" font-family="Helvetica" font-size="10" x="1636.0771" y="1843.8447">resource</text><text fill="#000000" font-family="Helvetica" font-size="10" x="1636.0771" y="1855.4854">access</text><polygon fill="#181818" points="1361.4463,1894.4844,1351.4463,1898.4844,1361.4463,1902.4844,1357.4463,1898.4844" style="stroke:#181818;stroke-width:1;"/><line style="stroke:#181818;stroke-width:1;stroke-dasharray:2.0,2.0;" x1="1355.4463" x2="1593.5498" y1="1898.4844" y2="1898.4844"/><text fill="#000000" font-family="Helvetica" font-size="10" x="1367.4463" y="1894.126">(44)</text><text fill="#000000" font-family="Helvetica" font-size="10" x="1391.9736" y="1894.126">200 OK, resource</text><polygon fill="#181818" points="115.7061,1920.125,105.7061,1924.125,115.7061,1928.125,111.7061,1924.125" style="stroke:#181818;stroke-width:1;"/><line style="stroke:#181818;stroke-width:1;stroke-dasharray:2.0,2.0;" x1="109.7061" x2="1339.4463" y1="1924.125" y2="1924.125"/><text fill="#000000" font-family="Helvetica" font-size="10" x="121.7061" y="1919.7666">(45)</text><text fill="#000000" font-family="Helvetica" font-size="10" x="146.2334" y="1919.7666">200 OK, resource</text><!--SRC=[jLRRRXit47tVhvZABojKDwT-A5GaG2mvpgMsLSb1q4A0GE-E9COhSiFbIf63_4iV-YNjZtL8xesoZAP0-wGBPywSENCXMQwbo3TtgA0L3WRjLf3TSv4onJOGuvBbYNubXPxn1uJJmV73QxP1U8t95ZMFMCDcx6okf91PoYACA-kHp1L7rR1DKApq-cNyCSyq22am2BvB5Ljj66YK3w1LJd-nI4i5rxb-8C8iWvRxsWhkv6UuadSymGmkKVtrXuQJoxNCz8SrrnW0K1HYnrCcDBnCK-jCdoqu6JDrFqDsgH35eM6krrSopXDdJhzGc1o9n5pOWrQ08gRWGTFjpNXY7UZJCMkTerR8IMMATtinUdrzy_FDvQyKpPx-TWkZXFAsnpCculsvaZj3ve3EpC9EBYPpOSX8nH-OvbB03DNMU3zocIZvULzxhRLEtN-jnwO5wubX3L3avIZUle5dlG6CEGegpw5aFixKiPnYHaMEiEHMGzA70Gs2eexT5wOYfhPyopIw7uahqvgWX8HZsSAhNyRNX6hC2C9cDOJBYrlego8sdLQezfp-S8fqNT0Xd0rEuRrW1Jx6Fy77Z4BSoNWFEwxNy06JfFjEK3tSoLX6-ORQ0CBfgz6FPwTdRGADyI0E9XbM2VnBzhsT2NblGlQbOTPbJO1kPW7-_FqRidis6C3Dk_yg9n47XuKPJ-G4xd5F7S1LK2HZGwzGe3BEliana2rBU0mAbrItDMXvJrtLX9hIz73SeXsiX5C7XaibDz3dSTfZQThJl1lRriHUZFsOApHxOjzVOhmWcuNnQNkGCqp8nW1MVyyA-MdvKEVKtJWBQEugHHNgN8b2M12uwrhx8JYtPeoHmYh_jnzkdVI-MHdJ51Z2p99odDjp0TPr2BrU3y8IfMtPl33CXp2vcP4p3H-4X4Xk7SWqnUmGJQV2WlRiN4GonaMqPedPidJg_rviaDehDavPAaM62xrFyRanwio59KouaKpfWqLgGUNACMlN4XaLJKbFxB8rQ-g2rgJUEpAsiNW6kR0jJPrbojZCtclu50MFkrGvqptKxcP6dFusPITy1yB346tRMXQwm2vCvo9K-8aOMp4wW9zJaYPRSD4ELahcQSdxFGqMD9Qy6LPQngGMQK8vL7rGtWf3-67mZBhJIGrX8ftNqDq0pQ5T4BbKSg6DoXMPXeOLQ51VEcNELOlO5GMXXr2AMPCQbOM5S5HGJzaAspwoMxx39n9UShLnyfTBse_Hn2ffrd7BHWeQEwHEqAkJ6PIcYfscZ7qQRkg8Bkc6QaCMJEsx4KMvOz6zQ-EYuzk1DthHDusU6n-xR-ffm_rRV-3CKUY5SXDe46WFysNHX5Qwqklnb5PXlDjW2ESiuv6RSJV3yBt9OP4X9Q5TTB-L31StdR1ITEEwSIrjkhLHnpWtDq4n-POrFR-UKzJsiP61aCSBIzWVbqOvxUOyrA7qQfmKIz0fjAJ7sviOxUJsASd-6BUSQk9Vb-uwc3vv7HmhhiprFzOtz22zSXsfwTF63LikB5b3n-ThhpbdDwbxO7lQ9rjcP_cXqxYLlm2qw2MSwzOGlb1Lldw5UZKGG30vKgI6Uuj2qqlRUBTeFEIElfaNSmSiMBDm4wzmFCjoKZwACCjiadxQTcvitkTSn5oilBkm95Au5mtZ8NI8O4wmsZqLl8KmU_AsfFU6NDfkcSwgmJxsm3ioJnR0ZPEbLV0wUf-wa-3WdLEyeQg8HKEmHfP6ghdmXAcyfYGhKTyn5Jko_nTRqcOwAoEcIcvvJ27gO8wmjQcJAMjMFP4R5I70e-_7uzPEBD-zMLvwnGT_0m00]--></g></svg>