<svg xmlns="http://www.w3.org/2000/svg" xmlns:xlink="http://www.w3.org/1999/xlink" contentStyleType="text/css" data-diagram-type="CLASS" height="300px" preserveAspectRatio="none" style="width:680px;height:300px;background:#FFFFFF;" version="1.1" viewBox="0 0 680 300" width="680px" zoomAndPan="magnify"><defs/><g><!--class Session--><g class="entity" data-entity="Session" data-source-line="2" data-uid="ent0002" id="entity_Session"><rect fill="#F1F1F1" height="129.4844" rx="2.5" ry="2.5" style="stroke:#181818;stroke-width:0.5;" width="191.1494" x="232.5" y="7"/><ellipse cx="297.1167" cy="23" fill="#ADD1B2" rx="11" ry="11" style="stroke:#181818;stroke-width:1;"/><path d="M301.2261,29 L293.5073,29 L293.5073,16.6094 L301.2261,16.6094 L301.2261,18.7656 L295.9604,18.7656 L295.9604,21.4375 L300.7261,21.4375 L300.7261,23.5938 L295.9604,23.5938 L295.9604,26.8438 L301.2261,26.8438 L301.2261,29 Z " fill="#000000"/><text fill="#000000" font-family="sans-serif" font-size="14" lengthAdjust="spacing" textLength="53.416" x="317.6167" y="27.8467">Session</text><line style="stroke:#181818;stroke-width:0.5;" x1="233.5" x2="422.6494" y1="39" y2="39"/><ellipse cx="243.5" cy="52.6484" fill="#000000" rx="3" ry="3" style="stroke:#000000;stroke-width:1;"/><text fill="#000000" font-family="sans-serif" font-size="14" lengthAdjust="spacing" textLength="162.4902" x="252.5" y="55.9951">accesstoken_jti : String</text><ellipse cx="243.5" cy="68.9453" fill="#000000" rx="3" ry="3" style="stroke:#000000;stroke-width:1;"/><text fill="#000000" font-family="sans-serif" font-size="14" lengthAdjust="spacing" textLength="165.1494" x="252.5" y="72.292">refreshtoken_jti : String</text><ellipse cx="243.5" cy="85.2422" fill="#000000" rx="3" ry="3" style="stroke:#000000;stroke-width:1;"/><text fill="#000000" font-family="sans-serif" font-size="14" lengthAdjust="spacing" textLength="106.1416" x="252.5" y="88.5889">subject : String</text><ellipse cx="243.5" cy="101.5391" fill="#000000" rx="3" ry="3" style="stroke:#000000;stroke-width:1;"/><text fill="#000000" font-family="sans-serif" font-size="14" lengthAdjust="spacing" textLength="113.627" x="252.5" y="104.8857">client_id : String</text><text fill="#000000" font-family="sans-serif" font-size="14" lengthAdjust="spacing" textLength="13.3506" x="252.5" y="121.1826">...</text><line style="stroke:#181818;stroke-width:0.5;" x1="233.5" x2="422.6494" y1="128.4844" y2="128.4844"/></g><!--class User--><g class="entity" data-entity="User" data-source-line="10" data-uid="ent0003" id="entity_User"><rect fill="#F1F1F1" height="80.5938" rx="2.5" ry="2.5" style="stroke:#181818;stroke-width:0.5;" width="132.1416" x="7" y="213"/><ellipse cx="52.8657" cy="229" fill="#ADD1B2" rx="11" ry="11" style="stroke:#181818;stroke-width:1;"/><path d="M56.9751,235 L49.2563,235 L49.2563,222.6094 L56.9751,222.6094 L56.9751,224.7656 L51.7095,224.7656 L51.7095,227.4375 L56.4751,227.4375 L56.4751,229.5938 L51.7095,229.5938 L51.7095,232.8438 L56.9751,232.8438 L56.9751,235 Z " fill="#000000"/><text fill="#000000" font-family="sans-serif" font-size="14" lengthAdjust="spacing" textLength="31.9102" x="73.3657" y="233.8467">User</text><line style="stroke:#181818;stroke-width:0.5;" x1="8" x2="138.1416" y1="245" y2="245"/><ellipse cx="18" cy="258.6484" fill="#000000" rx="3" ry="3" style="stroke:#000000;stroke-width:1;"/><text fill="#000000" font-family="sans-serif" font-size="14" lengthAdjust="spacing" textLength="106.1416" x="27" y="261.9951">subject : String</text><text fill="#000000" font-family="sans-serif" font-size="14" lengthAdjust="spacing" textLength="13.3506" x="27" y="278.292">...</text><line style="stroke:#181818;stroke-width:0.5;" x1="8" x2="138.1416" y1="285.5938" y2="285.5938"/></g><!--class Client--><g class="entity" data-entity="Client" data-source-line="15" data-uid="ent0004" id="entity_Client"><rect fill="#F1F1F1" height="80.5938" rx="2.5" ry="2.5" style="stroke:#181818;stroke-width:0.5;" width="139.627" x="174" y="213"/><ellipse cx="219.2983" cy="229" fill="#ADD1B2" rx="11" ry="11" style="stroke:#181818;stroke-width:1;"/><path d="M223.4077,235 L215.689,235 L215.689,222.6094 L223.4077,222.6094 L223.4077,224.7656 L218.1421,224.7656 L218.1421,227.4375 L222.9077,227.4375 L222.9077,229.5938 L218.1421,229.5938 L218.1421,232.8438 L223.4077,232.8438 L223.4077,235 Z " fill="#000000"/><text fill="#000000" font-family="sans-serif" font-size="14" lengthAdjust="spacing" textLength="40.5303" x="239.7983" y="233.8467">Client</text><line style="stroke:#181818;stroke-width:0.5;" x1="175" x2="312.627" y1="245" y2="245"/><ellipse cx="185" cy="258.6484" fill="#000000" rx="3" ry="3" style="stroke:#000000;stroke-width:1;"/><text fill="#000000" font-family="sans-serif" font-size="14" lengthAdjust="spacing" textLength="113.627" x="194" y="261.9951">client_id : String</text><text fill="#000000" font-family="sans-serif" font-size="14" lengthAdjust="spacing" textLength="13.3506" x="194" y="278.292">...</text><line style="stroke:#181818;stroke-width:0.5;" x1="175" x2="312.627" y1="285.5938" y2="285.5938"/></g><!--class AccessToken--><g class="entity" data-entity="AccessToken" data-source-line="20" data-uid="ent0005" id="entity_AccessToken"><rect fill="#F1F1F1" height="80.5938" rx="2.5" ry="2.5" style="stroke:#181818;stroke-width:0.5;" width="127.334" x="349.5" y="213"/><ellipse cx="364.5" cy="229" fill="#ADD1B2" rx="11" ry="11" style="stroke:#181818;stroke-width:1;"/><path d="M368.6094,235 L360.8906,235 L360.8906,222.6094 L368.6094,222.6094 L368.6094,224.7656 L363.3438,224.7656 L363.3438,227.4375 L368.1094,227.4375 L368.1094,229.5938 L363.3438,229.5938 L363.3438,232.8438 L368.6094,232.8438 L368.6094,235 Z " fill="#000000"/><text fill="#000000" font-family="sans-serif" font-size="14" lengthAdjust="spacing" textLength="95.334" x="378.5" y="233.8467">Access Token</text><line style="stroke:#181818;stroke-width:0.5;" x1="350.5" x2="475.834" y1="245" y2="245"/><ellipse cx="360.5" cy="258.6484" fill="#000000" rx="3" ry="3" style="stroke:#000000;stroke-width:1;"/><text fill="#000000" font-family="sans-serif" font-size="14" lengthAdjust="spacing" textLength="68.667" x="369.5" y="261.9951">jti : String</text><text fill="#000000" font-family="sans-serif" font-size="14" lengthAdjust="spacing" textLength="13.3506" x="369.5" y="278.292">...</text><line style="stroke:#181818;stroke-width:0.5;" x1="350.5" x2="475.834" y1="285.5938" y2="285.5938"/></g><!--class RefreshToken--><g class="entity" data-entity="RefreshToken" data-source-line="25" data-uid="ent0006" id="entity_RefreshToken"><rect fill="#F1F1F1" height="80.5938" rx="2.5" ry="2.5" style="stroke:#181818;stroke-width:0.5;" width="132.9668" x="518.5" y="213"/><ellipse cx="533.5" cy="229" fill="#ADD1B2" rx="11" ry="11" style="stroke:#181818;stroke-width:1;"/><path d="M537.6094,235 L529.8906,235 L529.8906,222.6094 L537.6094,222.6094 L537.6094,224.7656 L532.3438,224.7656 L532.3438,227.4375 L537.1094,227.4375 L537.1094,229.5938 L532.3438,229.5938 L532.3438,232.8438 L537.6094,232.8438 L537.6094,235 Z " fill="#000000"/><text fill="#000000" font-family="sans-serif" font-size="14" lengthAdjust="spacing" textLength="100.9668" x="547.5" y="233.8467">Refresh Token</text><line style="stroke:#181818;stroke-width:0.5;" x1="519.5" x2="650.4668" y1="245" y2="245"/><ellipse cx="529.5" cy="258.6484" fill="#000000" rx="3" ry="3" style="stroke:#000000;stroke-width:1;"/><text fill="#000000" font-family="sans-serif" font-size="14" lengthAdjust="spacing" textLength="68.667" x="538.5" y="261.9951">jti : String</text><text fill="#000000" font-family="sans-serif" font-size="14" lengthAdjust="spacing" textLength="13.3506" x="538.5" y="278.292">...</text><line style="stroke:#181818;stroke-width:0.5;" x1="519.5" x2="650.4668" y1="285.5938" y2="285.5938"/></g><!--link Session to AccessToken--><g class="link" data-entity-1="Session" data-entity-2="AccessToken" data-source-line="30" data-uid="lnk7" id="link_Session_AccessToken"><path codeLine="30" d="M359.71,136.24 C364.55,146.17 369.45,156.34 374,166 C381.16,181.2 388.81,198.02 395.42,212.75" fill="none" id="Session-AccessToken" style="stroke:#181818;stroke-width:1;"/><text fill="#000000" font-family="sans-serif" font-size="13" lengthAdjust="spacing" textLength="130.9204" x="383" y="179.0669">accesstoken_jti &#8596; jti</text></g><!--link Session to RefreshToken--><g class="link" data-entity-1="Session" data-entity-2="RefreshToken" data-source-line="31" data-uid="lnk8" id="link_Session_RefreshToken"><path codeLine="31" d="M423.84,107.44 C457.05,122.35 493.15,141.93 522,166 C537.69,179.09 551.53,196.9 562.21,212.96" fill="none" id="Session-RefreshToken" style="stroke:#181818;stroke-width:1;"/><text fill="#000000" font-family="sans-serif" font-size="13" lengthAdjust="spacing" textLength="133.3896" x="539" y="179.0669">refreshtoken_jti &#8596; jti</text></g><!--link Session to User--><g class="link" data-entity-1="Session" data-entity-2="User" data-source-line="32" data-uid="lnk9" id="link_Session_User"><path codeLine="32" d="M232.26,97.87 C191.84,112.44 146.67,134.32 114,166 C100.88,178.73 91.46,196.49 84.99,212.61" fill="none" id="Session-User" style="stroke:#181818;stroke-width:1;"/><text fill="#000000" font-family="sans-serif" font-size="13" lengthAdjust="spacing" textLength="113.3945" x="115" y="179.0669">subject &#8596; subject</text></g><!--link Session to Client--><g class="link" data-entity-1="Session" data-entity-2="Client" data-source-line="33" data-uid="lnk10" id="link_Session_Client"><path codeLine="33" d="M257.94,136.1 C251.08,145.44 245.14,155.48 241,166 C235.28,180.54 234.7,197.55 236.03,212.61" fill="none" id="Session-Client" style="stroke:#181818;stroke-width:1;"/><text fill="#000000" font-family="sans-serif" font-size="13" lengthAdjust="spacing" textLength="127.2959" x="242" y="179.0669">client_id &#8596; client_id</text></g><!--SRC=[ZL4n3i8m3Dpp2YiZKli0DiGFACnL2GPIK2erOK28bHVmGbv2uhhGX2BOxClTsRwWSTgTGHPehMwCXCe2rt0H01EebFAzQmveojffc4BXMcrszDZYjaMx__9gJ-iQbOj1TTHeNAatGpZFSt4L0dcRbSMMLWa5xp5YbgZcv4owhcJbFnDdT2Kimo7aq07KiqroNcAmw98OE33oswBFEykYgLEGQVQFspruoA4a6kCr7ryo9g9SFRaFDN2uZdYSesU-GmpSLoUV]--></g></svg>