<svg xmlns="http://www.w3.org/2000/svg" xmlns:xlink="http://www.w3.org/1999/xlink" contentStyleType="text/css" height="1203px" preserveAspectRatio="none" style="width:1148px;height:1203px;background:#FFFFFF;" version="1.1" viewBox="0 0 1148 1203" width="1148px" zoomAndPan="magnify"><defs/><g><rect fill="#F8F8FF" height="1191.4688" style="stroke:#181818;stroke-width:0.5;" width="186.5" x="214" y="6"/><text fill="#000000" font-family="Helvetica" font-size="10" font-weight="bold" x="299.75" y="15.2822">LEI</text><rect fill="#C9FFC9" height="1191.4688" style="stroke:#181818;stroke-width:0.5;" width="539" x="502" y="6"/><text fill="#000000" font-family="Helvetica" font-size="10" font-weight="bold" x="745" y="15.2822">Betreiber</text><rect fill="#F4A460" height="1174.8281" style="stroke:#181818;stroke-width:0.5;" width="424" x="502" y="22.6406"/><text fill="#000000" font-family="Helvetica" font-size="10" font-weight="bold" x="685.5" y="31.9229">ZT Cluster</text><rect fill="#8FBC8F" height="1174.8281" style="stroke:#181818;stroke-width:0.5;" width="103" x="938" y="22.6406"/><text fill="#000000" font-family="Helvetica" font-size="10" font-weight="bold" x="953" y="31.9229">TI 2.0 Dienst</text><rect fill="#FFFFFF" height="185.8438" style="stroke:#FFFFFF;stroke-width:1.0;" width="788" x="8" y="88.5625"/><line style="stroke:#181818;stroke-width:0.5;stroke-dasharray:5.0,5.0;" x1="48" x2="48" y1="76.5625" y2="1153.1875"/><rect fill="#FFFFFF" height="1050.625" style="stroke:#181818;stroke-width:1.0;" width="10" x="43" y="84.5625"/><line style="stroke:#181818;stroke-width:0.5;stroke-dasharray:5.0,5.0;" x1="250" x2="250" y1="76.5625" y2="1153.1875"/><rect fill="#FFFFFF" height="76.9219" style="stroke:#181818;stroke-width:1.0;" width="10" x="245" y="469.5313"/><line style="stroke:#181818;stroke-width:0.5;stroke-dasharray:5.0,5.0;" x1="376" x2="376" y1="76.5625" y2="1153.1875"/><rect fill="#FFFFFF" height="25.6406" style="stroke:#181818;stroke-width:1.0;" width="10" x="371" y="495.1719"/><line style="stroke:#181818;stroke-width:0.5;stroke-dasharray:5.0,5.0;" x1="563" x2="563" y1="76.5625" y2="1153.1875"/><rect fill="#FFFFFF" height="664.2969" style="stroke:#181818;stroke-width:1.0;" width="10" x="558" y="240.7656"/><line style="stroke:#181818;stroke-width:0.5;stroke-dasharray:5.0,5.0;" x1="747" x2="747" y1="76.5625" y2="1153.1875"/><rect fill="#FFFFFF" height="1005.3438" style="stroke:#181818;stroke-width:1.0;" width="10" x="742" y="129.8438"/><line style="stroke:#181818;stroke-width:0.5;stroke-dasharray:5.0,5.0;" x1="904" x2="904" y1="76.5625" y2="1153.1875"/><line style="stroke:#181818;stroke-width:0.5;stroke-dasharray:5.0,5.0;" x1="989.5" x2="989.5" y1="76.5625" y2="1153.1875"/><rect fill="#FFFFFF" height="64.2813" style="stroke:#181818;stroke-width:1.0;" width="10" x="984.5" y="1045.2656"/><rect fill="#E2E2F0" height="25.6406" rx="2.5" ry="2.5" style="stroke:#181818;stroke-width:0.5;" width="42" x="27" y="49.9219"/><text fill="#000000" font-family="Helvetica" font-size="10" x="34" y="66.2041">Client</text><rect fill="#E2E2F0" height="25.6406" rx="2.5" ry="2.5" style="stroke:#181818;stroke-width:0.5;" width="64" x="218" y="49.9219"/><text fill="#000000" font-family="Helvetica" font-size="10" x="225" y="66.2041">Konnektor</text><rect fill="#E2E2F0" height="25.6406" rx="2.5" ry="2.5" style="stroke:#181818;stroke-width:0.5;" width="41" x="355.5" y="49.9219"/><text fill="#000000" font-family="Helvetica" font-size="10" x="362.5" y="66.2041">SM-B</text><rect fill="#E2E2F0" height="37.2813" rx="2.5" ry="2.5" style="stroke:#181818;stroke-width:0.5;" width="114" x="506" y="38.2813"/><text fill="#000000" font-family="Helvetica" font-size="10" x="552.5" y="54.5635">PEP</text><text fill="#000000" font-family="Helvetica" font-size="10" x="513" y="66.2041">Authorization Server</text><rect fill="#E2E2F0" height="25.6406" rx="2.5" ry="2.5" style="stroke:#181818;stroke-width:0.5;" width="66" x="714" y="49.9219"/><text fill="#000000" font-family="Helvetica" font-size="10" x="721" y="66.2041">http Proxy</text><rect fill="#E2E2F0" height="25.6406" rx="2.5" ry="2.5" style="stroke:#181818;stroke-width:0.5;" width="36" x="886" y="49.9219"/><text fill="#000000" font-family="Helvetica" font-size="10" x="893" y="66.2041">PDP</text><rect fill="#E2E2F0" height="25.6406" rx="2.5" ry="2.5" style="stroke:#181818;stroke-width:0.5;" width="95" x="942" y="49.9219"/><text fill="#000000" font-family="Helvetica" font-size="10" x="949" y="66.2041">Resource Server</text><rect fill="#E2E2F0" height="25.6406" rx="2.5" ry="2.5" style="stroke:#181818;stroke-width:0.5;" width="42" x="27" y="1153.1875"/><text fill="#000000" font-family="Helvetica" font-size="10" x="34" y="1169.4697">Client</text><rect fill="#E2E2F0" height="25.6406" rx="2.5" ry="2.5" style="stroke:#181818;stroke-width:0.5;" width="64" x="218" y="1153.1875"/><text fill="#000000" font-family="Helvetica" font-size="10" x="225" y="1169.4697">Konnektor</text><rect fill="#E2E2F0" height="25.6406" rx="2.5" ry="2.5" style="stroke:#181818;stroke-width:0.5;" width="41" x="355.5" y="1153.1875"/><text fill="#000000" font-family="Helvetica" font-size="10" x="362.5" y="1169.4697">SM-B</text><rect fill="#E2E2F0" height="37.2813" rx="2.5" ry="2.5" style="stroke:#181818;stroke-width:0.5;" width="114" x="506" y="1153.1875"/><text fill="#000000" font-family="Helvetica" font-size="10" x="552.5" y="1169.4697">PEP</text><text fill="#000000" font-family="Helvetica" font-size="10" x="513" y="1181.1104">Authorization Server</text><rect fill="#E2E2F0" height="25.6406" rx="2.5" ry="2.5" style="stroke:#181818;stroke-width:0.5;" width="66" x="714" y="1153.1875"/><text fill="#000000" font-family="Helvetica" font-size="10" x="721" y="1169.4697">http Proxy</text><rect fill="#E2E2F0" height="25.6406" rx="2.5" ry="2.5" style="stroke:#181818;stroke-width:0.5;" width="36" x="886" y="1153.1875"/><text fill="#000000" font-family="Helvetica" font-size="10" x="893" y="1169.4697">PDP</text><rect fill="#E2E2F0" height="25.6406" rx="2.5" ry="2.5" style="stroke:#181818;stroke-width:0.5;" width="95" x="942" y="1153.1875"/><text fill="#000000" font-family="Helvetica" font-size="10" x="949" y="1169.4697">Resource Server</text><path d="M8,88.5625 L68,88.5625 L68,92.2031 L58,102.2031 L8,102.2031 L8,88.5625 " fill="#EEEEEE" style="stroke:#000000;stroke-width:1.5;"/><rect fill="none" height="185.8438" style="stroke:#000000;stroke-width:1.5;" width="788" x="8" y="88.5625"/><text fill="#000000" font-family="Helvetica" font-size="10" font-weight="bold" x="23" y="98.8447">alt</text><line style="stroke:#000000;stroke-width:1.0;stroke-dasharray:2.0,2.0;" x1="8" x2="796" y1="174.4844" y2="174.4844"/><polygon fill="#181818" points="730,125.8438,740,129.8438,730,133.8438,734,129.8438" style="stroke:#181818;stroke-width:1.0;"/><line style="stroke:#181818;stroke-width:1.0;" x1="53" x2="736" y1="129.8438" y2="129.8438"/><text fill="#000000" font-family="Helvetica" font-size="10" x="60" y="125.4854">[01]</text><text fill="#000000" font-family="Helvetica" font-size="10" x="84" y="125.4854">GET /fd_ressource</text><polygon fill="#181818" points="64,151.4844,54,155.4844,64,159.4844,60,155.4844" style="stroke:#181818;stroke-width:1.0;"/><line style="stroke:#181818;stroke-width:1.0;stroke-dasharray:2.0,2.0;" x1="58" x2="741" y1="155.4844" y2="155.4844"/><text fill="#000000" font-family="Helvetica" font-size="10" x="70" y="151.126">[02]</text><text fill="#000000" font-family="Helvetica" font-size="10" x="94" y="151.126">401 Unauthorized; json body with Well-Known json Document</text><path d="M27,185.4844 L370,185.4844 L370,189.125 L360,199.125 L27,199.125 L27,185.4844 " fill="#EEEEEE" style="stroke:#000000;stroke-width:1.5;"/><rect fill="none" height="23.6406" style="stroke:#000000;stroke-width:1.5;" width="359" x="27" y="185.4844"/><text fill="#000000" font-family="Helvetica" font-size="10" font-weight="bold" x="42" y="195.7666">Service Discovery for PEP/Authorization Server FQDN</text><polygon fill="#181818" points="546,236.7656,556,240.7656,546,244.7656,550,240.7656" style="stroke:#181818;stroke-width:1.0;"/><line style="stroke:#181818;stroke-width:1.0;" x1="53" x2="552" y1="240.7656" y2="240.7656"/><text fill="#000000" font-family="Helvetica" font-size="10" x="60" y="236.4072">[03]</text><text fill="#000000" font-family="Helvetica" font-size="10" x="84" y="236.4072">GET /.well-known/oauth-authorization-server&#160;</text><polygon fill="#181818" points="64,262.4063,54,266.4063,64,270.4063,60,266.4063" style="stroke:#181818;stroke-width:1.0;"/><line style="stroke:#181818;stroke-width:1.0;stroke-dasharray:2.0,2.0;" x1="58" x2="557" y1="266.4063" y2="266.4063"/><text fill="#000000" font-family="Helvetica" font-size="10" x="70" y="262.0479">[04]</text><text fill="#000000" font-family="Helvetica" font-size="10" x="94" y="262.0479">200 OK; json body with Well-Known json Document</text><line style="stroke:#181818;stroke-width:1.0;" x1="53" x2="95" y1="306.0469" y2="306.0469"/><line style="stroke:#181818;stroke-width:1.0;" x1="95" x2="95" y1="306.0469" y2="319.0469"/><line style="stroke:#181818;stroke-width:1.0;" x1="54" x2="95" y1="319.0469" y2="319.0469"/><polygon fill="#181818" points="64,315.0469,54,319.0469,64,323.0469,60,319.0469" style="stroke:#181818;stroke-width:1.0;"/><text fill="#000000" font-family="Helvetica" font-size="10" x="60" y="301.6885">[05]</text><text fill="#000000" font-family="Helvetica" font-size="10" x="84" y="301.6885">generate DPoP keypair</text><polygon fill="#181818" points="546,340.6875,556,344.6875,546,348.6875,550,344.6875" style="stroke:#181818;stroke-width:1.0;"/><line style="stroke:#181818;stroke-width:1.0;" x1="53" x2="552" y1="344.6875" y2="344.6875"/><text fill="#000000" font-family="Helvetica" font-size="10" x="60" y="340.3291">[06]</text><text fill="#000000" font-family="Helvetica" font-size="10" x="84" y="340.3291">GET /nonce</text><polygon fill="#181818" points="64,366.3281,54,370.3281,64,374.3281,60,370.3281" style="stroke:#181818;stroke-width:1.0;"/><line style="stroke:#181818;stroke-width:1.0;stroke-dasharray:2.0,2.0;" x1="58" x2="557" y1="370.3281" y2="370.3281"/><text fill="#000000" font-family="Helvetica" font-size="10" x="70" y="365.9697">[07]</text><text fill="#000000" font-family="Helvetica" font-size="10" x="94" y="365.9697">return 200 OK new-nonce: nonce</text><line style="stroke:#181818;stroke-width:1.0;" x1="53" x2="95" y1="430.8906" y2="430.8906"/><line style="stroke:#181818;stroke-width:1.0;" x1="95" x2="95" y1="430.8906" y2="443.8906"/><line style="stroke:#181818;stroke-width:1.0;" x1="54" x2="95" y1="443.8906" y2="443.8906"/><polygon fill="#181818" points="64,439.8906,54,443.8906,64,447.8906,60,443.8906" style="stroke:#181818;stroke-width:1.0;"/><text fill="#000000" font-family="Helvetica" font-size="10" x="60" y="409.0713">[08]</text><text fill="#000000" font-family="Helvetica" font-size="10" x="84" y="391.6104">create JWT with</text><text fill="#000000" font-family="Helvetica" font-size="10" x="90" y="403.251">nonce</text><text fill="#000000" font-family="Helvetica" font-size="10" x="90" y="414.8916">Client and OS Information</text><text fill="#000000" font-family="Helvetica" font-size="10" x="90" y="426.5322">DPoP Thumbprint</text><polygon fill="#181818" points="233,465.5313,243,469.5313,233,473.5313,237,469.5313" style="stroke:#181818;stroke-width:1.0;"/><line style="stroke:#181818;stroke-width:1.0;" x1="53" x2="239" y1="469.5313" y2="469.5313"/><text fill="#000000" font-family="Helvetica" font-size="10" x="60" y="465.1729">[09]</text><text fill="#000000" font-family="Helvetica" font-size="10" x="84" y="465.1729">externalAuthenticate JWT-hash</text><polygon fill="#181818" points="359,491.1719,369,495.1719,359,499.1719,363,495.1719" style="stroke:#181818;stroke-width:1.0;"/><line style="stroke:#181818;stroke-width:1.0;" x1="255" x2="365" y1="495.1719" y2="495.1719"/><text fill="#000000" font-family="Helvetica" font-size="10" x="262" y="490.8135">[10]</text><text fill="#000000" font-family="Helvetica" font-size="10" x="286" y="490.8135">sign JWT-hash</text><polygon fill="#181818" points="266,516.8125,256,520.8125,266,524.8125,262,520.8125" style="stroke:#181818;stroke-width:1.0;"/><line style="stroke:#181818;stroke-width:1.0;" x1="260" x2="370" y1="520.8125" y2="520.8125"/><text fill="#000000" font-family="Helvetica" font-size="10" x="272" y="516.4541">[11]</text><text fill="#000000" font-family="Helvetica" font-size="10" x="296" y="516.4541">JWT-Signature</text><polygon fill="#181818" points="64,542.4531,54,546.4531,64,550.4531,60,546.4531" style="stroke:#181818;stroke-width:1.0;"/><line style="stroke:#181818;stroke-width:1.0;" x1="58" x2="244" y1="546.4531" y2="546.4531"/><text fill="#000000" font-family="Helvetica" font-size="10" x="70" y="542.0947">[12]</text><text fill="#000000" font-family="Helvetica" font-size="10" x="94" y="542.0947">JWT-signature</text><line style="stroke:#181818;stroke-width:1.0;" x1="53" x2="95" y1="572.0938" y2="572.0938"/><line style="stroke:#181818;stroke-width:1.0;" x1="95" x2="95" y1="572.0938" y2="585.0938"/><line style="stroke:#181818;stroke-width:1.0;" x1="54" x2="95" y1="585.0938" y2="585.0938"/><polygon fill="#181818" points="64,581.0938,54,585.0938,64,589.0938,60,585.0938" style="stroke:#181818;stroke-width:1.0;"/><text fill="#000000" font-family="Helvetica" font-size="10" x="60" y="567.7354">[13]</text><text fill="#000000" font-family="Helvetica" font-size="10" x="84" y="567.7354">create SM-B signed JWT</text><line style="stroke:#181818;stroke-width:1.0;" x1="53" x2="95" y1="610.7344" y2="610.7344"/><line style="stroke:#181818;stroke-width:1.0;" x1="95" x2="95" y1="610.7344" y2="623.7344"/><line style="stroke:#181818;stroke-width:1.0;" x1="54" x2="95" y1="623.7344" y2="623.7344"/><polygon fill="#181818" points="64,619.7344,54,623.7344,64,627.7344,60,623.7344" style="stroke:#181818;stroke-width:1.0;"/><text fill="#000000" font-family="Helvetica" font-size="10" x="60" y="606.376">[14]</text><text fill="#000000" font-family="Helvetica" font-size="10" x="84" y="606.376">create DPoP Proof</text><polygon fill="#181818" points="546,715.2188,556,719.2188,546,723.2188,550,719.2188" style="stroke:#181818;stroke-width:1.0;"/><line style="stroke:#181818;stroke-width:1.0;" x1="53" x2="552" y1="719.2188" y2="719.2188"/><text fill="#000000" font-family="Helvetica" font-size="10" x="60" y="679.9385">[15]</text><text fill="#000000" font-family="Helvetica" font-size="10" x="84" y="645.0166">POST /token</text><text fill="#000000" font-family="Helvetica" font-size="10" x="90" y="656.6572">{SM-B signed JWT}</text><text fill="#000000" font-family="Helvetica" font-size="10" x="84" y="668.2979">&#160;&#160;</text><text fill="#000000" font-family="Courier" font-size="10" x="90" y="668.2979">DPoP:&#160;eyJh...</text><text fill="#000000" font-family="Helvetica" font-size="10" x="84" y="679.9385">&#160;&#160;</text><text fill="#000000" font-family="Courier" font-size="10" x="90" y="679.9385">grant_type=authorization_code</text><text fill="#000000" font-family="Helvetica" font-size="10" x="84" y="691.5791">&#160;&#160;</text><text fill="#000000" font-family="Courier" font-size="10" x="90" y="691.5791">code=...</text><text fill="#000000" font-family="Helvetica" font-size="10" x="84" y="703.2197">&#160;&#160;</text><text fill="#000000" font-family="Courier" font-size="10" x="90" y="703.2197">client_assertion_type=urn:ietf:params:oauth:client-assertion-type:jwt-bearer</text><text fill="#000000" font-family="Helvetica" font-size="10" x="84" y="714.8604">&#160;&#160;</text><text fill="#000000" font-family="Courier" font-size="10" x="90" y="714.8604">client_assertion=eyJh....</text><path d="M295,732.2188 L295,753.2188 L558,753.2188 L558,742.2188 L548,732.2188 L295,732.2188 " fill="#FEFFDD" style="stroke:#181818;stroke-width:0.5;"/><path d="M548,732.2188 L548,742.2188 L558,742.2188 L548,732.2188 " fill="#FEFFDD" style="stroke:#181818;stroke-width:0.5;"/><text fill="#000000" font-family="Helvetica" font-size="10" x="301" y="746.501">RFC7523 (JWT Client Assertion), RFC9449 (DPoP)</text><line style="stroke:#181818;stroke-width:1.0;" x1="568" x2="610" y1="776.5" y2="776.5"/><line style="stroke:#181818;stroke-width:1.0;" x1="610" x2="610" y1="776.5" y2="789.5"/><line style="stroke:#181818;stroke-width:1.0;" x1="569" x2="610" y1="789.5" y2="789.5"/><polygon fill="#181818" points="579,785.5,569,789.5,579,793.5,575,789.5" style="stroke:#181818;stroke-width:1.0;"/><text fill="#000000" font-family="Helvetica" font-size="10" x="575" y="772.1416">[16]</text><text fill="#000000" font-family="Helvetica" font-size="10" x="599" y="772.1416">verify Client Assertion, DPoP</text><polygon fill="#181818" points="892,811.1406,902,815.1406,892,819.1406,896,815.1406" style="stroke:#181818;stroke-width:1.0;"/><line style="stroke:#181818;stroke-width:1.0;" x1="568" x2="898" y1="815.1406" y2="815.1406"/><text fill="#000000" font-family="Helvetica" font-size="10" x="575" y="810.7822">[17]</text><text fill="#000000" font-family="Helvetica" font-size="10" x="599" y="810.7822">POST /v1/data/authz, json body {  "input": {...}}</text><polygon fill="#181818" points="579,836.7813,569,840.7813,579,844.7813,575,840.7813" style="stroke:#181818;stroke-width:1.0;"/><line style="stroke:#181818;stroke-width:1.0;stroke-dasharray:2.0,2.0;" x1="573" x2="903" y1="840.7813" y2="840.7813"/><text fill="#000000" font-family="Helvetica" font-size="10" x="585" y="836.4229">[18]</text><text fill="#000000" font-family="Helvetica" font-size="10" x="609" y="836.4229">200 OK, json body {"result": {"allow": true, ...}}</text><line style="stroke:#181818;stroke-width:1.0;" x1="568" x2="610" y1="866.4219" y2="866.4219"/><line style="stroke:#181818;stroke-width:1.0;" x1="610" x2="610" y1="866.4219" y2="879.4219"/><line style="stroke:#181818;stroke-width:1.0;" x1="569" x2="610" y1="879.4219" y2="879.4219"/><polygon fill="#181818" points="579,875.4219,569,879.4219,579,883.4219,575,879.4219" style="stroke:#181818;stroke-width:1.0;"/><text fill="#000000" font-family="Helvetica" font-size="10" x="575" y="862.0635">[19]</text><text fill="#000000" font-family="Helvetica" font-size="10" x="599" y="862.0635">issue tokens</text><polygon fill="#181818" points="64,901.0625,54,905.0625,64,909.0625,60,905.0625" style="stroke:#181818;stroke-width:1.0;"/><line style="stroke:#181818;stroke-width:1.0;" x1="58" x2="557" y1="905.0625" y2="905.0625"/><text fill="#000000" font-family="Helvetica" font-size="10" x="70" y="900.7041">[20]</text><text fill="#000000" font-family="Helvetica" font-size="10" x="94" y="900.7041">200 OK, access token, refresh token, bound to DPoP</text><line style="stroke:#181818;stroke-width:1.0;" x1="53" x2="95" y1="930.7031" y2="930.7031"/><line style="stroke:#181818;stroke-width:1.0;" x1="95" x2="95" y1="930.7031" y2="943.7031"/><line style="stroke:#181818;stroke-width:1.0;" x1="54" x2="95" y1="943.7031" y2="943.7031"/><polygon fill="#181818" points="64,939.7031,54,943.7031,64,947.7031,60,943.7031" style="stroke:#181818;stroke-width:1.0;"/><text fill="#000000" font-family="Helvetica" font-size="10" x="60" y="926.3447">[21]</text><text fill="#000000" font-family="Helvetica" font-size="10" x="84" y="926.3447">Create DPoP Proof for RS</text><polygon fill="#181818" points="730,965.3438,740,969.3438,730,973.3438,734,969.3438" style="stroke:#181818;stroke-width:1.0;"/><line style="stroke:#181818;stroke-width:1.0;" x1="53" x2="736" y1="969.3438" y2="969.3438"/><text fill="#000000" font-family="Helvetica" font-size="10" x="60" y="964.9854">[22]</text><text fill="#000000" font-family="Helvetica" font-size="10" x="84" y="964.9854">Access resource (access token, DPoP)</text><line style="stroke:#181818;stroke-width:1.0;" x1="752" x2="794" y1="1006.625" y2="1006.625"/><line style="stroke:#181818;stroke-width:1.0;" x1="794" x2="794" y1="1006.625" y2="1019.625"/><line style="stroke:#181818;stroke-width:1.0;" x1="753" x2="794" y1="1019.625" y2="1019.625"/><polygon fill="#181818" points="763,1015.625,753,1019.625,763,1023.625,759,1019.625" style="stroke:#181818;stroke-width:1.0;"/><text fill="#000000" font-family="Helvetica" font-size="10" x="759" y="996.4463">[23]</text><text fill="#000000" font-family="Helvetica" font-size="10" x="783" y="990.626">verify access token and</text><text fill="#000000" font-family="Helvetica" font-size="10" x="783" y="1002.2666">DPoP Binding</text><polygon fill="#181818" points="972.5,1041.2656,982.5,1045.2656,972.5,1049.2656,976.5,1045.2656" style="stroke:#181818;stroke-width:1.0;"/><line style="stroke:#181818;stroke-width:1.0;" x1="752" x2="978.5" y1="1045.2656" y2="1045.2656"/><text fill="#000000" font-family="Helvetica" font-size="10" x="759" y="1040.9072">[24]</text><text fill="#000000" font-family="Helvetica" font-size="10" x="783" y="1040.9072">forward</text><line style="stroke:#181818;stroke-width:1.0;" x1="994.5" x2="1036.5" y1="1070.9063" y2="1070.9063"/><line style="stroke:#181818;stroke-width:1.0;" x1="1036.5" x2="1036.5" y1="1070.9063" y2="1083.9063"/><line style="stroke:#181818;stroke-width:1.0;" x1="995.5" x2="1036.5" y1="1083.9063" y2="1083.9063"/><polygon fill="#181818" points="1005.5,1079.9063,995.5,1083.9063,1005.5,1087.9063,1001.5,1083.9063" style="stroke:#181818;stroke-width:1.0;"/><text fill="#000000" font-family="Helvetica" font-size="10" x="1001.5" y="1066.5479">[25]</text><text fill="#000000" font-family="Helvetica" font-size="10" x="1025.5" y="1066.5479">provide resource access</text><polygon fill="#181818" points="763,1105.5469,753,1109.5469,763,1113.5469,759,1109.5469" style="stroke:#181818;stroke-width:1.0;"/><line style="stroke:#181818;stroke-width:1.0;" x1="757" x2="983.5" y1="1109.5469" y2="1109.5469"/><text fill="#000000" font-family="Helvetica" font-size="10" x="769" y="1105.1885">[26]</text><text fill="#000000" font-family="Helvetica" font-size="10" x="793" y="1105.1885">resource</text><polygon fill="#181818" points="64,1131.1875,54,1135.1875,64,1139.1875,60,1135.1875" style="stroke:#181818;stroke-width:1.0;"/><line style="stroke:#181818;stroke-width:1.0;" x1="58" x2="741" y1="1135.1875" y2="1135.1875"/><text fill="#000000" font-family="Helvetica" font-size="10" x="70" y="1130.8291">[27]</text><text fill="#000000" font-family="Helvetica" font-size="10" x="94" y="1130.8291">resource</text><!--SRC=[bLNTRkf64BxtKqnzRd8a32HDLHrNgHGWVoSdWOEfehQfeWKFU8FPHUirX4HvbpvBd-pCxc9iVd9HRh1tlldccvcTCSkr5FbiY0hylvlDVtmlct8nPuhD8COnorDzAOME-2l2SVEmyPxD4AunNQ3c8rR1T1pcJWgPpTa8umswBNF5KLMmAOg9JixZvppJ8AH0p_jfhjXana2ZV0MjSZeYBCNWSoOqj5EEGdj3-GB-juiR7pvT9JBJ3mdNw07zgk1RAGHEjLHxbkYk1Im3FxeBMhw78WPYz1nj2xL2JiKXyi55-_g- -wrxzQUbiFQ_1gI215j0n4IyQYcv51Qm6-Syrqba8_KkUe_2l4h5NvdcKa24Qc583dfUzwnRelKSUag-hFo3i5x7uUZV0IWNaqgXTd039_KcTAXgLE9F7QQc4R8hXNXOSD-fxMD6pHfXeR5AlQaM6sc-O1gBfj19IZ7ANhXp27wdR4AukXX0Onm_ASmSkSLiIAvxzfto3iZ1kOPmsZo6FmHRrmtZt-0vez8DPRo29TS9F62Q1hU26k0i7JdAPqODfXcwqawKpESs4quPTNWsafJJ2iPI0RMbSQWhSFczSrzalPECRUewd_hIn9-Q-0rfP0QioXPabks_VxTpjGpso5sGQiOdpIPqR_z7dgJFAyKLD1CKg4oiJa_sO8ghEUFAEvm4JHvrOr-AGfqhiLO40fU1HORW7FQ3ZXIQa5yV1bRqem07DGzhDCqBT2Eu4LJzcQsHCLgHWuHsqbnnIggatinm2FX2CoTOQeIIbTQEYnKaB4lAsrXE_UR94D78Xv3nYJZWGZRFh8JjU0ONaGEZAg0NunPyYxl8ttXaXpnAJHzNpUmYAn1ZG_Gnq1QBTe8Sx_UpruseeLfEqTRrROVqtHpwlc6WUgw-9lLwtVVTuKJH0dZIgpcURTtXfv6CiG2PvxEAqyWAU68PNNGBjlvqQqAEUXpQDP-5TZ92XmqssC1Wm-Ub3eR856sP3pZFra8fg2Sa5I35iGOvtenH_xBzwoydFyEHkNZhafmNtfzhnlxbzFGB79cyFzi5PdYyuiflgaUZoiUhFOgQBNc9fcLRL7fnt8YPPWsJu6kjChHlb0bzvdBjX_16sj_VmJFBEYYZkRdQSl9fETB7q_ZuB4tbafxCHx06bc9FCC-o7C6sEokDswkaHdjdH3lNmMeqrMEAaXIlGvbJFRHqELRkhAlk_Yrixzv2kqZxKVLgctr_xgAgubDoj2t3zSAiUmTVrxuACilYKTX0BIvYBYPhV9zIfw1Bfk9oY4b1FogiSoKNFCOokkDT8qoymb9DcIXSW783xeEkUpikbRVrb_07]--></g></svg>