<svg xmlns="http://www.w3.org/2000/svg" xmlns:xlink="http://www.w3.org/1999/xlink" contentStyleType="text/css" data-diagram-type="SEQUENCE" height="2189px" preserveAspectRatio="none" style="width:1573px;height:2189px;background:#FFFFFF;" version="1.1" viewBox="0 0 1573 2189" width="1573px" zoomAndPan="magnify"><defs/><g><rect fill="#F8F8FF" height="2177.8125" style="stroke:#181818;stroke-width:0.5;" width="672.6226" x="131.1621" y="6"/><text fill="#000000" font-family="Helvetica" font-size="10" font-weight="bold" x="459.0115" y="15.2822">LEI</text><rect fill="#E6E6FA" height="2161.1719" style="stroke:#181818;stroke-width:0.5;" width="388.4497" x="131.1621" y="22.6406"/><text fill="#000000" font-family="Helvetica" font-size="10" font-weight="bold" x="286.2903" y="31.9229">Prim&#228;rsystem</text><rect fill="#F4A460" height="2144.5313" style="stroke:#181818;stroke-width:0.5;" width="89" x="131.1621" y="39.2813"/><text fill="#000000" font-family="Helvetica" font-size="10" font-weight="bold" x="143.1621" y="48.5635">ZETA Client</text><rect fill="#C9FFC9" height="2177.8125" style="stroke:#181818;stroke-width:0.5;" width="715.479" x="815.7847" y="6"/><text fill="#000000" font-family="Helvetica" font-size="10" font-weight="bold" x="1149.1638" y="15.2822">Anbieter</text><rect fill="#F4A460" height="2161.1719" style="stroke:#181818;stroke-width:0.5;" width="598.979" x="815.7847" y="22.6406"/><text fill="#000000" font-family="Helvetica" font-size="10" font-weight="bold" x="1082.1296" y="31.9229">ZETA Guard</text><rect fill="#8FBC8F" height="2161.1719" style="stroke:#181818;stroke-width:0.5;" width="104.5" x="1426.7637" y="22.6406"/><text fill="#000000" font-family="Helvetica" font-size="10" font-weight="bold" x="1441.4819" y="31.9229">TI 2.0 Dienst</text><g><title>User</title><rect fill="#000000" fill-opacity="0.00000" height="1979.6094" width="8" x="20.5" y="126.5625"/><line style="stroke:#181818;stroke-width:0.5;stroke-dasharray:5.0,5.0;" x1="24" x2="24" y1="126.5625" y2="2106.1719"/></g><g><title>ZETA</title><rect fill="#000000" fill-opacity="0.00000" height="1979.6094" width="8" x="172.1621" y="126.5625"/><line style="stroke:#181818;stroke-width:0.5;stroke-dasharray:5.0,5.0;" x1="175.6621" x2="175.6621" y1="126.5625" y2="2106.1719"/></g><g><title/><rect fill="#FFFFFF" height="1912.6875" style="stroke:#181818;stroke-width:1;" width="10" x="170.6621" y="175.4844"/></g><g><title>TPM</title><rect fill="#000000" fill-opacity="0.00000" height="1979.6094" width="8" x="486.4902" y="126.5625"/><line style="stroke:#181818;stroke-width:0.5;stroke-dasharray:5.0,5.0;" x1="489.9902" x2="489.9902" y1="126.5625" y2="2106.1719"/></g><g><title/><rect fill="#FFFFFF" height="75.9219" style="stroke:#181818;stroke-width:1;" width="10" x="484.9902" y="538.4531"/></g><g><title/><rect fill="#FFFFFF" height="25.6406" style="stroke:#181818;stroke-width:1;" width="10" x="484.9902" y="692.6563"/></g><g><title>Konnektor or</title><rect fill="#000000" fill-opacity="0.00000" height="1979.6094" width="8" x="639.627" y="126.5625"/><line style="stroke:#181818;stroke-width:0.5;stroke-dasharray:5.0,5.0;" x1="643.127" x2="643.127" y1="126.5625" y2="2106.1719"/></g><g><title/><rect fill="#FFFFFF" height="76.9219" style="stroke:#181818;stroke-width:1;" width="10" x="638.127" y="1055.2656"/></g><g><title>SM(C)-B</title><rect fill="#000000" fill-opacity="0.00000" height="1979.6094" width="8" x="769.1699" y="126.5625"/><line style="stroke:#181818;stroke-width:0.5;stroke-dasharray:5.0,5.0;" x1="772.6699" x2="772.6699" y1="126.5625" y2="2106.1719"/></g><g><title/><rect fill="#FFFFFF" height="25.6406" style="stroke:#181818;stroke-width:1;" width="10" x="767.6699" y="1080.9063"/></g><g><title>PEP</title><rect fill="#000000" fill-opacity="0.00000" height="1979.6094" width="8" x="849.1855" y="126.5625"/><line style="stroke:#181818;stroke-width:0.5;stroke-dasharray:5.0,5.0;" x1="852.6855" x2="852.6855" y1="126.5625" y2="2106.1719"/></g><g><title/><rect fill="#FFFFFF" height="25.6406" style="stroke:#181818;stroke-width:1;" width="10" x="847.6855" y="268.4063"/></g><g><title/><rect fill="#FFFFFF" height="239.4063" style="stroke:#181818;stroke-width:1;" width="10" x="847.6855" y="1848.7656"/></g><g><title>PDP</title><rect fill="#000000" fill-opacity="0.00000" height="1979.6094" width="8" x="1070.3252" y="126.5625"/><line style="stroke:#181818;stroke-width:0.5;stroke-dasharray:5.0,5.0;" x1="1073.8252" x2="1073.8252" y1="126.5625" y2="2106.1719"/></g><g><title/><rect fill="#FFFFFF" height="25.6406" style="stroke:#181818;stroke-width:1;" width="10" x="1068.8252" y="319.6875"/></g><g><title/><rect fill="#FFFFFF" height="66.5625" style="stroke:#181818;stroke-width:1;" width="10" x="1068.8252" y="743.9375"/></g><g><title/><rect fill="#FFFFFF" height="819.1406" style="stroke:#181818;stroke-width:1;" width="10" x="1068.8252" y="942.0625"/></g><g><title>PDP</title><rect fill="#000000" fill-opacity="0.00000" height="1979.6094" width="8" x="1366.9775" y="126.5625"/><line style="stroke:#181818;stroke-width:0.5;stroke-dasharray:5.0,5.0;" x1="1370.4775" x2="1370.4775" y1="126.5625" y2="2106.1719"/></g><g><title/><rect fill="#FFFFFF" height="37.2813" style="stroke:#181818;stroke-width:1;" width="10" x="1365.4775" y="1648"/></g><g><title>Resource Server</title><rect fill="#000000" fill-opacity="0.00000" height="1979.6094" width="8" x="1475.5137" y="126.5625"/><line style="stroke:#181818;stroke-width:0.5;stroke-dasharray:5.0,5.0;" x1="1479.0137" x2="1479.0137" y1="126.5625" y2="2106.1719"/></g><g><title/><rect fill="#FFFFFF" height="87.5625" style="stroke:#181818;stroke-width:1;" width="10" x="1474.0137" y="1974.9688"/></g><text fill="#000000" font-family="Helvetica" font-size="10" x="9.6035" y="124.2041">User</text><ellipse cx="24" cy="63.4219" fill="#E2E2F0" rx="8" ry="8" style="stroke:#181818;stroke-width:0.5;"/><path d="M24,71.4219 L24,98.4219 M11,79.4219 L37,79.4219 M24,98.4219 L11,113.4219 M24,98.4219 L37,113.4219" fill="none" style="stroke:#181818;stroke-width:0.5;"/><rect fill="#E2E2F0" height="37.2813" rx="2.5" ry="2.5" style="stroke:#181818;stroke-width:0.5;" width="42.9502" x="154.187" y="88.2813"/><text fill="#000000" font-family="Helvetica" font-size="10" x="162.603" y="104.5635">ZETA</text><text fill="#000000" font-family="Helvetica" font-size="10" x="161.187" y="116.2041">Client</text><rect fill="#E2E2F0" height="25.6406" rx="2.5" ry="2.5" style="stroke:#181818;stroke-width:0.5;" width="34.7666" x="472.6069" y="99.9219"/><text fill="#000000" font-family="Helvetica" font-size="10" x="479.6069" y="116.2041">TPM</text><rect fill="#E2E2F0" height="37.2813" rx="2.5" ry="2.5" style="stroke:#181818;stroke-width:0.5;" width="78.8535" x="603.7002" y="88.2813"/><text fill="#000000" font-family="Helvetica" font-size="10" x="610.7002" y="104.5635">Konnektor or</text><text fill="#000000" font-family="Helvetica" font-size="10" x="614.7065" y="116.2041">TI-Gateway</text><rect fill="#E2E2F0" height="25.6406" rx="2.5" ry="2.5" style="stroke:#181818;stroke-width:0.5;" width="54.2295" x="745.5552" y="99.9219"/><text fill="#000000" font-family="Helvetica" font-size="10" x="752.5552" y="116.2041">SM(C)-B</text><rect fill="#E2E2F0" height="37.2813" rx="2.5" ry="2.5" style="stroke:#181818;stroke-width:0.5;" width="65.8018" x="819.7847" y="88.2813"/><text fill="#000000" font-family="Helvetica" font-size="10" x="843.4961" y="104.5635">PEP</text><text fill="#000000" font-family="Helvetica" font-size="10" x="826.7847" y="116.2041">http Proxy</text><rect fill="#E2E2F0" height="37.2813" rx="2.5" ry="2.5" style="stroke:#181818;stroke-width:0.5;" width="116.9492" x="1015.3506" y="88.2813"/><text fill="#000000" font-family="Helvetica" font-size="10" x="1063.9448" y="104.5635">PDP</text><text fill="#000000" font-family="Helvetica" font-size="10" x="1022.3506" y="116.2041">Authorization Server</text><rect fill="#E2E2F0" height="37.2813" rx="2.5" ry="2.5" style="stroke:#181818;stroke-width:0.5;" width="80.5723" x="1330.1914" y="88.2813"/><text fill="#000000" font-family="Helvetica" font-size="10" x="1360.5972" y="104.5635">PDP</text><text fill="#000000" font-family="Helvetica" font-size="10" x="1337.1914" y="116.2041">Policy Engine</text><rect fill="#E2E2F0" height="25.6406" rx="2.5" ry="2.5" style="stroke:#181818;stroke-width:0.5;" width="96.5" x="1430.7637" y="99.9219"/><text fill="#000000" font-family="Helvetica" font-size="10" x="1437.7637" y="116.2041">Resource Server</text><text fill="#000000" font-family="Helvetica" font-size="10" x="9.6035" y="2175.4541">User</text><ellipse cx="24" cy="2114.6719" fill="#E2E2F0" rx="8" ry="8" style="stroke:#181818;stroke-width:0.5;"/><path d="M24,2122.6719 L24,2149.6719 M11,2130.6719 L37,2130.6719 M24,2149.6719 L11,2164.6719 M24,2149.6719 L37,2164.6719" fill="none" style="stroke:#181818;stroke-width:0.5;"/><rect fill="#E2E2F0" height="37.2813" rx="2.5" ry="2.5" style="stroke:#181818;stroke-width:0.5;" width="42.9502" x="154.187" y="2106.1719"/><text fill="#000000" font-family="Helvetica" font-size="10" x="162.603" y="2122.4541">ZETA</text><text fill="#000000" font-family="Helvetica" font-size="10" x="161.187" y="2134.0947">Client</text><rect fill="#E2E2F0" height="25.6406" rx="2.5" ry="2.5" style="stroke:#181818;stroke-width:0.5;" width="34.7666" x="472.6069" y="2106.1719"/><text fill="#000000" font-family="Helvetica" font-size="10" x="479.6069" y="2122.4541">TPM</text><rect fill="#E2E2F0" height="37.2813" rx="2.5" ry="2.5" style="stroke:#181818;stroke-width:0.5;" width="78.8535" x="603.7002" y="2106.1719"/><text fill="#000000" font-family="Helvetica" font-size="10" x="610.7002" y="2122.4541">Konnektor or</text><text fill="#000000" font-family="Helvetica" font-size="10" x="614.7065" y="2134.0947">TI-Gateway</text><rect fill="#E2E2F0" height="25.6406" rx="2.5" ry="2.5" style="stroke:#181818;stroke-width:0.5;" width="54.2295" x="745.5552" y="2106.1719"/><text fill="#000000" font-family="Helvetica" font-size="10" x="752.5552" y="2122.4541">SM(C)-B</text><rect fill="#E2E2F0" height="37.2813" rx="2.5" ry="2.5" style="stroke:#181818;stroke-width:0.5;" width="65.8018" x="819.7847" y="2106.1719"/><text fill="#000000" font-family="Helvetica" font-size="10" x="843.4961" y="2122.4541">PEP</text><text fill="#000000" font-family="Helvetica" font-size="10" x="826.7847" y="2134.0947">http Proxy</text><rect fill="#E2E2F0" height="37.2813" rx="2.5" ry="2.5" style="stroke:#181818;stroke-width:0.5;" width="116.9492" x="1015.3506" y="2106.1719"/><text fill="#000000" font-family="Helvetica" font-size="10" x="1063.9448" y="2122.4541">PDP</text><text fill="#000000" font-family="Helvetica" font-size="10" x="1022.3506" y="2134.0947">Authorization Server</text><rect fill="#E2E2F0" height="37.2813" rx="2.5" ry="2.5" style="stroke:#181818;stroke-width:0.5;" width="80.5723" x="1330.1914" y="2106.1719"/><text fill="#000000" font-family="Helvetica" font-size="10" x="1360.5972" y="2122.4541">PDP</text><text fill="#000000" font-family="Helvetica" font-size="10" x="1337.1914" y="2134.0947">Policy Engine</text><rect fill="#E2E2F0" height="25.6406" rx="2.5" ry="2.5" style="stroke:#181818;stroke-width:0.5;" width="96.5" x="1430.7637" y="2106.1719"/><text fill="#000000" font-family="Helvetica" font-size="10" x="1437.7637" y="2122.4541">Resource Server</text><polygon fill="#181818" points="158.6621,171.4844,168.6621,175.4844,158.6621,179.4844,162.6621,175.4844" style="stroke:#181818;stroke-width:1;"/><line style="stroke:#181818;stroke-width:1;" x1="24" x2="164.6621" y1="175.4844" y2="175.4844"/><text fill="#000000" font-family="Helvetica" font-size="10" x="31" y="159.4854">(01)</text><text fill="#000000" font-family="Helvetica" font-size="10" x="55.5273" y="147.8447">User wants to</text><text fill="#000000" font-family="Helvetica" font-size="10" x="55.5273" y="159.4854">access resource</text><text fill="#000000" font-family="Helvetica" font-size="10" x="55.5273" y="171.126">on Resource Server</text><rect fill="#EEEEEE" height="3" style="stroke:#EEEEEE;stroke-width:1;" width="1561.2324" x="5" y="202.3047"/><line style="stroke:#000000;stroke-width:1;" x1="5" x2="1566.2324" y1="202.3047" y2="202.3047"/><line style="stroke:#000000;stroke-width:1;" x1="5" x2="1566.2324" y1="205.3047" y2="205.3047"/><rect fill="#EEEEEE" height="19.6406" style="stroke:#000000;stroke-width:2;" width="72.7109" x="749.2607" y="193.4844"/><text fill="#000000" font-family="Helvetica" font-size="10" font-weight="bold" x="755.2607" y="206.7666">Discovery</text><path d="M159.6621,227.125 L488.2998,227.125 L488.2998,230.7656 L478.2998,240.7656 L159.6621,240.7656 L159.6621,227.125" fill="#EEEEEE" style="stroke:#000000;stroke-width:1.5;"/><rect fill="none" height="126.2031" style="stroke:#000000;stroke-width:1.5;" width="935.1631" x="159.6621" y="227.125"/><text fill="#000000" font-family="Helvetica" font-size="10" font-weight="bold" x="174.6621" y="237.4072">ZETA Client has Resource Server FQDN (RS-FQDN)</text><polygon fill="#181818" points="835.6855,264.4063,845.6855,268.4063,835.6855,272.4063,839.6855,268.4063" style="stroke:#181818;stroke-width:1;"/><line style="stroke:#181818;stroke-width:1;" x1="180.6621" x2="841.6855" y1="268.4063" y2="268.4063"/><text fill="#000000" font-family="Helvetica" font-size="10" x="187.6621" y="264.0479">(02)</text><text fill="#000000" font-family="Helvetica" font-size="10" x="212.1895" y="264.0479">GET /.well-known/oauth-protected-resource Host: RS-FQDN</text><polygon fill="#181818" points="191.6621,290.0469,181.6621,294.0469,191.6621,298.0469,187.6621,294.0469" style="stroke:#181818;stroke-width:1;"/><line style="stroke:#181818;stroke-width:1;stroke-dasharray:2.0,2.0;" x1="185.6621" x2="846.6855" y1="294.0469" y2="294.0469"/><text fill="#000000" font-family="Helvetica" font-size="10" x="197.6621" y="289.6885">(03)</text><text fill="#000000" font-family="Helvetica" font-size="10" x="222.1895" y="289.6885">Client: 200 OK; json body with Well-Known json Document (RFC8414)</text><polygon fill="#181818" points="1056.8252,315.6875,1066.8252,319.6875,1056.8252,323.6875,1060.8252,319.6875" style="stroke:#181818;stroke-width:1;"/><line style="stroke:#181818;stroke-width:1;" x1="180.6621" x2="1062.8252" y1="319.6875" y2="319.6875"/><text fill="#000000" font-family="Helvetica" font-size="10" x="187.6621" y="315.3291">(04)</text><text fill="#000000" font-family="Helvetica" font-size="10" x="212.1895" y="315.3291">GET /.well-known/oauth-authorization-server&#160;Host: AuthS-FQDN</text><polygon fill="#181818" points="191.6621,341.3281,181.6621,345.3281,191.6621,349.3281,187.6621,345.3281" style="stroke:#181818;stroke-width:1;"/><line style="stroke:#181818;stroke-width:1;stroke-dasharray:2.0,2.0;" x1="185.6621" x2="1067.8252" y1="345.3281" y2="345.3281"/><text fill="#000000" font-family="Helvetica" font-size="10" x="197.6621" y="340.9697">(05)</text><text fill="#000000" font-family="Helvetica" font-size="10" x="222.1895" y="340.9697">200 OK; json body with Well-Known json Document (RFC8414)</text><rect fill="#EEEEEE" height="3" style="stroke:#EEEEEE;stroke-width:1;" width="1561.2324" x="5" y="386.1484"/><line style="stroke:#000000;stroke-width:1;" x1="5" x2="1566.2324" y1="386.1484" y2="386.1484"/><line style="stroke:#000000;stroke-width:1;" x1="5" x2="1566.2324" y1="389.1484" y2="389.1484"/><rect fill="#EEEEEE" height="19.6406" style="stroke:#000000;stroke-width:2;" width="171.2803" x="699.9761" y="377.3281"/><text fill="#000000" font-family="Helvetica" font-size="10" font-weight="bold" x="705.9761" y="390.6104">Dynamic client registration</text><path d="M8,410.9688 L67.9561,410.9688 L67.9561,414.6094 L57.9561,424.6094 L8,424.6094 L8,410.9688" fill="#EEEEEE" style="stroke:#000000;stroke-width:1.5;"/><rect fill="none" height="211.4063" style="stroke:#000000;stroke-width:1.5;" width="651.127" x="8" y="410.9688"/><text fill="#000000" font-family="Helvetica" font-size="10" font-weight="bold" x="23" y="421.251">alt</text><text fill="#000000" font-family="Helvetica" font-size="10" font-weight="bold" x="82.9561" y="422.251">[Client has no TPM Key Pair]</text><polygon fill="#181818" points="35,459.8906,25,463.8906,35,467.8906,31,463.8906" style="stroke:#181818;stroke-width:1;"/><line style="stroke:#181818;stroke-width:1;" x1="29" x2="169.6621" y1="463.8906" y2="463.8906"/><text fill="#000000" font-family="Helvetica" font-size="10" x="41" y="453.7119">(06)</text><text fill="#000000" font-family="Helvetica" font-size="10" x="65.5273" y="447.8916">Require Admin</text><text fill="#000000" font-family="Helvetica" font-size="10" x="65.5273" y="459.5322">access to TPM</text><polygon fill="#181818" points="158.6621,497.1719,168.6621,501.1719,158.6621,505.1719,162.6621,501.1719" style="stroke:#181818;stroke-width:1;"/><line style="stroke:#181818;stroke-width:1;stroke-dasharray:2.0,2.0;" x1="24" x2="164.6621" y1="501.1719" y2="501.1719"/><text fill="#000000" font-family="Helvetica" font-size="10" x="31" y="490.9932">(07)</text><text fill="#000000" font-family="Helvetica" font-size="10" x="55.5273" y="485.1729">TPM Admin</text><text fill="#000000" font-family="Helvetica" font-size="10" x="55.5273" y="496.8135">access</text><polygon fill="#181818" points="472.9902,534.4531,482.9902,538.4531,472.9902,542.4531,476.9902,538.4531" style="stroke:#181818;stroke-width:1;"/><line style="stroke:#181818;stroke-width:1;" x1="180.6621" x2="478.9902" y1="538.4531" y2="538.4531"/><text fill="#000000" font-family="Helvetica" font-size="10" x="187.6621" y="528.2744">(08)</text><text fill="#000000" font-family="Helvetica" font-size="10" x="212.1895" y="522.4541">Create Client Key Pair</text><text fill="#000000" font-family="Helvetica" font-size="10" x="212.1895" y="534.0947">in TPM</text><line style="stroke:#181818;stroke-width:1;" x1="494.9902" x2="536.9902" y1="575.7344" y2="575.7344"/><line style="stroke:#181818;stroke-width:1;" x1="536.9902" x2="536.9902" y1="575.7344" y2="588.7344"/><line style="stroke:#181818;stroke-width:1;" x1="495.9902" x2="536.9902" y1="588.7344" y2="588.7344"/><polygon fill="#181818" points="505.9902,584.7344,495.9902,588.7344,505.9902,592.7344,501.9902,588.7344" style="stroke:#181818;stroke-width:1;"/><text fill="#000000" font-family="Helvetica" font-size="10" x="501.9902" y="565.5557">(09)</text><text fill="#000000" font-family="Helvetica" font-size="10" x="526.5176" y="559.7354">Create Client Key Pair</text><text fill="#000000" font-family="Helvetica" font-size="10" x="526.5176" y="571.376">in TPM</text><polygon fill="#181818" points="191.6621,610.375,181.6621,614.375,191.6621,618.375,187.6621,614.375" style="stroke:#181818;stroke-width:1;"/><line style="stroke:#181818;stroke-width:1;stroke-dasharray:2.0,2.0;" x1="185.6621" x2="483.9902" y1="614.375" y2="614.375"/><text fill="#000000" font-family="Helvetica" font-size="10" x="197.6621" y="610.0166">(10)</text><text fill="#000000" font-family="Helvetica" font-size="10" x="222.1895" y="610.0166">Public Client Key</text><line style="stroke:#181818;stroke-width:1;" x1="180.6621" x2="222.6621" y1="654.0156" y2="654.0156"/><line style="stroke:#181818;stroke-width:1;" x1="222.6621" x2="222.6621" y1="654.0156" y2="667.0156"/><line style="stroke:#181818;stroke-width:1;" x1="181.6621" x2="222.6621" y1="667.0156" y2="667.0156"/><polygon fill="#181818" points="191.6621,663.0156,181.6621,667.0156,191.6621,671.0156,187.6621,667.0156" style="stroke:#181818;stroke-width:1;"/><text fill="#000000" font-family="Helvetica" font-size="10" x="187.6621" y="649.6572">(11)</text><text fill="#000000" font-family="Helvetica" font-size="10" x="212.1895" y="649.6572">Create client statement</text><polygon fill="#181818" points="472.9902,688.6563,482.9902,692.6563,472.9902,696.6563,476.9902,692.6563" style="stroke:#181818;stroke-width:1;"/><line style="stroke:#181818;stroke-width:1;" x1="180.6621" x2="478.9902" y1="692.6563" y2="692.6563"/><text fill="#000000" font-family="Helvetica" font-size="10" x="187.6621" y="688.2979">(12)</text><text fill="#000000" font-family="Helvetica" font-size="10" x="212.1895" y="688.2979">Sign client statement</text><polygon fill="#181818" points="191.6621,714.2969,181.6621,718.2969,191.6621,722.2969,187.6621,718.2969" style="stroke:#181818;stroke-width:1;"/><line style="stroke:#181818;stroke-width:1;stroke-dasharray:2.0,2.0;" x1="185.6621" x2="483.9902" y1="718.2969" y2="718.2969"/><text fill="#000000" font-family="Helvetica" font-size="10" x="197.6621" y="713.9385">(13)</text><text fill="#000000" font-family="Helvetica" font-size="10" x="222.1895" y="713.9385">client statement Signature (Attestation Statement)</text><polygon fill="#181818" points="1056.8252,739.9375,1066.8252,743.9375,1056.8252,747.9375,1060.8252,743.9375" style="stroke:#181818;stroke-width:1;"/><line style="stroke:#181818;stroke-width:1;" x1="180.6621" x2="1062.8252" y1="743.9375" y2="743.9375"/><text fill="#000000" font-family="Helvetica" font-size="10" x="187.6621" y="739.5791">(14)</text><text fill="#000000" font-family="Helvetica" font-size="10" x="212.1895" y="739.5791">Client Registration Request</text><path d="M1083.8252,731.2969 L1083.8252,775.2969 L1318.8252,775.2969 L1318.8252,741.2969 L1308.8252,731.2969 L1083.8252,731.2969" fill="#FEFFDD" style="stroke:#181818;stroke-width:0.5;"/><path d="M1308.8252,731.2969 L1308.8252,741.2969 L1318.8252,741.2969 L1308.8252,731.2969" fill="#FEFFDD" style="stroke:#181818;stroke-width:0.5;"/><text fill="#000000" font-family="Helvetica" font-size="10" x="1089.8252" y="745.5791">client_statement.yaml</text><text fill="#000000" font-family="Helvetica" font-size="10" x="1089.8252" y="757.2197">Includes attestation statement, public key,</text><text fill="#000000" font-family="Helvetica" font-size="10" x="1089.8252" y="768.8604">and client statement</text><polygon fill="#181818" points="191.6621,806.5,181.6621,810.5,191.6621,814.5,187.6621,810.5" style="stroke:#181818;stroke-width:1;"/><line style="stroke:#181818;stroke-width:1;stroke-dasharray:2.0,2.0;" x1="185.6621" x2="1067.8252" y1="810.5" y2="810.5"/><text fill="#000000" font-family="Helvetica" font-size="10" x="197.6621" y="800.3213">(15)</text><text fill="#000000" font-family="Helvetica" font-size="10" x="222.1895" y="794.501">Client Registration Response</text><text fill="#000000" font-family="Helvetica" font-size="10" x="222.1895" y="806.1416">(client_id)</text><rect fill="#EEEEEE" height="3" style="stroke:#EEEEEE;stroke-width:1;" width="1561.2324" x="5" y="837.3203"/><line style="stroke:#000000;stroke-width:1;" x1="5" x2="1566.2324" y1="837.3203" y2="837.3203"/><line style="stroke:#000000;stroke-width:1;" x1="5" x2="1566.2324" y1="840.3203" y2="840.3203"/><rect fill="#EEEEEE" height="19.6406" style="stroke:#000000;stroke-width:2;" width="229.3809" x="670.9258" y="828.5"/><text fill="#000000" font-family="Helvetica" font-size="10" font-weight="bold" x="676.9258" y="841.7822">Token Exchange (under construction)</text><line style="stroke:#181818;stroke-width:1;" x1="180.6621" x2="222.6621" y1="875.7813" y2="875.7813"/><line style="stroke:#181818;stroke-width:1;" x1="222.6621" x2="222.6621" y1="875.7813" y2="888.7813"/><line style="stroke:#181818;stroke-width:1;" x1="181.6621" x2="222.6621" y1="888.7813" y2="888.7813"/><polygon fill="#181818" points="191.6621,884.7813,181.6621,888.7813,191.6621,892.7813,187.6621,888.7813" style="stroke:#181818;stroke-width:1;"/><text fill="#000000" font-family="Helvetica" font-size="10" x="187.6621" y="871.4229">(16)</text><text fill="#000000" font-family="Helvetica" font-size="10" x="212.1895" y="871.4229">generate DPoP key pair</text><path d="M159.6621,900.7813 L219.6182,900.7813 L219.6182,904.4219 L209.6182,914.4219 L159.6621,914.4219 L159.6621,900.7813" fill="#EEEEEE" style="stroke:#000000;stroke-width:1.5;"/><rect fill="none" height="715.5781" style="stroke:#000000;stroke-width:1.5;" width="1179.374" x="159.6621" y="900.7813"/><text fill="#000000" font-family="Helvetica" font-size="10" font-weight="bold" x="174.6621" y="911.0635">alt</text><text fill="#000000" font-family="Helvetica" font-size="10" font-weight="bold" x="234.6182" y="912.0635">[Client has no valid refresh token]</text><line style="stroke:#000000;stroke-width:1;stroke-dasharray:2.0,2.0;" x1="159.6621" x2="1339.0361" y1="1421.2344" y2="1421.2344"/><text fill="#000000" font-family="Helvetica" font-size="10" font-weight="bold" x="164.6621" y="1432.5166">[Client has valid Refresh token]</text><polygon fill="#181818" points="1056.8252,938.0625,1066.8252,942.0625,1056.8252,946.0625,1060.8252,942.0625" style="stroke:#181818;stroke-width:1;"/><line style="stroke:#181818;stroke-width:1;" x1="180.6621" x2="1062.8252" y1="942.0625" y2="942.0625"/><text fill="#000000" font-family="Helvetica" font-size="10" x="187.6621" y="937.7041">(17)</text><text fill="#000000" font-family="Helvetica" font-size="10" x="212.1895" y="937.7041">GET /nonce</text><polygon fill="#181818" points="191.6621,963.7031,181.6621,967.7031,191.6621,971.7031,187.6621,967.7031" style="stroke:#181818;stroke-width:1;"/><line style="stroke:#181818;stroke-width:1;stroke-dasharray:2.0,2.0;" x1="185.6621" x2="1067.8252" y1="967.7031" y2="967.7031"/><text fill="#000000" font-family="Helvetica" font-size="10" x="197.6621" y="963.3447">(18)</text><text fill="#000000" font-family="Helvetica" font-size="10" x="222.1895" y="963.3447">return 200 OK new-nonce: nonce</text><line style="stroke:#181818;stroke-width:1;" x1="180.6621" x2="222.6621" y1="1016.625" y2="1016.625"/><line style="stroke:#181818;stroke-width:1;" x1="222.6621" x2="222.6621" y1="1016.625" y2="1029.625"/><line style="stroke:#181818;stroke-width:1;" x1="181.6621" x2="222.6621" y1="1029.625" y2="1029.625"/><polygon fill="#181818" points="191.6621,1025.625,181.6621,1029.625,191.6621,1033.625,187.6621,1029.625" style="stroke:#181818;stroke-width:1;"/><text fill="#000000" font-family="Helvetica" font-size="10" x="187.6621" y="1000.626">(19)</text><text fill="#000000" font-family="Helvetica" font-size="10" x="212.1895" y="988.9854">create Client Assertion JWT with nonce</text><text fill="#000000" font-family="Helvetica" font-size="10" x="218.5469" y="1000.626">Client and OS Information</text><text fill="#000000" font-family="Helvetica" font-size="10" x="218.5469" y="1012.2666">DPoP Thumbprint</text><polygon fill="#181818" points="626.127,1051.2656,636.127,1055.2656,626.127,1059.2656,630.127,1055.2656" style="stroke:#181818;stroke-width:1;"/><line style="stroke:#181818;stroke-width:1;" x1="180.6621" x2="632.127" y1="1055.2656" y2="1055.2656"/><text fill="#000000" font-family="Helvetica" font-size="10" x="187.6621" y="1050.9072">(20)</text><text fill="#000000" font-family="Helvetica" font-size="10" x="212.1895" y="1050.9072">externalAuthenticate JWT-hash</text><polygon fill="#181818" points="755.6699,1076.9063,765.6699,1080.9063,755.6699,1084.9063,759.6699,1080.9063" style="stroke:#181818;stroke-width:1;"/><line style="stroke:#181818;stroke-width:1;" x1="648.127" x2="761.6699" y1="1080.9063" y2="1080.9063"/><text fill="#000000" font-family="Helvetica" font-size="10" x="655.127" y="1076.5479">(21)</text><text fill="#000000" font-family="Helvetica" font-size="10" x="679.6543" y="1076.5479">sign JWT-hash</text><polygon fill="#181818" points="659.127,1102.5469,649.127,1106.5469,659.127,1110.5469,655.127,1106.5469" style="stroke:#181818;stroke-width:1;"/><line style="stroke:#181818;stroke-width:1;" x1="653.127" x2="766.6699" y1="1106.5469" y2="1106.5469"/><text fill="#000000" font-family="Helvetica" font-size="10" x="665.127" y="1102.1885">(22)</text><text fill="#000000" font-family="Helvetica" font-size="10" x="689.6543" y="1102.1885">JWT-Signature</text><polygon fill="#181818" points="191.6621,1128.1875,181.6621,1132.1875,191.6621,1136.1875,187.6621,1132.1875" style="stroke:#181818;stroke-width:1;"/><line style="stroke:#181818;stroke-width:1;" x1="185.6621" x2="637.127" y1="1132.1875" y2="1132.1875"/><text fill="#000000" font-family="Helvetica" font-size="10" x="197.6621" y="1127.8291">(23)</text><text fill="#000000" font-family="Helvetica" font-size="10" x="222.1895" y="1127.8291">JWT-signature</text><line style="stroke:#181818;stroke-width:1;" x1="180.6621" x2="222.6621" y1="1169.4688" y2="1169.4688"/><line style="stroke:#181818;stroke-width:1;" x1="222.6621" x2="222.6621" y1="1169.4688" y2="1182.4688"/><line style="stroke:#181818;stroke-width:1;" x1="181.6621" x2="222.6621" y1="1182.4688" y2="1182.4688"/><polygon fill="#181818" points="191.6621,1178.4688,181.6621,1182.4688,191.6621,1186.4688,187.6621,1182.4688" style="stroke:#181818;stroke-width:1;"/><text fill="#000000" font-family="Helvetica" font-size="10" x="187.6621" y="1159.29">(24)</text><text fill="#000000" font-family="Helvetica" font-size="10" x="212.1895" y="1153.4697">add SM-B Signature to Client Assertion JWT</text><text fill="#000000" font-family="Helvetica" font-size="10" x="212.1895" y="1165.1104">cC4h... (Client Assertion JWT)</text><line style="stroke:#181818;stroke-width:1;" x1="180.6621" x2="222.6621" y1="1208.1094" y2="1208.1094"/><line style="stroke:#181818;stroke-width:1;" x1="222.6621" x2="222.6621" y1="1208.1094" y2="1221.1094"/><line style="stroke:#181818;stroke-width:1;" x1="181.6621" x2="222.6621" y1="1221.1094" y2="1221.1094"/><polygon fill="#181818" points="191.6621,1217.1094,181.6621,1221.1094,191.6621,1225.1094,187.6621,1221.1094" style="stroke:#181818;stroke-width:1;"/><text fill="#000000" font-family="Helvetica" font-size="10" x="187.6621" y="1203.751">(25)</text><text fill="#000000" font-family="Helvetica" font-size="10" x="212.1895" y="1203.751">create DPoP JWT with nonce</text><polygon fill="#181818" points="1056.8252,1289.3125,1066.8252,1293.3125,1056.8252,1297.3125,1060.8252,1293.3125" style="stroke:#181818;stroke-width:1;"/><line style="stroke:#181818;stroke-width:1;" x1="180.6621" x2="1062.8252" y1="1293.3125" y2="1293.3125"/><text fill="#000000" font-family="Helvetica" font-size="10" x="187.6621" y="1265.6729">(26)</text><text fill="#000000" font-family="Helvetica" font-size="10" x="212.1895" y="1242.3916">POST /token</text><text fill="#000000" font-family="Helvetica" font-size="10" x="218.5469" y="1254.0322">Content-Type: application/x-www-form-urlencoded</text><text fill="#000000" font-family="Helvetica" font-size="10" x="218.5469" y="1265.6729">DPoP: ... (DPoP JWT)</text><text fill="#000000" font-family="Helvetica" font-size="10" x="218.5469" y="1277.3135">grant_type=urn%3Aietf%3Aparams%3Aoauth%3Agrant-type%3Ajwt-bearer</text><text fill="#000000" font-family="Helvetica" font-size="10" x="218.5469" y="1288.9541">assertion=eyJh... (Client Assertion JWT)</text><path d="M802.4297,1306.3125 L802.4297,1327.3125 L1068.4297,1327.3125 L1068.4297,1316.3125 L1058.4297,1306.3125 L802.4297,1306.3125" fill="#FEFFDD" style="stroke:#181818;stroke-width:0.5;"/><path d="M1058.4297,1306.3125 L1058.4297,1316.3125 L1068.4297,1316.3125 L1058.4297,1306.3125" fill="#FEFFDD" style="stroke:#181818;stroke-width:0.5;"/><text fill="#000000" font-family="Helvetica" font-size="10" x="808.4297" y="1320.5947">RFC7523 (JWT Client Assertion), RFC9449 (DPoP)</text><line style="stroke:#181818;stroke-width:1;" x1="1078.8252" x2="1120.8252" y1="1350.5938" y2="1350.5938"/><line style="stroke:#181818;stroke-width:1;" x1="1120.8252" x2="1120.8252" y1="1350.5938" y2="1363.5938"/><line style="stroke:#181818;stroke-width:1;" x1="1079.8252" x2="1120.8252" y1="1363.5938" y2="1363.5938"/><polygon fill="#181818" points="1089.8252,1359.5938,1079.8252,1363.5938,1089.8252,1367.5938,1085.8252,1363.5938" style="stroke:#181818;stroke-width:1;"/><text fill="#000000" font-family="Helvetica" font-size="10" x="1085.8252" y="1346.2354">(27)</text><text fill="#000000" font-family="Helvetica" font-size="10" x="1110.3525" y="1346.2354">verify Client Assertion JWT and DPoP JWT</text><line style="stroke:#181818;stroke-width:1;" x1="1078.8252" x2="1120.8252" y1="1389.2344" y2="1389.2344"/><line style="stroke:#181818;stroke-width:1;" x1="1120.8252" x2="1120.8252" y1="1389.2344" y2="1402.2344"/><line style="stroke:#181818;stroke-width:1;" x1="1079.8252" x2="1120.8252" y1="1402.2344" y2="1402.2344"/><polygon fill="#181818" points="1089.8252,1398.2344,1079.8252,1402.2344,1089.8252,1406.2344,1085.8252,1402.2344" style="stroke:#181818;stroke-width:1;"/><text fill="#000000" font-family="Helvetica" font-size="10" x="1085.8252" y="1384.876">(28)</text><text fill="#000000" font-family="Helvetica" font-size="10" x="1110.3525" y="1384.876">Create state for Identity/App/Device</text><line style="stroke:#181818;stroke-width:1;" x1="180.6621" x2="222.6621" y1="1457.5156" y2="1457.5156"/><line style="stroke:#181818;stroke-width:1;" x1="222.6621" x2="222.6621" y1="1457.5156" y2="1470.5156"/><line style="stroke:#181818;stroke-width:1;" x1="181.6621" x2="222.6621" y1="1470.5156" y2="1470.5156"/><polygon fill="#181818" points="191.6621,1466.5156,181.6621,1470.5156,191.6621,1474.5156,187.6621,1470.5156" style="stroke:#181818;stroke-width:1;"/><text fill="#000000" font-family="Helvetica" font-size="10" x="187.6621" y="1453.1572">(29)</text><text fill="#000000" font-family="Helvetica" font-size="10" x="212.1895" y="1453.1572">create DPoP JWT without nonce</text><polygon fill="#181818" points="1056.8252,1527.0781,1066.8252,1531.0781,1056.8252,1535.0781,1060.8252,1531.0781" style="stroke:#181818;stroke-width:1;"/><line style="stroke:#181818;stroke-width:1;" x1="180.6621" x2="1062.8252" y1="1531.0781" y2="1531.0781"/><text fill="#000000" font-family="Helvetica" font-size="10" x="187.6621" y="1509.2588">(30)</text><text fill="#000000" font-family="Helvetica" font-size="10" x="212.1895" y="1491.7979">POST /token</text><text fill="#000000" font-family="Helvetica" font-size="10" x="218.5469" y="1503.4385">DPoP: ... (DPoP JWT)</text><text fill="#000000" font-family="Helvetica" font-size="10" x="218.5469" y="1515.0791">grant_type=refresh_token</text><text fill="#000000" font-family="Helvetica" font-size="10" x="218.5469" y="1526.7197">refresh_token= ... (Refresh token)</text><line style="stroke:#181818;stroke-width:1;" x1="1078.8252" x2="1120.8252" y1="1556.7188" y2="1556.7188"/><line style="stroke:#181818;stroke-width:1;" x1="1120.8252" x2="1120.8252" y1="1556.7188" y2="1569.7188"/><line style="stroke:#181818;stroke-width:1;" x1="1079.8252" x2="1120.8252" y1="1569.7188" y2="1569.7188"/><polygon fill="#181818" points="1089.8252,1565.7188,1079.8252,1569.7188,1089.8252,1573.7188,1085.8252,1569.7188" style="stroke:#181818;stroke-width:1;"/><text fill="#000000" font-family="Helvetica" font-size="10" x="1085.8252" y="1552.3604">(31)</text><text fill="#000000" font-family="Helvetica" font-size="10" x="1110.3525" y="1552.3604">verify Refresh token and DPoP JWT</text><line style="stroke:#181818;stroke-width:1;" x1="1078.8252" x2="1120.8252" y1="1595.3594" y2="1595.3594"/><line style="stroke:#181818;stroke-width:1;" x1="1120.8252" x2="1120.8252" y1="1595.3594" y2="1608.3594"/><line style="stroke:#181818;stroke-width:1;" x1="1079.8252" x2="1120.8252" y1="1608.3594" y2="1608.3594"/><polygon fill="#181818" points="1089.8252,1604.3594,1079.8252,1608.3594,1089.8252,1612.3594,1085.8252,1608.3594" style="stroke:#181818;stroke-width:1;"/><text fill="#000000" font-family="Helvetica" font-size="10" x="1085.8252" y="1591.001">(32)</text><text fill="#000000" font-family="Helvetica" font-size="10" x="1110.3525" y="1591.001">invalidate Refresh token</text><polygon fill="#181818" points="1353.4775,1644,1363.4775,1648,1353.4775,1652,1357.4775,1648" style="stroke:#181818;stroke-width:1;"/><line style="stroke:#181818;stroke-width:1;" x1="1078.8252" x2="1359.4775" y1="1648" y2="1648"/><text fill="#000000" font-family="Helvetica" font-size="10" x="1085.8252" y="1643.6416">(33)</text><text fill="#000000" font-family="Helvetica" font-size="10" x="1110.3525" y="1643.6416">POST /v1/data/authz, json body {  "input": {...}}</text><polygon fill="#181818" points="1089.8252,1681.2813,1079.8252,1685.2813,1089.8252,1689.2813,1085.8252,1685.2813" style="stroke:#181818;stroke-width:1;"/><line style="stroke:#181818;stroke-width:1;stroke-dasharray:2.0,2.0;" x1="1083.8252" x2="1364.4775" y1="1685.2813" y2="1685.2813"/><text fill="#000000" font-family="Helvetica" font-size="10" x="1095.8252" y="1675.1025">(34)</text><text fill="#000000" font-family="Helvetica" font-size="10" x="1120.3525" y="1669.2822">200 OK, json body {"result": {"allow": true,</text><text fill="#000000" font-family="Helvetica" font-size="10" x="1120.3525" y="1680.9229">"access_token_attributes": {...}}</text><line style="stroke:#181818;stroke-width:1;" x1="1078.8252" x2="1120.8252" y1="1722.5625" y2="1722.5625"/><line style="stroke:#181818;stroke-width:1;" x1="1120.8252" x2="1120.8252" y1="1722.5625" y2="1735.5625"/><line style="stroke:#181818;stroke-width:1;" x1="1079.8252" x2="1120.8252" y1="1735.5625" y2="1735.5625"/><polygon fill="#181818" points="1089.8252,1731.5625,1079.8252,1735.5625,1089.8252,1739.5625,1085.8252,1735.5625" style="stroke:#181818;stroke-width:1;"/><text fill="#000000" font-family="Helvetica" font-size="10" x="1085.8252" y="1712.3838">(35)</text><text fill="#000000" font-family="Helvetica" font-size="10" x="1110.3525" y="1706.5635">issue Access and Refresh token with DPoP Binding</text><text fill="#000000" font-family="Helvetica" font-size="10" x="1116.71" y="1718.2041">and Access token attributes</text><polygon fill="#181818" points="191.6621,1757.2031,181.6621,1761.2031,191.6621,1765.2031,187.6621,1761.2031" style="stroke:#181818;stroke-width:1;"/><line style="stroke:#181818;stroke-width:1;stroke-dasharray:2.0,2.0;" x1="185.6621" x2="1067.8252" y1="1761.2031" y2="1761.2031"/><text fill="#000000" font-family="Helvetica" font-size="10" x="197.6621" y="1756.8447">(36)</text><text fill="#000000" font-family="Helvetica" font-size="10" x="222.1895" y="1756.8447">200 OK, Access token, Refresh token, bound to DPoP</text><line style="stroke:#181818;stroke-width:1;" x1="180.6621" x2="222.6621" y1="1786.8438" y2="1786.8438"/><line style="stroke:#181818;stroke-width:1;" x1="222.6621" x2="222.6621" y1="1786.8438" y2="1799.8438"/><line style="stroke:#181818;stroke-width:1;" x1="181.6621" x2="222.6621" y1="1799.8438" y2="1799.8438"/><polygon fill="#181818" points="191.6621,1795.8438,181.6621,1799.8438,191.6621,1803.8438,187.6621,1799.8438" style="stroke:#181818;stroke-width:1;"/><text fill="#000000" font-family="Helvetica" font-size="10" x="187.6621" y="1782.4854">(37)</text><text fill="#000000" font-family="Helvetica" font-size="10" x="212.1895" y="1782.4854">Create DPoP Proof for RS</text><polygon fill="#181818" points="835.6855,1844.7656,845.6855,1848.7656,835.6855,1852.7656,839.6855,1848.7656" style="stroke:#181818;stroke-width:1;"/><line style="stroke:#181818;stroke-width:1;" x1="180.6621" x2="841.6855" y1="1848.7656" y2="1848.7656"/><text fill="#000000" font-family="Helvetica" font-size="10" x="187.6621" y="1832.7666">(38)</text><text fill="#000000" font-family="Helvetica" font-size="10" x="212.1895" y="1821.126">GET /resource</text><text fill="#000000" font-family="Helvetica" font-size="10" x="218.5469" y="1832.7666">Authorization: DPoP ... (Accesss token)</text><text fill="#000000" font-family="Helvetica" font-size="10" x="218.5469" y="1844.4072">DPoP: ... (DPoP token)</text><line style="stroke:#181818;stroke-width:1;" x1="857.6855" x2="899.6855" y1="1874.4063" y2="1874.4063"/><line style="stroke:#181818;stroke-width:1;" x1="899.6855" x2="899.6855" y1="1874.4063" y2="1887.4063"/><line style="stroke:#181818;stroke-width:1;" x1="858.6855" x2="899.6855" y1="1887.4063" y2="1887.4063"/><polygon fill="#181818" points="868.6855,1883.4063,858.6855,1887.4063,868.6855,1891.4063,864.6855,1887.4063" style="stroke:#181818;stroke-width:1;"/><text fill="#000000" font-family="Helvetica" font-size="10" x="864.6855" y="1870.0479">(39)</text><text fill="#000000" font-family="Helvetica" font-size="10" x="889.2129" y="1870.0479">verify Access token and DPoP Proof</text><line style="stroke:#181818;stroke-width:1;" x1="857.6855" x2="899.6855" y1="1924.6875" y2="1924.6875"/><line style="stroke:#181818;stroke-width:1;" x1="899.6855" x2="899.6855" y1="1924.6875" y2="1937.6875"/><line style="stroke:#181818;stroke-width:1;" x1="858.6855" x2="899.6855" y1="1937.6875" y2="1937.6875"/><polygon fill="#181818" points="868.6855,1933.6875,858.6855,1937.6875,868.6855,1941.6875,864.6855,1937.6875" style="stroke:#181818;stroke-width:1;"/><text fill="#000000" font-family="Helvetica" font-size="10" x="864.6855" y="1914.5088">(40)</text><text fill="#000000" font-family="Helvetica" font-size="10" x="889.2129" y="1908.6885">additional checks according to</text><text fill="#000000" font-family="Helvetica" font-size="10" x="889.2129" y="1920.3291">Access token attributes</text><polygon fill="#181818" points="1462.0137,1970.9688,1472.0137,1974.9688,1462.0137,1978.9688,1466.0137,1974.9688" style="stroke:#181818;stroke-width:1;"/><line style="stroke:#181818;stroke-width:1;" x1="857.6855" x2="1468.0137" y1="1974.9688" y2="1974.9688"/><text fill="#000000" font-family="Helvetica" font-size="10" x="864.6855" y="1964.79">(41)</text><text fill="#000000" font-family="Helvetica" font-size="10" x="889.2129" y="1958.9697">forward GET /resource</text><text fill="#000000" font-family="Helvetica" font-size="10" x="889.2129" y="1970.6104">with header and header content as json</text><line style="stroke:#181818;stroke-width:1;" x1="1484.0137" x2="1526.0137" y1="2023.8906" y2="2023.8906"/><line style="stroke:#181818;stroke-width:1;" x1="1526.0137" x2="1526.0137" y1="2023.8906" y2="2036.8906"/><line style="stroke:#181818;stroke-width:1;" x1="1485.0137" x2="1526.0137" y1="2036.8906" y2="2036.8906"/><polygon fill="#181818" points="1495.0137,2032.8906,1485.0137,2036.8906,1495.0137,2040.8906,1491.0137,2036.8906" style="stroke:#181818;stroke-width:1;"/><text fill="#000000" font-family="Helvetica" font-size="10" x="1491.0137" y="2007.8916">(42)</text><text fill="#000000" font-family="Helvetica" font-size="10" x="1515.541" y="1996.251">provide</text><text fill="#000000" font-family="Helvetica" font-size="10" x="1515.541" y="2007.8916">resource</text><text fill="#000000" font-family="Helvetica" font-size="10" x="1515.541" y="2019.5322">access</text><polygon fill="#181818" points="868.6855,2058.5313,858.6855,2062.5313,868.6855,2066.5313,864.6855,2062.5313" style="stroke:#181818;stroke-width:1;"/><line style="stroke:#181818;stroke-width:1;stroke-dasharray:2.0,2.0;" x1="862.6855" x2="1473.0137" y1="2062.5313" y2="2062.5313"/><text fill="#000000" font-family="Helvetica" font-size="10" x="874.6855" y="2058.1729">(43)</text><text fill="#000000" font-family="Helvetica" font-size="10" x="899.2129" y="2058.1729">200 OK, resource</text><polygon fill="#181818" points="191.6621,2084.1719,181.6621,2088.1719,191.6621,2092.1719,187.6621,2088.1719" style="stroke:#181818;stroke-width:1;"/><line style="stroke:#181818;stroke-width:1;stroke-dasharray:2.0,2.0;" x1="185.6621" x2="846.6855" y1="2088.1719" y2="2088.1719"/><text fill="#000000" font-family="Helvetica" font-size="10" x="197.6621" y="2083.8135">(44)</text><text fill="#000000" font-family="Helvetica" font-size="10" x="222.1895" y="2083.8135">200 OK, resource</text><!--SRC=[hLVTRjis5BxNKvnv6603KPAs6RPwo00dTfCqJQFP7eeD1Wf6OYmsCgbHb1sbwBliOa-olTZE8ILPya_MYrtfX-VtEnyF3rbkbCmNTrn3ftjytEjusOEGATDi0H6_PtbYtYXf9kA9mulZtOllsOB39K-Mt8YGDMI6JkP6IPMbBEHHBNskSYsuRiWcNCvDF8W-vPa1gIJtl6zIpUOB1eQh9p0wnr-3q2WDlsQeUgSUeVDkTDM1RozYbPaFiJ3S0x3_0oqM__obio8pV84IxzYIomYr04g9tqVJ0PmdWak3wnCce-9CgvMq4W0O52OZKYPDAGKiSrepMQfPKJHB1hrDfMbmOpNmIO9hiQRGjPAIFr1A9Bh-KdecfrV-1JDynOhEXjRavipAJswwvpt_hEDLnXqc0tadkE4QqvgEpY_VtxwxlVZDQwPzaJCTRMVTz74PM1V1A9Z9s9WK0gqUYywMt20tySI93b6KFfKMJym89M72zPBYsD8AHckLG2KYB60avqBoDbGkvkaLl3myXY5YZjJuTiZqmuIp2ytvhcADNJHZdY75Gbx5qAfLZHSH2VoVomhtBR5WXMOoC6ecMHZoB0DTsfeXBM73iCT28vPOfzA6vvsUOgXPg72nWDDJRwvLdaA3RX1ZW1jcuCqlm_VG7KzyUkbXjAKi1dSPzE5YD8MZmnLF4lz1OhsE54Ea_LGhmqF38x-A4IvnA_IXD8HswlWk0_p2ilgDVAldo-DZkBt-2JvbcE6TYWfO2HF31_9tJVxSob25-OAYwexVdFzuykA40erusyKwSCkDlR6p9bNypCBmzvykVAkvbO7zYpySvvfv_4_nEmV83bV5GhA5225q2Ma-5vdHZjbOLvQOPa6bibl-cXSGCA5RG12ji2RyZrnez18jXAp9PQmUYZikDf8YSotPbarSnVfflgPUxNicXIoDrgcvJpBvrRfMk15FaD_XJcqejC4Z9O9k7MBDCkUfn34p-45Ly3QIcOYvt1PgsTyCQLFQsc0cHvIx0sCuBTX6L0dql8s8lIswbZ_6pN9JwT2O9t6xWHRpkFRziVPzMB15CfDNCapoY6V06lvheGD87OeFl3Z0kc8Zsf-ne-CsstT7cALAPjYZkcLW8cebwumHhwVgWKiOFOOnatC4AgU34KBKnZCs96izulTs7UTSSassXe4AA0DilCZq7JjXoH8HuOwvnxOK8yNHeRUxBs1B3Vb_fwmv5bMM-nmaN_bMiGzEVplMiCNkGOQRo-BqziFKzGQhE9Frbg9It4xWIjuhlR2OqgBDT1hZW9HgqQ9iVLZtWJ_YQIjPGc7ZAiv0w1aT-OX6lCwjrl3M1pqQmjEy3nbnVri5rpmwxTl-IAucUhF69DwoNQ516jakZNLCEp1aKOGc_RF6hi9kjGlIcGpFJ-B3mqFexbhkxI-G1RXTb6sc1BSJf8gbaQqOJf4eu4-B51d0qZGXoD7NqQE_Mgrygg2VQvmeGnNngAfZ7so0bSSU_PzhFEm_6ZHqYlpwxjK09wTxVDYPDCCNUrRXqmhw98WVdrR6l-DCSqqsM9NgAI_UFWU2xHu9lpUWxkl334-Y7xv_-Ggw1CAcNk-0rb-VdBnsSVViw49sgZrIOuIdfxWlTXEUk5sblQLOTcVRVm2XWwk8I6oAeq6Q7WtvKc19F9valBd9tGuVxzdXpnLPvUOhw_mLHIjRpCTQf_NZr2ctekpjGwubzJnaGjhqARKs0dPqgAM3KPNIyiKHIhCZ8jFJGMDC-GpGmHjGRZfz-8p1Vla2wzqVZ3mSbFsrNzV-MleTz8vNB5Bli2HHAtoZgn8UBXqtDJWeFk9nfCLTZcTIxQhP2D3NLfPPbcD7TcCAuT56o6vO2z6Pa96GSxiNK6nG3JOMnzgjjsziEsXf7BJT762UU41Huo5VEqwqlVE6ZGslBRZPYDRZYRTZfbxFzcwkh2VIljEt17BnbG7sTb6pf5Pp4gPHspag2TR6fUAN3R0XZ4rNa7-MG1Zpy06X3qEb2M1x9zc7hhCmnhfXiYkytstcP-iLSqQ7FNalNqFNJEdIHBHQfu1uZIULJRneB4M4LjRsofbqx4fAeLVbh6IQnK9h6tUFvwGlWmtTnbTvp_eN]--></g></svg>