<svg xmlns="http://www.w3.org/2000/svg" xmlns:xlink="http://www.w3.org/1999/xlink" contentStyleType="text/css" height="1382px" preserveAspectRatio="none" style="width:1072px;height:1382px;background:#FFFFFF;" version="1.1" viewBox="0 0 1072 1382" width="1072px" zoomAndPan="magnify"><defs/><g><rect fill="#F8F8FF" height="1370.5938" style="stroke:#181818;stroke-width:0.5;" width="193" x="236.5" y="6"/><text fill="#000000" font-family="Helvetica" font-size="10" font-weight="bold" x="325.5" y="15.2822">LEI</text><rect fill="#C9FFC9" height="1370.5938" style="stroke:#181818;stroke-width:0.5;" width="597" x="441.5" y="6"/><text fill="#000000" font-family="Helvetica" font-size="10" font-weight="bold" x="713.5" y="15.2822">Betreiber</text><rect fill="#F4A460" height="1353.9531" style="stroke:#181818;stroke-width:0.5;" width="482" x="441.5" y="22.6406"/><text fill="#000000" font-family="Helvetica" font-size="10" font-weight="bold" x="654" y="31.9229">ZT Cluster</text><rect fill="#8FBC8F" height="1353.9531" style="stroke:#181818;stroke-width:0.5;" width="103" x="935.5" y="22.6406"/><text fill="#000000" font-family="Helvetica" font-size="10" font-weight="bold" x="950.5" y="31.9229">TI 2.0 Dienst</text><line style="stroke:#181818;stroke-width:0.5;stroke-dasharray:5.0,5.0;" x1="26" x2="26" y1="76.5625" y2="1332.3125"/><rect fill="#FFFFFF" height="1229.75" style="stroke:#181818;stroke-width:1.0;" width="10" x="21" y="84.5625"/><line style="stroke:#181818;stroke-width:0.5;stroke-dasharray:5.0,5.0;" x1="279" x2="279" y1="76.5625" y2="1332.3125"/><rect fill="#FFFFFF" height="76.9219" style="stroke:#181818;stroke-width:1.0;" width="10" x="274" y="455.5313"/><line style="stroke:#181818;stroke-width:0.5;stroke-dasharray:5.0,5.0;" x1="405" x2="405" y1="76.5625" y2="1332.3125"/><rect fill="#FFFFFF" height="25.6406" style="stroke:#181818;stroke-width:1.0;" width="10" x="400" y="481.1719"/><line style="stroke:#181818;stroke-width:0.5;stroke-dasharray:5.0,5.0;" x1="502.5" x2="502.5" y1="76.5625" y2="1332.3125"/><rect fill="#FFFFFF" height="706.9375" style="stroke:#181818;stroke-width:1.0;" width="10" x="497.5" y="342.3281"/><line style="stroke:#181818;stroke-width:0.5;stroke-dasharray:5.0,5.0;" x1="744.5" x2="744.5" y1="76.5625" y2="1332.3125"/><rect fill="#FFFFFF" height="25.6406" style="stroke:#181818;stroke-width:1.0;" width="10" x="739.5" y="129.8438"/><rect fill="#FFFFFF" height="25.6406" style="stroke:#181818;stroke-width:1.0;" width="10" x="739.5" y="210.7656"/><rect fill="#FFFFFF" height="200.7656" style="stroke:#181818;stroke-width:1.0;" width="10" x="739.5" y="1113.5469"/><line style="stroke:#181818;stroke-width:0.5;stroke-dasharray:5.0,5.0;" x1="901.5" x2="901.5" y1="76.5625" y2="1332.3125"/><rect fill="#FFFFFF" height="25.6406" style="stroke:#181818;stroke-width:1.0;" width="10" x="896.5" y="959.3438"/><line style="stroke:#181818;stroke-width:0.5;stroke-dasharray:5.0,5.0;" x1="987" x2="987" y1="76.5625" y2="1332.3125"/><rect fill="#FFFFFF" height="87.5625" style="stroke:#181818;stroke-width:1.0;" width="10" x="982" y="1201.1094"/><rect fill="#E2E2F0" height="25.6406" rx="2.5" ry="2.5" style="stroke:#181818;stroke-width:0.5;" width="42" x="5" y="49.9219"/><text fill="#000000" font-family="Helvetica" font-size="10" x="12" y="66.2041">Client</text><rect fill="#E2E2F0" height="37.2813" rx="2.5" ry="2.5" style="stroke:#181818;stroke-width:0.5;" width="77" x="240.5" y="38.2813"/><text fill="#000000" font-family="Helvetica" font-size="10" x="247.5" y="54.5635">Konnektor or</text><text fill="#000000" font-family="Helvetica" font-size="10" x="251" y="66.2041">TI-Gateway</text><rect fill="#E2E2F0" height="25.6406" rx="2.5" ry="2.5" style="stroke:#181818;stroke-width:0.5;" width="41" x="384.5" y="49.9219"/><text fill="#000000" font-family="Helvetica" font-size="10" x="391.5" y="66.2041">SM-B</text><rect fill="#E2E2F0" height="37.2813" rx="2.5" ry="2.5" style="stroke:#181818;stroke-width:0.5;" width="114" x="445.5" y="38.2813"/><text fill="#000000" font-family="Helvetica" font-size="10" x="492" y="54.5635">PEP</text><text fill="#000000" font-family="Helvetica" font-size="10" x="452.5" y="66.2041">Authorization Server</text><rect fill="#E2E2F0" height="25.6406" rx="2.5" ry="2.5" style="stroke:#181818;stroke-width:0.5;" width="66" x="711.5" y="49.9219"/><text fill="#000000" font-family="Helvetica" font-size="10" x="718.5" y="66.2041">http Proxy</text><rect fill="#E2E2F0" height="25.6406" rx="2.5" ry="2.5" style="stroke:#181818;stroke-width:0.5;" width="36" x="883.5" y="49.9219"/><text fill="#000000" font-family="Helvetica" font-size="10" x="890.5" y="66.2041">PDP</text><rect fill="#E2E2F0" height="25.6406" rx="2.5" ry="2.5" style="stroke:#181818;stroke-width:0.5;" width="95" x="939.5" y="49.9219"/><text fill="#000000" font-family="Helvetica" font-size="10" x="946.5" y="66.2041">Resource Server</text><rect fill="#E2E2F0" height="25.6406" rx="2.5" ry="2.5" style="stroke:#181818;stroke-width:0.5;" width="42" x="5" y="1332.3125"/><text fill="#000000" font-family="Helvetica" font-size="10" x="12" y="1348.5947">Client</text><rect fill="#E2E2F0" height="37.2813" rx="2.5" ry="2.5" style="stroke:#181818;stroke-width:0.5;" width="77" x="240.5" y="1332.3125"/><text fill="#000000" font-family="Helvetica" font-size="10" x="247.5" y="1348.5947">Konnektor or</text><text fill="#000000" font-family="Helvetica" font-size="10" x="251" y="1360.2354">TI-Gateway</text><rect fill="#E2E2F0" height="25.6406" rx="2.5" ry="2.5" style="stroke:#181818;stroke-width:0.5;" width="41" x="384.5" y="1332.3125"/><text fill="#000000" font-family="Helvetica" font-size="10" x="391.5" y="1348.5947">SM-B</text><rect fill="#E2E2F0" height="37.2813" rx="2.5" ry="2.5" style="stroke:#181818;stroke-width:0.5;" width="114" x="445.5" y="1332.3125"/><text fill="#000000" font-family="Helvetica" font-size="10" x="492" y="1348.5947">PEP</text><text fill="#000000" font-family="Helvetica" font-size="10" x="452.5" y="1360.2354">Authorization Server</text><rect fill="#E2E2F0" height="25.6406" rx="2.5" ry="2.5" style="stroke:#181818;stroke-width:0.5;" width="66" x="711.5" y="1332.3125"/><text fill="#000000" font-family="Helvetica" font-size="10" x="718.5" y="1348.5947">http Proxy</text><rect fill="#E2E2F0" height="25.6406" rx="2.5" ry="2.5" style="stroke:#181818;stroke-width:0.5;" width="36" x="883.5" y="1332.3125"/><text fill="#000000" font-family="Helvetica" font-size="10" x="890.5" y="1348.5947">PDP</text><rect fill="#E2E2F0" height="25.6406" rx="2.5" ry="2.5" style="stroke:#181818;stroke-width:0.5;" width="95" x="939.5" y="1332.3125"/><text fill="#000000" font-family="Helvetica" font-size="10" x="946.5" y="1348.5947">Resource Server</text><path d="M10,88.5625 L70,88.5625 L70,92.2031 L60,102.2031 L10,102.2031 L10,88.5625 " fill="#EEEEEE" style="stroke:#000000;stroke-width:1.5;"/><rect fill="none" height="155.8438" style="stroke:#000000;stroke-width:1.5;" width="783.5" x="10" y="88.5625"/><text fill="#000000" font-family="Helvetica" font-size="10" font-weight="bold" x="25" y="98.8447">alt</text><text fill="#000000" font-family="Helvetica" font-size="10" font-weight="bold" x="85" y="99.8447">[Client has no Authorization Server FQDN]</text><line style="stroke:#000000;stroke-width:1.0;stroke-dasharray:2.0,2.0;" x1="10" x2="793.5" y1="174.4844" y2="174.4844"/><text fill="#000000" font-family="Helvetica" font-size="10" font-weight="bold" x="15" y="185.7666">[Client has Authorization Server FQDN]</text><polygon fill="#181818" points="727.5,125.8438,737.5,129.8438,727.5,133.8438,731.5,129.8438" style="stroke:#181818;stroke-width:1.0;"/><line style="stroke:#181818;stroke-width:1.0;" x1="31" x2="733.5" y1="129.8438" y2="129.8438"/><text fill="#000000" font-family="Helvetica" font-size="10" x="38" y="125.4854">(01)</text><text fill="#000000" font-family="Helvetica" font-size="10" x="62" y="125.4854">GET /resource</text><polygon fill="#181818" points="42,151.4844,32,155.4844,42,159.4844,38,155.4844" style="stroke:#181818;stroke-width:1.0;"/><line style="stroke:#181818;stroke-width:1.0;stroke-dasharray:2.0,2.0;" x1="36" x2="738.5" y1="155.4844" y2="155.4844"/><text fill="#000000" font-family="Helvetica" font-size="10" x="48" y="151.126">(02)</text><text fill="#000000" font-family="Helvetica" font-size="10" x="72" y="151.126">401 Unauthorized; json body with Well-Known json Document (RFC8414)</text><polygon fill="#181818" points="727.5,206.7656,737.5,210.7656,727.5,214.7656,731.5,210.7656" style="stroke:#181818;stroke-width:1.0;"/><line style="stroke:#181818;stroke-width:1.0;" x1="31" x2="733.5" y1="210.7656" y2="210.7656"/><text fill="#000000" font-family="Helvetica" font-size="10" x="38" y="206.4072">(03)</text><text fill="#000000" font-family="Helvetica" font-size="10" x="62" y="206.4072">GET /.well-known/oauth-authorization-server&#160;</text><polygon fill="#181818" points="42,232.4063,32,236.4063,42,240.4063,38,236.4063" style="stroke:#181818;stroke-width:1.0;"/><line style="stroke:#181818;stroke-width:1.0;stroke-dasharray:2.0,2.0;" x1="36" x2="738.5" y1="236.4063" y2="236.4063"/><text fill="#000000" font-family="Helvetica" font-size="10" x="48" y="232.0479">(04)</text><text fill="#000000" font-family="Helvetica" font-size="10" x="72" y="232.0479">200 OK; json body with Well-Known json Document (RFC8414)</text><line style="stroke:#181818;stroke-width:1.0;" x1="31" x2="73" y1="276.0469" y2="276.0469"/><line style="stroke:#181818;stroke-width:1.0;" x1="73" x2="73" y1="276.0469" y2="289.0469"/><line style="stroke:#181818;stroke-width:1.0;" x1="32" x2="73" y1="289.0469" y2="289.0469"/><polygon fill="#181818" points="42,285.0469,32,289.0469,42,293.0469,38,289.0469" style="stroke:#181818;stroke-width:1.0;"/><text fill="#000000" font-family="Helvetica" font-size="10" x="38" y="271.6885">(05)</text><text fill="#000000" font-family="Helvetica" font-size="10" x="62" y="271.6885">generate DPoP keypair</text><path d="M10,301.0469 L70,301.0469 L70,304.6875 L60,314.6875 L10,314.6875 L10,301.0469 " fill="#EEEEEE" style="stroke:#000000;stroke-width:1.5;"/><rect fill="none" height="626.6563" style="stroke:#000000;stroke-width:1.5;" width="750.5" x="10" y="301.0469"/><text fill="#000000" font-family="Helvetica" font-size="10" font-weight="bold" x="25" y="311.3291">alt</text><text fill="#000000" font-family="Helvetica" font-size="10" font-weight="bold" x="85" y="312.3291">[Client has no valid refrash token]</text><line style="stroke:#000000;stroke-width:1.0;stroke-dasharray:2.0,2.0;" x1="10" x2="760.5" y1="833.1406" y2="833.1406"/><text fill="#000000" font-family="Helvetica" font-size="10" font-weight="bold" x="15" y="844.4229">[Client has valid Refresh token]</text><polygon fill="#181818" points="485.5,338.3281,495.5,342.3281,485.5,346.3281,489.5,342.3281" style="stroke:#181818;stroke-width:1.0;"/><line style="stroke:#181818;stroke-width:1.0;" x1="31" x2="491.5" y1="342.3281" y2="342.3281"/><text fill="#000000" font-family="Helvetica" font-size="10" x="38" y="337.9697">(06)</text><text fill="#000000" font-family="Helvetica" font-size="10" x="62" y="337.9697">GET /nonce</text><polygon fill="#181818" points="42,363.9688,32,367.9688,42,371.9688,38,367.9688" style="stroke:#181818;stroke-width:1.0;"/><line style="stroke:#181818;stroke-width:1.0;stroke-dasharray:2.0,2.0;" x1="36" x2="496.5" y1="367.9688" y2="367.9688"/><text fill="#000000" font-family="Helvetica" font-size="10" x="48" y="363.6104">(07)</text><text fill="#000000" font-family="Helvetica" font-size="10" x="72" y="363.6104">return 200 OK new-nonce: nonce</text><line style="stroke:#181818;stroke-width:1.0;" x1="31" x2="73" y1="416.8906" y2="416.8906"/><line style="stroke:#181818;stroke-width:1.0;" x1="73" x2="73" y1="416.8906" y2="429.8906"/><line style="stroke:#181818;stroke-width:1.0;" x1="32" x2="73" y1="429.8906" y2="429.8906"/><polygon fill="#181818" points="42,425.8906,32,429.8906,42,433.8906,38,429.8906" style="stroke:#181818;stroke-width:1.0;"/><text fill="#000000" font-family="Helvetica" font-size="10" x="38" y="400.8916">(08)</text><text fill="#000000" font-family="Helvetica" font-size="10" x="62" y="389.251">create Client Assertion JWT with nonce</text><text fill="#000000" font-family="Helvetica" font-size="10" x="68" y="400.8916">Client and OS Information</text><text fill="#000000" font-family="Helvetica" font-size="10" x="68" y="412.5322">DPoP Thumbprint</text><polygon fill="#181818" points="262,451.5313,272,455.5313,262,459.5313,266,455.5313" style="stroke:#181818;stroke-width:1.0;"/><line style="stroke:#181818;stroke-width:1.0;" x1="31" x2="268" y1="455.5313" y2="455.5313"/><text fill="#000000" font-family="Helvetica" font-size="10" x="38" y="451.1729">(09)</text><text fill="#000000" font-family="Helvetica" font-size="10" x="62" y="451.1729">externalAuthenticate JWT-hash</text><polygon fill="#181818" points="388,477.1719,398,481.1719,388,485.1719,392,481.1719" style="stroke:#181818;stroke-width:1.0;"/><line style="stroke:#181818;stroke-width:1.0;" x1="284" x2="394" y1="481.1719" y2="481.1719"/><text fill="#000000" font-family="Helvetica" font-size="10" x="291" y="476.8135">(10)</text><text fill="#000000" font-family="Helvetica" font-size="10" x="315" y="476.8135">sign JWT-hash</text><polygon fill="#181818" points="295,502.8125,285,506.8125,295,510.8125,291,506.8125" style="stroke:#181818;stroke-width:1.0;"/><line style="stroke:#181818;stroke-width:1.0;" x1="289" x2="399" y1="506.8125" y2="506.8125"/><text fill="#000000" font-family="Helvetica" font-size="10" x="301" y="502.4541">(11)</text><text fill="#000000" font-family="Helvetica" font-size="10" x="325" y="502.4541">JWT-Signature</text><polygon fill="#181818" points="42,528.4531,32,532.4531,42,536.4531,38,532.4531" style="stroke:#181818;stroke-width:1.0;"/><line style="stroke:#181818;stroke-width:1.0;" x1="36" x2="273" y1="532.4531" y2="532.4531"/><text fill="#000000" font-family="Helvetica" font-size="10" x="48" y="528.0947">(12)</text><text fill="#000000" font-family="Helvetica" font-size="10" x="72" y="528.0947">JWT-signature</text><line style="stroke:#181818;stroke-width:1.0;" x1="31" x2="73" y1="569.7344" y2="569.7344"/><line style="stroke:#181818;stroke-width:1.0;" x1="73" x2="73" y1="569.7344" y2="582.7344"/><line style="stroke:#181818;stroke-width:1.0;" x1="32" x2="73" y1="582.7344" y2="582.7344"/><polygon fill="#181818" points="42,578.7344,32,582.7344,42,586.7344,38,582.7344" style="stroke:#181818;stroke-width:1.0;"/><text fill="#000000" font-family="Helvetica" font-size="10" x="38" y="559.5557">(13)</text><text fill="#000000" font-family="Helvetica" font-size="10" x="62" y="553.7354">add SM-B Signature to Client Assertion JWT</text><text fill="#000000" font-family="Helvetica" font-size="10" x="62" y="565.376">cC4h... (Client Assertion JWT)</text><line style="stroke:#181818;stroke-width:1.0;" x1="31" x2="73" y1="608.375" y2="608.375"/><line style="stroke:#181818;stroke-width:1.0;" x1="73" x2="73" y1="608.375" y2="621.375"/><line style="stroke:#181818;stroke-width:1.0;" x1="32" x2="73" y1="621.375" y2="621.375"/><polygon fill="#181818" points="42,617.375,32,621.375,42,625.375,38,621.375" style="stroke:#181818;stroke-width:1.0;"/><text fill="#000000" font-family="Helvetica" font-size="10" x="38" y="604.0166">(14)</text><text fill="#000000" font-family="Helvetica" font-size="10" x="62" y="604.0166">create DPoP Proof JWT with nonce</text><polygon fill="#181818" points="485.5,701.2188,495.5,705.2188,485.5,709.2188,489.5,705.2188" style="stroke:#181818;stroke-width:1.0;"/><line style="stroke:#181818;stroke-width:1.0;" x1="31" x2="491.5" y1="705.2188" y2="705.2188"/><text fill="#000000" font-family="Helvetica" font-size="10" x="38" y="671.7588">(15)</text><text fill="#000000" font-family="Helvetica" font-size="10" x="62" y="642.6572">POST /token</text><text fill="#000000" font-family="Helvetica" font-size="10" x="68" y="654.2979">(Client Assertion JWT and DPoP JWT)</text><text fill="#000000" font-family="Helvetica" font-size="10" x="62" y="665.9385">&#160;&#160;</text><text fill="#000000" font-family="Courier" font-size="10" x="68" y="665.9385">DPoP:&#160;eyJh...</text><text fill="#000000" font-family="Helvetica" font-size="10" x="62" y="677.5791">&#160;&#160;</text><text fill="#000000" font-family="Courier" font-size="10" x="68" y="677.5791">grant_type=urn:ietf:params:oauth:grant-type:jwt-bearer</text><text fill="#000000" font-family="Helvetica" font-size="10" x="62" y="689.2197">&#160;&#160;</text><text fill="#000000" font-family="Courier" font-size="10" x="68" y="689.2197">assertion=cC4h...</text><text fill="#000000" font-family="Helvetica" font-size="10" x="62" y="700.8604">&#160;&#160;</text><text fill="#000000" font-family="Courier" font-size="10" x="68" y="700.8604">scope=...</text><path d="M234.5,718.2188 L234.5,739.2188 L497.5,739.2188 L497.5,728.2188 L487.5,718.2188 L234.5,718.2188 " fill="#FEFFDD" style="stroke:#181818;stroke-width:0.5;"/><path d="M487.5,718.2188 L487.5,728.2188 L497.5,728.2188 L487.5,718.2188 " fill="#FEFFDD" style="stroke:#181818;stroke-width:0.5;"/><text fill="#000000" font-family="Helvetica" font-size="10" x="240.5" y="732.501">RFC7523 (JWT Client Assertion), RFC9449 (DPoP)</text><line style="stroke:#181818;stroke-width:1.0;" x1="507.5" x2="549.5" y1="762.5" y2="762.5"/><line style="stroke:#181818;stroke-width:1.0;" x1="549.5" x2="549.5" y1="762.5" y2="775.5"/><line style="stroke:#181818;stroke-width:1.0;" x1="508.5" x2="549.5" y1="775.5" y2="775.5"/><polygon fill="#181818" points="518.5,771.5,508.5,775.5,518.5,779.5,514.5,775.5" style="stroke:#181818;stroke-width:1.0;"/><text fill="#000000" font-family="Helvetica" font-size="10" x="514.5" y="758.1416">(16)</text><text fill="#000000" font-family="Helvetica" font-size="10" x="538.5" y="758.1416">verify Client Assertion JWT and DPoP JWT</text><line style="stroke:#181818;stroke-width:1.0;" x1="507.5" x2="549.5" y1="801.1406" y2="801.1406"/><line style="stroke:#181818;stroke-width:1.0;" x1="549.5" x2="549.5" y1="801.1406" y2="814.1406"/><line style="stroke:#181818;stroke-width:1.0;" x1="508.5" x2="549.5" y1="814.1406" y2="814.1406"/><polygon fill="#181818" points="518.5,810.1406,508.5,814.1406,518.5,818.1406,514.5,814.1406" style="stroke:#181818;stroke-width:1.0;"/><text fill="#000000" font-family="Helvetica" font-size="10" x="514.5" y="796.7822">(17)</text><text fill="#000000" font-family="Helvetica" font-size="10" x="538.5" y="796.7822">Create state for Identity/App/Device</text><polygon fill="#181818" points="485.5,877.0625,495.5,881.0625,485.5,885.0625,489.5,881.0625" style="stroke:#181818;stroke-width:1.0;"/><line style="stroke:#181818;stroke-width:1.0;" x1="31" x2="491.5" y1="881.0625" y2="881.0625"/><text fill="#000000" font-family="Helvetica" font-size="10" x="38" y="870.8838">(18)</text><text fill="#000000" font-family="Helvetica" font-size="10" x="62" y="865.0635">POST /token</text><text fill="#000000" font-family="Helvetica" font-size="10" x="68" y="876.7041">(Refresh token and DPoP JWT)</text><line style="stroke:#181818;stroke-width:1.0;" x1="507.5" x2="549.5" y1="906.7031" y2="906.7031"/><line style="stroke:#181818;stroke-width:1.0;" x1="549.5" x2="549.5" y1="906.7031" y2="919.7031"/><line style="stroke:#181818;stroke-width:1.0;" x1="508.5" x2="549.5" y1="919.7031" y2="919.7031"/><polygon fill="#181818" points="518.5,915.7031,508.5,919.7031,518.5,923.7031,514.5,919.7031" style="stroke:#181818;stroke-width:1.0;"/><text fill="#000000" font-family="Helvetica" font-size="10" x="514.5" y="902.3447">(19)</text><text fill="#000000" font-family="Helvetica" font-size="10" x="538.5" y="902.3447">verify Refresh token, DPoP</text><polygon fill="#181818" points="884.5,955.3438,894.5,959.3438,884.5,963.3438,888.5,959.3438" style="stroke:#181818;stroke-width:1.0;"/><line style="stroke:#181818;stroke-width:1.0;" x1="507.5" x2="890.5" y1="959.3438" y2="959.3438"/><text fill="#000000" font-family="Helvetica" font-size="10" x="514.5" y="954.9854">(20)</text><text fill="#000000" font-family="Helvetica" font-size="10" x="538.5" y="954.9854">POST /v1/data/authz, json body {  "input": {...}}</text><polygon fill="#181818" points="518.5,980.9844,508.5,984.9844,518.5,988.9844,514.5,984.9844" style="stroke:#181818;stroke-width:1.0;"/><line style="stroke:#181818;stroke-width:1.0;stroke-dasharray:2.0,2.0;" x1="512.5" x2="895.5" y1="984.9844" y2="984.9844"/><text fill="#000000" font-family="Helvetica" font-size="10" x="524.5" y="980.626">(21)</text><text fill="#000000" font-family="Helvetica" font-size="10" x="548.5" y="980.626">200 OK, json body {"result": {"allow": true, ...}}</text><line style="stroke:#181818;stroke-width:1.0;" x1="507.5" x2="549.5" y1="1010.625" y2="1010.625"/><line style="stroke:#181818;stroke-width:1.0;" x1="549.5" x2="549.5" y1="1010.625" y2="1023.625"/><line style="stroke:#181818;stroke-width:1.0;" x1="508.5" x2="549.5" y1="1023.625" y2="1023.625"/><polygon fill="#181818" points="518.5,1019.625,508.5,1023.625,518.5,1027.625,514.5,1023.625" style="stroke:#181818;stroke-width:1.0;"/><text fill="#000000" font-family="Helvetica" font-size="10" x="514.5" y="1006.2666">(22)</text><text fill="#000000" font-family="Helvetica" font-size="10" x="538.5" y="1006.2666">issue tokens</text><polygon fill="#181818" points="42,1045.2656,32,1049.2656,42,1053.2656,38,1049.2656" style="stroke:#181818;stroke-width:1.0;"/><line style="stroke:#181818;stroke-width:1.0;stroke-dasharray:2.0,2.0;" x1="36" x2="496.5" y1="1049.2656" y2="1049.2656"/><text fill="#000000" font-family="Helvetica" font-size="10" x="48" y="1044.9072">(23)</text><text fill="#000000" font-family="Helvetica" font-size="10" x="72" y="1044.9072">200 OK, access token, refresh token, bound to DPoP</text><line style="stroke:#181818;stroke-width:1.0;" x1="31" x2="73" y1="1074.9063" y2="1074.9063"/><line style="stroke:#181818;stroke-width:1.0;" x1="73" x2="73" y1="1074.9063" y2="1087.9063"/><line style="stroke:#181818;stroke-width:1.0;" x1="32" x2="73" y1="1087.9063" y2="1087.9063"/><polygon fill="#181818" points="42,1083.9063,32,1087.9063,42,1091.9063,38,1087.9063" style="stroke:#181818;stroke-width:1.0;"/><text fill="#000000" font-family="Helvetica" font-size="10" x="38" y="1070.5479">(24)</text><text fill="#000000" font-family="Helvetica" font-size="10" x="62" y="1070.5479">Create DPoP Proof for RS</text><polygon fill="#181818" points="727.5,1109.5469,737.5,1113.5469,727.5,1117.5469,731.5,1113.5469" style="stroke:#181818;stroke-width:1.0;"/><line style="stroke:#181818;stroke-width:1.0;" x1="31" x2="733.5" y1="1113.5469" y2="1113.5469"/><text fill="#000000" font-family="Helvetica" font-size="10" x="38" y="1109.1885">(25)</text><text fill="#000000" font-family="Helvetica" font-size="10" x="62" y="1109.1885">GET /resource (access token, DPoP)</text><line style="stroke:#181818;stroke-width:1.0;" x1="749.5" x2="791.5" y1="1150.8281" y2="1150.8281"/><line style="stroke:#181818;stroke-width:1.0;" x1="791.5" x2="791.5" y1="1150.8281" y2="1163.8281"/><line style="stroke:#181818;stroke-width:1.0;" x1="750.5" x2="791.5" y1="1163.8281" y2="1163.8281"/><polygon fill="#181818" points="760.5,1159.8281,750.5,1163.8281,760.5,1167.8281,756.5,1163.8281" style="stroke:#181818;stroke-width:1.0;"/><text fill="#000000" font-family="Helvetica" font-size="10" x="756.5" y="1140.6494">(26)</text><text fill="#000000" font-family="Helvetica" font-size="10" x="780.5" y="1134.8291">verify access token and</text><text fill="#000000" font-family="Helvetica" font-size="10" x="780.5" y="1146.4697">DPoP Binding</text><polygon fill="#181818" points="970,1197.1094,980,1201.1094,970,1205.1094,974,1201.1094" style="stroke:#181818;stroke-width:1.0;"/><line style="stroke:#181818;stroke-width:1.0;" x1="749.5" x2="976" y1="1201.1094" y2="1201.1094"/><text fill="#000000" font-family="Helvetica" font-size="10" x="756.5" y="1190.9307">(27)</text><text fill="#000000" font-family="Helvetica" font-size="10" x="780.5" y="1185.1104">forward GET /resource</text><text fill="#000000" font-family="Helvetica" font-size="10" x="780.5" y="1196.751">(access token, DPoP)</text><line style="stroke:#181818;stroke-width:1.0;" x1="992" x2="1034" y1="1250.0313" y2="1250.0313"/><line style="stroke:#181818;stroke-width:1.0;" x1="1034" x2="1034" y1="1250.0313" y2="1263.0313"/><line style="stroke:#181818;stroke-width:1.0;" x1="993" x2="1034" y1="1263.0313" y2="1263.0313"/><polygon fill="#181818" points="1003,1259.0313,993,1263.0313,1003,1267.0313,999,1263.0313" style="stroke:#181818;stroke-width:1.0;"/><text fill="#000000" font-family="Helvetica" font-size="10" x="999" y="1234.0322">(28)</text><text fill="#000000" font-family="Helvetica" font-size="10" x="1023" y="1222.3916">provide</text><text fill="#000000" font-family="Helvetica" font-size="10" x="1023" y="1234.0322">resource</text><text fill="#000000" font-family="Helvetica" font-size="10" x="1023" y="1245.6729">access</text><polygon fill="#181818" points="760.5,1284.6719,750.5,1288.6719,760.5,1292.6719,756.5,1288.6719" style="stroke:#181818;stroke-width:1.0;"/><line style="stroke:#181818;stroke-width:1.0;stroke-dasharray:2.0,2.0;" x1="754.5" x2="981" y1="1288.6719" y2="1288.6719"/><text fill="#000000" font-family="Helvetica" font-size="10" x="766.5" y="1284.3135">(29)</text><text fill="#000000" font-family="Helvetica" font-size="10" x="790.5" y="1284.3135">200 OK, resource</text><polygon fill="#181818" points="42,1310.3125,32,1314.3125,42,1318.3125,38,1314.3125" style="stroke:#181818;stroke-width:1.0;"/><line style="stroke:#181818;stroke-width:1.0;stroke-dasharray:2.0,2.0;" x1="36" x2="738.5" y1="1314.3125" y2="1314.3125"/><text fill="#000000" font-family="Helvetica" font-size="10" x="48" y="1309.9541">(30)</text><text fill="#000000" font-family="Helvetica" font-size="10" x="72" y="1309.9541">200 OK, resource</text><!--SRC=[hLPjJ-D64FxkNp7rVGaI9e6cQi_LLOA40uu3qZWLQXMfMk99lCJPjTRhX72w_zBVqb_MsVLh4jCNgNm0x7rcdfbvPcRDCYr5jdf21MwdrpjodNJ9HS8KMq68SvR5-gCKEk2l2AUzziDxjaAundYDcizO0pFCCNTIo3HXCmmhz41cYgDgO6CK2nsTXyzPga58WOxpJQBOOiL0etm5hJ9wHLZYu0aJ6WOnHw6T9_a2xkVB6nVUNKKorOyHr-W0_JJ1jr88N6gfWANWrazIJSNanhjY6ZTiwnxO1NSNrYAuyovS1qK8nEVaf1Ue5N8g7L5FBWVNzm-V7wv-jIxi-MyJYf7IiO20YN1xeUH6MC0-ptccey0oZIv7Ks4UfUAlJ7Cf842rDavQBQz7rYpIEe6HaYz54lkmqJ37qTySGBcOLCfe9pTmTjA38TMK17WtP6eP8BjIYEq1Z_DenvYIb3CiOsowhgh5PfglgSAbP2mkrOE8d0W9RVd2nv-7zzPVWVL-ecHzkBgSG5SLlFQyydyziizK4e_0kPaF_Tuf_29OGO7XZ_2S4ikJ3BUmuJg2HunZxrQGDld9KCwobM7iZ3yEVkYVze-isn2RH1YdsCpYFwTmiZ6qIqFRbIOwZpLTUAbryUSV_oR5iruF7cx_fyH4w3Xrl2N50WKg0ncEv0YMk4qOLorIhbdCGr0uLooDGCibDL3jpVPvKG2QSXAmehP7JZu8pTmKwao98aKGkF6ieG-v_M6aCuLriy5vIeMqcdnwdEHbiOPJKQb2emaF0To8kLGhMtnpQFESHBGS4yMfQskYQdtuW2yqteB59cmwfVr7p4JaKJMYEhVAmgbN3pcYxU93oXUYnOJE7BDzTlaCBY03HZL1fo6SWU_uBgjXBD8sYpgcbXgoC0Ipyw0Y8obRIpeLiq4_EZavWKxRyT7R0ja2qygIyprf3ljbz11GmzXcCjAqCbaPhKz3Qs2kQnv9fEqd4w3hvYyNYXROxtgRu0TgB9-Zdlls4afzEuU-1NW6u3zljFU4JD5gAwnPoVcXoBiyI6UIFDeNZf2KNunp3PHStjW0D7FVVtVsBNHCiFiP71sRy_Vz_dlecAYFxFeqVigHg8f1Mu7Fj_2FDJWm7EHrJxNvJRqEDw7fMRtjdYT9TuXhJhNVtslvF8zfdl7jUTxNPmU-AynRwUoO75jyleegF5rT9TFwj1iopRf6hjVZnjhxGahG9qMcNH- -a1PVlq8zKkJ0CVUWLvFdMsN7WqjXq5UBSU2oE9OR-izyVHo3zTSS8UDmFnsUfXdcMQGjswmaPBCPfccPhTfD_abcL38QE5k51c7UIeSJDJYOA2FlE6YEzi7T2PtT8FAsQru5vfR93GkHcWP6rgcmb1TSX5mi2loOga3q6wR2NSAf-7j6YdSSb1uI9TSy99lQEZUsc2AiifhLvq2ZLkIjzPPiHr-FzcmRJyLdory0]--></g></svg>