<svg xmlns="http://www.w3.org/2000/svg" xmlns:xlink="http://www.w3.org/1999/xlink" contentStyleType="text/css" height="573px" preserveAspectRatio="none" style="width:867px;height:573px;background:#FFFFFF;" version="1.1" viewBox="0 0 867 573" width="867px" zoomAndPan="magnify"><title>ZT Cluster GitOps CD Process</title><defs/><g><text fill="#000000" font-family="sans-serif" font-size="14" font-weight="bold" lengthAdjust="spacing" textLength="232.0391" x="310.5115" y="22.9951">ZT Cluster GitOps CD Process</text><!--entity ZT--><g id="elem_ZT"><ellipse cx="99.4263" cy="51.2969" fill="#F1F1F1" rx="8" ry="8" style="stroke:#181818;stroke-width:0.5;"/><path d="M99.4263,59.2969 L99.4263,86.2969 M86.4263,67.2969 L112.4263,67.2969 M99.4263,86.2969 L86.4263,101.2969 M99.4263,86.2969 L112.4263,101.2969 " fill="none" style="stroke:#181818;stroke-width:0.5;"/><text fill="#000000" font-family="sans-serif" font-size="14" lengthAdjust="spacing" textLength="149.3926" x="24.73" y="115.792">Zero Trust Developer</text></g><!--entity GEM--><g id="elem_GEM"><ellipse cx="359.3125" cy="219.2969" fill="#F1F1F1" rx="8" ry="8" style="stroke:#181818;stroke-width:0.5;"/><path d="M359.3125,227.2969 L359.3125,254.2969 M346.3125,235.2969 L372.3125,235.2969 M359.3125,254.2969 L346.3125,269.2969 M359.3125,254.2969 L372.3125,269.2969 " fill="none" style="stroke:#181818;stroke-width:0.5;"/><text fill="#000000" font-family="sans-serif" font-size="14" lengthAdjust="spacing" textLength="59.165" x="329.73" y="283.792">Gematik</text></g><!--entity TSP--><g id="elem_TSP"><ellipse cx="741.3457" cy="219.2969" fill="#F1F1F1" rx="8" ry="8" style="stroke:#181818;stroke-width:0.5;"/><path d="M741.3457,227.2969 L741.3457,254.2969 M728.3457,235.2969 L754.3457,235.2969 M741.3457,254.2969 L728.3457,269.2969 M741.3457,254.2969 L754.3457,269.2969 " fill="none" style="stroke:#181818;stroke-width:0.5;"/><text fill="#000000" font-family="sans-serif" font-size="14" lengthAdjust="spacing" textLength="158.2314" x="662.23" y="283.792">TI 2.0 Service Provider</text></g><!--entity GIT--><g id="elem_GIT"><rect fill="#F1F1F1" height="36.2969" rx="2.5" ry="2.5" style="stroke:#181818;stroke-width:0.5;" width="119.75" x="486.23" y="380.7969"/><text fill="#000000" font-family="sans-serif" font-size="14" lengthAdjust="spacing" textLength="99.75" x="496.23" y="403.792">Git Repository</text></g><!--entity REG--><g id="elem_REG"><rect fill="#F1F1F1" height="36.2969" rx="2.5" ry="2.5" style="stroke:#181818;stroke-width:0.5;" width="150.8057" x="80.73" y="380.7969"/><text fill="#000000" font-family="sans-serif" font-size="14" lengthAdjust="spacing" textLength="130.8057" x="90.73" y="403.792">Container Registry</text></g><!--entity CI--><g id="elem_CI"><rect fill="#F1F1F1" height="36.2969" rx="2.5" ry="2.5" style="stroke:#181818;stroke-width:0.5;" width="93.4521" x="52.73" y="230.7969"/><text fill="#000000" font-family="sans-serif" font-size="14" lengthAdjust="spacing" textLength="73.4521" x="62.73" y="253.792">CI Pipeline</text></g><!--entity K8S--><g id="elem_K8S"><rect fill="#F1F1F1" height="36.2969" rx="2.5" ry="2.5" style="stroke:#181818;stroke-width:0.5;" width="154.333" x="469.23" y="513.2969"/><text fill="#000000" font-family="sans-serif" font-size="14" lengthAdjust="spacing" textLength="134.333" x="479.23" y="536.292">Kubernetes Cluster</text></g><g id="elem_GMN18"><path d="M658.23,495.7969 L658.23,527.2969 L623.61,531.2969 L658.23,535.2969 L658.23,566.3281 A0,0 0 0 0 658.23,566.3281 L860.062,566.3281 A0,0 0 0 0 860.062,566.3281 L860.062,505.7969 L850.062,495.7969 L658.23,495.7969 A0,0 0 0 0 658.23,495.7969 " fill="#FEFFDD" style="stroke:#181818;stroke-width:0.5;"/><path d="M850.062,495.7969 L850.062,505.7969 L860.062,505.7969 L850.062,495.7969 " fill="#FEFFDD" style="stroke:#181818;stroke-width:0.5;"/><text fill="#000000" font-family="sans-serif" font-size="13" lengthAdjust="spacing" textLength="180.832" x="664.23" y="512.8638">Deploys Changed Manifests</text><text fill="#000000" font-family="sans-serif" font-size="13" lengthAdjust="spacing" textLength="145.0059" x="664.23" y="527.9966">Monitors Cluster State</text><text fill="#000000" font-family="sans-serif" font-size="13" lengthAdjust="spacing" textLength="108.0688" x="664.23" y="543.1294">Applies Changes</text><text fill="#000000" font-family="sans-serif" font-size="13" lengthAdjust="spacing" textLength="169.0317" x="664.23" y="558.2622">Prevents Manual Changes</text></g><g id="elem_GMN21"><path d="M266.73,378.7969 L266.73,419.0625 A0,0 0 0 0 266.73,419.0625 L451.8613,419.0625 A0,0 0 0 0 451.8613,419.0625 L451.8613,402.7969 L485.86,398.7969 L451.8613,394.7969 L451.8613,388.7969 L441.8613,378.7969 L266.73,378.7969 A0,0 0 0 0 266.73,378.7969 " fill="#FEFFDD" style="stroke:#181818;stroke-width:0.5;"/><path d="M441.8613,378.7969 L441.8613,388.7969 L451.8613,388.7969 L441.8613,378.7969 " fill="#FEFFDD" style="stroke:#181818;stroke-width:0.5;"/><text fill="#000000" font-family="sans-serif" font-size="13" lengthAdjust="spacing" textLength="144.6885" x="272.73" y="395.8638">Single Source of Truth</text><text fill="#000000" font-family="sans-serif" font-size="13" lengthAdjust="spacing" textLength="164.1313" x="272.73" y="410.9966">Versioned Configurations</text></g><g id="elem_GMN24"><path d="M103.23,518.7969 L103.23,543.9297 A0,0 0 0 0 103.23,543.9297 L209.4981,543.9297 A0,0 0 0 0 209.4981,543.9297 L209.4981,528.7969 L199.4981,518.7969 L160.23,518.7969 L156.23,416.8569 L152.23,518.7969 L103.23,518.7969 A0,0 0 0 0 103.23,518.7969 " fill="#FEFFDD" style="stroke:#181818;stroke-width:0.5;"/><path d="M199.4981,518.7969 L199.4981,528.7969 L209.4981,528.7969 L199.4981,518.7969 " fill="#FEFFDD" style="stroke:#181818;stroke-width:0.5;"/><text fill="#000000" font-family="sans-serif" font-size="13" lengthAdjust="spacing" textLength="85.2681" x="109.23" y="535.8638">signs Images</text></g><g id="elem_GMN27"><path d="M451.73,228.7969 L451.73,269.0625 A0,0 0 0 0 451.73,269.0625 L536.13,269.0625 L545.42,380.6569 L544.13,269.0625 L626.3242,269.0625 A0,0 0 0 0 626.3242,269.0625 L626.3242,238.7969 L616.3242,228.7969 L451.73,228.7969 A0,0 0 0 0 451.73,228.7969 " fill="#FEFFDD" style="stroke:#181818;stroke-width:0.5;"/><path d="M616.3242,228.7969 L616.3242,238.7969 L626.3242,238.7969 L616.3242,228.7969 " fill="#FEFFDD" style="stroke:#181818;stroke-width:0.5;"/><text fill="#000000" font-family="sans-serif" font-size="13" lengthAdjust="spacing" textLength="129.9619" x="457.73" y="245.8638">Executes Automatic</text><text fill="#000000" font-family="sans-serif" font-size="13" lengthAdjust="spacing" textLength="153.5942" x="457.73" y="260.9966">Deployments and Tests</text></g><!--link ZT to CI--><g id="link_ZT_CI"><path d="M99.23,119.0469 C99.23,153.8469 99.23,198.2369 99.23,224.4669 " fill="none" id="ZT-to-CI" style="stroke:#181818;stroke-width:1.0;"/><polygon fill="#181818" points="99.23,230.4669,103.23,221.4669,99.23,225.4669,95.23,221.4669,99.23,230.4669" style="stroke:#181818;stroke-width:1.0;"/><text fill="#000000" font-family="sans-serif" font-size="13" lengthAdjust="spacing" textLength="87.1216" x="100.23" y="161.8638">develops and</text><text fill="#000000" font-family="sans-serif" font-size="13" lengthAdjust="spacing" textLength="55.8784" x="115.8516" y="176.9966">provides</text></g><!--link GEM to REG--><g id="link_GEM_REG"><path d="M343.85,287.1769 C333.65,307.8869 318.4,332.6369 298.23,348.7969 C279.1,364.1269 260.5838,372.976 237.5838,380.346 " fill="none" id="GEM-to-REG" style="stroke:#181818;stroke-width:1.0;"/><polygon fill="#181818" points="231.87,382.1769,241.6613,383.2397,236.6315,380.6511,239.2201,375.6213,231.87,382.1769" style="stroke:#181818;stroke-width:1.0;"/><text fill="#000000" font-family="sans-serif" font-size="13" lengthAdjust="spacing" textLength="57.3828" x="327.23" y="337.3638">operates</text></g><!--link TSP to GIT--><g id="link_TSP_GIT"><path d="M681.77,286.9069 C667.57,296.2969 652.65,306.6169 639.23,316.7969 C612.1,337.3669 587.2041,359.5621 568.8841,376.5121 " fill="none" id="TSP-to-GIT" style="stroke:#181818;stroke-width:1.0;"/><polygon fill="#181818" points="564.48,380.5869,573.8027,377.4108,568.1501,377.1912,568.3697,371.5386,564.48,380.5869" style="stroke:#181818;stroke-width:1.0;"/><text fill="#000000" font-family="sans-serif" font-size="13" lengthAdjust="spacing" textLength="68.1357" x="640.23" y="337.3638">configures</text></g><!--link GEM to GIT--><g id="link_GEM_GIT"><path d="M386.85,286.8069 C403.14,306.8869 425.06,331.1469 448.23,348.7969 C465.02,361.5969 480.2251,370.0081 498.2351,378.2581 " fill="none" id="GEM-to-GIT" style="stroke:#181818;stroke-width:1.0;"/><polygon fill="#181818" points="503.69,380.7569,497.1735,373.3721,499.1442,378.6746,493.8418,380.6453,503.69,380.7569" style="stroke:#181818;stroke-width:1.0;"/><text fill="#000000" font-family="sans-serif" font-size="13" lengthAdjust="spacing" textLength="85.9727" x="449.23" y="329.8638">operates and</text><text fill="#000000" font-family="sans-serif" font-size="13" lengthAdjust="spacing" textLength="58.9697" x="462.7315" y="344.9966">validates</text></g><!--link TSP to K8S--><g id="link_TSP_K8S"><path d="M734.5,286.8769 C730.1,306.0669 723.27,329.4569 713.23,348.7969 C676.44,419.6769 609.2764,479.823 572.9864,509.313 " fill="none" id="TSP-to-K8S" style="stroke:#181818;stroke-width:1.0;"/><polygon fill="#181818" points="568.33,513.0969,577.8372,510.5253,572.2103,509.9436,572.792,504.3168,568.33,513.0969" style="stroke:#181818;stroke-width:1.0;"/><text fill="#000000" font-family="sans-serif" font-size="13" lengthAdjust="spacing" textLength="57.3828" x="694.23" y="403.3638">operates</text></g><!--link CI to GIT--><g id="link_CI_GIT"><path d="M104.58,266.8669 C112.75,289.8169 130.71,329.9069 161.23,348.7969 C219.7,384.9869 401.45,367.1969 469.23,378.7969 C474.66,379.7269 474.4032,379.5697 480.0032,380.7697 " fill="none" id="CI-to-GIT" style="stroke:#181818;stroke-width:1.0;"/><polygon fill="#181818" points="485.87,382.0269,477.9079,376.2299,480.981,380.9792,476.2317,384.0523,485.87,382.0269" style="stroke:#181818;stroke-width:1.0;"/><text fill="#000000" font-family="sans-serif" font-size="13" lengthAdjust="spacing" textLength="127.9116" x="162.23" y="337.3638">Manifest Templates</text></g><!--link CI to REG--><g id="link_CI_REG"><path d="M71.28,266.9169 C42.96,286.4769 6,319.5569 26.23,348.7969 C38.92,367.1469 53.7335,376.6833 74.7335,383.8733 " fill="none" id="CI-to-REG" style="stroke:#181818;stroke-width:1.0;"/><polygon fill="#181818" points="80.41,385.8169,73.1909,379.1172,75.6796,384.1973,70.5996,386.6859,80.41,385.8169" style="stroke:#181818;stroke-width:1.0;"/><text fill="#000000" font-family="sans-serif" font-size="13" lengthAdjust="spacing" textLength="97.6016" x="27.23" y="337.3638">Docker Images</text></g><!--link GIT to K8S--><g id="link_GIT_K8S"><path d="M546.23,416.8569 C546.23,441.8669 546.23,482.2169 546.23,507.2369 " fill="none" id="GIT-to-K8S" style="stroke:#181818;stroke-width:1.0;"/><polygon fill="#181818" points="546.23,513.2369,550.23,504.2369,546.23,508.2369,542.23,504.2369,546.23,513.2369" style="stroke:#181818;stroke-width:1.0;"/><text fill="#000000" font-family="sans-serif" font-size="13" lengthAdjust="spacing" textLength="62.2515" x="547.23" y="461.8638">Manifests</text></g><!--link REG to K8S--><g id="link_REG_K8S"><path d="M207.21,416.8569 C281.96,441.8669 414.7903,486.3124 489.5403,511.3324 " fill="none" id="REG-to-K8S" style="stroke:#181818;stroke-width:1.0;"/><polygon fill="#181818" points="495.23,513.2369,487.965,506.5871,490.4886,511.6498,485.4258,514.1734,495.23,513.2369" style="stroke:#181818;stroke-width:1.0;"/><text fill="#000000" font-family="sans-serif" font-size="13" lengthAdjust="spacing" textLength="96.2241" x="352.23" y="461.8638">Signed Images</text></g><!--SRC=[LLB1Qkim4BphAvRSMnxlL78e52S4Kq93R7eelgZsnX6LjK9QX_RlkvQjDBckPcPdPiM6BS973OKT8sE0dU4t7w7Om25GYp4gfLkc0AiF30Hr41Xiy8AMF8OLw2Zi3DdXeDbyfUbkky_ZkeJ_Z_-Wmd0nBKx25zCjvBewA1MmPUrwSRAI_N14Jz48zMTMAkjRH46EjN7YzOYzYRoWZjlT7Qg4W_5e1PYUY_BszNNynE2GCURW2VJwL2abPJmyF0jX3TsSCu9sNUFyx3igYPOWid8DKmrQX9GaILEnkuQMtCdqOxX1ftb6pueNRKrtHnO7Dv9AKbofU-tC2QNz6WTlq_loB3vW3HjglwIKSj3zjBMiio3ySQEQi7_polGEkynHZXWXcFxCGAVPomQzfH-fwIpL2VIgrBWzkUb8rmgXOd7Lk1VlhS5C4U0XI8-EuqGUjSqFopwBfxGkXQnCEb15Ov2V8bFvS7nkt3k6Q6ZoMYpDoaSZbpK-YPc62Pzk4YLMl4_5vAzBjj_OZjCHNaPXYL3Rk3dda6pARQHaoVWB]--></g></svg>