<svg xmlns="http://www.w3.org/2000/svg" xmlns:xlink="http://www.w3.org/1999/xlink" contentStyleType="text/css" height="558px" preserveAspectRatio="none" style="width:794px;height:558px;background:#FFFFFF;" version="1.1" viewBox="0 0 794 558" width="794px" zoomAndPan="magnify"><title>ZT Cluster GitOps CD Process</title><defs/><g><text fill="#000000" font-family="sans-serif" font-size="14" font-weight="bold" lengthAdjust="spacing" textLength="232.0391" x="274.2015" y="22.9951">ZT Cluster GitOps CD Process</text><!--entity ZT--><g id="elem_ZT"><ellipse cx="105.8063" cy="51.2969" fill="#F1F1F1" rx="8" ry="8" style="stroke:#181818;stroke-width:0.5;"/><path d="M105.8063,59.2969 L105.8063,86.2969 M92.8063,67.2969 L118.8063,67.2969 M105.8063,86.2969 L92.8063,101.2969 M105.8063,86.2969 L118.8063,101.2969 " fill="none" style="stroke:#181818;stroke-width:0.5;"/><text fill="#000000" font-family="sans-serif" font-size="14" lengthAdjust="spacing" textLength="149.3926" x="31.11" y="115.792">Zero Trust Developer</text></g><!--entity GEM--><g id="elem_GEM"><ellipse cx="285.6925" cy="204.2969" fill="#F1F1F1" rx="8" ry="8" style="stroke:#181818;stroke-width:0.5;"/><path d="M285.6925,212.2969 L285.6925,239.2969 M272.6925,220.2969 L298.6925,220.2969 M285.6925,239.2969 L272.6925,254.2969 M285.6925,239.2969 L298.6925,254.2969 " fill="none" style="stroke:#181818;stroke-width:0.5;"/><text fill="#000000" font-family="sans-serif" font-size="14" lengthAdjust="spacing" textLength="59.165" x="256.11" y="268.792">Gematik</text></g><!--entity TSP--><g id="elem_TSP"><ellipse cx="667.7257" cy="204.2969" fill="#F1F1F1" rx="8" ry="8" style="stroke:#181818;stroke-width:0.5;"/><path d="M667.7257,212.2969 L667.7257,239.2969 M654.7257,220.2969 L680.7257,220.2969 M667.7257,239.2969 L654.7257,254.2969 M667.7257,239.2969 L680.7257,254.2969 " fill="none" style="stroke:#181818;stroke-width:0.5;"/><text fill="#000000" font-family="sans-serif" font-size="14" lengthAdjust="spacing" textLength="158.2314" x="588.61" y="268.792">TI 2.0 Service Provider</text></g><!--entity GIT--><g id="elem_GIT"><rect fill="#F1F1F1" height="36.2969" rx="2.5" ry="2.5" style="stroke:#181818;stroke-width:0.5;" width="119.75" x="413.61" y="365.7969"/><text fill="#000000" font-family="sans-serif" font-size="14" lengthAdjust="spacing" textLength="99.75" x="423.61" y="388.792">Git Repository</text></g><!--entity REG--><g id="elem_REG"><rect fill="#F1F1F1" height="36.2969" rx="2.5" ry="2.5" style="stroke:#181818;stroke-width:0.5;" width="150.8057" x="8.11" y="365.7969"/><text fill="#000000" font-family="sans-serif" font-size="14" lengthAdjust="spacing" textLength="130.8057" x="18.11" y="388.792">Container Registry</text></g><!--entity CI--><g id="elem_CI"><rect fill="#F1F1F1" height="36.2969" rx="2.5" ry="2.5" style="stroke:#181818;stroke-width:0.5;" width="93.4521" x="59.11" y="215.7969"/><text fill="#000000" font-family="sans-serif" font-size="14" lengthAdjust="spacing" textLength="73.4521" x="69.11" y="238.792">CI Pipeline</text></g><!--entity K8S--><g id="elem_K8S"><rect fill="#F1F1F1" height="36.2969" rx="2.5" ry="2.5" style="stroke:#181818;stroke-width:0.5;" width="154.333" x="396.61" y="498.2969"/><text fill="#000000" font-family="sans-serif" font-size="14" lengthAdjust="spacing" textLength="134.333" x="406.61" y="521.292">Kubernetes Cluster</text></g><g id="elem_GMN18"><path d="M585.61,480.7969 L585.61,512.2969 L550.98,516.2969 L585.61,520.2969 L585.61,551.3281 A0,0 0 0 0 585.61,551.3281 L787.442,551.3281 A0,0 0 0 0 787.442,551.3281 L787.442,490.7969 L777.442,480.7969 L585.61,480.7969 A0,0 0 0 0 585.61,480.7969 " fill="#FEFFDD" style="stroke:#181818;stroke-width:0.5;"/><path d="M777.442,480.7969 L777.442,490.7969 L787.442,490.7969 L777.442,480.7969 " fill="#FEFFDD" style="stroke:#181818;stroke-width:0.5;"/><text fill="#000000" font-family="sans-serif" font-size="13" lengthAdjust="spacing" textLength="180.832" x="591.61" y="497.8638">Deploys Changed Manifests</text><text fill="#000000" font-family="sans-serif" font-size="13" lengthAdjust="spacing" textLength="108.0688" x="591.61" y="512.9966">Applies Changes</text><text fill="#000000" font-family="sans-serif" font-size="13" lengthAdjust="spacing" textLength="145.0059" x="591.61" y="528.1294">Monitors Cluster State</text><text fill="#000000" font-family="sans-serif" font-size="13" lengthAdjust="spacing" textLength="169.0317" x="591.61" y="543.2622">Prevents Manual Changes</text></g><g id="elem_GMN21"><path d="M194.11,363.7969 L194.11,404.0625 A0,0 0 0 0 194.11,404.0625 L379.2413,404.0625 A0,0 0 0 0 379.2413,404.0625 L379.2413,387.7969 L413.24,383.7969 L379.2413,379.7969 L379.2413,373.7969 L369.2413,363.7969 L194.11,363.7969 A0,0 0 0 0 194.11,363.7969 " fill="#FEFFDD" style="stroke:#181818;stroke-width:0.5;"/><path d="M369.2413,363.7969 L369.2413,373.7969 L379.2413,373.7969 L369.2413,363.7969 " fill="#FEFFDD" style="stroke:#181818;stroke-width:0.5;"/><text fill="#000000" font-family="sans-serif" font-size="13" lengthAdjust="spacing" textLength="144.6885" x="200.11" y="380.8638">Single Source of Truth</text><text fill="#000000" font-family="sans-serif" font-size="13" lengthAdjust="spacing" textLength="164.1313" x="200.11" y="395.9966">Versioned Configurations</text></g><g id="elem_GMN24"><path d="M29.61,503.7969 L29.61,528.9297 A0,0 0 0 0 29.61,528.9297 L137.3571,528.9297 A0,0 0 0 0 137.3571,528.9297 L137.3571,513.7969 L127.3571,503.7969 L87.61,503.7969 L83.61,401.8569 L79.61,503.7969 L29.61,503.7969 A0,0 0 0 0 29.61,503.7969 " fill="#FEFFDD" style="stroke:#181818;stroke-width:0.5;"/><path d="M127.3571,503.7969 L127.3571,513.7969 L137.3571,513.7969 L127.3571,503.7969 " fill="#FEFFDD" style="stroke:#181818;stroke-width:0.5;"/><text fill="#000000" font-family="sans-serif" font-size="13" lengthAdjust="spacing" textLength="86.7471" x="35.61" y="520.8638">Signs Images</text></g><g id="elem_GMN27"><path d="M378.11,213.7969 L378.11,254.0625 A0,0 0 0 0 378.11,254.0625 L462.63,254.0625 L472.68,365.6569 L470.63,254.0625 L552.7042,254.0625 A0,0 0 0 0 552.7042,254.0625 L552.7042,223.7969 L542.7042,213.7969 L378.11,213.7969 A0,0 0 0 0 378.11,213.7969 " fill="#FEFFDD" style="stroke:#181818;stroke-width:0.5;"/><path d="M542.7042,213.7969 L542.7042,223.7969 L552.7042,223.7969 L542.7042,213.7969 " fill="#FEFFDD" style="stroke:#181818;stroke-width:0.5;"/><text fill="#000000" font-family="sans-serif" font-size="13" lengthAdjust="spacing" textLength="129.9619" x="384.11" y="230.8638">Executes Automatic</text><text fill="#000000" font-family="sans-serif" font-size="13" lengthAdjust="spacing" textLength="153.5942" x="384.11" y="245.9966">Deployments and Tests</text></g><!--link ZT to CI--><g id="link_ZT_CI"><path d="M105.61,119.1269 C105.61,149.8669 105.61,186.0669 105.61,209.4369 " fill="none" id="ZT-to-CI" style="stroke:#181818;stroke-width:1.0;"/><polygon fill="#181818" points="105.61,215.4369,109.61,206.4369,105.61,210.4369,101.61,206.4369,105.61,215.4369" style="stroke:#181818;stroke-width:1.0;"/><text fill="#000000" font-family="sans-serif" font-size="13" lengthAdjust="spacing" textLength="147.1323" x="106.61" y="161.8638">develops and provides</text></g><!--link GEM to REG--><g id="link_GEM_REG"><path d="M270.62,272.1769 C260.62,292.8869 245.62,317.6369 225.61,333.7969 C206.53,349.1969 188.0333,358.0544 165.0233,365.4344 " fill="none" id="GEM-to-REG" style="stroke:#181818;stroke-width:1.0;"/><polygon fill="#181818" points="159.31,367.2669,169.1016,368.3271,164.0711,365.7398,166.6584,360.7093,159.31,367.2669" style="stroke:#181818;stroke-width:1.0;"/><text fill="#000000" font-family="sans-serif" font-size="13" lengthAdjust="spacing" textLength="57.3828" x="254.61" y="322.3638">operates</text></g><!--link TSP to GIT--><g id="link_TSP_GIT"><path d="M612.09,271.8469 C598.36,281.3669 583.8,291.7669 570.61,301.7969 C543.01,322.7769 517.0569,344.779 497.7669,361.559 " fill="none" id="TSP-to-GIT" style="stroke:#181818;stroke-width:1.0;"/><polygon fill="#181818" points="493.24,365.4969,502.6556,362.608,497.0124,362.2153,497.4051,356.5721,493.24,365.4969" style="stroke:#181818;stroke-width:1.0;"/><text fill="#000000" font-family="sans-serif" font-size="13" lengthAdjust="spacing" textLength="55.8784" x="574.7965" y="314.8638">provides</text><text fill="#000000" font-family="sans-serif" font-size="13" lengthAdjust="spacing" textLength="62.2515" x="571.61" y="329.9966">Manifests</text></g><!--link GEM to GIT--><g id="link_GEM_GIT"><path d="M313.2,271.8369 C329.48,291.9369 351.41,316.1969 374.61,333.7969 C391.41,346.5469 406.588,354.9036 424.668,363.1236 " fill="none" id="GEM-to-GIT" style="stroke:#181818;stroke-width:1.0;"/><polygon fill="#181818" points="430.13,365.6069,423.5925,358.2406,425.5783,363.5375,420.2815,365.5233,430.13,365.6069" style="stroke:#181818;stroke-width:1.0;"/><text fill="#000000" font-family="sans-serif" font-size="13" lengthAdjust="spacing" textLength="85.9727" x="375.61" y="314.8638">operates and</text><text fill="#000000" font-family="sans-serif" font-size="13" lengthAdjust="spacing" textLength="58.9697" x="389.1115" y="329.9966">validates</text></g><!--link TSP to K8S--><g id="link_TSP_K8S"><path d="M660.35,271.8269 C655.72,291.0069 648.66,314.3969 638.61,333.7969 C601.95,404.4969 535.4347,464.9343 499.7447,494.4343 " fill="none" id="TSP-to-K8S" style="stroke:#181818;stroke-width:1.0;"/><polygon fill="#181818" points="495.12,498.2569,504.6054,495.6061,498.9739,495.0714,499.5086,489.4399,495.12,498.2569" style="stroke:#181818;stroke-width:1.0;"/><text fill="#000000" font-family="sans-serif" font-size="13" lengthAdjust="spacing" textLength="57.3828" x="620.61" y="388.3638">operates</text></g><!--link CI to GIT--><g id="link_CI_GIT"><path d="M107.65,251.9769 C111.34,274.6569 121.34,314.0469 147.61,333.7969 C192.15,367.2969 341.78,353.7669 396.61,363.7969 C402.02,364.7869 401.7675,364.6597 407.3675,365.8797 " fill="none" id="CI-to-GIT" style="stroke:#181818;stroke-width:1.0;"/><polygon fill="#181818" points="413.23,367.1569,405.2877,361.3328,408.3446,366.0926,403.5848,369.1494,413.23,367.1569" style="stroke:#181818;stroke-width:1.0;"/><text fill="#000000" font-family="sans-serif" font-size="13" lengthAdjust="spacing" textLength="55.4785" x="155.0211" y="314.8638">Manifest</text><text fill="#000000" font-family="sans-serif" font-size="13" lengthAdjust="spacing" textLength="68.3008" x="148.61" y="329.9966">Templates</text></g><!--link CI to REG--><g id="link_CI_REG"><path d="M66.86,251.8169 C46.74,262.8969 24.03,279.4769 12.61,301.7969 C6.12,314.4569 6,321.2069 12.61,333.7969 C19.71,347.3269 27.2986,354.7209 40.0286,362.4909 " fill="none" id="CI-to-REG" style="stroke:#181818;stroke-width:1.0;"/><polygon fill="#181818" points="45.15,365.6169,39.5519,357.5137,40.8822,363.0119,35.384,364.3422,45.15,365.6169" style="stroke:#181818;stroke-width:1.0;"/><text fill="#000000" font-family="sans-serif" font-size="13" lengthAdjust="spacing" textLength="97.6016" x="13.61" y="322.3638">Docker Images</text></g><!--link GIT to K8S--><g id="link_GIT_K8S"><path d="M473.61,401.8569 C473.61,426.8669 473.61,467.2169 473.61,492.2369 " fill="none" id="GIT-to-K8S" style="stroke:#181818;stroke-width:1.0;"/><polygon fill="#181818" points="473.61,498.2369,477.61,489.2369,473.61,493.2369,469.61,489.2369,473.61,498.2369" style="stroke:#181818;stroke-width:1.0;"/><text fill="#000000" font-family="sans-serif" font-size="13" lengthAdjust="spacing" textLength="62.2515" x="474.61" y="446.8638">Manifests</text></g><!--link REG to K8S--><g id="link_REG_K8S"><path d="M134.59,401.8569 C209.33,426.8669 342.1703,471.3124 416.9203,496.3324 " fill="none" id="REG-to-K8S" style="stroke:#181818;stroke-width:1.0;"/><polygon fill="#181818" points="422.61,498.2369,415.345,491.5871,417.8686,496.6498,412.8058,499.1734,422.61,498.2369" style="stroke:#181818;stroke-width:1.0;"/><text fill="#000000" font-family="sans-serif" font-size="13" lengthAdjust="spacing" textLength="96.2241" x="279.61" y="446.8638">Signed Images</text></g><!--SRC=[LLB1Qkim4BphAvRS-oWzbHmA9Gd1bD8GctSelgZsnX6LLq9QXzU_VoivSjAZLpEpCxDcmnRXiu6DdI9ZWBtX3nzXiuL3S1t6g9Jks0LOVM9mq0I1mHOlQ9t7i08TXLqWUnmrc-yytU_UoxYfuEdF8zGOBgR397mn_PNSr0Ub0dQiQH0dAzaFH_Gk6g7-p4fLSu_OE69jIBmUSJ2HhwZZRlyBLS71UBG2pC-RwlxrRVh2GCWOI_0CUdkkbP8o7XvUXB26ViuPGLCFVhOTbIJB2DcuXjI25XqbGV9KtAuNR4llcim98zze6L1eIRcbYxQc_wKYJkwqbQHPg4MnfGP7RpFW-YwEO0rRrtrBEzMeX-IsQeeYtCXH9UnjNfk1i2ySHOuHWXdE3EuqczcYj-v7-ZfBXm9Tb5fwzTuQB4yfjADqlgLSg5bijdG8KYXnJEH9sqAOrrayvMqvP6toeMet1VbZP2e_7fzR-eiX6fUioczmCiCa1SdtLUBBCRinmVDjKgXOCcK0Ex-isFt3RaedU9s4939TItF8CNjCDszoLVy1]--></g></svg>