<svg xmlns="http://www.w3.org/2000/svg" xmlns:xlink="http://www.w3.org/1999/xlink" contentStyleType="text/css" data-diagram-type="SEQUENCE" height="516px" preserveAspectRatio="none" style="width:1018px;height:516px;background:#FFFFFF;" version="1.1" viewBox="0 0 1018 516" width="1018px" zoomAndPan="magnify"><defs/><g><rect fill="#F8F8FF" height="504.25" style="stroke:#181818;stroke-width:0.5;" width="558.7642" x="39.793" y="6"/><text fill="#000000" font-family="Helvetica" font-size="10" font-weight="bold" x="310.7131" y="15.2822">LEI</text><rect fill="#E6E6FA" height="487.6094" style="stroke:#181818;stroke-width:0.5;" width="395.6812" x="39.793" y="22.6406"/><text fill="#000000" font-family="Helvetica" font-size="10" font-weight="bold" x="198.5369" y="31.9229">Prim&#228;rsystem</text><rect fill="#F4A460" height="470.9688" style="stroke:#181818;stroke-width:0.5;" width="89" x="39.793" y="39.2813"/><text fill="#000000" font-family="Helvetica" font-size="10" font-weight="bold" x="51.793" y="48.5635">ZETA Client</text><rect fill="#C9FFC9" height="504.25" style="stroke:#181818;stroke-width:0.5;" width="402.3867" x="610.5571" y="6"/><text fill="#000000" font-family="Helvetica" font-size="10" font-weight="bold" x="787.3901" y="15.2822">Anbieter</text><rect fill="#F4A460" height="487.6094" style="stroke:#181818;stroke-width:0.5;" width="291.3232" x="610.5571" y="22.6406"/><text fill="#000000" font-family="Helvetica" font-size="10" font-weight="bold" x="723.0742" y="31.9229">ZETA Guard</text><rect fill="#8FBC8F" height="487.6094" style="stroke:#181818;stroke-width:0.5;" width="99.0635" x="913.8804" y="22.6406"/><text fill="#000000" font-family="Helvetica" font-size="10" font-weight="bold" x="925.8804" y="31.9229">TI 2.0 Dienst</text><g><title>User</title><rect fill="#000000" fill-opacity="0.00000" height="306.0469" width="8" x="15.8965" y="126.5625"/><line style="stroke:#181818;stroke-width:0.5;stroke-dasharray:5.0,5.0;" x1="19.3965" x2="19.3965" y1="126.5625" y2="432.6094"/></g><g><title>ZETA</title><rect fill="#000000" fill-opacity="0.00000" height="306.0469" width="8" x="80.793" y="126.5625"/><line style="stroke:#181818;stroke-width:0.5;stroke-dasharray:5.0,5.0;" x1="84.293" x2="84.293" y1="126.5625" y2="432.6094"/></g><g><title/><rect fill="#FFFFFF" height="270.4063" style="stroke:#181818;stroke-width:1;" width="10" x="79.293" y="162.2031"/></g><g><title>TPM</title><rect fill="#000000" fill-opacity="0.00000" height="306.0469" width="8" x="402.3525" y="126.5625"/><line style="stroke:#181818;stroke-width:0.5;stroke-dasharray:5.0,5.0;" x1="405.8525" x2="405.8525" y1="126.5625" y2="432.6094"/></g><g><title>Konnektor or</title><rect fill="#000000" fill-opacity="0.00000" height="306.0469" width="8" x="487.4009" y="126.5625"/><line style="stroke:#181818;stroke-width:0.5;stroke-dasharray:5.0,5.0;" x1="490.9009" x2="490.9009" y1="126.5625" y2="432.6094"/></g><g><title>SM(C)-B</title><rect fill="#000000" fill-opacity="0.00000" height="306.0469" width="8" x="563.9424" y="126.5625"/><line style="stroke:#181818;stroke-width:0.5;stroke-dasharray:5.0,5.0;" x1="567.4424" x2="567.4424" y1="126.5625" y2="432.6094"/></g><g><title>PEP</title><rect fill="#000000" fill-opacity="0.00000" height="306.0469" width="8" x="643.958" y="126.5625"/><line style="stroke:#181818;stroke-width:0.5;stroke-dasharray:5.0,5.0;" x1="647.458" x2="647.458" y1="126.5625" y2="432.6094"/></g><g><title/><rect fill="#FFFFFF" height="25.6406" style="stroke:#181818;stroke-width:1;" width="10" x="642.458" y="179.8438"/></g><g><title>PDP</title><rect fill="#000000" fill-opacity="0.00000" height="306.0469" width="8" x="745.3335" y="126.5625"/><line style="stroke:#181818;stroke-width:0.5;stroke-dasharray:5.0,5.0;" x1="748.8335" x2="748.8335" y1="126.5625" y2="432.6094"/></g><g><title/><rect fill="#FFFFFF" height="25.6406" style="stroke:#181818;stroke-width:1;" width="10" x="743.8335" y="269.7656"/></g><g><title>PDP</title><rect fill="#000000" fill-opacity="0.00000" height="306.0469" width="8" x="854.0942" y="126.5625"/><line style="stroke:#181818;stroke-width:0.5;stroke-dasharray:5.0,5.0;" x1="857.5942" x2="857.5942" y1="126.5625" y2="432.6094"/></g><g><title>Resource</title><rect fill="#000000" fill-opacity="0.00000" height="306.0469" width="8" x="959.9121" y="126.5625"/><line style="stroke:#181818;stroke-width:0.5;stroke-dasharray:5.0,5.0;" x1="963.4121" x2="963.4121" y1="126.5625" y2="432.6094"/></g><text fill="#000000" font-family="Helvetica" font-size="10" x="5" y="124.2041">User</text><ellipse cx="19.3965" cy="63.4219" fill="#E2E2F0" rx="8" ry="8" style="stroke:#181818;stroke-width:0.5;"/><path d="M19.3965,71.4219 L19.3965,98.4219 M6.3965,79.4219 L32.3965,79.4219 M19.3965,98.4219 L6.3965,113.4219 M19.3965,98.4219 L32.3965,113.4219" fill="none" style="stroke:#181818;stroke-width:0.5;"/><rect fill="#E2E2F0" height="37.2813" rx="2.5" ry="2.5" style="stroke:#181818;stroke-width:0.5;" width="42.9502" x="62.8179" y="88.2813"/><text fill="#000000" font-family="Helvetica" font-size="10" x="71.2339" y="104.5635">ZETA</text><text fill="#000000" font-family="Helvetica" font-size="10" x="69.8179" y="116.2041">Client</text><rect fill="#E2E2F0" height="25.6406" rx="2.5" ry="2.5" style="stroke:#181818;stroke-width:0.5;" width="34.7666" x="388.4692" y="99.9219"/><text fill="#000000" font-family="Helvetica" font-size="10" x="395.4692" y="116.2041">TPM</text><rect fill="#E2E2F0" height="37.2813" rx="2.5" ry="2.5" style="stroke:#181818;stroke-width:0.5;" width="78.8535" x="451.4741" y="88.2813"/><text fill="#000000" font-family="Helvetica" font-size="10" x="458.4741" y="104.5635">Konnektor or</text><text fill="#000000" font-family="Helvetica" font-size="10" x="462.4805" y="116.2041">TI-Gateway</text><rect fill="#E2E2F0" height="25.6406" rx="2.5" ry="2.5" style="stroke:#181818;stroke-width:0.5;" width="54.2295" x="540.3276" y="99.9219"/><text fill="#000000" font-family="Helvetica" font-size="10" x="547.3276" y="116.2041">SM(C)-B</text><rect fill="#E2E2F0" height="37.2813" rx="2.5" ry="2.5" style="stroke:#181818;stroke-width:0.5;" width="65.8018" x="614.5571" y="88.2813"/><text fill="#000000" font-family="Helvetica" font-size="10" x="638.2686" y="104.5635">PEP</text><text fill="#000000" font-family="Helvetica" font-size="10" x="621.5571" y="116.2041">http Proxy</text><rect fill="#E2E2F0" height="37.2813" rx="2.5" ry="2.5" style="stroke:#181818;stroke-width:0.5;" width="116.9492" x="690.3589" y="88.2813"/><text fill="#000000" font-family="Helvetica" font-size="10" x="738.9531" y="104.5635">PDP</text><text fill="#000000" font-family="Helvetica" font-size="10" x="697.3589" y="116.2041">Authorization Server</text><rect fill="#E2E2F0" height="37.2813" rx="2.5" ry="2.5" style="stroke:#181818;stroke-width:0.5;" width="80.5723" x="817.3081" y="88.2813"/><text fill="#000000" font-family="Helvetica" font-size="10" x="847.7139" y="104.5635">PDP</text><text fill="#000000" font-family="Helvetica" font-size="10" x="824.3081" y="116.2041">Policy Engine</text><rect fill="#E2E2F0" height="37.2813" rx="2.5" ry="2.5" style="stroke:#181818;stroke-width:0.5;" width="60.5283" x="933.1479" y="88.2813"/><text fill="#000000" font-family="Helvetica" font-size="10" x="940.1479" y="104.5635">Resource</text><text fill="#000000" font-family="Helvetica" font-size="10" x="947.0156" y="116.2041">Server</text><text fill="#000000" font-family="Helvetica" font-size="10" x="5" y="501.8916">User</text><ellipse cx="19.3965" cy="441.1094" fill="#E2E2F0" rx="8" ry="8" style="stroke:#181818;stroke-width:0.5;"/><path d="M19.3965,449.1094 L19.3965,476.1094 M6.3965,457.1094 L32.3965,457.1094 M19.3965,476.1094 L6.3965,491.1094 M19.3965,476.1094 L32.3965,491.1094" fill="none" style="stroke:#181818;stroke-width:0.5;"/><rect fill="#E2E2F0" height="37.2813" rx="2.5" ry="2.5" style="stroke:#181818;stroke-width:0.5;" width="42.9502" x="62.8179" y="432.6094"/><text fill="#000000" font-family="Helvetica" font-size="10" x="71.2339" y="448.8916">ZETA</text><text fill="#000000" font-family="Helvetica" font-size="10" x="69.8179" y="460.5322">Client</text><rect fill="#E2E2F0" height="25.6406" rx="2.5" ry="2.5" style="stroke:#181818;stroke-width:0.5;" width="34.7666" x="388.4692" y="432.6094"/><text fill="#000000" font-family="Helvetica" font-size="10" x="395.4692" y="448.8916">TPM</text><rect fill="#E2E2F0" height="37.2813" rx="2.5" ry="2.5" style="stroke:#181818;stroke-width:0.5;" width="78.8535" x="451.4741" y="432.6094"/><text fill="#000000" font-family="Helvetica" font-size="10" x="458.4741" y="448.8916">Konnektor or</text><text fill="#000000" font-family="Helvetica" font-size="10" x="462.4805" y="460.5322">TI-Gateway</text><rect fill="#E2E2F0" height="25.6406" rx="2.5" ry="2.5" style="stroke:#181818;stroke-width:0.5;" width="54.2295" x="540.3276" y="432.6094"/><text fill="#000000" font-family="Helvetica" font-size="10" x="547.3276" y="448.8916">SM(C)-B</text><rect fill="#E2E2F0" height="37.2813" rx="2.5" ry="2.5" style="stroke:#181818;stroke-width:0.5;" width="65.8018" x="614.5571" y="432.6094"/><text fill="#000000" font-family="Helvetica" font-size="10" x="638.2686" y="448.8916">PEP</text><text fill="#000000" font-family="Helvetica" font-size="10" x="621.5571" y="460.5322">http Proxy</text><rect fill="#E2E2F0" height="37.2813" rx="2.5" ry="2.5" style="stroke:#181818;stroke-width:0.5;" width="116.9492" x="690.3589" y="432.6094"/><text fill="#000000" font-family="Helvetica" font-size="10" x="738.9531" y="448.8916">PDP</text><text fill="#000000" font-family="Helvetica" font-size="10" x="697.3589" y="460.5322">Authorization Server</text><rect fill="#E2E2F0" height="37.2813" rx="2.5" ry="2.5" style="stroke:#181818;stroke-width:0.5;" width="80.5723" x="817.3081" y="432.6094"/><text fill="#000000" font-family="Helvetica" font-size="10" x="847.7139" y="448.8916">PDP</text><text fill="#000000" font-family="Helvetica" font-size="10" x="824.3081" y="460.5322">Policy Engine</text><rect fill="#E2E2F0" height="37.2813" rx="2.5" ry="2.5" style="stroke:#181818;stroke-width:0.5;" width="60.5283" x="933.1479" y="432.6094"/><text fill="#000000" font-family="Helvetica" font-size="10" x="940.1479" y="448.8916">Resource</text><text fill="#000000" font-family="Helvetica" font-size="10" x="947.0156" y="460.5322">Server</text><path d="M63.293,138.5625 L391.9307,138.5625 L391.9307,142.2031 L381.9307,152.2031 L63.293,152.2031 L63.293,138.5625" fill="#EEEEEE" style="stroke:#000000;stroke-width:1.5;"/><rect fill="none" height="270.0469" style="stroke:#000000;stroke-width:1.5;" width="706.5405" x="63.293" y="138.5625"/><text fill="#000000" font-family="Helvetica" font-size="10" font-weight="bold" x="78.293" y="148.8447">ZETA Client has Resource Server FQDN (RS-FQDN)</text><polygon fill="#181818" points="630.458,175.8438,640.458,179.8438,630.458,183.8438,634.458,179.8438" style="stroke:#181818;stroke-width:1;"/><line style="stroke:#181818;stroke-width:1;" x1="89.293" x2="636.458" y1="179.8438" y2="179.8438"/><text fill="#000000" font-family="Helvetica" font-size="10" x="96.293" y="175.4854">(01)</text><text fill="#000000" font-family="Helvetica" font-size="10" x="120.8203" y="175.4854">GET /.well-known/oauth-protected-resource Host: RS-FQDN</text><polygon fill="#181818" points="100.293,201.4844,90.293,205.4844,100.293,209.4844,96.293,205.4844" style="stroke:#181818;stroke-width:1;"/><line style="stroke:#181818;stroke-width:1;stroke-dasharray:2.0,2.0;" x1="94.293" x2="641.458" y1="205.4844" y2="205.4844"/><text fill="#000000" font-family="Helvetica" font-size="10" x="106.293" y="201.126">(02)</text><text fill="#000000" font-family="Helvetica" font-size="10" x="130.8203" y="201.126">Client: 200 OK; json body with Well-Known json Document (RFC draft-ietf-oauth-resource-metadata)</text><line style="stroke:#181818;stroke-width:1;" x1="89.293" x2="131.293" y1="231.125" y2="231.125"/><line style="stroke:#181818;stroke-width:1;" x1="131.293" x2="131.293" y1="231.125" y2="244.125"/><line style="stroke:#181818;stroke-width:1;" x1="90.293" x2="131.293" y1="244.125" y2="244.125"/><polygon fill="#181818" points="100.293,240.125,90.293,244.125,100.293,248.125,96.293,244.125" style="stroke:#181818;stroke-width:1;"/><text fill="#000000" font-family="Helvetica" font-size="10" x="96.293" y="226.7666">(03)</text><text fill="#000000" font-family="Helvetica" font-size="10" x="120.8203" y="226.7666">Update Resource Server and ZETA Guard Configuration</text><polygon fill="#181818" points="731.8335,265.7656,741.8335,269.7656,731.8335,273.7656,735.8335,269.7656" style="stroke:#181818;stroke-width:1;"/><line style="stroke:#181818;stroke-width:1;" x1="89.293" x2="737.8335" y1="269.7656" y2="269.7656"/><text fill="#000000" font-family="Helvetica" font-size="10" x="96.293" y="265.4072">(04)</text><text fill="#000000" font-family="Helvetica" font-size="10" x="120.8203" y="265.4072">GET /.well-known/oauth-authorization-server&#160;Host: AuthS-FQDN</text><polygon fill="#181818" points="100.293,291.4063,90.293,295.4063,100.293,299.4063,96.293,295.4063" style="stroke:#181818;stroke-width:1;"/><line style="stroke:#181818;stroke-width:1;stroke-dasharray:2.0,2.0;" x1="94.293" x2="742.8335" y1="295.4063" y2="295.4063"/><text fill="#000000" font-family="Helvetica" font-size="10" x="106.293" y="291.0479">(05)</text><text fill="#000000" font-family="Helvetica" font-size="10" x="130.8203" y="291.0479">200 OK; json body with Well-Known json Document (RFC8414)</text><line style="stroke:#181818;stroke-width:1;" x1="89.293" x2="131.293" y1="321.0469" y2="321.0469"/><line style="stroke:#181818;stroke-width:1;" x1="131.293" x2="131.293" y1="321.0469" y2="334.0469"/><line style="stroke:#181818;stroke-width:1;" x1="90.293" x2="131.293" y1="334.0469" y2="334.0469"/><polygon fill="#181818" points="100.293,330.0469,90.293,334.0469,100.293,338.0469,96.293,334.0469" style="stroke:#181818;stroke-width:1;"/><text fill="#000000" font-family="Helvetica" font-size="10" x="96.293" y="316.6885">(06)</text><text fill="#000000" font-family="Helvetica" font-size="10" x="120.8203" y="316.6885">Update Authorization Server Configuration</text><path d="M94.293,347.0469 L94.293,403.0469 L425.293,403.0469 L425.293,357.0469 L415.293,347.0469 L94.293,347.0469" fill="#FEFFDD" style="stroke:#181818;stroke-width:0.5;"/><path d="M415.293,347.0469 L415.293,357.0469 L425.293,357.0469 L415.293,347.0469" fill="#FEFFDD" style="stroke:#181818;stroke-width:0.5;"/><text fill="#000000" font-family="Helvetica" font-size="10" x="100.293" y="361.3291">Offene Fragen:</text><text fill="#000000" font-family="Helvetica" font-size="10" x="100.293" y="372.9697">- Werden die Well-known JSON Dokumente signiert?</text><text fill="#000000" font-family="Helvetica" font-size="10" x="100.293" y="384.6104">- Wenn ja, welches Zertifikat wird f&#252;r die Signatur verwendet?</text><text fill="#000000" font-family="Helvetica" font-size="10" x="100.293" y="396.251">- Wie wird die Signatur &#252;berpr&#252;ft?</text><!--SRC=[dLLDRzf04BtxLqp98I3gX4GvL5HgHO2GD1-uc2XgbCjYZ_46UzTThqF8h-cXFoEdyiSwQvjWGfHAbP1Oi- -zcVTslB1CIv754rHGgxTQZPgLphX8c68n-1YmBD8dKcYNFo4SjDxUl68nmYb63wYvnogONe6vb4Ac2VFGVq5tPQOugWesGZ7LOSU_pr8DGWgixANuCqFXuGW3L6PnpBpPLCbC-5qPIGKt8TTLWlkQiFPmQEtl_Wke5n72H4Q-jRjlMTQ7HB5fp42ZV0AjChIiZgUfx7LA5YRo4MeN_RCQx0n2cUgY5u3yTqVnUFbRfOjKOqo82_Q0mYSMG8cuxOyxq8qu2atxBXF-ubZ9kSWH0DGcXSeJ9dI90fOMh3jHqd8eoHf1wpLfx5pc3Fesm3Mi2ZgNGk3CM3BGzPDKTs9yPW-OnZbRr5wntClZ7EzUrhiD-xXchSIBJ3fYmb6Z8blZVlVqQdWn7FomghO76LF-jkjgZLCdB-7qdJiHQfs0e-JZehQ5wsGwT0jeZw3cKIh-n3INWavPFPW-jbXEVqrnPCIz1VJ5b0lSZAheUNm6Xtijw57cDA8xFQPcBhA1Gdphi4P5DoDCQTGzl1Db4nk7zHAO6UO4AhC08R5NvD80d7plNK5zvDfcqI2b4jjihjVs5vDPimbj6FJ7iBytnoYoPuB2tPUCOh4J9JLw6drRhVHFQMxRK0gJ5YdO9BIIj4ciMBVXiDM2uVbdk4yfs8dq5p3dEeGRK-NSL2bsUjBBOaEkZqwwu2iMQ9kc8R2B7bQLxHWryvbcZGq7gsBN2UtXLWuqBh0U8BfCHC2dcSeFUqEdc8htmc3LGR7JNF_FhoAFdBsAf91wdSh_fF7fwE3eNRjl3U-MIVe8EaTGV1fga44fae_NC0XG89pGjOMYdVzaKq_AHm4-nwAzF0NuvWwlgBrPtXv2ogU2xcNzzOKao0Bx21IS5s8AjxJ90pvZcfnIzi7oMUMQBZ6PpXHGitDpnwqrQ3V7Ri2Mp_IVawZbSv03pPjW_9XNmleB]--></g></svg>