<svg xmlns="http://www.w3.org/2000/svg" xmlns:xlink="http://www.w3.org/1999/xlink" contentStyleType="text/css" data-diagram-type="SEQUENCE" height="2224px" preserveAspectRatio="none" style="width:1534px;height:2224px;background:#FFFFFF;" version="1.1" viewBox="0 0 1534 2224" width="1534px" zoomAndPan="magnify"><defs/><g><rect fill="#F8F8FF" height="2212.0313" style="stroke:#181818;stroke-width:0.5;" width="758.978" x="17.5" y="6"/><text fill="#000000" font-family="Helvetica" font-size="10" font-weight="bold" x="388.5271" y="15.2822">LEI</text><rect fill="#E6E6FA" height="2195.3906" style="stroke:#181818;stroke-width:0.5;" width="758.978" x="17.5" y="22.6406"/><text fill="#000000" font-family="Helvetica" font-size="10" font-weight="bold" x="357.8923" y="31.9229">Prim&#228;rsystem</text><rect fill="#F4A460" height="2178.75" style="stroke:#181818;stroke-width:0.5;" width="89" x="17.5" y="39.2813"/><text fill="#000000" font-family="Helvetica" font-size="10" font-weight="bold" x="29.5" y="48.5635">ZETA Client</text><rect fill="#C9FFC9" height="2212.0313" style="stroke:#181818;stroke-width:0.5;" width="536.6836" x="788.478" y="6"/><text fill="#000000" font-family="Helvetica" font-size="10" font-weight="bold" x="1032.4595" y="15.2822">Anbieter</text><rect fill="#F4A460" height="2195.3906" style="stroke:#181818;stroke-width:0.5;" width="425.6201" x="788.478" y="22.6406"/><text fill="#000000" font-family="Helvetica" font-size="10" font-weight="bold" x="968.1436" y="31.9229">ZETA Guard</text><rect fill="#8FBC8F" height="2195.3906" style="stroke:#181818;stroke-width:0.5;" width="99.0635" x="1226.0981" y="22.6406"/><text fill="#000000" font-family="Helvetica" font-size="10" font-weight="bold" x="1238.0981" y="31.9229">TI 2.0 Dienst</text><g><title>ZETA</title><rect fill="#000000" fill-opacity="0.00000" height="2080.5469" width="8" x="58.5" y="93.2031"/><line style="stroke:#181818;stroke-width:0.5;stroke-dasharray:5.0,5.0;" x1="62" x2="62" y1="93.2031" y2="2173.75"/></g><g><title/><rect fill="#FFFFFF" height="2053.5469" style="stroke:#181818;stroke-width:1;" width="10" x="57" y="101.2031"/></g><g><title>ZETA Attestation Service</title><rect fill="#000000" fill-opacity="0.00000" height="2080.5469" width="8" x="378.8779" y="93.2031"/><line style="stroke:#181818;stroke-width:0.5;stroke-dasharray:5.0,5.0;" x1="382.3779" x2="382.3779" y1="93.2031" y2="2173.75"/></g><g><title/><rect fill="#FFFFFF" height="528.2969" style="stroke:#181818;stroke-width:1;" width="10" x="377.3779" y="392.5313"/></g><g><title>TPM</title><rect fill="#000000" fill-opacity="0.00000" height="2080.5469" width="8" x="751.5947" y="93.2031"/><line style="stroke:#181818;stroke-width:0.5;stroke-dasharray:5.0,5.0;" x1="755.0947" x2="755.0947" y1="93.2031" y2="2173.75"/></g><g><title/><rect fill="#FFFFFF" height="306.9688" style="stroke:#181818;stroke-width:1;" width="10" x="750.0947" y="521.6563"/></g><g><title>PDP</title><rect fill="#000000" fill-opacity="0.00000" height="2080.5469" width="8" x="847.4526" y="93.2031"/><line style="stroke:#181818;stroke-width:0.5;stroke-dasharray:5.0,5.0;" x1="850.9526" x2="850.9526" y1="93.2031" y2="2173.75"/></g><g><title/><rect fill="#FFFFFF" height="25.6406" style="stroke:#181818;stroke-width:1;" width="10" x="845.9526" y="201.4063"/></g><g><title/><rect fill="#FFFFFF" height="1002.1563" style="stroke:#181818;stroke-width:1;" width="10" x="845.9526" y="1125.5938"/></g><g><title>PDP DB</title><rect fill="#000000" fill-opacity="0.00000" height="2080.5469" width="8" x="1180.8481" y="93.2031"/><line style="stroke:#181818;stroke-width:0.5;stroke-dasharray:5.0,5.0;" x1="1184.3481" x2="1184.3481" y1="93.2031" y2="2173.75"/></g><g><title/><rect fill="#FFFFFF" height="389.8125" style="stroke:#181818;stroke-width:1;" width="10" x="1179.3481" y="1553.1719"/></g><g><title>Resource</title><rect fill="#000000" fill-opacity="0.00000" height="2080.5469" width="8" x="1272.1299" y="93.2031"/><line style="stroke:#181818;stroke-width:0.5;stroke-dasharray:5.0,5.0;" x1="1275.6299" x2="1275.6299" y1="93.2031" y2="2173.75"/></g><rect fill="#E2E2F0" height="37.2813" rx="2.5" ry="2.5" style="stroke:#181818;stroke-width:0.5;" width="42.9502" x="40.5249" y="54.9219"/><text fill="#000000" font-family="Helvetica" font-size="10" x="48.9409" y="71.2041">ZETA</text><text fill="#000000" font-family="Helvetica" font-size="10" x="47.5249" y="82.8447">Client</text><rect fill="#E2E2F0" height="37.2813" rx="2.5" ry="2.5" style="stroke:#181818;stroke-width:0.5;" width="138.6826" x="313.0366" y="54.9219"/><text fill="#000000" font-family="Helvetica" font-size="10" x="320.0366" y="71.2041">ZETA Attestation Service</text><text fill="#000000" font-family="Helvetica" font-size="10" x="346.5112" y="82.8447">(Admin rights)</text><rect fill="#E2E2F0" height="25.6406" rx="2.5" ry="2.5" style="stroke:#181818;stroke-width:0.5;" width="34.7666" x="737.7114" y="66.5625"/><text fill="#000000" font-family="Helvetica" font-size="10" x="744.7114" y="82.8447">TPM</text><rect fill="#E2E2F0" height="37.2813" rx="2.5" ry="2.5" style="stroke:#181818;stroke-width:0.5;" width="116.9492" x="792.478" y="54.9219"/><text fill="#000000" font-family="Helvetica" font-size="10" x="841.0723" y="71.2041">PDP</text><text fill="#000000" font-family="Helvetica" font-size="10" x="799.478" y="82.8447">Authorization Server</text><rect fill="#E2E2F0" height="25.6406" rx="2.5" ry="2.5" style="stroke:#181818;stroke-width:0.5;" width="51.5" x="1158.5981" y="66.5625"/><text fill="#000000" font-family="Helvetica" font-size="10" x="1165.5981" y="82.8447">PDP DB</text><rect fill="#E2E2F0" height="37.2813" rx="2.5" ry="2.5" style="stroke:#181818;stroke-width:0.5;" width="60.5283" x="1245.3657" y="54.9219"/><text fill="#000000" font-family="Helvetica" font-size="10" x="1252.3657" y="71.2041">Resource</text><text fill="#000000" font-family="Helvetica" font-size="10" x="1259.2334" y="82.8447">Server</text><rect fill="#E2E2F0" height="37.2813" rx="2.5" ry="2.5" style="stroke:#181818;stroke-width:0.5;" width="42.9502" x="40.5249" y="2173.75"/><text fill="#000000" font-family="Helvetica" font-size="10" x="48.9409" y="2190.0322">ZETA</text><text fill="#000000" font-family="Helvetica" font-size="10" x="47.5249" y="2201.6729">Client</text><rect fill="#E2E2F0" height="37.2813" rx="2.5" ry="2.5" style="stroke:#181818;stroke-width:0.5;" width="138.6826" x="313.0366" y="2173.75"/><text fill="#000000" font-family="Helvetica" font-size="10" x="320.0366" y="2190.0322">ZETA Attestation Service</text><text fill="#000000" font-family="Helvetica" font-size="10" x="346.5112" y="2201.6729">(Admin rights)</text><rect fill="#E2E2F0" height="25.6406" rx="2.5" ry="2.5" style="stroke:#181818;stroke-width:0.5;" width="34.7666" x="737.7114" y="2173.75"/><text fill="#000000" font-family="Helvetica" font-size="10" x="744.7114" y="2190.0322">TPM</text><rect fill="#E2E2F0" height="37.2813" rx="2.5" ry="2.5" style="stroke:#181818;stroke-width:0.5;" width="116.9492" x="792.478" y="2173.75"/><text fill="#000000" font-family="Helvetica" font-size="10" x="841.0723" y="2190.0322">PDP</text><text fill="#000000" font-family="Helvetica" font-size="10" x="799.478" y="2201.6729">Authorization Server</text><rect fill="#E2E2F0" height="25.6406" rx="2.5" ry="2.5" style="stroke:#181818;stroke-width:0.5;" width="51.5" x="1158.5981" y="2173.75"/><text fill="#000000" font-family="Helvetica" font-size="10" x="1165.5981" y="2190.0322">PDP DB</text><rect fill="#E2E2F0" height="37.2813" rx="2.5" ry="2.5" style="stroke:#181818;stroke-width:0.5;" width="60.5283" x="1245.3657" y="2173.75"/><text fill="#000000" font-family="Helvetica" font-size="10" x="1252.3657" y="2190.0322">Resource</text><text fill="#000000" font-family="Helvetica" font-size="10" x="1259.2334" y="2201.6729">Server</text><path d="M8,105.2031 L67.9561,105.2031 L67.9561,108.8438 L57.9561,118.8438 L8,118.8438 L8,105.2031" fill="#EEEEEE" style="stroke:#000000;stroke-width:1.5;"/><rect fill="none" height="2044.5469" style="stroke:#000000;stroke-width:1.5;" width="1520.7651" x="8" y="105.2031"/><text fill="#000000" font-family="Helvetica" font-size="10" font-weight="bold" x="23" y="115.4854">alt</text><text fill="#000000" font-family="Helvetica" font-size="10" font-weight="bold" x="82.9561" y="116.4854">[Client has no client_id]</text><line style="stroke:#181818;stroke-width:1;" x1="67" x2="109" y1="158.125" y2="158.125"/><line style="stroke:#181818;stroke-width:1;" x1="109" x2="109" y1="158.125" y2="171.125"/><line style="stroke:#181818;stroke-width:1;" x1="68" x2="109" y1="171.125" y2="171.125"/><polygon fill="#181818" points="78,167.125,68,171.125,78,175.125,74,171.125" style="stroke:#181818;stroke-width:1;"/><text fill="#000000" font-family="Helvetica" font-size="10" x="74" y="147.9463">(01)</text><text fill="#000000" font-family="Helvetica" font-size="10" x="98.5273" y="142.126">Generate Client Instance</text><text fill="#000000" font-family="Helvetica" font-size="10" x="98.5273" y="153.7666">Key Pair (for Client Auth)</text><path d="M235.0732,133.8438 L235.0732,177.8438 L398.0732,177.8438 L398.0732,143.8438 L388.0732,133.8438 L235.0732,133.8438" fill="#FEFFDD" style="stroke:#181818;stroke-width:0.5;"/><path d="M388.0732,133.8438 L388.0732,143.8438 L398.0732,143.8438 L388.0732,133.8438" fill="#FEFFDD" style="stroke:#181818;stroke-width:0.5;"/><text fill="#000000" font-family="Helvetica" font-size="10" x="241.0732" y="148.126">Key Pair for private_key_jwt</text><text fill="#000000" font-family="Helvetica" font-size="10" x="241.0732" y="159.7666">(Public Key MUST be bound</text><text fill="#000000" font-family="Helvetica" font-size="10" x="241.0732" y="171.4072">to TPM Attestation)</text><polygon fill="#181818" points="833.9526,197.4063,843.9526,201.4063,833.9526,205.4063,837.9526,201.4063" style="stroke:#181818;stroke-width:1;"/><line style="stroke:#181818;stroke-width:1;" x1="67" x2="839.9526" y1="201.4063" y2="201.4063"/><text fill="#000000" font-family="Helvetica" font-size="10" x="74" y="197.0479">(02)</text><text fill="#000000" font-family="Helvetica" font-size="10" x="98.5273" y="197.0479">GET /nonce</text><polygon fill="#181818" points="78,223.0469,68,227.0469,78,231.0469,74,227.0469" style="stroke:#181818;stroke-width:1;"/><line style="stroke:#181818;stroke-width:1;stroke-dasharray:2.0,2.0;" x1="72" x2="844.9526" y1="227.0469" y2="227.0469"/><text fill="#000000" font-family="Helvetica" font-size="10" x="84" y="222.6885">(03)</text><text fill="#000000" font-family="Helvetica" font-size="10" x="108.5273" y="222.6885">return 200 OK new-nonce: nonce</text><path d="M46,239.0469 L105.9561,239.0469 L105.9561,242.6875 L95.9561,252.6875 L46,252.6875 L46,239.0469" fill="#EEEEEE" style="stroke:#000000;stroke-width:1.5;"/><rect fill="none" height="854.9063" style="stroke:#000000;stroke-width:1.5;" width="1006.4512" x="46" y="239.0469"/><text fill="#000000" font-family="Helvetica" font-size="10" font-weight="bold" x="61" y="249.3291">alt</text><text fill="#000000" font-family="Helvetica" font-size="10" font-weight="bold" x="120.9561" y="250.3291">[ZETA Attestation Service available]</text><line style="stroke:#000000;stroke-width:1;stroke-dasharray:2.0,2.0;" x1="46" x2="1052.4512" y1="1013.3906" y2="1013.3906"/><text fill="#000000" font-family="Helvetica" font-size="10" font-weight="bold" x="51" y="1024.6729">[ZETA Attestation 'Service is not available]</text><line style="stroke:#181818;stroke-width:1;" x1="67" x2="109" y1="291.9688" y2="291.9688"/><line style="stroke:#181818;stroke-width:1;" x1="109" x2="109" y1="291.9688" y2="304.9688"/><line style="stroke:#181818;stroke-width:1;" x1="68" x2="109" y1="304.9688" y2="304.9688"/><polygon fill="#181818" points="78,300.9688,68,304.9688,78,308.9688,74,304.9688" style="stroke:#181818;stroke-width:1;"/><text fill="#000000" font-family="Helvetica" font-size="10" x="74" y="281.79">(04)</text><text fill="#000000" font-family="Helvetica" font-size="10" x="98.5273" y="275.9697">Calculate Public Key Hash</text><text fill="#000000" font-family="Helvetica" font-size="10" x="98.5273" y="287.6104">(e.g., SHA256(PublicKeyJWK))</text><line style="stroke:#181818;stroke-width:1;" x1="67" x2="109" y1="342.25" y2="342.25"/><line style="stroke:#181818;stroke-width:1;" x1="109" x2="109" y1="342.25" y2="355.25"/><line style="stroke:#181818;stroke-width:1;" x1="68" x2="109" y1="355.25" y2="355.25"/><polygon fill="#181818" points="78,351.25,68,355.25,78,359.25,74,355.25" style="stroke:#181818;stroke-width:1;"/><text fill="#000000" font-family="Helvetica" font-size="10" x="74" y="332.0713">(05)</text><text fill="#000000" font-family="Helvetica" font-size="10" x="98.5273" y="326.251">Calculate attestation_challenge for TPM</text><text fill="#000000" font-family="Helvetica" font-size="10" x="98.5273" y="337.8916">`attestation_challenge = HASH(pubKeyHash + nonce)`</text><polygon fill="#181818" points="365.3779,388.5313,375.3779,392.5313,365.3779,396.5313,369.3779,392.5313" style="stroke:#181818;stroke-width:1;"/><line style="stroke:#181818;stroke-width:1;" x1="67" x2="371.3779" y1="392.5313" y2="392.5313"/><text fill="#000000" font-family="Helvetica" font-size="10" x="74" y="382.3525">(06)</text><text fill="#000000" font-family="Helvetica" font-size="10" x="98.5273" y="376.5322">Get Attestation</text><text fill="#000000" font-family="Helvetica" font-size="10" x="98.5273" y="388.1729">with `attestation_challenge`</text><path d="M392.3779,368.25 L392.3779,471.25 L880.3779,471.25 L880.3779,378.25 L870.3779,368.25 L392.3779,368.25" fill="#FEFFDD" style="stroke:#181818;stroke-width:0.5;"/><path d="M870.3779,368.25 L870.3779,378.25 L880.3779,378.25 L870.3779,368.25" fill="#FEFFDD" style="stroke:#181818;stroke-width:0.5;"/><text fill="#000000" font-family="Helvetica" font-size="10" x="398.3779" y="382.5322">The Prim&#228;rsystem and the ZETA Attestation Service are in the same trust domain.</text><text fill="#000000" font-family="Helvetica" font-size="10" x="398.3779" y="394.1729">At the time of client installation, the ZETA Attestation Service computes a</text><text fill="#000000" font-family="Helvetica" font-size="10" x="398.3779" y="405.8135">cryptographic hash of the Prim&#228;rsystem software and extends this hash into a specific</text><text fill="#000000" font-family="Helvetica" font-size="10" x="398.3779" y="417.4541">PCR (22 or 23) using TPM2_PCR_Extend. The ZETA Attestation Service reads</text><text fill="#000000" font-family="Helvetica" font-size="10" x="398.3779" y="429.0947">and stores the resulting PCR value as a reference measurement or baseline.</text><text fill="#000000" font-family="Helvetica" font-size="10" x="398.3779" y="440.7354">At every boot of the Prim&#228;rsystem, the ZETA Attestation Service measures the Prim&#228;rsystem</text><text fill="#000000" font-family="Helvetica" font-size="10" x="398.3779" y="452.376">software and extends the resulting hash into the same PCR (22 or 23) using</text><text fill="#000000" font-family="Helvetica" font-size="10" x="398.3779" y="464.0166">TPM2_PCR_Extend.</text><path d="M366.3779,480.375 L426.334,480.375 L426.334,484.0156 L416.334,494.0156 L366.3779,494.0156 L366.3779,480.375" fill="#EEEEEE" style="stroke:#000000;stroke-width:1.5;"/><rect fill="none" height="176.4844" style="stroke:#000000;stroke-width:1.5;" width="409.7168" x="366.3779" y="480.375"/><text fill="#000000" font-family="Helvetica" font-size="10" font-weight="bold" x="381.3779" y="490.6572">alt</text><text fill="#000000" font-family="Helvetica" font-size="10" font-weight="bold" x="441.334" y="491.6572">[ZETA TPM Service has no TPM Attestation Key]</text><polygon fill="#181818" points="738.0947,517.6563,748.0947,521.6563,738.0947,525.6563,742.0947,521.6563" style="stroke:#181818;stroke-width:1;"/><line style="stroke:#181818;stroke-width:1;" x1="387.3779" x2="744.0947" y1="521.6563" y2="521.6563"/><text fill="#000000" font-family="Helvetica" font-size="10" x="394.3779" y="517.2979">(07)</text><text fill="#000000" font-family="Helvetica" font-size="10" x="418.9053" y="517.2979">Generate Attestation Key Pair</text><polygon fill="#181818" points="398.3779,543.2969,388.3779,547.2969,398.3779,551.2969,394.3779,547.2969" style="stroke:#181818;stroke-width:1;"/><line style="stroke:#181818;stroke-width:1;stroke-dasharray:2.0,2.0;" x1="392.3779" x2="749.0947" y1="547.2969" y2="547.2969"/><text fill="#000000" font-family="Helvetica" font-size="10" x="404.3779" y="542.9385">(08)</text><text fill="#000000" font-family="Helvetica" font-size="10" x="428.9053" y="542.9385">Return Attestation Public Key</text><polygon fill="#181818" points="738.0947,568.9375,748.0947,572.9375,738.0947,576.9375,742.0947,572.9375" style="stroke:#181818;stroke-width:1;"/><line style="stroke:#181818;stroke-width:1;" x1="387.3779" x2="744.0947" y1="572.9375" y2="572.9375"/><text fill="#000000" font-family="Helvetica" font-size="10" x="394.3779" y="568.5791">(09)</text><text fill="#000000" font-family="Helvetica" font-size="10" x="418.9053" y="568.5791">Get Certificate Chain</text><polygon fill="#181818" points="398.3779,594.5781,388.3779,598.5781,398.3779,602.5781,394.3779,598.5781" style="stroke:#181818;stroke-width:1;"/><line style="stroke:#181818;stroke-width:1;stroke-dasharray:2.0,2.0;" x1="392.3779" x2="749.0947" y1="598.5781" y2="598.5781"/><text fill="#000000" font-family="Helvetica" font-size="10" x="404.3779" y="594.2197">(10)</text><text fill="#000000" font-family="Helvetica" font-size="10" x="428.9053" y="594.2197">Return Certificate Chain</text><line style="stroke:#181818;stroke-width:1;" x1="387.3779" x2="429.3779" y1="635.8594" y2="635.8594"/><line style="stroke:#181818;stroke-width:1;" x1="429.3779" x2="429.3779" y1="635.8594" y2="648.8594"/><line style="stroke:#181818;stroke-width:1;" x1="388.3779" x2="429.3779" y1="648.8594" y2="648.8594"/><polygon fill="#181818" points="398.3779,644.8594,388.3779,648.8594,398.3779,652.8594,394.3779,648.8594" style="stroke:#181818;stroke-width:1;"/><text fill="#000000" font-family="Helvetica" font-size="10" x="394.3779" y="625.6807">(11)</text><text fill="#000000" font-family="Helvetica" font-size="10" x="418.9053" y="619.8604">Store AK Handle, AK Public Key</text><text fill="#000000" font-family="Helvetica" font-size="10" x="418.9053" y="631.501">and Certificate Chain</text><line style="stroke:#181818;stroke-width:1;" x1="387.3779" x2="429.3779" y1="688.5" y2="688.5"/><line style="stroke:#181818;stroke-width:1;" x1="429.3779" x2="429.3779" y1="688.5" y2="701.5"/><line style="stroke:#181818;stroke-width:1;" x1="388.3779" x2="429.3779" y1="701.5" y2="701.5"/><polygon fill="#181818" points="398.3779,697.5,388.3779,701.5,398.3779,705.5,394.3779,701.5" style="stroke:#181818;stroke-width:1;"/><text fill="#000000" font-family="Helvetica" font-size="10" x="394.3779" y="684.1416">(12)</text><text fill="#000000" font-family="Helvetica" font-size="10" x="418.9053" y="684.1416">Select AK Handle</text><polygon fill="#181818" points="738.0947,734.7813,748.0947,738.7813,738.0947,742.7813,742.0947,738.7813" style="stroke:#181818;stroke-width:1;"/><line style="stroke:#181818;stroke-width:1;" x1="387.3779" x2="744.0947" y1="738.7813" y2="738.7813"/><text fill="#000000" font-family="Helvetica" font-size="10" x="394.3779" y="728.6025">(13)</text><text fill="#000000" font-family="Helvetica" font-size="10" x="418.9053" y="722.7822">Get TPM Quote for PCRs (4, 5, 7, 10, 11, 22 or 23)</text><text fill="#000000" font-family="Helvetica" font-size="10" x="418.9053" y="734.4229">and `attestation_challenge` (as qualifyingData), signed with AK</text><path d="M100.1035,714.5 L100.1035,758.5 L377.1035,758.5 L377.1035,724.5 L367.1035,714.5 L100.1035,714.5" fill="#FEFFDD" style="stroke:#181818;stroke-width:0.5;"/><path d="M367.1035,714.5 L367.1035,724.5 L377.1035,724.5 L367.1035,714.5" fill="#FEFFDD" style="stroke:#181818;stroke-width:0.5;"/><text fill="#000000" font-family="Helvetica" font-size="10" font-weight="bold" x="106.1035" y="728.7822">Binding:</text><text fill="#000000" font-family="Helvetica" font-size="10" x="156.3135" y="728.7822">`attestation_challenge` enth&#228;lt Hash des</text><text fill="#000000" font-family="Helvetica" font-size="10" x="106.1035" y="740.4229">Client Instance Public Keys und die Nonce.</text><text fill="#000000" font-family="Helvetica" font-size="10" x="106.1035" y="752.0635">Das TPM signiert PCRs + `attestation_challenge`.</text><path d="M765.0947,714.5 L765.0947,805.5 L1031.0947,805.5 L1031.0947,724.5 L1021.0947,714.5 L765.0947,714.5" fill="#FEFFDD" style="stroke:#181818;stroke-width:0.5;"/><path d="M1021.0947,714.5 L1021.0947,724.5 L1031.0947,724.5 L1021.0947,714.5" fill="#FEFFDD" style="stroke:#181818;stroke-width:0.5;"/><text fill="#000000" font-family="Helvetica" font-size="10" x="771.0947" y="728.7822">PCR 4: Boot Loader Code, Digest</text><text fill="#000000" font-family="Helvetica" font-size="10" x="771.0947" y="740.4229">PCR 5: Boot Loader Configuration, Digest</text><text fill="#000000" font-family="Helvetica" font-size="10" x="771.0947" y="752.0635">PCR 7: Secure Boot State / Policy, Digest</text><text fill="#000000" font-family="Helvetica" font-size="10" x="771.0947" y="763.7041">PCR   10:OS Kernel / IMA, Digest</text><text fill="#000000" font-family="Helvetica" font-size="10" x="771.0947" y="775.3447">PCR 11: OS Components / VSM, Digest,</text><text fill="#000000" font-family="Helvetica" font-size="10" x="771.0947" y="786.9854">PCR 22 or 23 (if available) App Data (ID, Version,</text><text fill="#000000" font-family="Helvetica" font-size="10" x="771.0947" y="798.626">Signature Hash),   Digest</text><polygon fill="#181818" points="398.3779,824.625,388.3779,828.625,398.3779,832.625,394.3779,828.625" style="stroke:#181818;stroke-width:1;"/><line style="stroke:#181818;stroke-width:1;stroke-dasharray:2.0,2.0;" x1="392.3779" x2="749.0947" y1="828.625" y2="828.625"/><text fill="#000000" font-family="Helvetica" font-size="10" x="404.3779" y="824.2666">(14)</text><text fill="#000000" font-family="Helvetica" font-size="10" x="428.9053" y="824.2666">Return TPM Quote</text><line style="stroke:#181818;stroke-width:1;" x1="387.3779" x2="429.3779" y1="854.2656" y2="854.2656"/><line style="stroke:#181818;stroke-width:1;" x1="429.3779" x2="429.3779" y1="854.2656" y2="867.2656"/><line style="stroke:#181818;stroke-width:1;" x1="388.3779" x2="429.3779" y1="867.2656" y2="867.2656"/><polygon fill="#181818" points="398.3779,863.2656,388.3779,867.2656,398.3779,871.2656,394.3779,867.2656" style="stroke:#181818;stroke-width:1;"/><text fill="#000000" font-family="Helvetica" font-size="10" x="394.3779" y="849.9072">(15)</text><text fill="#000000" font-family="Helvetica" font-size="10" x="418.9053" y="849.9072">Get TCG Event Log (from OS/Firmware)</text><path d="M627.9805,841.625 L627.9805,897.625 L871.9805,897.625 L871.9805,851.625 L861.9805,841.625 L627.9805,841.625" fill="#FEFFDD" style="stroke:#181818;stroke-width:0.5;"/><path d="M861.9805,841.625 L861.9805,851.625 L871.9805,851.625 L861.9805,841.625" fill="#FEFFDD" style="stroke:#181818;stroke-width:0.5;"/><text fill="#000000" font-family="Helvetica" font-size="10" x="633.9805" y="855.9072">Quote contains:</text><text fill="#000000" font-family="Helvetica" font-size="10" x="633.9805" y="867.5479">- `attestation_challenge` (as qualifyingData)</text><text fill="#000000" font-family="Helvetica" font-size="10" x="633.9805" y="879.1885">- Attested Data (PCR Select, PCR Digest),</text><text fill="#000000" font-family="Helvetica" font-size="10" x="633.9805" y="890.8291">- Signature</text><polygon fill="#181818" points="78,916.8281,68,920.8281,78,924.8281,74,920.8281" style="stroke:#181818;stroke-width:1;"/><line style="stroke:#181818;stroke-width:1;stroke-dasharray:2.0,2.0;" x1="72" x2="376.3779" y1="920.8281" y2="920.8281"/><text fill="#000000" font-family="Helvetica" font-size="10" x="84" y="916.4697">(16)</text><text fill="#000000" font-family="Helvetica" font-size="10" x="108.5273" y="916.4697">Return Attestation (Quote, EventLog, CertChain)</text><line style="stroke:#181818;stroke-width:1;" x1="67" x2="109" y1="981.3906" y2="981.3906"/><line style="stroke:#181818;stroke-width:1;" x1="109" x2="109" y1="981.3906" y2="994.3906"/><line style="stroke:#181818;stroke-width:1;" x1="68" x2="109" y1="994.3906" y2="994.3906"/><polygon fill="#181818" points="78,990.3906,68,994.3906,78,998.3906,74,994.3906" style="stroke:#181818;stroke-width:1;"/><text fill="#000000" font-family="Helvetica" font-size="10" x="74" y="959.5713">(17)</text><text fill="#000000" font-family="Helvetica" font-size="10" x="98.5273" y="942.1104">Create Client Statement JWT</text><text fill="#000000" font-family="Helvetica" font-size="10" x="98.5273" y="953.751">with posture-tpm,</text><text fill="#000000" font-family="Helvetica" font-size="10" x="98.5273" y="965.3916">includes Attestation</text><text fill="#000000" font-family="Helvetica" font-size="10" x="98.5273" y="977.0322">Signed with Client Instance Key</text><line style="stroke:#181818;stroke-width:1;" x1="67" x2="109" y1="1072.9531" y2="1072.9531"/><line style="stroke:#181818;stroke-width:1;" x1="109" x2="109" y1="1072.9531" y2="1085.9531"/><line style="stroke:#181818;stroke-width:1;" x1="68" x2="109" y1="1085.9531" y2="1085.9531"/><polygon fill="#181818" points="78,1081.9531,68,1085.9531,78,1089.9531,74,1085.9531" style="stroke:#181818;stroke-width:1;"/><text fill="#000000" font-family="Helvetica" font-size="10" x="74" y="1056.9541">(18)</text><text fill="#000000" font-family="Helvetica" font-size="10" x="98.5273" y="1045.3135">Create Client Statement JWT</text><text fill="#000000" font-family="Helvetica" font-size="10" x="98.5273" y="1056.9541">with posture-software</text><text fill="#000000" font-family="Helvetica" font-size="10" x="98.5273" y="1068.5947">Signed with Client Instance Key</text><polygon fill="#181818" points="833.9526,1121.5938,843.9526,1125.5938,833.9526,1129.5938,837.9526,1125.5938" style="stroke:#181818;stroke-width:1;"/><line style="stroke:#181818;stroke-width:1;" x1="67" x2="839.9526" y1="1125.5938" y2="1125.5938"/><text fill="#000000" font-family="Helvetica" font-size="10" x="74" y="1121.2354">(19)</text><text fill="#000000" font-family="Helvetica" font-size="10" x="98.5273" y="1121.2354">POST /register (RFC 7591)</text><path d="M72,1138.5938 L72,1299.5938 L526,1299.5938 L526,1148.5938 L516,1138.5938 L72,1138.5938" fill="#ADD8E6" style="stroke:#181818;stroke-width:0.5;"/><path d="M516,1138.5938 L516,1148.5938 L526,1148.5938 L516,1138.5938" fill="#ADD8E6" style="stroke:#181818;stroke-width:0.5;"/><text fill="#000000" font-family="Helvetica" font-size="10" font-weight="bold" x="78" y="1152.876">DCR Request Body:</text><text fill="#000000" font-family="Helvetica" font-size="10" x="78" y="1164.5166">{</text><text fill="#000000" font-family="Helvetica" font-size="10" x="84.3574" y="1176.1572">"redirect_uris": ["..."],</text><text fill="#000000" font-family="Helvetica" font-size="10" x="84.3574" y="1187.7979">"client_name": "...",</text><text fill="#000000" font-family="Helvetica" font-size="10" x="84.3574" y="1199.4385">"token_endpoint_auth_method": "private_key_jwt",</text><text fill="#000000" font-family="Helvetica" font-size="10" x="84.3574" y="1211.0791">"grant_types": ["urn:ietf:params:oauth:grant-type:token-exchange","refresh_token"],</text><text fill="#000000" font-family="Helvetica" font-size="10" x="84.3574" y="1222.7197">"jwks": { "keys": [ &lt;Client_Instance_Public_Key_JWK&gt; ] },</text><text fill="#000000" font-family="Helvetica" font-size="10" x="84.3574" y="1234.3604">// Custom parameter for attestation:</text><text fill="#000000" font-family="Helvetica" font-size="10" x="84.3574" y="1246.001">"urn:gematik:params:oauth:client-attestation-type:tpm2": {</text><text fill="#000000" font-family="Helvetica" font-size="10" x="93.8936" y="1257.6416">"client_statement": "&lt;Base64(Client Statement JWT)&gt;",</text><text fill="#000000" font-family="Helvetica" font-size="10" x="93.8936" y="1269.2822">"client_statement_format": "client-statement-jwt"</text><text fill="#000000" font-family="Helvetica" font-size="10" x="87.5361" y="1280.9229">}</text><text fill="#000000" font-family="Helvetica" font-size="10" x="78" y="1292.5635">}</text><line style="stroke:#181818;stroke-width:1;" x1="855.9526" x2="897.9526" y1="1322.5625" y2="1322.5625"/><line style="stroke:#181818;stroke-width:1;" x1="897.9526" x2="897.9526" y1="1322.5625" y2="1335.5625"/><line style="stroke:#181818;stroke-width:1;" x1="856.9526" x2="897.9526" y1="1335.5625" y2="1335.5625"/><polygon fill="#181818" points="866.9526,1331.5625,856.9526,1335.5625,866.9526,1339.5625,862.9526,1335.5625" style="stroke:#181818;stroke-width:1;"/><text fill="#000000" font-family="Helvetica" font-size="10" x="862.9526" y="1318.2041">(20)</text><text fill="#000000" font-family="Helvetica" font-size="10" x="887.48" y="1318.2041">Validate Request</text><path d="M984.8022,1309.9219 L984.8022,1400.9219 L1446.8022,1400.9219 L1446.8022,1319.9219 L1436.8022,1309.9219 L984.8022,1309.9219" fill="#FEFFDD" style="stroke:#181818;stroke-width:0.5;"/><path d="M1436.8022,1309.9219 L1436.8022,1319.9219 L1446.8022,1319.9219 L1436.8022,1309.9219" fill="#FEFFDD" style="stroke:#181818;stroke-width:0.5;"/><text fill="#000000" font-family="Helvetica" font-size="10" x="990.8022" y="1324.2041">Validate nonce (Replay Check)</text><text fill="#000000" font-family="Helvetica" font-size="10" x="990.8022" y="1335.8447">Validate Client Assertion JWT (Signature with Public Key from jwks)</text><text fill="#000000" font-family="Helvetica" font-size="10" x="990.8022" y="1347.4854">Calculate expected_attestation_challenge = HASH(nonce + HASH(PublicKeyFromJWKS))</text><text fill="#000000" font-family="Helvetica" font-size="10" x="990.8022" y="1359.126">Verify qualifyingData in Quote == expected_attestation_challenge</text><text fill="#000000" font-family="Helvetica" font-size="10" x="990.8022" y="1370.7666">Validate Client Statement JWT (Signature with Public Key from jwks)</text><text fill="#000000" font-family="Helvetica" font-size="10" x="990.8022" y="1382.4072">Extract TPM Quote &amp; Cert Chain</text><text fill="#000000" font-family="Helvetica" font-size="10" x="990.8022" y="1394.0479">from Client Statement</text><line style="stroke:#181818;stroke-width:1;" x1="855.9526" x2="897.9526" y1="1435.6875" y2="1435.6875"/><line style="stroke:#181818;stroke-width:1;" x1="897.9526" x2="897.9526" y1="1435.6875" y2="1448.6875"/><line style="stroke:#181818;stroke-width:1;" x1="856.9526" x2="897.9526" y1="1448.6875" y2="1448.6875"/><polygon fill="#181818" points="866.9526,1444.6875,856.9526,1448.6875,866.9526,1452.6875,862.9526,1448.6875" style="stroke:#181818;stroke-width:1;"/><text fill="#000000" font-family="Helvetica" font-size="10" x="862.9526" y="1425.5088">(21)</text><text fill="#000000" font-family="Helvetica" font-size="10" x="887.48" y="1419.6885">Validate TPM Quote Signature</text><text fill="#000000" font-family="Helvetica" font-size="10" x="887.48" y="1431.3291">(using AK Cert Chain / Trusted Roots)</text><path d="M1086.3696,1411.4063 L1086.3696,1490.4063 L1457.3696,1490.4063 L1457.3696,1421.4063 L1447.3696,1411.4063 L1086.3696,1411.4063" fill="#FEFFDD" style="stroke:#181818;stroke-width:0.5;"/><path d="M1447.3696,1411.4063 L1447.3696,1421.4063 L1457.3696,1421.4063 L1447.3696,1411.4063" fill="#FEFFDD" style="stroke:#181818;stroke-width:0.5;"/><text fill="#000000" font-family="Helvetica" font-size="10" x="1092.3696" y="1425.6885">Checks ensure:</text><text fill="#000000" font-family="Helvetica" font-size="10" x="1092.3696" y="1437.3291">1. Client owns Private Key.</text><text fill="#000000" font-family="Helvetica" font-size="10" x="1092.3696" y="1448.9697">2. TPM Quote is valid &amp; from trusted TPM.</text><text fill="#000000" font-family="Helvetica" font-size="10" x="1092.3696" y="1460.6104">3.</text><text fill="#000000" font-family="Helvetica" font-size="10" font-weight="bold" x="1105.0894" y="1460.6104">Quote was generated for *this specific* Client Key &amp; Nonce.</text><text fill="#000000" font-family="Helvetica" font-size="10" x="1092.3696" y="1472.251">4. Device state (PCRs) is compliant.</text><text fill="#000000" font-family="Helvetica" font-size="10" x="1092.3696" y="1483.8916">5. Request is not a replay.</text><path d="M27,1500.25 L86.9561,1500.25 L86.9561,1503.8906 L76.9561,1513.8906 L27,1513.8906 L27,1500.25" fill="#EEEEEE" style="stroke:#000000;stroke-width:1.5;"/><rect fill="none" height="635.5" style="stroke:#000000;stroke-width:1.5;" width="1476.7651" x="27" y="1500.25"/><text fill="#000000" font-family="Helvetica" font-size="10" font-weight="bold" x="42" y="1510.5322">alt</text><text fill="#000000" font-family="Helvetica" font-size="10" font-weight="bold" x="101.9561" y="1511.5322">[Attestation and Binding valid]</text><line style="stroke:#000000;stroke-width:1;stroke-dasharray:2.0,2.0;" x1="27" x2="1503.7651" y1="2091.4688" y2="2091.4688"/><text fill="#000000" font-family="Helvetica" font-size="10" font-weight="bold" x="32" y="2102.751">[Attestation or Binding invalid]</text><polygon fill="#181818" points="1167.3481,1549.1719,1177.3481,1553.1719,1167.3481,1557.1719,1171.3481,1553.1719" style="stroke:#181818;stroke-width:1;"/><line style="stroke:#181818;stroke-width:1;" x1="855.9526" x2="1173.3481" y1="1553.1719" y2="1553.1719"/><text fill="#000000" font-family="Helvetica" font-size="10" x="862.9526" y="1542.9932">(22)</text><text fill="#000000" font-family="Helvetica" font-size="10" x="887.48" y="1537.1729">Check if Client</text><text fill="#000000" font-family="Helvetica" font-size="10" x="887.48" y="1548.8135">already exists (by PubKey Hash?)</text><polygon fill="#181818" points="866.9526,1574.8125,856.9526,1578.8125,866.9526,1582.8125,862.9526,1578.8125" style="stroke:#181818;stroke-width:1;"/><line style="stroke:#181818;stroke-width:1;stroke-dasharray:2.0,2.0;" x1="860.9526" x2="1178.3481" y1="1578.8125" y2="1578.8125"/><text fill="#000000" font-family="Helvetica" font-size="10" x="872.9526" y="1574.4541">(23)</text><text fill="#000000" font-family="Helvetica" font-size="10" x="897.48" y="1574.4541">&#160;</text><path d="M1194.3481,1591.8125 L1194.3481,1635.8125 L1440.3481,1635.8125 L1440.3481,1601.8125 L1430.3481,1591.8125 L1194.3481,1591.8125" fill="#FEFFDD" style="stroke:#181818;stroke-width:0.5;"/><path d="M1430.3481,1591.8125 L1430.3481,1601.8125 L1440.3481,1601.8125 L1430.3481,1591.8125" fill="#FEFFDD" style="stroke:#181818;stroke-width:0.5;"/><text fill="#000000" font-family="Helvetica" font-size="10" x="1200.3481" y="1606.0947">Check if client_id already exists in DB for</text><text fill="#000000" font-family="Helvetica" font-size="10" x="1203.5269" y="1617.7354">Client_Instance_Public_Key_JWK Thumbprint</text><text fill="#000000" font-family="Helvetica" font-size="10" x="1203.5269" y="1629.376">(or potentially based on AK/EK cert if stable)</text><path d="M46,1645.7344 L105.9561,1645.7344 L105.9561,1649.375 L95.9561,1659.375 L46,1659.375 L46,1645.7344" fill="#EEEEEE" style="stroke:#000000;stroke-width:1.5;"/><rect fill="none" height="420.7344" style="stroke:#000000;stroke-width:1.5;" width="1432.7651" x="46" y="1645.7344"/><text fill="#000000" font-family="Helvetica" font-size="10" font-weight="bold" x="61" y="1656.0166">alt</text><text fill="#000000" font-family="Helvetica" font-size="10" font-weight="bold" x="120.9561" y="1657.0166">[Client exists in DB (based on Public Key)]</text><line style="stroke:#000000;stroke-width:1;stroke-dasharray:2.0,2.0;" x1="46" x2="1478.7651" y1="1706.0156" y2="1706.0156"/><polygon fill="#181818" points="78,1683.0156,68,1687.0156,78,1691.0156,74,1687.0156" style="stroke:#181818;stroke-width:1;"/><line style="stroke:#181818;stroke-width:1;stroke-dasharray:2.0,2.0;" x1="72" x2="844.9526" y1="1687.0156" y2="1687.0156"/><text fill="#000000" font-family="Helvetica" font-size="10" x="84" y="1682.6572">(24)</text><text fill="#000000" font-family="Helvetica" font-size="10" x="108.5273" y="1682.6572">409 Conflict (Client with this key already registered)</text><line style="stroke:#181818;stroke-width:1;" x1="855.9526" x2="897.9526" y1="1730.6563" y2="1730.6563"/><line style="stroke:#181818;stroke-width:1;" x1="897.9526" x2="897.9526" y1="1730.6563" y2="1743.6563"/><line style="stroke:#181818;stroke-width:1;" x1="856.9526" x2="897.9526" y1="1743.6563" y2="1743.6563"/><polygon fill="#181818" points="866.9526,1739.6563,856.9526,1743.6563,866.9526,1747.6563,862.9526,1743.6563" style="stroke:#181818;stroke-width:1;"/><text fill="#000000" font-family="Helvetica" font-size="10" x="862.9526" y="1726.2979">(25)</text><text fill="#000000" font-family="Helvetica" font-size="10" x="887.48" y="1726.2979">Generate client_id</text><polygon fill="#181818" points="1167.3481,1776.9375,1177.3481,1780.9375,1167.3481,1784.9375,1171.3481,1780.9375" style="stroke:#181818;stroke-width:1;"/><line style="stroke:#181818;stroke-width:1;" x1="855.9526" x2="1173.3481" y1="1780.9375" y2="1780.9375"/><text fill="#000000" font-family="Helvetica" font-size="10" x="862.9526" y="1770.7588">(26)</text><text fill="#000000" font-family="Helvetica" font-size="10" x="887.48" y="1764.9385">Store client metadata,</text><text fill="#000000" font-family="Helvetica" font-size="10" x="887.48" y="1776.5791">incl. Client Instance Key Thumbprint, Attestation details</text><path d="M1194.3481,1793.9375 L1194.3481,1919.9375 L1457.3481,1919.9375 L1457.3481,1803.9375 L1447.3481,1793.9375 L1194.3481,1793.9375" fill="#FEFFDD" style="stroke:#181818;stroke-width:0.5;"/><path d="M1447.3481,1793.9375 L1447.3481,1803.9375 L1457.3481,1803.9375 L1447.3481,1793.9375" fill="#FEFFDD" style="stroke:#181818;stroke-width:0.5;"/><text fill="#000000" font-family="Helvetica" font-size="10" x="1200.3481" y="1808.2197">Store client metadata in DB:</text><text fill="#000000" font-family="Helvetica" font-size="10" x="1200.3481" y="1819.8604">- client_id</text><text fill="#000000" font-family="Helvetica" font-size="10" x="1200.3481" y="1831.501">- client_instance_key_thumbprint</text><text fill="#000000" font-family="Helvetica" font-size="10" x="1200.3481" y="1843.1416">- attestation_data (PCRs, AK used)</text><text fill="#000000" font-family="Helvetica" font-size="10" x="1200.3481" y="1854.7822">- attestation_key_cert_thumbprint?</text><text fill="#000000" font-family="Helvetica" font-size="10" x="1200.3481" y="1866.4229">- redirect_uris</text><text fill="#000000" font-family="Helvetica" font-size="10" x="1200.3481" y="1878.0635">- client_name</text><text fill="#000000" font-family="Helvetica" font-size="10" x="1200.3481" y="1889.7041">- token_endpoint_auth_method</text><text fill="#000000" font-family="Helvetica" font-size="10" x="1200.3481" y="1901.3447">- grant_types</text><text fill="#000000" font-family="Helvetica" font-size="10" x="1200.3481" y="1912.9854">- state // Client registered but not yet activated?</text><polygon fill="#181818" points="866.9526,1938.9844,856.9526,1942.9844,866.9526,1946.9844,862.9526,1942.9844" style="stroke:#181818;stroke-width:1;"/><line style="stroke:#181818;stroke-width:1;stroke-dasharray:2.0,2.0;" x1="860.9526" x2="1178.3481" y1="1942.9844" y2="1942.9844"/><text fill="#000000" font-family="Helvetica" font-size="10" x="872.9526" y="1938.626">(27)</text><text fill="#000000" font-family="Helvetica" font-size="10" x="897.48" y="1938.626">201 Created</text><line style="stroke:#181818;stroke-width:1;" x1="68" x2="78" y1="1968.625" y2="1964.625"/><line style="stroke:#181818;stroke-width:1;" x1="68" x2="78" y1="1968.625" y2="1972.625"/><line style="stroke:#181818;stroke-width:1;stroke-dasharray:2.0,2.0;" x1="67" x2="844.9526" y1="1968.625" y2="1968.625"/><text fill="#000000" font-family="Helvetica" font-size="10" x="84" y="1964.2666">(28)</text><text fill="#000000" font-family="Helvetica" font-size="10" x="108.5273" y="1964.2666">201 Created</text><path d="M72,1981.625 L72,2060.625 L281,2060.625 L281,1991.625 L271,1981.625 L72,1981.625" fill="#90EE90" style="stroke:#181818;stroke-width:0.5;"/><path d="M271,1981.625 L271,1991.625 L281,1991.625 L271,1981.625" fill="#90EE90" style="stroke:#181818;stroke-width:0.5;"/><text fill="#000000" font-family="Helvetica" font-size="10" font-weight="bold" x="78" y="1995.9072">DCR Response Body:</text><text fill="#000000" font-family="Helvetica" font-size="10" x="78" y="2007.5479">{</text><text fill="#000000" font-family="Helvetica" font-size="10" x="84.3574" y="2019.1885">"client_id": "&lt;generated-client-id&gt;",</text><text fill="#000000" font-family="Helvetica" font-size="10" x="84.3574" y="2030.8291">"client_id_issued_at": ...,</text><text fill="#000000" font-family="Helvetica" font-size="10" x="84.3574" y="2042.4697">// ... other metadata</text><text fill="#000000" font-family="Helvetica" font-size="10" x="78" y="2054.1104">}</text><line style="stroke:#181818;stroke-width:1;" x1="68" x2="78" y1="2127.75" y2="2123.75"/><line style="stroke:#181818;stroke-width:1;" x1="68" x2="78" y1="2127.75" y2="2131.75"/><line style="stroke:#181818;stroke-width:1;stroke-dasharray:2.0,2.0;" x1="67" x2="844.9526" y1="2127.75" y2="2127.75"/><text fill="#000000" font-family="Helvetica" font-size="10" x="84" y="2123.3916">(29)</text><text fill="#000000" font-family="Helvetica" font-size="10" x="108.5273" y="2123.3916">400 Bad Request (Attestation/Binding failed)</text><!--SRC=[bLZhSXf75lxFKvoLgnAG05rYnnNATWe9MNBaYrPexTeiAT8m3RGrz93f7iauvRV9c-J5yftkkJGNoTuV531z-lIvVkVh4PbDT3OVoPHswWS7ZPsQkL5w8L8nfqXEH1RRbucsVVLPqk71ziMtOYxfNCQtqggn26HwNkPDeXEp46CPbT8dIPOgcGQoiTHJE-j67pDZIITQ1cj6_f59FPPNSY9J_d4inZVJDCbqT9B4IKeVPig66_hh6oeVZchxttzDq2vZIQCaZchVxzTg_rgaOZeNP6NocMoQoLfjb7oYdTUdhtReqTaiCTQVJ-IUNwPg_lTVgLaQA-UGU2rkfOxWB54kyUlfTPTEOYMrnNfVw6Xvd2PtsaaGmJG4KYs4jhaK2UDt3NI-pOb2BIkihM_wjTilTr3NMccii2hHS3UzLMCvqFLkD5UQKZMTMTFOsT1mVVd6QS0tBnO75Ty-05qzKjBA53vSdvwSlttt-jtPVskXZsUPIADD5yEJkfcTUMilUvS3pN-JL7skx8N-ZKqGxHqNcwXt7DfOHFdw5Hsr3wY7SA6Y7lL4UjENuYoLSbkShxmDLzAWCZb2uT4RxkTPsTkhYRZCqGmAT49Zzs-e8cpDLrelYbyTEfDQfiBAuiahM2SqdtWXbtGfL4hr2KewN-PuDA199zZYqjMXKf3b5gcwXRhXZLmEFzvPGculir6inaxipN_wrpJYOaQl3BHDN6Q3acYiMEcJiRV7TfvUqpxwSCnrxP-tAZzQhGwbqcQffgE30tftGLhUjPnuX_mkREFWt5U396w5YiKebYx4wv7gq8c8nrdCaGhyEHTc1WzbUzfkKl-yU_JanznThFxouQBH-AesKTao7Cz4pC0ZNIWHce7-VVlwSphlzi_hYso4WzWAslD-DdvVEv6RpqTGsj3nWRvJTaRRzNibPRmuIKMSyh9Qonj78o_Zi3IkPmXNY3-4pYEBf_Vd8PK4A60Pmz0CX4E_HCbSADr6GrgtP1MMaabUtTW0DN7iD3KVrZzEveiCZqaCz3XTBcmoJSLYXeJEE8pGQJUCDid4th5XRBtyPD5u1cBA-3sA2rcGMSYncgZnG5-UN57zw8YGnACV6fGPfQSSiQCXLeQdJa7R1UTUCrCf8ZFGVA2nIIgDCmlV662iZO-u5N4c6IS45lA1GNCfJ9RAEOS5vu-4aR7IqeTE0aEMwBx4RdNqAw7BLPlDZGDzJuX2awjObSdT5gY1NezKNbXSoIXehhoye7FeMgj31qRv7XPk-Ixeq9L7Y52ywkMDGtp7d4Y0CfBg87A66dn0yNsokKudskTaKlS2qA6ZM3RvPsM4J_XsFOX4hRQXJiPoR2jzjMq-iAt_phWj6LOGM4FrnqrwqgIdJR0eV0wRL6R1st0FBb0TvVP79c8rMI9NFM55eqb6JRMCo05Azw9Mea0i9m21tTrZfID8TtPtxzMBSftz_HS0nu5P94r1BSg958J94CO7HKhIMyOyr7OFPh6RR0c8dFLUxjrtNBksZbHSYOyxTCojyJeHu4SWXH7oqrDJAF0z_MHTG4_KD4jps0abdt9gncWMlw5lEPVxT9d0W-MgA245dNTz-9Lg6KFerPlkgiJXOOSWS0Ba0X7Lra3eVVzD8TJqKaK2gQucrJHhK7Un8CuJrL_rclHUfeQj1QD0g8Hb4pdao2Bb-cfhzUscQrxYPIbjLA8hj9CpEhtbfBrEfk0DQJA7uVilLJfdR6XiHDrNvHWa5rLkEWFT-dyAZyLzCwFul8iS2DyJJPTIxr6ZoQAbmvNjgmnY2pxKdOLDxnMSQhhcT4rvxsW7T5TyocNUWV4l7wxpcRi0HOSPBRkOmp2bnt66WbyTplsWfTORmQELZCqMhFw-06l5Ozf-dTPyixK5md-JRJfQ8uahywGyfV3TPNwH9b4sPgeQ_hlr1UiUUKlufmXpbDSFpnXVKDAEsurQxJukUVaEB7G_bLE5oW6_lNfvGa-V_7IuIcnvGkRR7yNyO8HfcoFwxcuFnNN5jpMGa-CaMWBRyhK_ys-YdLH6AaKj3d6xD3iT-jzEkztU-QrPIUJiN6COOjqj1wiskP5wY60k4ipDeO0Bmxd4ZIHYuJMg7Mu4fO6yNIwaFnPbtS7TQD9nrqpJILXLnqcrMAhZJch9JsWuTDjE4wPFCBbdGxUmOlB7knjM-YVju62ddfxvE0sBAXXwg1wY68PWmI_eD_fIQTZVfnDmEc23iuQlR6um1JdjLCUnwLCvn-ERLUjzw5h1hjoLnVo8xIjL174sHULn_9uTWnlz-BY-hVORBu9mRbCmXCKmYlNaXfHBBKv6jVbBhVhc6vlsw9dVOOh2xD1xO5l4lPYNrLe3bSkEvgDevI8MI_03ERu14fRBnKND66OHQ0zuG_KAx5tN1bSO1zASKoYfRYNo4yWiO7NuuFN3cxBd_vJtdfVGYApt6soMJ07OQy3D_DutwlFdNpbfqx6LD7shOo2IgHY7JEWx1-IUNWsqarq_eFPWbYfLfGcu2Ngg3pfMQSUmlkOx313p2bp0h5-VNGODIeEvDO3mi5rOajnfmpoRkvnT0iyvQWS70-9lsHmuunom-J6GWEWFRS2K5xp3x9pcR3bolRRhRY_5ZMMtE97ZzbrEgdPt1_fncthIZHDNtMw-cWOVpDUeM04_SDAJTWc5nTG1xUVoREUtxX3zcLtcXD2Rx_gZ3BH_b-9msaM6L0738AOnNukMg1aWDqZiQCa9BoxYF_k9x1MqYfnrraW7mxeJoTkoFAHyKK9hno25K8Ye5JtzCDhXNfVDHm1dROiDTNun0WkqLQZhfRkKHOHOT2_sJozepBK22w2E6LlvZaSNF2jugxDYKxrKLDLz8pzqunr9XnuV_EGuAoGj5R3dsiPL0-2yTBqOZZBApG7PM5LSjKHv3mjVDMtcjBZxv5TsuBv08ucS0RMtCOaWbCsL6egmMSLcuut3Ud9f-va-VDMGQMsO7ZuhqinprcxabbR8o30gQAXnLxlC517S56LzdFf0wS-1w0fvs3IBAKFmz7wg40W5j21uwbkRfxAFKfLx6cNMzVCIv1xuwP0eAenSAT6DldEC-kZWC6UOqNfPLXHqK-W14ZODNfY6JCpWQcJa6XLRfMFX75UEGJqhGR6L3t4LhGt-OCTG6PEvGOMzO6ghSeWVdb5YPw0pHQ454b-sHStpPCVam_86N1G8gVG6HbQnms_NrWTqBA8IW-k1glr2pmJzuainVuzGQk3NoBL_0000]--></g></svg>