<svg xmlns="http://www.w3.org/2000/svg" xmlns:xlink="http://www.w3.org/1999/xlink" contentStyleType="text/css" data-diagram-type="SEQUENCE" height="2248px" preserveAspectRatio="none" style="width:1484px;height:2248px;background:#FFFFFF;" version="1.1" viewBox="0 0 1484 2248" width="1484px" zoomAndPan="magnify"><defs/><g><rect fill="#F8F8FF" height="2236.6719" style="stroke:#181818;stroke-width:0.5;" width="708.6753" x="17.5" y="6"/><text fill="#000000" font-family="Helvetica" font-size="10" font-weight="bold" x="363.3757" y="15.2822">LEI</text><rect fill="#E6E6FA" height="2220.0313" style="stroke:#181818;stroke-width:0.5;" width="708.6753" x="17.5" y="22.6406"/><text fill="#000000" font-family="Helvetica" font-size="10" font-weight="bold" x="332.741" y="31.9229">Prim&#228;rsystem</text><rect fill="#F4A460" height="2203.3906" style="stroke:#181818;stroke-width:0.5;" width="89" x="17.5" y="39.2813"/><text fill="#000000" font-family="Helvetica" font-size="10" font-weight="bold" x="29.5" y="48.5635">ZETA Client</text><rect fill="#C9FFC9" height="2236.6719" style="stroke:#181818;stroke-width:0.5;" width="536.6836" x="738.1753" y="6"/><text fill="#000000" font-family="Helvetica" font-size="10" font-weight="bold" x="982.1567" y="15.2822">Anbieter</text><rect fill="#F4A460" height="2220.0313" style="stroke:#181818;stroke-width:0.5;" width="425.6201" x="738.1753" y="22.6406"/><text fill="#000000" font-family="Helvetica" font-size="10" font-weight="bold" x="917.8408" y="31.9229">ZETA Guard</text><rect fill="#8FBC8F" height="2220.0313" style="stroke:#181818;stroke-width:0.5;" width="99.0635" x="1175.7954" y="22.6406"/><text fill="#000000" font-family="Helvetica" font-size="10" font-weight="bold" x="1187.7954" y="31.9229">TI 2.0 Dienst</text><g><title>ZETA</title><rect fill="#000000" fill-opacity="0.00000" height="2105.1875" width="8" x="58.5" y="93.2031"/><line style="stroke:#181818;stroke-width:0.5;stroke-dasharray:5.0,5.0;" x1="62" x2="62" y1="93.2031" y2="2198.3906"/></g><g><title/><rect fill="#FFFFFF" height="2078.1875" style="stroke:#181818;stroke-width:1;" width="10" x="57" y="101.2031"/></g><g><title>ZETA Attestation Service</title><rect fill="#000000" fill-opacity="0.00000" height="2105.1875" width="8" x="359.7764" y="93.2031"/><line style="stroke:#181818;stroke-width:0.5;stroke-dasharray:5.0,5.0;" x1="363.2764" x2="363.2764" y1="93.2031" y2="2198.3906"/></g><g><title/><rect fill="#FFFFFF" height="541.2969" style="stroke:#181818;stroke-width:1;" width="10" x="358.2764" y="392.5313"/></g><g><title>TPM</title><rect fill="#000000" fill-opacity="0.00000" height="2105.1875" width="8" x="701.292" y="93.2031"/><line style="stroke:#181818;stroke-width:0.5;stroke-dasharray:5.0,5.0;" x1="704.792" x2="704.792" y1="93.2031" y2="2198.3906"/></g><g><title/><rect fill="#FFFFFF" height="345.6094" style="stroke:#181818;stroke-width:1;" width="10" x="699.792" y="521.6563"/></g><g><title>PDP</title><rect fill="#000000" fill-opacity="0.00000" height="2105.1875" width="8" x="797.1499" y="93.2031"/><line style="stroke:#181818;stroke-width:0.5;stroke-dasharray:5.0,5.0;" x1="800.6499" x2="800.6499" y1="93.2031" y2="2198.3906"/></g><g><title/><rect fill="#FFFFFF" height="25.6406" style="stroke:#181818;stroke-width:1;" width="10" x="795.6499" y="201.4063"/></g><g><title/><rect fill="#FFFFFF" height="1013.7969" style="stroke:#181818;stroke-width:1;" width="10" x="795.6499" y="1138.5938"/></g><g><title>PDP DB</title><rect fill="#000000" fill-opacity="0.00000" height="2105.1875" width="8" x="1130.5454" y="93.2031"/><line style="stroke:#181818;stroke-width:0.5;stroke-dasharray:5.0,5.0;" x1="1134.0454" x2="1134.0454" y1="93.2031" y2="2198.3906"/></g><g><title/><rect fill="#FFFFFF" height="389.8125" style="stroke:#181818;stroke-width:1;" width="10" x="1129.0454" y="1577.8125"/></g><g><title>Resource</title><rect fill="#000000" fill-opacity="0.00000" height="2105.1875" width="8" x="1221.8271" y="93.2031"/><line style="stroke:#181818;stroke-width:0.5;stroke-dasharray:5.0,5.0;" x1="1225.3271" x2="1225.3271" y1="93.2031" y2="2198.3906"/></g><rect fill="#E2E2F0" height="37.2813" rx="2.5" ry="2.5" style="stroke:#181818;stroke-width:0.5;" width="42.9502" x="40.5249" y="54.9219"/><text fill="#000000" font-family="Helvetica" font-size="10" x="48.9409" y="71.2041">ZETA</text><text fill="#000000" font-family="Helvetica" font-size="10" x="47.5249" y="82.8447">Client</text><rect fill="#E2E2F0" height="37.2813" rx="2.5" ry="2.5" style="stroke:#181818;stroke-width:0.5;" width="138.6826" x="293.9351" y="54.9219"/><text fill="#000000" font-family="Helvetica" font-size="10" x="300.9351" y="71.2041">ZETA Attestation Service</text><text fill="#000000" font-family="Helvetica" font-size="10" x="327.4097" y="82.8447">(Admin rights)</text><rect fill="#E2E2F0" height="25.6406" rx="2.5" ry="2.5" style="stroke:#181818;stroke-width:0.5;" width="34.7666" x="687.4087" y="66.5625"/><text fill="#000000" font-family="Helvetica" font-size="10" x="694.4087" y="82.8447">TPM</text><rect fill="#E2E2F0" height="37.2813" rx="2.5" ry="2.5" style="stroke:#181818;stroke-width:0.5;" width="116.9492" x="742.1753" y="54.9219"/><text fill="#000000" font-family="Helvetica" font-size="10" x="790.7695" y="71.2041">PDP</text><text fill="#000000" font-family="Helvetica" font-size="10" x="749.1753" y="82.8447">Authorization Server</text><rect fill="#E2E2F0" height="25.6406" rx="2.5" ry="2.5" style="stroke:#181818;stroke-width:0.5;" width="51.5" x="1108.2954" y="66.5625"/><text fill="#000000" font-family="Helvetica" font-size="10" x="1115.2954" y="82.8447">PDP DB</text><rect fill="#E2E2F0" height="37.2813" rx="2.5" ry="2.5" style="stroke:#181818;stroke-width:0.5;" width="60.5283" x="1195.063" y="54.9219"/><text fill="#000000" font-family="Helvetica" font-size="10" x="1202.063" y="71.2041">Resource</text><text fill="#000000" font-family="Helvetica" font-size="10" x="1208.9307" y="82.8447">Server</text><rect fill="#E2E2F0" height="37.2813" rx="2.5" ry="2.5" style="stroke:#181818;stroke-width:0.5;" width="42.9502" x="40.5249" y="2198.3906"/><text fill="#000000" font-family="Helvetica" font-size="10" x="48.9409" y="2214.6729">ZETA</text><text fill="#000000" font-family="Helvetica" font-size="10" x="47.5249" y="2226.3135">Client</text><rect fill="#E2E2F0" height="37.2813" rx="2.5" ry="2.5" style="stroke:#181818;stroke-width:0.5;" width="138.6826" x="293.9351" y="2198.3906"/><text fill="#000000" font-family="Helvetica" font-size="10" x="300.9351" y="2214.6729">ZETA Attestation Service</text><text fill="#000000" font-family="Helvetica" font-size="10" x="327.4097" y="2226.3135">(Admin rights)</text><rect fill="#E2E2F0" height="25.6406" rx="2.5" ry="2.5" style="stroke:#181818;stroke-width:0.5;" width="34.7666" x="687.4087" y="2198.3906"/><text fill="#000000" font-family="Helvetica" font-size="10" x="694.4087" y="2214.6729">TPM</text><rect fill="#E2E2F0" height="37.2813" rx="2.5" ry="2.5" style="stroke:#181818;stroke-width:0.5;" width="116.9492" x="742.1753" y="2198.3906"/><text fill="#000000" font-family="Helvetica" font-size="10" x="790.7695" y="2214.6729">PDP</text><text fill="#000000" font-family="Helvetica" font-size="10" x="749.1753" y="2226.3135">Authorization Server</text><rect fill="#E2E2F0" height="25.6406" rx="2.5" ry="2.5" style="stroke:#181818;stroke-width:0.5;" width="51.5" x="1108.2954" y="2198.3906"/><text fill="#000000" font-family="Helvetica" font-size="10" x="1115.2954" y="2214.6729">PDP DB</text><rect fill="#E2E2F0" height="37.2813" rx="2.5" ry="2.5" style="stroke:#181818;stroke-width:0.5;" width="60.5283" x="1195.063" y="2198.3906"/><text fill="#000000" font-family="Helvetica" font-size="10" x="1202.063" y="2214.6729">Resource</text><text fill="#000000" font-family="Helvetica" font-size="10" x="1208.9307" y="2226.3135">Server</text><path d="M8,105.2031 L67.9561,105.2031 L67.9561,108.8438 L57.9561,118.8438 L8,118.8438 L8,105.2031" fill="#EEEEEE" style="stroke:#000000;stroke-width:1.5;"/><rect fill="none" height="2069.1875" style="stroke:#000000;stroke-width:1.5;" width="1470.4624" x="8" y="105.2031"/><text fill="#000000" font-family="Helvetica" font-size="10" font-weight="bold" x="23" y="115.4854">alt</text><text fill="#000000" font-family="Helvetica" font-size="10" font-weight="bold" x="82.9561" y="116.4854">[Client has no client_id]</text><line style="stroke:#181818;stroke-width:1;" x1="67" x2="109" y1="158.125" y2="158.125"/><line style="stroke:#181818;stroke-width:1;" x1="109" x2="109" y1="158.125" y2="171.125"/><line style="stroke:#181818;stroke-width:1;" x1="68" x2="109" y1="171.125" y2="171.125"/><polygon fill="#181818" points="78,167.125,68,171.125,78,175.125,74,171.125" style="stroke:#181818;stroke-width:1;"/><text fill="#000000" font-family="Helvetica" font-size="10" x="74" y="147.9463">(01)</text><text fill="#000000" font-family="Helvetica" font-size="10" x="98.5273" y="142.126">Generate Client Instance</text><text fill="#000000" font-family="Helvetica" font-size="10" x="98.5273" y="153.7666">Key Pair (for Client Auth)</text><path d="M235.0732,133.8438 L235.0732,177.8438 L398.0732,177.8438 L398.0732,143.8438 L388.0732,133.8438 L235.0732,133.8438" fill="#FEFFDD" style="stroke:#181818;stroke-width:0.5;"/><path d="M388.0732,133.8438 L388.0732,143.8438 L398.0732,143.8438 L388.0732,133.8438" fill="#FEFFDD" style="stroke:#181818;stroke-width:0.5;"/><text fill="#000000" font-family="Helvetica" font-size="10" x="241.0732" y="148.126">Key Pair for private_key_jwt</text><text fill="#000000" font-family="Helvetica" font-size="10" x="241.0732" y="159.7666">(Public Key MUST be bound</text><text fill="#000000" font-family="Helvetica" font-size="10" x="241.0732" y="171.4072">to TPM Attestation)</text><polygon fill="#181818" points="783.6499,197.4063,793.6499,201.4063,783.6499,205.4063,787.6499,201.4063" style="stroke:#181818;stroke-width:1;"/><line style="stroke:#181818;stroke-width:1;" x1="67" x2="789.6499" y1="201.4063" y2="201.4063"/><text fill="#000000" font-family="Helvetica" font-size="10" x="74" y="197.0479">(02)</text><text fill="#000000" font-family="Helvetica" font-size="10" x="98.5273" y="197.0479">GET /nonce</text><polygon fill="#181818" points="78,223.0469,68,227.0469,78,231.0469,74,227.0469" style="stroke:#181818;stroke-width:1;"/><line style="stroke:#181818;stroke-width:1;stroke-dasharray:2.0,2.0;" x1="72" x2="794.6499" y1="227.0469" y2="227.0469"/><text fill="#000000" font-family="Helvetica" font-size="10" x="84" y="222.6885">(03)</text><text fill="#000000" font-family="Helvetica" font-size="10" x="108.5273" y="222.6885">return 200 OK new-nonce: nonce</text><path d="M46,239.0469 L105.9561,239.0469 L105.9561,242.6875 L95.9561,252.6875 L46,252.6875 L46,239.0469" fill="#EEEEEE" style="stroke:#000000;stroke-width:1.5;"/><rect fill="none" height="867.9063" style="stroke:#000000;stroke-width:1.5;" width="956.1484" x="46" y="239.0469"/><text fill="#000000" font-family="Helvetica" font-size="10" font-weight="bold" x="61" y="249.3291">alt</text><text fill="#000000" font-family="Helvetica" font-size="10" font-weight="bold" x="120.9561" y="250.3291">[ZETA Attestation Service available]</text><line style="stroke:#000000;stroke-width:1;stroke-dasharray:2.0,2.0;" x1="46" x2="1002.1484" y1="1026.3906" y2="1026.3906"/><text fill="#000000" font-family="Helvetica" font-size="10" font-weight="bold" x="51" y="1037.6729">[ZETA Attestation 'Service is not available]</text><line style="stroke:#181818;stroke-width:1;" x1="67" x2="109" y1="291.9688" y2="291.9688"/><line style="stroke:#181818;stroke-width:1;" x1="109" x2="109" y1="291.9688" y2="304.9688"/><line style="stroke:#181818;stroke-width:1;" x1="68" x2="109" y1="304.9688" y2="304.9688"/><polygon fill="#181818" points="78,300.9688,68,304.9688,78,308.9688,74,304.9688" style="stroke:#181818;stroke-width:1;"/><text fill="#000000" font-family="Helvetica" font-size="10" x="74" y="281.79">(04)</text><text fill="#000000" font-family="Helvetica" font-size="10" x="98.5273" y="275.9697">Calculate Public Key Hash</text><text fill="#000000" font-family="Helvetica" font-size="10" x="98.5273" y="287.6104">(e.g., SHA256(PublicKeyJWK))</text><line style="stroke:#181818;stroke-width:1;" x1="67" x2="109" y1="342.25" y2="342.25"/><line style="stroke:#181818;stroke-width:1;" x1="109" x2="109" y1="342.25" y2="355.25"/><line style="stroke:#181818;stroke-width:1;" x1="68" x2="109" y1="355.25" y2="355.25"/><polygon fill="#181818" points="78,351.25,68,355.25,78,359.25,74,355.25" style="stroke:#181818;stroke-width:1;"/><text fill="#000000" font-family="Helvetica" font-size="10" x="74" y="332.0713">(05)</text><text fill="#000000" font-family="Helvetica" font-size="10" x="98.5273" y="326.251">Calculate Combined Data for TPM</text><text fill="#000000" font-family="Helvetica" font-size="10" x="98.5273" y="337.8916">`combined_data = HASH(nonce + pubKeyHash)`</text><polygon fill="#181818" points="346.2764,388.5313,356.2764,392.5313,346.2764,396.5313,350.2764,392.5313" style="stroke:#181818;stroke-width:1;"/><line style="stroke:#181818;stroke-width:1;" x1="67" x2="352.2764" y1="392.5313" y2="392.5313"/><text fill="#000000" font-family="Helvetica" font-size="10" x="74" y="382.3525">(06)</text><text fill="#000000" font-family="Helvetica" font-size="10" x="98.5273" y="376.5322">Get Attestation</text><text fill="#000000" font-family="Helvetica" font-size="10" x="98.5273" y="388.1729">with `combined_data`</text><path d="M373.2764,368.25 L373.2764,471.25 L861.2764,471.25 L861.2764,378.25 L851.2764,368.25 L373.2764,368.25" fill="#FEFFDD" style="stroke:#181818;stroke-width:0.5;"/><path d="M851.2764,368.25 L851.2764,378.25 L861.2764,378.25 L851.2764,368.25" fill="#FEFFDD" style="stroke:#181818;stroke-width:0.5;"/><text fill="#000000" font-family="Helvetica" font-size="10" x="379.2764" y="382.5322">The Prim&#228;rsystem and the ZETA Attestation Service are in the same trust domain.</text><text fill="#000000" font-family="Helvetica" font-size="10" x="379.2764" y="394.1729">At the time of client installation, the ZETA Attestation Service computes a</text><text fill="#000000" font-family="Helvetica" font-size="10" x="379.2764" y="405.8135">cryptographic hash of the Prim&#228;rsystem software and extends this hash into a specific</text><text fill="#000000" font-family="Helvetica" font-size="10" x="379.2764" y="417.4541">PCR (22 or 23) using TPM2_PCR_Extend. The ZETA Attestation Service reads</text><text fill="#000000" font-family="Helvetica" font-size="10" x="379.2764" y="429.0947">and stores the resulting PCR value as a reference measurement or baseline.</text><text fill="#000000" font-family="Helvetica" font-size="10" x="379.2764" y="440.7354">At every boot of the Prim&#228;rsystem, the ZETA Attestation Service measures the Prim&#228;rsystem</text><text fill="#000000" font-family="Helvetica" font-size="10" x="379.2764" y="452.376">software and extends the resulting hash into the same PCR (22 or 23) using</text><text fill="#000000" font-family="Helvetica" font-size="10" x="379.2764" y="464.0166">TPM2_PCR_Extend.</text><path d="M347.2764,480.375 L407.2324,480.375 L407.2324,484.0156 L397.2324,494.0156 L347.2764,494.0156 L347.2764,480.375" fill="#EEEEEE" style="stroke:#000000;stroke-width:1.5;"/><rect fill="none" height="176.4844" style="stroke:#000000;stroke-width:1.5;" width="378.5156" x="347.2764" y="480.375"/><text fill="#000000" font-family="Helvetica" font-size="10" font-weight="bold" x="362.2764" y="490.6572">alt</text><text fill="#000000" font-family="Helvetica" font-size="10" font-weight="bold" x="422.2324" y="491.6572">[ZETA TPM Service has no TPM Attestation Key]</text><polygon fill="#181818" points="687.792,517.6563,697.792,521.6563,687.792,525.6563,691.792,521.6563" style="stroke:#181818;stroke-width:1;"/><line style="stroke:#181818;stroke-width:1;" x1="368.2764" x2="693.792" y1="521.6563" y2="521.6563"/><text fill="#000000" font-family="Helvetica" font-size="10" x="375.2764" y="517.2979">(07)</text><text fill="#000000" font-family="Helvetica" font-size="10" x="399.8037" y="517.2979">Generate Attestation Key Pair</text><polygon fill="#181818" points="379.2764,543.2969,369.2764,547.2969,379.2764,551.2969,375.2764,547.2969" style="stroke:#181818;stroke-width:1;"/><line style="stroke:#181818;stroke-width:1;stroke-dasharray:2.0,2.0;" x1="373.2764" x2="698.792" y1="547.2969" y2="547.2969"/><text fill="#000000" font-family="Helvetica" font-size="10" x="385.2764" y="542.9385">(08)</text><text fill="#000000" font-family="Helvetica" font-size="10" x="409.8037" y="542.9385">Return Attestation Public Key</text><polygon fill="#181818" points="687.792,568.9375,697.792,572.9375,687.792,576.9375,691.792,572.9375" style="stroke:#181818;stroke-width:1;"/><line style="stroke:#181818;stroke-width:1;" x1="368.2764" x2="693.792" y1="572.9375" y2="572.9375"/><text fill="#000000" font-family="Helvetica" font-size="10" x="375.2764" y="568.5791">(09)</text><text fill="#000000" font-family="Helvetica" font-size="10" x="399.8037" y="568.5791">Get Certificate Chain</text><polygon fill="#181818" points="379.2764,594.5781,369.2764,598.5781,379.2764,602.5781,375.2764,598.5781" style="stroke:#181818;stroke-width:1;"/><line style="stroke:#181818;stroke-width:1;stroke-dasharray:2.0,2.0;" x1="373.2764" x2="698.792" y1="598.5781" y2="598.5781"/><text fill="#000000" font-family="Helvetica" font-size="10" x="385.2764" y="594.2197">(10)</text><text fill="#000000" font-family="Helvetica" font-size="10" x="409.8037" y="594.2197">Return Certificate Chain</text><line style="stroke:#181818;stroke-width:1;" x1="368.2764" x2="410.2764" y1="635.8594" y2="635.8594"/><line style="stroke:#181818;stroke-width:1;" x1="410.2764" x2="410.2764" y1="635.8594" y2="648.8594"/><line style="stroke:#181818;stroke-width:1;" x1="369.2764" x2="410.2764" y1="648.8594" y2="648.8594"/><polygon fill="#181818" points="379.2764,644.8594,369.2764,648.8594,379.2764,652.8594,375.2764,648.8594" style="stroke:#181818;stroke-width:1;"/><text fill="#000000" font-family="Helvetica" font-size="10" x="375.2764" y="625.6807">(11)</text><text fill="#000000" font-family="Helvetica" font-size="10" x="399.8037" y="619.8604">Store AK Handle, AK Public Key</text><text fill="#000000" font-family="Helvetica" font-size="10" x="399.8037" y="631.501">and Certificate Chain</text><line style="stroke:#181818;stroke-width:1;" x1="368.2764" x2="410.2764" y1="688.5" y2="688.5"/><line style="stroke:#181818;stroke-width:1;" x1="410.2764" x2="410.2764" y1="688.5" y2="701.5"/><line style="stroke:#181818;stroke-width:1;" x1="369.2764" x2="410.2764" y1="701.5" y2="701.5"/><polygon fill="#181818" points="379.2764,697.5,369.2764,701.5,379.2764,705.5,375.2764,701.5" style="stroke:#181818;stroke-width:1;"/><text fill="#000000" font-family="Helvetica" font-size="10" x="375.2764" y="684.1416">(12)</text><text fill="#000000" font-family="Helvetica" font-size="10" x="399.8037" y="684.1416">Select AK Handle</text><polygon fill="#181818" points="687.792,734.7813,697.792,738.7813,687.792,742.7813,691.792,738.7813" style="stroke:#181818;stroke-width:1;"/><line style="stroke:#181818;stroke-width:1;" x1="368.2764" x2="693.792" y1="738.7813" y2="738.7813"/><text fill="#000000" font-family="Helvetica" font-size="10" x="375.2764" y="728.6025">(13)</text><text fill="#000000" font-family="Helvetica" font-size="10" x="399.8037" y="722.7822">Get TPM Quote for PCRs (4, 5, 7, 10, 11, 22 or 23)</text><text fill="#000000" font-family="Helvetica" font-size="10" x="399.8037" y="734.4229">and `combined_data` (as qualifyingData), signed with AK</text><path d="M112.2031,714.5 L112.2031,758.5 L358.2031,758.5 L358.2031,724.5 L348.2031,714.5 L112.2031,714.5" fill="#FEFFDD" style="stroke:#181818;stroke-width:0.5;"/><path d="M348.2031,714.5 L348.2031,724.5 L358.2031,724.5 L348.2031,714.5" fill="#FEFFDD" style="stroke:#181818;stroke-width:0.5;"/><text fill="#000000" font-family="Helvetica" font-size="10" font-weight="bold" x="118.2031" y="728.7822">Binding:</text><text fill="#000000" font-family="Helvetica" font-size="10" x="168.4131" y="728.7822">`combined_data` enth&#228;lt Hash des</text><text fill="#000000" font-family="Helvetica" font-size="10" x="118.2031" y="740.4229">Client Instance Public Keys und die Nonce.</text><text fill="#000000" font-family="Helvetica" font-size="10" x="118.2031" y="752.0635">TPM signiert PCRs + `combined_data`.</text><path d="M714.792,714.5 L714.792,805.5 L980.792,805.5 L980.792,724.5 L970.792,714.5 L714.792,714.5" fill="#FEFFDD" style="stroke:#181818;stroke-width:0.5;"/><path d="M970.792,714.5 L970.792,724.5 L980.792,724.5 L970.792,714.5" fill="#FEFFDD" style="stroke:#181818;stroke-width:0.5;"/><text fill="#000000" font-family="Helvetica" font-size="10" x="720.792" y="728.7822">PCR 4: Boot Loader Code, Digest</text><text fill="#000000" font-family="Helvetica" font-size="10" x="720.792" y="740.4229">PCR 5: Boot Loader Configuration, Digest</text><text fill="#000000" font-family="Helvetica" font-size="10" x="720.792" y="752.0635">PCR 7: Secure Boot State / Policy, Digest</text><text fill="#000000" font-family="Helvetica" font-size="10" x="720.792" y="763.7041">PCR   10:OS Kernel / IMA, Digest</text><text fill="#000000" font-family="Helvetica" font-size="10" x="720.792" y="775.3447">PCR 11: OS Components / VSM, Digest,</text><text fill="#000000" font-family="Helvetica" font-size="10" x="720.792" y="786.9854">PCR 22 or 23 (if available) App Data (ID, Version,</text><text fill="#000000" font-family="Helvetica" font-size="10" x="720.792" y="798.626">Signature Hash),   Digest</text><line style="stroke:#181818;stroke-width:1;" x1="368.2764" x2="410.2764" y1="828.625" y2="828.625"/><line style="stroke:#181818;stroke-width:1;" x1="410.2764" x2="410.2764" y1="828.625" y2="841.625"/><line style="stroke:#181818;stroke-width:1;" x1="369.2764" x2="410.2764" y1="841.625" y2="841.625"/><polygon fill="#181818" points="379.2764,837.625,369.2764,841.625,379.2764,845.625,375.2764,841.625" style="stroke:#181818;stroke-width:1;"/><text fill="#000000" font-family="Helvetica" font-size="10" x="375.2764" y="824.2666">(14)</text><text fill="#000000" font-family="Helvetica" font-size="10" x="399.8037" y="824.2666">Get TCG Event Log (from OS/Firmware)</text><polygon fill="#181818" points="379.2764,863.2656,369.2764,867.2656,379.2764,871.2656,375.2764,867.2656" style="stroke:#181818;stroke-width:1;"/><line style="stroke:#181818;stroke-width:1;stroke-dasharray:2.0,2.0;" x1="373.2764" x2="698.792" y1="867.2656" y2="867.2656"/><text fill="#000000" font-family="Helvetica" font-size="10" x="385.2764" y="862.9072">(15)</text><text fill="#000000" font-family="Helvetica" font-size="10" x="409.8037" y="862.9072">Return TPM Quote</text><path d="M714.792,854.625 L714.792,910.625 L941.792,910.625 L941.792,864.625 L931.792,854.625 L714.792,854.625" fill="#FEFFDD" style="stroke:#181818;stroke-width:0.5;"/><path d="M931.792,854.625 L931.792,864.625 L941.792,864.625 L931.792,854.625" fill="#FEFFDD" style="stroke:#181818;stroke-width:0.5;"/><text fill="#000000" font-family="Helvetica" font-size="10" x="720.792" y="868.9072">Quote contains:</text><text fill="#000000" font-family="Helvetica" font-size="10" x="720.792" y="880.5479">- `combined_data` (as qualifyingData)</text><text fill="#000000" font-family="Helvetica" font-size="10" x="720.792" y="892.1885">- Attested Data (PCR Select, PCR Digest),</text><text fill="#000000" font-family="Helvetica" font-size="10" x="720.792" y="903.8291">- Signature</text><polygon fill="#181818" points="78,929.8281,68,933.8281,78,937.8281,74,933.8281" style="stroke:#181818;stroke-width:1;"/><line style="stroke:#181818;stroke-width:1;stroke-dasharray:2.0,2.0;" x1="72" x2="357.2764" y1="933.8281" y2="933.8281"/><text fill="#000000" font-family="Helvetica" font-size="10" x="84" y="929.4697">(16)</text><text fill="#000000" font-family="Helvetica" font-size="10" x="108.5273" y="929.4697">Return Attestation (Quote, EventLog, CertChain)</text><line style="stroke:#181818;stroke-width:1;" x1="67" x2="109" y1="994.3906" y2="994.3906"/><line style="stroke:#181818;stroke-width:1;" x1="109" x2="109" y1="994.3906" y2="1007.3906"/><line style="stroke:#181818;stroke-width:1;" x1="68" x2="109" y1="1007.3906" y2="1007.3906"/><polygon fill="#181818" points="78,1003.3906,68,1007.3906,78,1011.3906,74,1007.3906" style="stroke:#181818;stroke-width:1;"/><text fill="#000000" font-family="Helvetica" font-size="10" x="74" y="972.5713">(17)</text><text fill="#000000" font-family="Helvetica" font-size="10" x="98.5273" y="955.1104">Create Client Statement JWT</text><text fill="#000000" font-family="Helvetica" font-size="10" x="98.5273" y="966.751">with posture-tpm,</text><text fill="#000000" font-family="Helvetica" font-size="10" x="98.5273" y="978.3916">includes Attestation</text><text fill="#000000" font-family="Helvetica" font-size="10" x="98.5273" y="990.0322">Signed with Client Instance Key</text><line style="stroke:#181818;stroke-width:1;" x1="67" x2="109" y1="1085.9531" y2="1085.9531"/><line style="stroke:#181818;stroke-width:1;" x1="109" x2="109" y1="1085.9531" y2="1098.9531"/><line style="stroke:#181818;stroke-width:1;" x1="68" x2="109" y1="1098.9531" y2="1098.9531"/><polygon fill="#181818" points="78,1094.9531,68,1098.9531,78,1102.9531,74,1098.9531" style="stroke:#181818;stroke-width:1;"/><text fill="#000000" font-family="Helvetica" font-size="10" x="74" y="1069.9541">(18)</text><text fill="#000000" font-family="Helvetica" font-size="10" x="98.5273" y="1058.3135">Create Client Statement JWT</text><text fill="#000000" font-family="Helvetica" font-size="10" x="98.5273" y="1069.9541">with posture-software</text><text fill="#000000" font-family="Helvetica" font-size="10" x="98.5273" y="1081.5947">Signed with Client Instance Key</text><polygon fill="#181818" points="783.6499,1134.5938,793.6499,1138.5938,783.6499,1142.5938,787.6499,1138.5938" style="stroke:#181818;stroke-width:1;"/><line style="stroke:#181818;stroke-width:1;" x1="67" x2="789.6499" y1="1138.5938" y2="1138.5938"/><text fill="#000000" font-family="Helvetica" font-size="10" x="74" y="1134.2354">(19)</text><text fill="#000000" font-family="Helvetica" font-size="10" x="98.5273" y="1134.2354">POST /register (RFC 7591)</text><path d="M72,1151.5938 L72,1323.5938 L526,1323.5938 L526,1161.5938 L516,1151.5938 L72,1151.5938" fill="#ADD8E6" style="stroke:#181818;stroke-width:0.5;"/><path d="M516,1151.5938 L516,1161.5938 L526,1161.5938 L516,1151.5938" fill="#ADD8E6" style="stroke:#181818;stroke-width:0.5;"/><text fill="#000000" font-family="Helvetica" font-size="10" font-weight="bold" x="78" y="1165.876">DCR Request Body:</text><text fill="#000000" font-family="Helvetica" font-size="10" x="78" y="1177.5166">{</text><text fill="#000000" font-family="Helvetica" font-size="10" x="84.3574" y="1189.1572">"redirect_uris": ["..."],</text><text fill="#000000" font-family="Helvetica" font-size="10" x="84.3574" y="1200.7979">"client_name": "...",</text><text fill="#000000" font-family="Helvetica" font-size="10" x="84.3574" y="1212.4385">"token_endpoint_auth_method": "private_key_jwt",</text><text fill="#000000" font-family="Helvetica" font-size="10" x="84.3574" y="1224.0791">"grant_types": ["urn:ietf:params:oauth:grant-type:token-exchange","refresh_token"],</text><text fill="#000000" font-family="Helvetica" font-size="10" x="84.3574" y="1235.7197">"jwks": { "keys": [ &lt;Client_Instance_Public_Key_JWK&gt; ] },</text><text fill="#000000" font-family="Helvetica" font-size="10" x="84.3574" y="1247.3604">"nonce": "&lt;nonce&gt;", // From GET /nonce, for replay protection &amp; binding check</text><text fill="#000000" font-family="Helvetica" font-size="10" x="84.3574" y="1259.001">// Custom parameter for attestation:</text><text fill="#000000" font-family="Helvetica" font-size="10" x="84.3574" y="1270.6416">"urn:gematik:params:oauth:client-attestation-type:tpm2": {</text><text fill="#000000" font-family="Helvetica" font-size="10" x="93.8936" y="1282.2822">"client_statement": "&lt;Base64(Client Statement JWT)&gt;",</text><text fill="#000000" font-family="Helvetica" font-size="10" x="93.8936" y="1293.9229">"client_statement_format": "client-statement-jwt"</text><text fill="#000000" font-family="Helvetica" font-size="10" x="87.5361" y="1305.5635">}</text><text fill="#000000" font-family="Helvetica" font-size="10" x="78" y="1317.2041">}</text><line style="stroke:#181818;stroke-width:1;" x1="805.6499" x2="847.6499" y1="1347.2031" y2="1347.2031"/><line style="stroke:#181818;stroke-width:1;" x1="847.6499" x2="847.6499" y1="1347.2031" y2="1360.2031"/><line style="stroke:#181818;stroke-width:1;" x1="806.6499" x2="847.6499" y1="1360.2031" y2="1360.2031"/><polygon fill="#181818" points="816.6499,1356.2031,806.6499,1360.2031,816.6499,1364.2031,812.6499,1360.2031" style="stroke:#181818;stroke-width:1;"/><text fill="#000000" font-family="Helvetica" font-size="10" x="812.6499" y="1342.8447">(20)</text><text fill="#000000" font-family="Helvetica" font-size="10" x="837.1772" y="1342.8447">Validate Request</text><path d="M934.4995,1334.5625 L934.4995,1425.5625 L1365.4995,1425.5625 L1365.4995,1344.5625 L1355.4995,1334.5625 L934.4995,1334.5625" fill="#FEFFDD" style="stroke:#181818;stroke-width:0.5;"/><path d="M1355.4995,1334.5625 L1355.4995,1344.5625 L1365.4995,1344.5625 L1355.4995,1334.5625" fill="#FEFFDD" style="stroke:#181818;stroke-width:0.5;"/><text fill="#000000" font-family="Helvetica" font-size="10" x="940.4995" y="1348.8447">Validate nonce (Replay Check)</text><text fill="#000000" font-family="Helvetica" font-size="10" x="940.4995" y="1360.4854">Validate Client Assertion JWT (Signature with Public Key from jwks)</text><text fill="#000000" font-family="Helvetica" font-size="10" x="940.4995" y="1372.126">Calculate expected_combined_data = HASH(nonce + HASH(PublicKeyFromJWKS))</text><text fill="#000000" font-family="Helvetica" font-size="10" x="940.4995" y="1383.7666">Verify qualifyingData in Quote == expected_combined_data</text><text fill="#000000" font-family="Helvetica" font-size="10" x="940.4995" y="1395.4072">Validate Client Statement JWT (Signature with Public Key from jwks)</text><text fill="#000000" font-family="Helvetica" font-size="10" x="940.4995" y="1407.0479">Extract TPM Quote &amp; Cert Chain</text><text fill="#000000" font-family="Helvetica" font-size="10" x="940.4995" y="1418.6885">from Client Statement</text><line style="stroke:#181818;stroke-width:1;" x1="805.6499" x2="847.6499" y1="1460.3281" y2="1460.3281"/><line style="stroke:#181818;stroke-width:1;" x1="847.6499" x2="847.6499" y1="1460.3281" y2="1473.3281"/><line style="stroke:#181818;stroke-width:1;" x1="806.6499" x2="847.6499" y1="1473.3281" y2="1473.3281"/><polygon fill="#181818" points="816.6499,1469.3281,806.6499,1473.3281,816.6499,1477.3281,812.6499,1473.3281" style="stroke:#181818;stroke-width:1;"/><text fill="#000000" font-family="Helvetica" font-size="10" x="812.6499" y="1450.1494">(21)</text><text fill="#000000" font-family="Helvetica" font-size="10" x="837.1772" y="1444.3291">Validate TPM Quote Signature</text><text fill="#000000" font-family="Helvetica" font-size="10" x="837.1772" y="1455.9697">(using AK Cert Chain / Trusted Roots)</text><path d="M1036.0669,1436.0469 L1036.0669,1515.0469 L1407.0669,1515.0469 L1407.0669,1446.0469 L1397.0669,1436.0469 L1036.0669,1436.0469" fill="#FEFFDD" style="stroke:#181818;stroke-width:0.5;"/><path d="M1397.0669,1436.0469 L1397.0669,1446.0469 L1407.0669,1446.0469 L1397.0669,1436.0469" fill="#FEFFDD" style="stroke:#181818;stroke-width:0.5;"/><text fill="#000000" font-family="Helvetica" font-size="10" x="1042.0669" y="1450.3291">Checks ensure:</text><text fill="#000000" font-family="Helvetica" font-size="10" x="1042.0669" y="1461.9697">1. Client owns Private Key.</text><text fill="#000000" font-family="Helvetica" font-size="10" x="1042.0669" y="1473.6104">2. TPM Quote is valid &amp; from trusted TPM.</text><text fill="#000000" font-family="Helvetica" font-size="10" x="1042.0669" y="1485.251">3.</text><text fill="#000000" font-family="Helvetica" font-size="10" font-weight="bold" x="1054.7866" y="1485.251">Quote was generated for *this specific* Client Key &amp; Nonce.</text><text fill="#000000" font-family="Helvetica" font-size="10" x="1042.0669" y="1496.8916">4. Device state (PCRs) is compliant.</text><text fill="#000000" font-family="Helvetica" font-size="10" x="1042.0669" y="1508.5322">5. Request is not a replay.</text><path d="M27,1524.8906 L86.9561,1524.8906 L86.9561,1528.5313 L76.9561,1538.5313 L27,1538.5313 L27,1524.8906" fill="#EEEEEE" style="stroke:#000000;stroke-width:1.5;"/><rect fill="none" height="635.5" style="stroke:#000000;stroke-width:1.5;" width="1426.4624" x="27" y="1524.8906"/><text fill="#000000" font-family="Helvetica" font-size="10" font-weight="bold" x="42" y="1535.1729">alt</text><text fill="#000000" font-family="Helvetica" font-size="10" font-weight="bold" x="101.9561" y="1536.1729">[Attestation and Binding valid]</text><line style="stroke:#000000;stroke-width:1;stroke-dasharray:2.0,2.0;" x1="27" x2="1453.4624" y1="2116.1094" y2="2116.1094"/><text fill="#000000" font-family="Helvetica" font-size="10" font-weight="bold" x="32" y="2127.3916">[Attestation or Binding invalid]</text><polygon fill="#181818" points="1117.0454,1573.8125,1127.0454,1577.8125,1117.0454,1581.8125,1121.0454,1577.8125" style="stroke:#181818;stroke-width:1;"/><line style="stroke:#181818;stroke-width:1;" x1="805.6499" x2="1123.0454" y1="1577.8125" y2="1577.8125"/><text fill="#000000" font-family="Helvetica" font-size="10" x="812.6499" y="1567.6338">(22)</text><text fill="#000000" font-family="Helvetica" font-size="10" x="837.1772" y="1561.8135">Check if Client</text><text fill="#000000" font-family="Helvetica" font-size="10" x="837.1772" y="1573.4541">already exists (by PubKey Hash?)</text><polygon fill="#181818" points="816.6499,1599.4531,806.6499,1603.4531,816.6499,1607.4531,812.6499,1603.4531" style="stroke:#181818;stroke-width:1;"/><line style="stroke:#181818;stroke-width:1;stroke-dasharray:2.0,2.0;" x1="810.6499" x2="1128.0454" y1="1603.4531" y2="1603.4531"/><text fill="#000000" font-family="Helvetica" font-size="10" x="822.6499" y="1599.0947">(23)</text><text fill="#000000" font-family="Helvetica" font-size="10" x="847.1772" y="1599.0947">&#160;</text><path d="M1144.0454,1616.4531 L1144.0454,1660.4531 L1390.0454,1660.4531 L1390.0454,1626.4531 L1380.0454,1616.4531 L1144.0454,1616.4531" fill="#FEFFDD" style="stroke:#181818;stroke-width:0.5;"/><path d="M1380.0454,1616.4531 L1380.0454,1626.4531 L1390.0454,1626.4531 L1380.0454,1616.4531" fill="#FEFFDD" style="stroke:#181818;stroke-width:0.5;"/><text fill="#000000" font-family="Helvetica" font-size="10" x="1150.0454" y="1630.7354">Check if client_id already exists in DB for</text><text fill="#000000" font-family="Helvetica" font-size="10" x="1153.2241" y="1642.376">Client_Instance_Public_Key_JWK Thumbprint</text><text fill="#000000" font-family="Helvetica" font-size="10" x="1153.2241" y="1654.0166">(or potentially based on AK/EK cert if stable)</text><path d="M46,1670.375 L105.9561,1670.375 L105.9561,1674.0156 L95.9561,1684.0156 L46,1684.0156 L46,1670.375" fill="#EEEEEE" style="stroke:#000000;stroke-width:1.5;"/><rect fill="none" height="420.7344" style="stroke:#000000;stroke-width:1.5;" width="1382.4624" x="46" y="1670.375"/><text fill="#000000" font-family="Helvetica" font-size="10" font-weight="bold" x="61" y="1680.6572">alt</text><text fill="#000000" font-family="Helvetica" font-size="10" font-weight="bold" x="120.9561" y="1681.6572">[Client exists in DB (based on Public Key)]</text><line style="stroke:#000000;stroke-width:1;stroke-dasharray:2.0,2.0;" x1="46" x2="1428.4624" y1="1730.6563" y2="1730.6563"/><polygon fill="#181818" points="78,1707.6563,68,1711.6563,78,1715.6563,74,1711.6563" style="stroke:#181818;stroke-width:1;"/><line style="stroke:#181818;stroke-width:1;stroke-dasharray:2.0,2.0;" x1="72" x2="794.6499" y1="1711.6563" y2="1711.6563"/><text fill="#000000" font-family="Helvetica" font-size="10" x="84" y="1707.2979">(24)</text><text fill="#000000" font-family="Helvetica" font-size="10" x="108.5273" y="1707.2979">409 Conflict (Client with this key already registered)</text><line style="stroke:#181818;stroke-width:1;" x1="805.6499" x2="847.6499" y1="1755.2969" y2="1755.2969"/><line style="stroke:#181818;stroke-width:1;" x1="847.6499" x2="847.6499" y1="1755.2969" y2="1768.2969"/><line style="stroke:#181818;stroke-width:1;" x1="806.6499" x2="847.6499" y1="1768.2969" y2="1768.2969"/><polygon fill="#181818" points="816.6499,1764.2969,806.6499,1768.2969,816.6499,1772.2969,812.6499,1768.2969" style="stroke:#181818;stroke-width:1;"/><text fill="#000000" font-family="Helvetica" font-size="10" x="812.6499" y="1750.9385">(25)</text><text fill="#000000" font-family="Helvetica" font-size="10" x="837.1772" y="1750.9385">Generate client_id</text><polygon fill="#181818" points="1117.0454,1801.5781,1127.0454,1805.5781,1117.0454,1809.5781,1121.0454,1805.5781" style="stroke:#181818;stroke-width:1;"/><line style="stroke:#181818;stroke-width:1;" x1="805.6499" x2="1123.0454" y1="1805.5781" y2="1805.5781"/><text fill="#000000" font-family="Helvetica" font-size="10" x="812.6499" y="1795.3994">(26)</text><text fill="#000000" font-family="Helvetica" font-size="10" x="837.1772" y="1789.5791">Store client metadata,</text><text fill="#000000" font-family="Helvetica" font-size="10" x="837.1772" y="1801.2197">incl. Client Instance Key Thumbprint, Attestation details</text><path d="M1144.0454,1818.5781 L1144.0454,1944.5781 L1407.0454,1944.5781 L1407.0454,1828.5781 L1397.0454,1818.5781 L1144.0454,1818.5781" fill="#FEFFDD" style="stroke:#181818;stroke-width:0.5;"/><path d="M1397.0454,1818.5781 L1397.0454,1828.5781 L1407.0454,1828.5781 L1397.0454,1818.5781" fill="#FEFFDD" style="stroke:#181818;stroke-width:0.5;"/><text fill="#000000" font-family="Helvetica" font-size="10" x="1150.0454" y="1832.8604">Store client metadata in DB:</text><text fill="#000000" font-family="Helvetica" font-size="10" x="1150.0454" y="1844.501">- client_id</text><text fill="#000000" font-family="Helvetica" font-size="10" x="1150.0454" y="1856.1416">- client_instance_key_thumbprint</text><text fill="#000000" font-family="Helvetica" font-size="10" x="1150.0454" y="1867.7822">- attestation_data (PCRs, AK used)</text><text fill="#000000" font-family="Helvetica" font-size="10" x="1150.0454" y="1879.4229">- attestation_key_cert_thumbprint?</text><text fill="#000000" font-family="Helvetica" font-size="10" x="1150.0454" y="1891.0635">- redirect_uris</text><text fill="#000000" font-family="Helvetica" font-size="10" x="1150.0454" y="1902.7041">- client_name</text><text fill="#000000" font-family="Helvetica" font-size="10" x="1150.0454" y="1914.3447">- token_endpoint_auth_method</text><text fill="#000000" font-family="Helvetica" font-size="10" x="1150.0454" y="1925.9854">- grant_types</text><text fill="#000000" font-family="Helvetica" font-size="10" x="1150.0454" y="1937.626">- state // Client registered but not yet activated?</text><polygon fill="#181818" points="816.6499,1963.625,806.6499,1967.625,816.6499,1971.625,812.6499,1967.625" style="stroke:#181818;stroke-width:1;"/><line style="stroke:#181818;stroke-width:1;stroke-dasharray:2.0,2.0;" x1="810.6499" x2="1128.0454" y1="1967.625" y2="1967.625"/><text fill="#000000" font-family="Helvetica" font-size="10" x="822.6499" y="1963.2666">(27)</text><text fill="#000000" font-family="Helvetica" font-size="10" x="847.1772" y="1963.2666">201 Created</text><line style="stroke:#181818;stroke-width:1;" x1="68" x2="78" y1="1993.2656" y2="1989.2656"/><line style="stroke:#181818;stroke-width:1;" x1="68" x2="78" y1="1993.2656" y2="1997.2656"/><line style="stroke:#181818;stroke-width:1;stroke-dasharray:2.0,2.0;" x1="67" x2="794.6499" y1="1993.2656" y2="1993.2656"/><text fill="#000000" font-family="Helvetica" font-size="10" x="84" y="1988.9072">(28)</text><text fill="#000000" font-family="Helvetica" font-size="10" x="108.5273" y="1988.9072">201 Created</text><path d="M72,2006.2656 L72,2085.2656 L281,2085.2656 L281,2016.2656 L271,2006.2656 L72,2006.2656" fill="#90EE90" style="stroke:#181818;stroke-width:0.5;"/><path d="M271,2006.2656 L271,2016.2656 L281,2016.2656 L271,2006.2656" fill="#90EE90" style="stroke:#181818;stroke-width:0.5;"/><text fill="#000000" font-family="Helvetica" font-size="10" font-weight="bold" x="78" y="2020.5479">DCR Response Body:</text><text fill="#000000" font-family="Helvetica" font-size="10" x="78" y="2032.1885">{</text><text fill="#000000" font-family="Helvetica" font-size="10" x="84.3574" y="2043.8291">"client_id": "&lt;generated-client-id&gt;",</text><text fill="#000000" font-family="Helvetica" font-size="10" x="84.3574" y="2055.4697">"client_id_issued_at": ...,</text><text fill="#000000" font-family="Helvetica" font-size="10" x="84.3574" y="2067.1104">// ... other metadata</text><text fill="#000000" font-family="Helvetica" font-size="10" x="78" y="2078.751">}</text><line style="stroke:#181818;stroke-width:1;" x1="68" x2="78" y1="2152.3906" y2="2148.3906"/><line style="stroke:#181818;stroke-width:1;" x1="68" x2="78" y1="2152.3906" y2="2156.3906"/><line style="stroke:#181818;stroke-width:1;stroke-dasharray:2.0,2.0;" x1="67" x2="794.6499" y1="2152.3906" y2="2152.3906"/><text fill="#000000" font-family="Helvetica" font-size="10" x="84" y="2148.0322">(29)</text><text fill="#000000" font-family="Helvetica" font-size="10" x="108.5273" y="2148.0322">400 Bad Request (Attestation/Binding failed)</text><!--SRC=[ZLZhSjks4lwlfzZZpAIIBScN9irKawGZouwTEXSVooUPqwEE2f6GX9W2LHAqetJoDdsJljZv5k05ecGdFpoYYSLYBz_kVg38JAopnKGcjDCyE6ZjDD8RfPSY4GiAvLHaaNaLQpDKNoGT7cnVV2SMaivbT2kD2eGdS-9atiOwJfSYa64fFOYpHCd4ausadfbvF_oKfOPqhAMtbie_Cwa3UIMdCk67On7Sp98uq-4WZkA4FiwLyJSCwnig7uuQ-pzyIz2i8acJE0eRF-mt6lzQ9cAs46Ha_8LCaib6On9_ffqtfwztwD7PF4wDEv_8lhzCrEAVlvDqbHgvWCGRSIjr26U9SedVJg_xD8YKr0RhGw73rN4ItsahGGJJ44Yr5DhaKYHIjskaysrM56fPOQE-wRV-iDn1VMDaQeHHiOQxoQqAv4Wt- -52QKhKR6xIriw6XklBjrO3VdcnEAZuTG7ewucIHYRmuVfqSFxk_PltP_zj-3wUPI89DrtqJ-fdPkwilJov76d-DqxKbyfUwD_O1D6Jus8JdHpxDXPHldvDHzq3Ea6uWAX79oAv6KfnbaYvBSvNpeOhcGAP727_w0ttywpixJL4LEPe3WKwfi3-DrOXjkOhdPV5Ku_Ef9Q9CB9uynhM2SqdNiWLNGgLK7CAIEVB78yMDEaOMsowUbGAijmoKRTGDxwHg_6dEqF8xMKsYLHWnTx-PtXD4mOpQcMaJMmpwq6YjMQbIyRU7jjvUatxgCE0SUtUToe_EfqU9T9aYQQZWmDwVq5QtdMiU8_SBcpZuDo7GHAtGaLY4aaRudgaUZGGKP1572dFdtEHpk6XxCwwRHgUzu-U_fIxYzLVFrwqMj_KDeWN4wLbI2V221j2X6Ia_mZoz-EGtx-Wy_xml6bTeJrQPXCSmAUt_gYTmCNc8YQDx-X8toapftMzRdCP5qv64OySFhNyiDSvN7q8NCyH5h_F42gC3DxU7-z44agUPL9kmUXag8imNWYbkoWyOvUCmb8ypL6C3L0JHLPJ-s7zy7EPuJM9aGwIrTB4iqGivqWSF9kpJhDXT1fFpHqRnjRBpmO5ba9CfMwFOi0AIfSoK5CLZFJbu8gQHqU4f1tzsA8iLNh64JiQOsLyQXLqRN3kDJEH8an7cWzCJPp8r9g5NmmgriP7t8eeazmF11RomK0BAT8iaGiE2ywVY5H6oAiBdKIlMA7AOhFLqM-4BbUTRcuSwNj2v9jSnQfCxhP0ZNGzKZcm6C40CYCl1tBUeceuj4qdtyF27OV-7bsvJk2BLpMxSOYhb854yqLIRKdEWS475Dydc-kqeaDE9lKlq29q6CasFrP6k8HlruD8D1eRwcGa0rFfQsppWMtzTyPboMq4WKsf-QHDJzlqh0ssXB_3DfLPS3RK-W4r0RC_Cn6fwGevufxKQbEgPjoXR0FfNpJAwe_a5CM_ktkiT0ZftkxkXZx0S_xFtsWmtAp0qjA2CfIJnWjBIXWB52f9xxZHTIr4xEaWPyPvj5S_ejkeToD6svCU7JFytyG2N0TTDaGEJjGCY71r-xGkeATgbYLvQ_4bdt7u0nI4sp0qdAzzkenXzMfTb13ctliXV4cqZ23q-cr_NUBmi4SGGDTVWbHgaqBem_1j8THsKaMIgAccrMHgKN-vT7EY-VgaJHzaahArO0S8aJ1iefq9RHZYz6q0oU9aS4Qdjvo3D_4Cups95x1f_vLA5bpQRcPvmBVZDST-YR6Dg3la1I2iG7BQ6-dEzu2BnLoX5YEmoG5mU6_RL3fFMcqMBHsj75jd0LjglsajQpkNuN7R5fujk7l7CzfonObincsZ_VNZTJv7bw3PCADZbWiOfdGGPG3t-i0TUcLJ1xthH39Aj_JX7uf6h7W4cszJa- -sjkZUtsMR3cj4RsrMbASKljkCBvCup0Acc_v_jmwezfMpX1-5dwCSDpm_792a2RgjHkC-FdZv7anoFv4p1UI0erwz6j2pfpyVhfDJddxvzaSHlvXWakRTUdVt1E2wuXiNYCTn7AxGl_Arl_9Vefr4XYe15iUu8QOxFVhVJhVRtVczNKda35jZq67TBdkh9hwHUenWBcFCnB602-E5nAqYPE4QNVOtWgv0tgoMqXqBMFTmlvdsx5KnxSMigcUbEYpLioTrvETWBlHCxhHX-XHJUJws2sicVxgxOQL_qGuEjkhfkOlJk431sBNbCS0m1fDzIR_JLq-3PQBimNFxz7AdJVlxz8fRIKNLstOG9N8PYHM3mI2EdEt7D74JWuAv36vAhT0m00k43kiZN-Qi1WyflSe43iXCBl3wPZqcBY4TRrSUeENYYBqkLNZPImiyMv-EmQP-UjBSLb6jbrwIjYaOms8OnNfoGygb3gUuslorKVtoNKwxjfhVRWguz-W3EcR85Pw3jLQMvRAx7JIlNBm775hqrtAvkCAbAVCEf07UKBCQ7RONU9SREnSOAL1ItLVaPz1VDElnWnSK-qzv4s9O04F35fiZ4xJ_sXZWcu0h-nSlxZbXqv6rj7ol8w2QYGXyhlJOZWD7m4RQojOFQ3oObKfLQGBkXEuo0C9MQSUel-PR3lhk5PX4Mhz8suobW0ApRxJJmsvXINodKsRYt2lO9J2ZewvtC0R5BPi3Pwm39Zy64X3ziOjcvmJlC85dEPyERMtjsljDSQVPBKxak3tEQTZkxaW_wTA9j4F9ejbEwRJ51_D5ArBeGZZfQRTigCNioik_cz-__Hd2_3EdZivyMmzbeDrN5TljRMH85SqSr3NYYzCAM47_1ysTh3ZXnPNy5pVNdO9EaRDUZRBmSB0YUHcMXvIVJAXs3588XOXQKSCFzqpS_BB512rUcs93ap-Hm09j5EwnAtjj2mcnw5_idrvGm5Y11L37VA_ysgCBmkLztrcpgLaggd3VoW_T-5hIeoS7Frl62qb3HPkpPMFHWA5GkbwCM1dcve2oh2kkIgAygVaVdJPpMjoEyaiz-hpW2izvL7SR7_52sLx3K8ZDAaetladKaqlRptJXguPAPyDq_rsHPfxMPYEtj4PfN5kqPM8lVrbQH71JbFLnwZsbltYYQnHaqomc7jxR-mc79-IH2- -jAssUmYvALUvfaXbRpolS7z0_RISA2oFN8BfHTvQN7nqSvZmrhCEo8hARGWzGkPdtwTJdSoakLgci4RfrKkVFRMLvsFEoANRoeQt2sg3tTenLccQOItRAW- -joo5-U4UncOE-543p9BvkYvfZs_O-uCCRxQBea4flzCWgTdYsPNr0no8iUt3JKxLVw9cYNXmKyoyDfGR-eDpuFm00]--></g></svg>