<svg xmlns="http://www.w3.org/2000/svg" xmlns:xlink="http://www.w3.org/1999/xlink" contentStyleType="text/css" data-diagram-type="SEQUENCE" height="2169px" preserveAspectRatio="none" style="width:1228px;height:2169px;background:#FFFFFF;" version="1.1" viewBox="0 0 1228 2169" width="1228px" zoomAndPan="magnify"><defs/><g><rect fill="#F8F8FF" height="2157.8281" style="stroke:#181818;stroke-width:0.5;" width="627.6787" x="39.793" y="6"/><text fill="#000000" font-family="Helvetica" font-size="10" font-weight="bold" x="345.1704" y="15.2822">LEI</text><rect fill="#E6E6FA" height="2141.1875" style="stroke:#181818;stroke-width:0.5;" width="409.3872" x="39.793" y="22.6406"/><text fill="#000000" font-family="Helvetica" font-size="10" font-weight="bold" x="205.3899" y="31.9229">Prim&#228;rsystem</text><rect fill="#F4A460" height="2124.5469" style="stroke:#181818;stroke-width:0.5;" width="89" x="39.793" y="39.2813"/><text fill="#000000" font-family="Helvetica" font-size="10" font-weight="bold" x="51.793" y="48.5635">ZETA Client</text><rect fill="#C9FFC9" height="2157.8281" style="stroke:#181818;stroke-width:0.5;" width="542.7002" x="679.4717" y="6"/><text fill="#000000" font-family="Helvetica" font-size="10" font-weight="bold" x="926.4614" y="15.2822">Anbieter</text><rect fill="#F4A460" height="2141.1875" style="stroke:#181818;stroke-width:0.5;" width="542.7002" x="679.4717" y="22.6406"/><text fill="#000000" font-family="Helvetica" font-size="10" font-weight="bold" x="917.6772" y="31.9229">ZETA Guard</text><g><title>User</title><rect fill="#000000" fill-opacity="0.00000" height="1959.625" width="8" x="15.8965" y="126.5625"/><line style="stroke:#181818;stroke-width:0.5;stroke-dasharray:5.0,5.0;" x1="19.3965" x2="19.3965" y1="126.5625" y2="2086.1875"/></g><g><title>ZETA</title><rect fill="#000000" fill-opacity="0.00000" height="1959.625" width="8" x="80.793" y="126.5625"/><line style="stroke:#181818;stroke-width:0.5;stroke-dasharray:5.0,5.0;" x1="84.293" x2="84.293" y1="126.5625" y2="2086.1875"/></g><g><title/><rect fill="#FFFFFF" height="1918.9844" style="stroke:#181818;stroke-width:1;" width="10" x="79.293" y="162.2031"/></g><g><title>TPM</title><rect fill="#000000" fill-opacity="0.00000" height="1959.625" width="8" x="416.0586" y="126.5625"/><line style="stroke:#181818;stroke-width:0.5;stroke-dasharray:5.0,5.0;" x1="419.5586" x2="419.5586" y1="126.5625" y2="2086.1875"/></g><g><title>Konnektor or</title><rect fill="#000000" fill-opacity="0.00000" height="1959.625" width="8" x="501.1069" y="126.5625"/><line style="stroke:#181818;stroke-width:0.5;stroke-dasharray:5.0,5.0;" x1="504.6069" x2="504.6069" y1="126.5625" y2="2086.1875"/></g><g><title/><rect fill="#FFFFFF" height="76.9219" style="stroke:#181818;stroke-width:1;" width="10" x="499.6069" y="327.8906"/></g><g><title>SM(C)-B</title><rect fill="#000000" fill-opacity="0.00000" height="1959.625" width="8" x="632.8569" y="126.5625"/><line style="stroke:#181818;stroke-width:0.5;stroke-dasharray:5.0,5.0;" x1="636.3569" x2="636.3569" y1="126.5625" y2="2086.1875"/></g><g><title/><rect fill="#FFFFFF" height="25.6406" style="stroke:#181818;stroke-width:1;" width="10" x="631.3569" y="353.5313"/></g><g><title>PDP</title><rect fill="#000000" fill-opacity="0.00000" height="1959.625" width="8" x="738.4463" y="126.5625"/><line style="stroke:#181818;stroke-width:0.5;stroke-dasharray:5.0,5.0;" x1="741.9463" x2="741.9463" y1="126.5625" y2="2086.1875"/></g><g><title/><rect fill="#FFFFFF" height="25.6406" style="stroke:#181818;stroke-width:1;" width="10" x="736.9463" y="483.0938"/></g><g><title/><rect fill="#FFFFFF" height="1048.0313" style="stroke:#181818;stroke-width:1;" width="10" x="736.9463" y="927.9531"/></g><g><title>PDP</title><rect fill="#000000" fill-opacity="0.00000" height="1959.625" width="8" x="1174.3857" y="126.5625"/><line style="stroke:#181818;stroke-width:0.5;stroke-dasharray:5.0,5.0;" x1="1177.8857" x2="1177.8857" y1="126.5625" y2="2086.1875"/></g><g><title/><rect fill="#FFFFFF" height="60.5625" style="stroke:#181818;stroke-width:1;" width="10" x="1172.8857" y="1496.9688"/></g><text fill="#000000" font-family="Helvetica" font-size="10" x="5" y="124.2041">User</text><ellipse cx="19.3965" cy="63.4219" fill="#E2E2F0" rx="8" ry="8" style="stroke:#181818;stroke-width:0.5;"/><path d="M19.3965,71.4219 L19.3965,98.4219 M6.3965,79.4219 L32.3965,79.4219 M19.3965,98.4219 L6.3965,113.4219 M19.3965,98.4219 L32.3965,113.4219" fill="none" style="stroke:#181818;stroke-width:0.5;"/><rect fill="#E2E2F0" height="37.2813" rx="2.5" ry="2.5" style="stroke:#181818;stroke-width:0.5;" width="42.9502" x="62.8179" y="88.2813"/><text fill="#000000" font-family="Helvetica" font-size="10" x="71.2339" y="104.5635">ZETA</text><text fill="#000000" font-family="Helvetica" font-size="10" x="69.8179" y="116.2041">Client</text><rect fill="#E2E2F0" height="25.6406" rx="2.5" ry="2.5" style="stroke:#181818;stroke-width:0.5;" width="34.7666" x="402.1753" y="99.9219"/><text fill="#000000" font-family="Helvetica" font-size="10" x="409.1753" y="116.2041">TPM</text><rect fill="#E2E2F0" height="37.2813" rx="2.5" ry="2.5" style="stroke:#181818;stroke-width:0.5;" width="78.8535" x="465.1802" y="88.2813"/><text fill="#000000" font-family="Helvetica" font-size="10" x="472.1802" y="104.5635">Konnektor or</text><text fill="#000000" font-family="Helvetica" font-size="10" x="476.1865" y="116.2041">TI-Gateway</text><rect fill="#E2E2F0" height="25.6406" rx="2.5" ry="2.5" style="stroke:#181818;stroke-width:0.5;" width="54.2295" x="609.2422" y="99.9219"/><text fill="#000000" font-family="Helvetica" font-size="10" x="616.2422" y="116.2041">SM(C)-B</text><rect fill="#E2E2F0" height="37.2813" rx="2.5" ry="2.5" style="stroke:#181818;stroke-width:0.5;" width="116.9492" x="683.4717" y="88.2813"/><text fill="#000000" font-family="Helvetica" font-size="10" x="732.0659" y="104.5635">PDP</text><text fill="#000000" font-family="Helvetica" font-size="10" x="690.4717" y="116.2041">Authorization Server</text><rect fill="#E2E2F0" height="37.2813" rx="2.5" ry="2.5" style="stroke:#181818;stroke-width:0.5;" width="80.5723" x="1137.5996" y="88.2813"/><text fill="#000000" font-family="Helvetica" font-size="10" x="1168.0054" y="104.5635">PDP</text><text fill="#000000" font-family="Helvetica" font-size="10" x="1144.5996" y="116.2041">Policy Engine</text><text fill="#000000" font-family="Helvetica" font-size="10" x="5" y="2155.4697">User</text><ellipse cx="19.3965" cy="2094.6875" fill="#E2E2F0" rx="8" ry="8" style="stroke:#181818;stroke-width:0.5;"/><path d="M19.3965,2102.6875 L19.3965,2129.6875 M6.3965,2110.6875 L32.3965,2110.6875 M19.3965,2129.6875 L6.3965,2144.6875 M19.3965,2129.6875 L32.3965,2144.6875" fill="none" style="stroke:#181818;stroke-width:0.5;"/><rect fill="#E2E2F0" height="37.2813" rx="2.5" ry="2.5" style="stroke:#181818;stroke-width:0.5;" width="42.9502" x="62.8179" y="2086.1875"/><text fill="#000000" font-family="Helvetica" font-size="10" x="71.2339" y="2102.4697">ZETA</text><text fill="#000000" font-family="Helvetica" font-size="10" x="69.8179" y="2114.1104">Client</text><rect fill="#E2E2F0" height="25.6406" rx="2.5" ry="2.5" style="stroke:#181818;stroke-width:0.5;" width="34.7666" x="402.1753" y="2086.1875"/><text fill="#000000" font-family="Helvetica" font-size="10" x="409.1753" y="2102.4697">TPM</text><rect fill="#E2E2F0" height="37.2813" rx="2.5" ry="2.5" style="stroke:#181818;stroke-width:0.5;" width="78.8535" x="465.1802" y="2086.1875"/><text fill="#000000" font-family="Helvetica" font-size="10" x="472.1802" y="2102.4697">Konnektor or</text><text fill="#000000" font-family="Helvetica" font-size="10" x="476.1865" y="2114.1104">TI-Gateway</text><rect fill="#E2E2F0" height="25.6406" rx="2.5" ry="2.5" style="stroke:#181818;stroke-width:0.5;" width="54.2295" x="609.2422" y="2086.1875"/><text fill="#000000" font-family="Helvetica" font-size="10" x="616.2422" y="2102.4697">SM(C)-B</text><rect fill="#E2E2F0" height="37.2813" rx="2.5" ry="2.5" style="stroke:#181818;stroke-width:0.5;" width="116.9492" x="683.4717" y="2086.1875"/><text fill="#000000" font-family="Helvetica" font-size="10" x="732.0659" y="2102.4697">PDP</text><text fill="#000000" font-family="Helvetica" font-size="10" x="690.4717" y="2114.1104">Authorization Server</text><rect fill="#E2E2F0" height="37.2813" rx="2.5" ry="2.5" style="stroke:#181818;stroke-width:0.5;" width="80.5723" x="1137.5996" y="2086.1875"/><text fill="#000000" font-family="Helvetica" font-size="10" x="1168.0054" y="2102.4697">PDP</text><text fill="#000000" font-family="Helvetica" font-size="10" x="1144.5996" y="2114.1104">Policy Engine</text><path d="M63.293,138.5625 L123.249,138.5625 L123.249,142.2031 L113.249,152.2031 L63.293,152.2031 L63.293,138.5625" fill="#EEEEEE" style="stroke:#000000;stroke-width:1.5;"/><rect fill="none" height="312.8906" style="stroke:#000000;stroke-width:1.5;" width="636.6592" x="63.293" y="138.5625"/><text fill="#000000" font-family="Helvetica" font-size="10" font-weight="bold" x="78.293" y="148.8447">alt</text><text fill="#000000" font-family="Helvetica" font-size="10" font-weight="bold" x="138.249" y="149.8447">[Client has no valid refresh token]</text><line style="stroke:#181818;stroke-width:1;" x1="89.293" x2="131.293" y1="179.8438" y2="179.8438"/><line style="stroke:#181818;stroke-width:1;" x1="131.293" x2="131.293" y1="179.8438" y2="192.8438"/><line style="stroke:#181818;stroke-width:1;" x1="90.293" x2="131.293" y1="192.8438" y2="192.8438"/><polygon fill="#181818" points="100.293,188.8438,90.293,192.8438,100.293,196.8438,96.293,192.8438" style="stroke:#181818;stroke-width:1;"/><text fill="#000000" font-family="Helvetica" font-size="10" x="96.293" y="175.4854">(01)</text><text fill="#000000" font-family="Helvetica" font-size="10" x="120.8203" y="175.4854">Create "SM(C)-B Access Token" (JWT)</text><path d="M320.0762,167.2031 L320.0762,305.2031 L678.0762,305.2031 L678.0762,177.2031 L668.0762,167.2031 L320.0762,167.2031" fill="#ADD8E6" style="stroke:#181818;stroke-width:0.5;"/><path d="M668.0762,167.2031 L668.0762,177.2031 L678.0762,177.2031 L668.0762,167.2031" fill="#ADD8E6" style="stroke:#181818;stroke-width:0.5;"/><text fill="#000000" font-family="Helvetica" font-size="10" font-weight="bold" x="326.0762" y="181.4854">SM(C)-B Access Token Claims:</text><text fill="#000000" font-family="Helvetica" font-size="10" x="326.0762" y="193.126">{</text><text fill="#000000" font-family="Helvetica" font-size="10" x="332.4336" y="204.7666">"iss": "&lt;client_id&gt;", // Issuer is the client</text><text fill="#000000" font-family="Helvetica" font-size="10" x="332.4336" y="216.4072">"sub": "&lt;Telematik-ID from SM(C)-B&gt;", // Subject is the institution</text><text fill="#000000" font-family="Helvetica" font-size="10" x="332.4336" y="228.0479">"aud": "&lt;AS_Token_Endpoint_URL&gt;", // Audience is the AS</text><text fill="#000000" font-family="Helvetica" font-size="10" x="332.4336" y="239.6885">"exp": ..., // Short-lived</text><text fill="#000000" font-family="Helvetica" font-size="10" x="332.4336" y="251.3291">"iat": ...,</text><text fill="#000000" font-family="Helvetica" font-size="10" x="332.4336" y="262.9697">"jti": "...",</text><text fill="#000000" font-family="Helvetica" font-size="10" x="332.4336" y="274.6104">"nonce": "&lt;Challenge from DCR&gt;", // Binding to DCR</text><text fill="#000000" font-family="Helvetica" font-size="10" x="332.4336" y="286.251">"scope": ... // As required for the Resource Server access</text><text fill="#000000" font-family="Helvetica" font-size="10" x="326.0762" y="297.8916">}</text><polygon fill="#181818" points="487.6069,323.8906,497.6069,327.8906,487.6069,331.8906,491.6069,327.8906" style="stroke:#181818;stroke-width:1;"/><line style="stroke:#181818;stroke-width:1;" x1="89.293" x2="493.6069" y1="327.8906" y2="327.8906"/><text fill="#000000" font-family="Helvetica" font-size="10" x="96.293" y="323.5322">(02)</text><text fill="#000000" font-family="Helvetica" font-size="10" x="120.8203" y="323.5322">externalAuthenticate (JWT-hash)</text><polygon fill="#181818" points="619.3569,349.5313,629.3569,353.5313,619.3569,357.5313,623.3569,353.5313" style="stroke:#181818;stroke-width:1;"/><line style="stroke:#181818;stroke-width:1;" x1="509.6069" x2="625.3569" y1="353.5313" y2="353.5313"/><text fill="#000000" font-family="Helvetica" font-size="10" x="516.6069" y="349.1729">(03)</text><text fill="#000000" font-family="Helvetica" font-size="10" x="541.1343" y="349.1729">sign (JWT-hash)</text><polygon fill="#181818" points="520.6069,375.1719,510.6069,379.1719,520.6069,383.1719,516.6069,379.1719" style="stroke:#181818;stroke-width:1;"/><line style="stroke:#181818;stroke-width:1;" x1="514.6069" x2="630.3569" y1="379.1719" y2="379.1719"/><text fill="#000000" font-family="Helvetica" font-size="10" x="526.6069" y="374.8135">(04)</text><text fill="#000000" font-family="Helvetica" font-size="10" x="551.1343" y="374.8135">JWT-Signature</text><line style="stroke:#181818;stroke-width:1;" x1="90.293" x2="100.293" y1="404.8125" y2="400.8125"/><line style="stroke:#181818;stroke-width:1;" x1="90.293" x2="100.293" y1="404.8125" y2="408.8125"/><line style="stroke:#181818;stroke-width:1;stroke-dasharray:2.0,2.0;" x1="89.293" x2="498.6069" y1="404.8125" y2="404.8125"/><text fill="#000000" font-family="Helvetica" font-size="10" x="106.293" y="400.4541">(05)</text><text fill="#000000" font-family="Helvetica" font-size="10" x="130.8203" y="400.4541">JWT-signature</text><line style="stroke:#181818;stroke-width:1;" x1="89.293" x2="131.293" y1="430.4531" y2="430.4531"/><line style="stroke:#181818;stroke-width:1;" x1="131.293" x2="131.293" y1="430.4531" y2="443.4531"/><line style="stroke:#181818;stroke-width:1;" x1="90.293" x2="131.293" y1="443.4531" y2="443.4531"/><polygon fill="#181818" points="100.293,439.4531,90.293,443.4531,100.293,447.4531,96.293,443.4531" style="stroke:#181818;stroke-width:1;"/><text fill="#000000" font-family="Helvetica" font-size="10" x="96.293" y="426.0947">(06)</text><text fill="#000000" font-family="Helvetica" font-size="10" x="120.8203" y="426.0947">Create DPoP Key Pair (for Token Exchange)</text><polygon fill="#181818" points="724.9463,479.0938,734.9463,483.0938,724.9463,487.0938,728.9463,483.0938" style="stroke:#181818;stroke-width:1;"/><line style="stroke:#181818;stroke-width:1;" x1="89.293" x2="730.9463" y1="483.0938" y2="483.0938"/><text fill="#000000" font-family="Helvetica" font-size="10" x="96.293" y="478.7354">(07)</text><text fill="#000000" font-family="Helvetica" font-size="10" x="120.8203" y="478.7354">GET /nonce</text><polygon fill="#181818" points="100.293,504.7344,90.293,508.7344,100.293,512.7344,96.293,508.7344" style="stroke:#181818;stroke-width:1;"/><line style="stroke:#181818;stroke-width:1;stroke-dasharray:2.0,2.0;" x1="94.293" x2="735.9463" y1="508.7344" y2="508.7344"/><text fill="#000000" font-family="Helvetica" font-size="10" x="106.293" y="504.376">(08)</text><text fill="#000000" font-family="Helvetica" font-size="10" x="130.8203" y="504.376">return 200 OK new-nonce: nonce</text><line style="stroke:#181818;stroke-width:1;" x1="89.293" x2="131.293" y1="534.375" y2="534.375"/><line style="stroke:#181818;stroke-width:1;" x1="131.293" x2="131.293" y1="534.375" y2="547.375"/><line style="stroke:#181818;stroke-width:1;" x1="90.293" x2="131.293" y1="547.375" y2="547.375"/><polygon fill="#181818" points="100.293,543.375,90.293,547.375,100.293,551.375,96.293,547.375" style="stroke:#181818;stroke-width:1;"/><text fill="#000000" font-family="Helvetica" font-size="10" x="96.293" y="530.0166">(09)</text><text fill="#000000" font-family="Helvetica" font-size="10" x="120.8203" y="530.0166">Create DPoP Proof JWT for Token Exchange</text><path d="M349.3584,521.7344 L349.3584,728.7344 L627.3584,728.7344 L627.3584,531.7344 L617.3584,521.7344 L349.3584,521.7344" fill="#ADD8E6" style="stroke:#181818;stroke-width:0.5;"/><path d="M617.3584,521.7344 L617.3584,531.7344 L627.3584,531.7344 L617.3584,521.7344" fill="#ADD8E6" style="stroke:#181818;stroke-width:0.5;"/><text fill="#000000" font-family="Helvetica" font-size="10" font-weight="bold" x="355.3584" y="536.0166">DPoP Proof JWT Claims (for Token Exchange):</text><text fill="#000000" font-family="Helvetica" font-size="10" x="355.3584" y="547.6572">{</text><text fill="#000000" font-family="Helvetica" font-size="10" x="361.7158" y="559.2979">"typ": "dpop+jwt",</text><text fill="#000000" font-family="Helvetica" font-size="10" x="361.7158" y="570.9385">"alg": "ES256",</text><text fill="#000000" font-family="Helvetica" font-size="10" x="361.7158" y="582.5791">"jwk": {</text><text fill="#000000" font-family="Helvetica" font-size="10" x="368.0732" y="594.2197">"kty": "EC",</text><text fill="#000000" font-family="Helvetica" font-size="10" x="368.0732" y="605.8604">"x": "...",</text><text fill="#000000" font-family="Helvetica" font-size="10" x="368.0732" y="617.501">"y": "...",</text><text fill="#000000" font-family="Helvetica" font-size="10" x="368.0732" y="629.1416">"crv": "P-256"</text><text fill="#000000" font-family="Helvetica" font-size="10" x="361.7158" y="640.7822">}</text><text fill="#000000" font-family="Helvetica" font-size="10" x="355.3584" y="652.4229">}.{</text><text fill="#000000" font-family="Helvetica" font-size="10" x="361.7158" y="664.0635">"jti": "...",</text><text fill="#000000" font-family="Helvetica" font-size="10" x="361.7158" y="675.7041">"htm": "POST",</text><text fill="#000000" font-family="Helvetica" font-size="10" x="361.7158" y="687.3447">"htu": "&lt;AS_Token_Endpoint_URL&gt;",</text><text fill="#000000" font-family="Helvetica" font-size="10" x="361.7158" y="698.9854">"nonce": "&lt;Challenge from AS&gt;", // Binding to AS</text><text fill="#000000" font-family="Helvetica" font-size="10" x="361.7158" y="710.626">"iat": ...</text><text fill="#000000" font-family="Helvetica" font-size="10" x="355.3584" y="722.2666">}.(sig by DPoP_Private_Key)</text><line style="stroke:#181818;stroke-width:1;" x1="89.293" x2="131.293" y1="752.2656" y2="752.2656"/><line style="stroke:#181818;stroke-width:1;" x1="131.293" x2="131.293" y1="752.2656" y2="765.2656"/><line style="stroke:#181818;stroke-width:1;" x1="90.293" x2="131.293" y1="765.2656" y2="765.2656"/><polygon fill="#181818" points="100.293,761.2656,90.293,765.2656,100.293,769.2656,96.293,765.2656" style="stroke:#181818;stroke-width:1;"/><text fill="#000000" font-family="Helvetica" font-size="10" x="96.293" y="747.9072">(10)</text><text fill="#000000" font-family="Helvetica" font-size="10" x="120.8203" y="747.9072">Create Client Assertion JWT for Token Exchange (for Auth)</text><path d="M424.5586,739.625 L424.5586,877.625 L753.5586,877.625 L753.5586,749.625 L743.5586,739.625 L424.5586,739.625" fill="#ADD8E6" style="stroke:#181818;stroke-width:0.5;"/><path d="M743.5586,739.625 L743.5586,749.625 L753.5586,749.625 L743.5586,739.625" fill="#ADD8E6" style="stroke:#181818;stroke-width:0.5;"/><text fill="#000000" font-family="Helvetica" font-size="10" font-weight="bold" x="430.5586" y="753.9072">Client Assertion JWT Claims (for Auth):</text><text fill="#000000" font-family="Helvetica" font-size="10" x="430.5586" y="765.5479">{</text><text fill="#000000" font-family="Helvetica" font-size="10" x="436.916" y="777.1885">"iss": "&lt;client_id&gt;",</text><text fill="#000000" font-family="Helvetica" font-size="10" x="436.916" y="788.8291">"sub": "&lt;client_id&gt;",</text><text fill="#000000" font-family="Helvetica" font-size="10" x="436.916" y="800.4697">"aud": "&lt;AS_Token_Endpoint_URL&gt;",</text><text fill="#000000" font-family="Helvetica" font-size="10" x="436.916" y="812.1104">"exp": ..., // Short-lived</text><text fill="#000000" font-family="Helvetica" font-size="10" x="436.916" y="823.751">"jti": "...",</text><text fill="#000000" font-family="Helvetica" font-size="10" x="436.916" y="835.3916">// Include DPoP public key hash</text><text fill="#000000" font-family="Helvetica" font-size="10" x="436.916" y="847.0322">"cnf": { "jkt": "&lt;Base64URL(SHA256(DPoP_Public_JWK))&gt;" }</text><text fill="#000000" font-family="Helvetica" font-size="10" x="430.5586" y="858.6729">}</text><text fill="#000000" font-family="Helvetica" font-size="10" x="430.5586" y="870.3135">(sig by Client_Instance_Private_Key)</text><path d="M68.293,886.6719 L128.249,886.6719 L128.249,890.3125 L118.249,900.3125 L68.293,900.3125 L68.293,886.6719" fill="#EEEEEE" style="stroke:#000000;stroke-width:1.5;"/><rect fill="none" height="473.7344" style="stroke:#000000;stroke-width:1.5;" width="1125.5928" x="68.293" y="886.6719"/><text fill="#000000" font-family="Helvetica" font-size="10" font-weight="bold" x="83.293" y="896.9541">alt</text><text fill="#000000" font-family="Helvetica" font-size="10" font-weight="bold" x="143.249" y="897.9541">[Client uses SM(C)-B Access Token]</text><line style="stroke:#000000;stroke-width:1;stroke-dasharray:2.0,2.0;" x1="68.293" x2="1193.8857" y1="1160.6406" y2="1160.6406"/><text fill="#000000" font-family="Helvetica" font-size="10" font-weight="bold" x="73.293" y="1171.9229">[Client uses Refresh Token]</text><polygon fill="#181818" points="724.9463,923.9531,734.9463,927.9531,724.9463,931.9531,728.9463,927.9531" style="stroke:#181818;stroke-width:1;"/><line style="stroke:#181818;stroke-width:1;" x1="89.293" x2="730.9463" y1="927.9531" y2="927.9531"/><text fill="#000000" font-family="Helvetica" font-size="10" x="96.293" y="923.5947">(11)</text><text fill="#000000" font-family="Helvetica" font-size="10" x="120.8203" y="923.5947">POST /token (RFC 8693) DPoP: &lt;signed_dpop_jwt&gt;</text><path d="M94.293,940.9531 L94.293,1066.9531 L507.293,1066.9531 L507.293,950.9531 L497.293,940.9531 L94.293,940.9531" fill="#ADD8E6" style="stroke:#181818;stroke-width:0.5;"/><path d="M497.293,940.9531 L497.293,950.9531 L507.293,950.9531 L497.293,940.9531" fill="#ADD8E6" style="stroke:#181818;stroke-width:0.5;"/><text fill="#000000" font-family="Helvetica" font-size="10" font-weight="bold" x="100.293" y="955.2354">Token Exchange Request Body:</text><text fill="#000000" font-family="Helvetica" font-size="10" x="100.293" y="966.876">grant_type=urn:ietf:params:oauth:grant-type:token-exchange</text><text fill="#000000" font-family="Helvetica" font-size="10" x="100.293" y="978.5166">&amp;requested_token_type=urn:ietf:params:oauth:token-type:access_token</text><text fill="#000000" font-family="Helvetica" font-size="10" x="100.293" y="990.1572">&amp;subject_token=&lt;SM(C)-B_Access_Token&gt;</text><text fill="#000000" font-family="Helvetica" font-size="10" x="100.293" y="1001.7979">&amp;subject_token_type=urn:ietf:params:oauth:token-type:jwt // Or custom</text><text fill="#000000" font-family="Helvetica" font-size="10" x="100.293" y="1013.4385">&amp;client_assertion_type=urn:ietf:params:oauth:client-assertion-type:jwt-bearer</text><text fill="#000000" font-family="Helvetica" font-size="10" x="100.293" y="1025.0791">&amp;client_assertion=&lt;Client_Assertion_JWT_for_Auth&gt;</text><text fill="#000000" font-family="Helvetica" font-size="10" x="100.293" y="1036.7197">&amp;resource=&lt;Target Resource URI&gt;</text><text fill="#000000" font-family="Helvetica" font-size="10" x="100.293" y="1048.3604">&amp;audience=&lt;Target Audience&gt;</text><text fill="#000000" font-family="Helvetica" font-size="10" x="100.293" y="1060.001">&amp;scope=&lt;Requested Scopes&gt;</text><line style="stroke:#181818;stroke-width:1;" x1="746.9463" x2="788.9463" y1="1090" y2="1090"/><line style="stroke:#181818;stroke-width:1;" x1="788.9463" x2="788.9463" y1="1090" y2="1103"/><line style="stroke:#181818;stroke-width:1;" x1="747.9463" x2="788.9463" y1="1103" y2="1103"/><polygon fill="#181818" points="757.9463,1099,747.9463,1103,757.9463,1107,753.9463,1103" style="stroke:#181818;stroke-width:1;"/><text fill="#000000" font-family="Helvetica" font-size="10" x="753.9463" y="1085.6416">(12)</text><text fill="#000000" font-family="Helvetica" font-size="10" x="778.4736" y="1085.6416">Validate subject_token (sig by SM(C)-B_PK, claims)</text><line style="stroke:#181818;stroke-width:1;" x1="746.9463" x2="788.9463" y1="1128.6406" y2="1128.6406"/><line style="stroke:#181818;stroke-width:1;" x1="788.9463" x2="788.9463" y1="1128.6406" y2="1141.6406"/><line style="stroke:#181818;stroke-width:1;" x1="747.9463" x2="788.9463" y1="1141.6406" y2="1141.6406"/><polygon fill="#181818" points="757.9463,1137.6406,747.9463,1141.6406,757.9463,1145.6406,753.9463,1141.6406" style="stroke:#181818;stroke-width:1;"/><text fill="#000000" font-family="Helvetica" font-size="10" x="753.9463" y="1124.2822">(13)</text><text fill="#000000" font-family="Helvetica" font-size="10" x="778.4736" y="1124.2822">Check if client_id is bound to the SM(C)-B identity (sub claim in subject_token)</text><polygon fill="#181818" points="724.9463,1192.9219,734.9463,1196.9219,724.9463,1200.9219,728.9463,1196.9219" style="stroke:#181818;stroke-width:1;"/><line style="stroke:#181818;stroke-width:1;" x1="89.293" x2="730.9463" y1="1196.9219" y2="1196.9219"/><text fill="#000000" font-family="Helvetica" font-size="10" x="96.293" y="1192.5635">(14)</text><text fill="#000000" font-family="Helvetica" font-size="10" x="120.8203" y="1192.5635">POST /token DPoP: &lt;signed_dpop_jwt&gt;</text><path d="M94.293,1209.9219 L94.293,1277.9219 L507.293,1277.9219 L507.293,1219.9219 L497.293,1209.9219 L94.293,1209.9219" fill="#ADD8E6" style="stroke:#181818;stroke-width:0.5;"/><path d="M497.293,1209.9219 L497.293,1219.9219 L507.293,1219.9219 L497.293,1209.9219" fill="#ADD8E6" style="stroke:#181818;stroke-width:0.5;"/><text fill="#000000" font-family="Helvetica" font-size="10" font-weight="bold" x="100.293" y="1224.2041">Token Exchange Request Body:</text><text fill="#000000" font-family="Helvetica" font-size="10" x="100.293" y="1235.8447">grant_type=refresh_token</text><text fill="#000000" font-family="Helvetica" font-size="10" x="100.293" y="1247.4854">&amp;refresh_token=&lt;Refresh_Token&gt;</text><text fill="#000000" font-family="Helvetica" font-size="10" x="100.293" y="1259.126">&amp;client_assertion_type=urn:ietf:params:oauth:client-assertion-type:jwt-bearer</text><text fill="#000000" font-family="Helvetica" font-size="10" x="100.293" y="1270.7666">&amp;client_assertion=&lt;Client_Assertion_JWT_for_Auth&gt;</text><line style="stroke:#181818;stroke-width:1;" x1="746.9463" x2="788.9463" y1="1300.7656" y2="1300.7656"/><line style="stroke:#181818;stroke-width:1;" x1="788.9463" x2="788.9463" y1="1300.7656" y2="1313.7656"/><line style="stroke:#181818;stroke-width:1;" x1="747.9463" x2="788.9463" y1="1313.7656" y2="1313.7656"/><polygon fill="#181818" points="757.9463,1309.7656,747.9463,1313.7656,757.9463,1317.7656,753.9463,1313.7656" style="stroke:#181818;stroke-width:1;"/><text fill="#000000" font-family="Helvetica" font-size="10" x="753.9463" y="1296.4072">(15)</text><text fill="#000000" font-family="Helvetica" font-size="10" x="778.4736" y="1296.4072">verify Refresh token and DPoP JWT</text><line style="stroke:#181818;stroke-width:1;" x1="746.9463" x2="788.9463" y1="1339.4063" y2="1339.4063"/><line style="stroke:#181818;stroke-width:1;" x1="788.9463" x2="788.9463" y1="1339.4063" y2="1352.4063"/><line style="stroke:#181818;stroke-width:1;" x1="747.9463" x2="788.9463" y1="1352.4063" y2="1352.4063"/><polygon fill="#181818" points="757.9463,1348.4063,747.9463,1352.4063,757.9463,1356.4063,753.9463,1352.4063" style="stroke:#181818;stroke-width:1;"/><text fill="#000000" font-family="Helvetica" font-size="10" x="753.9463" y="1335.0479">(16)</text><text fill="#000000" font-family="Helvetica" font-size="10" x="778.4736" y="1335.0479">invalidate Refresh token</text><line style="stroke:#181818;stroke-width:1;" x1="746.9463" x2="788.9463" y1="1392.0469" y2="1392.0469"/><line style="stroke:#181818;stroke-width:1;" x1="788.9463" x2="788.9463" y1="1392.0469" y2="1405.0469"/><line style="stroke:#181818;stroke-width:1;" x1="747.9463" x2="788.9463" y1="1405.0469" y2="1405.0469"/><polygon fill="#181818" points="757.9463,1401.0469,747.9463,1405.0469,757.9463,1409.0469,753.9463,1405.0469" style="stroke:#181818;stroke-width:1;"/><text fill="#000000" font-family="Helvetica" font-size="10" x="753.9463" y="1387.6885">(17)</text><text fill="#000000" font-family="Helvetica" font-size="10" x="778.4736" y="1387.6885">Validate client_assertion (sig by Client_Instance_PK, claims)</text><line style="stroke:#181818;stroke-width:1;" x1="746.9463" x2="788.9463" y1="1430.6875" y2="1430.6875"/><line style="stroke:#181818;stroke-width:1;" x1="788.9463" x2="788.9463" y1="1430.6875" y2="1443.6875"/><line style="stroke:#181818;stroke-width:1;" x1="747.9463" x2="788.9463" y1="1443.6875" y2="1443.6875"/><polygon fill="#181818" points="757.9463,1439.6875,747.9463,1443.6875,757.9463,1447.6875,753.9463,1443.6875" style="stroke:#181818;stroke-width:1;"/><text fill="#000000" font-family="Helvetica" font-size="10" x="753.9463" y="1426.3291">(18)</text><text fill="#000000" font-family="Helvetica" font-size="10" x="778.4736" y="1426.3291">Validate DPoP Proof JWT (sig by DPoP_Public_Key, claims)</text><path d="M49.293,1455.6875 L109.249,1455.6875 L109.249,1459.3281 L99.249,1469.3281 L49.293,1469.3281 L49.293,1455.6875" fill="#EEEEEE" style="stroke:#000000;stroke-width:1.5;"/><rect fill="none" height="606.5" style="stroke:#000000;stroke-width:1.5;" width="1149.5928" x="49.293" y="1455.6875"/><text fill="#000000" font-family="Helvetica" font-size="10" font-weight="bold" x="64.293" y="1465.9697">alt</text><text fill="#000000" font-family="Helvetica" font-size="10" font-weight="bold" x="124.249" y="1466.9697">[Validations Successful]</text><line style="stroke:#000000;stroke-width:1;stroke-dasharray:2.0,2.0;" x1="49.293" x2="1198.8857" y1="1939.7031" y2="1939.7031"/><text fill="#000000" font-family="Helvetica" font-size="10" font-weight="bold" x="54.293" y="1950.9854">[Validation Failed]</text><polygon fill="#181818" points="1160.8857,1492.9688,1170.8857,1496.9688,1160.8857,1500.9688,1164.8857,1496.9688" style="stroke:#181818;stroke-width:1;"/><line style="stroke:#181818;stroke-width:1;" x1="746.9463" x2="1166.8857" y1="1496.9688" y2="1496.9688"/><text fill="#000000" font-family="Helvetica" font-size="10" x="753.9463" y="1492.6104">(19)</text><text fill="#000000" font-family="Helvetica" font-size="10" x="778.4736" y="1492.6104">POST /v1/data/authz, body {  "input": {...}}</text><polygon fill="#181818" points="757.9463,1553.5313,747.9463,1557.5313,757.9463,1561.5313,753.9463,1557.5313" style="stroke:#181818;stroke-width:1;"/><line style="stroke:#181818;stroke-width:1;stroke-dasharray:2.0,2.0;" x1="751.9463" x2="1171.8857" y1="1557.5313" y2="1557.5313"/><text fill="#000000" font-family="Helvetica" font-size="10" x="763.9463" y="1535.7119">(20)</text><text fill="#000000" font-family="Helvetica" font-size="10" x="788.4736" y="1518.251">200 OK, body {"allow": true,</text><text fill="#000000" font-family="Helvetica" font-size="10" x="794.8311" y="1529.8916">"access_token_ttl": "360",</text><text fill="#000000" font-family="Helvetica" font-size="10" x="794.8311" y="1541.5322">"refresh_token_ttl": "43200",</text><text fill="#000000" font-family="Helvetica" font-size="10" x="794.8311" y="1553.1729">"scope": "RS specific scopes"}</text><path d="M68.293,1569.5313 L128.249,1569.5313 L128.249,1573.1719 L118.249,1583.1719 L68.293,1583.1719 L68.293,1569.5313" fill="#EEEEEE" style="stroke:#000000;stroke-width:1.5;"/><rect fill="none" height="345.1719" style="stroke:#000000;stroke-width:1.5;" width="1060.2432" x="68.293" y="1569.5313"/><text fill="#000000" font-family="Helvetica" font-size="10" font-weight="bold" x="83.293" y="1579.8135">alt</text><text fill="#000000" font-family="Helvetica" font-size="10" font-weight="bold" x="143.249" y="1580.8135">[Policy Decision allowed]</text><line style="stroke:#000000;stroke-width:1;stroke-dasharray:2.0,2.0;" x1="68.293" x2="1128.5361" y1="1786.2188" y2="1786.2188"/><text fill="#000000" font-family="Helvetica" font-size="10" font-weight="bold" x="73.293" y="1797.501">[Policy Decision denied]</text><line style="stroke:#181818;stroke-width:1;" x1="746.9463" x2="788.9463" y1="1610.8125" y2="1610.8125"/><line style="stroke:#181818;stroke-width:1;" x1="788.9463" x2="788.9463" y1="1610.8125" y2="1623.8125"/><line style="stroke:#181818;stroke-width:1;" x1="747.9463" x2="788.9463" y1="1623.8125" y2="1623.8125"/><polygon fill="#181818" points="757.9463,1619.8125,747.9463,1623.8125,757.9463,1627.8125,753.9463,1623.8125" style="stroke:#181818;stroke-width:1;"/><text fill="#000000" font-family="Helvetica" font-size="10" x="753.9463" y="1606.4541">(21)</text><text fill="#000000" font-family="Helvetica" font-size="10" x="778.4736" y="1606.4541">Generate AS Access Token (AT) and Refresh Token (RT)</text><path d="M438.4707,1598.1719 L438.4707,1631.1719 L736.4707,1631.1719 L736.4707,1608.1719 L726.4707,1598.1719 L438.4707,1598.1719" fill="#FEFFDD" style="stroke:#181818;stroke-width:0.5;"/><path d="M726.4707,1598.1719 L726.4707,1608.1719 L736.4707,1608.1719 L726.4707,1598.1719" fill="#FEFFDD" style="stroke:#181818;stroke-width:0.5;"/><text fill="#000000" font-family="Helvetica" font-size="10" x="444.4707" y="1612.4541">AT is bound to DPoP key (cnf.jkt claim)</text><text fill="#000000" font-family="Helvetica" font-size="10" x="444.4707" y="1624.0947">AT contains claims about client_id and SM(C)-B Identity</text><line style="stroke:#181818;stroke-width:1;" x1="90.293" x2="100.293" y1="1654.0938" y2="1650.0938"/><line style="stroke:#181818;stroke-width:1;" x1="90.293" x2="100.293" y1="1654.0938" y2="1658.0938"/><line style="stroke:#181818;stroke-width:1;stroke-dasharray:2.0,2.0;" x1="89.293" x2="735.9463" y1="1654.0938" y2="1654.0938"/><text fill="#000000" font-family="Helvetica" font-size="10" x="106.293" y="1649.7354">(22)</text><text fill="#000000" font-family="Helvetica" font-size="10" x="130.8203" y="1649.7354">200 OK</text><path d="M751.9463,1667.0938 L751.9463,1770.0938 L1036.9463,1770.0938 L1036.9463,1677.0938 L1026.9463,1667.0938 L751.9463,1667.0938" fill="#90EE90" style="stroke:#181818;stroke-width:0.5;"/><path d="M1026.9463,1667.0938 L1026.9463,1677.0938 L1036.9463,1677.0938 L1026.9463,1667.0938" fill="#90EE90" style="stroke:#181818;stroke-width:0.5;"/><text fill="#000000" font-family="Helvetica" font-size="10" font-weight="bold" x="757.9463" y="1681.376">Token Response Body:</text><text fill="#000000" font-family="Helvetica" font-size="10" x="757.9463" y="1693.0166">{</text><text fill="#000000" font-family="Helvetica" font-size="10" x="764.3037" y="1704.6572">"access_token": "&lt;AS_Access_Token&gt;",</text><text fill="#000000" font-family="Helvetica" font-size="10" x="764.3037" y="1716.2979">"token_type": "DPoP", // Indicate DPoP is required</text><text fill="#000000" font-family="Helvetica" font-size="10" x="764.3037" y="1727.9385">"expires_in": 3600,</text><text fill="#000000" font-family="Helvetica" font-size="10" x="764.3037" y="1739.5791">"refresh_token": "&lt;AS_Refresh_Token&gt;" // Optional</text><text fill="#000000" font-family="Helvetica" font-size="10" x="764.3037" y="1751.2197">// ... other parameters</text><text fill="#000000" font-family="Helvetica" font-size="10" x="757.9463" y="1762.8604">}</text><line style="stroke:#181818;stroke-width:1;" x1="90.293" x2="100.293" y1="1822.5" y2="1818.5"/><line style="stroke:#181818;stroke-width:1;" x1="90.293" x2="100.293" y1="1822.5" y2="1826.5"/><line style="stroke:#181818;stroke-width:1;stroke-dasharray:2.0,2.0;" x1="89.293" x2="735.9463" y1="1822.5" y2="1822.5"/><text fill="#000000" font-family="Helvetica" font-size="10" x="106.293" y="1818.1416">(23)</text><text fill="#000000" font-family="Helvetica" font-size="10" x="130.8203" y="1818.1416">403 Forbidden</text><path d="M751.9463,1809.8594 L751.9463,1830.8594 L1106.9463,1830.8594 L1106.9463,1819.8594 L1096.9463,1809.8594 L751.9463,1809.8594" fill="#FEFFDD" style="stroke:#181818;stroke-width:0.5;"/><path d="M1096.9463,1809.8594 L1096.9463,1819.8594 L1106.9463,1819.8594 L1096.9463,1809.8594" fill="#FEFFDD" style="stroke:#181818;stroke-width:0.5;"/><text fill="#000000" font-family="Helvetica" font-size="10" x="757.9463" y="1824.1416">The client can handle the error and decide whether to retry or not.</text><path d="M751.9463,1841.5 L751.9463,1909.5 L1002.9463,1909.5 L1002.9463,1851.5 L992.9463,1841.5 L751.9463,1841.5" fill="#FFC0CB" style="stroke:#181818;stroke-width:0.5;"/><path d="M992.9463,1841.5 L992.9463,1851.5 L1002.9463,1851.5 L992.9463,1841.5" fill="#FFC0CB" style="stroke:#181818;stroke-width:0.5;"/><text fill="#000000" font-family="Helvetica" font-size="10" font-weight="bold" x="757.9463" y="1855.7822">Error Response:</text><text fill="#000000" font-family="Helvetica" font-size="10" x="757.9463" y="1867.4229">{</text><text fill="#000000" font-family="Helvetica" font-size="10" x="764.3037" y="1879.0635">"error": "access_denied",</text><text fill="#000000" font-family="Helvetica" font-size="10" x="764.3037" y="1890.7041">"error_description": "Policy decision denied."</text><text fill="#000000" font-family="Helvetica" font-size="10" x="757.9463" y="1902.3447">}</text><line style="stroke:#181818;stroke-width:1;" x1="90.293" x2="100.293" y1="1975.9844" y2="1971.9844"/><line style="stroke:#181818;stroke-width:1;" x1="90.293" x2="100.293" y1="1975.9844" y2="1979.9844"/><line style="stroke:#181818;stroke-width:1;stroke-dasharray:2.0,2.0;" x1="89.293" x2="735.9463" y1="1975.9844" y2="1975.9844"/><text fill="#000000" font-family="Helvetica" font-size="10" x="106.293" y="1971.626">(24)</text><text fill="#000000" font-family="Helvetica" font-size="10" x="130.8203" y="1971.626">400 Bad Request</text><path d="M746.9463,1988.9844 L746.9463,2056.9844 L1052.9463,2056.9844 L1052.9463,1998.9844 L1042.9463,1988.9844 L746.9463,1988.9844" fill="#FFC0CB" style="stroke:#181818;stroke-width:0.5;"/><path d="M1042.9463,1988.9844 L1042.9463,1998.9844 L1052.9463,1998.9844 L1042.9463,1988.9844" fill="#FFC0CB" style="stroke:#181818;stroke-width:0.5;"/><text fill="#000000" font-family="Helvetica" font-size="10" font-weight="bold" x="752.9463" y="2003.2666">Error Response:</text><text fill="#000000" font-family="Helvetica" font-size="10" x="752.9463" y="2014.9072">{</text><text fill="#000000" font-family="Helvetica" font-size="10" x="759.3037" y="2026.5479">"error": "invalid_grant", // Or "invalid_client"</text><text fill="#000000" font-family="Helvetica" font-size="10" x="759.3037" y="2038.1885">"error_description": "Token exchange validation failed."</text><text fill="#000000" font-family="Helvetica" font-size="10" x="752.9463" y="2049.8291">}</text><!--SRC=[pLZTRXkx4RxVfvZk0Hh9pje-IHgqWcD0bXN7nycnO2aDMWGGg5rAehNYwf1SsSf1tgPlqXVh3CdzquzpRbhqnhB8cU5mvfjlXcAvoMI-d705OUlih1q6UY7aYYcsX8HFMPwQzvaqG_6Dmyzd-pT_PKiE7tYwvaR4h2PpvMG-PJBJAnRpf9JkPRaINDLaKovdPjvD7d9jG6QIr_Oq_otdCkRtVCeL_NF9uiLCPRbCUbcQAVWo5wQkCDnMgExmAZXzyID1iqavJB8q2LwS1a7mfvLYioK3mxDlO5JEWw0R6ppsiyOhJB8d23_sRqBuwNgUQUDy0R3h0oMM__wNqXjj-18bFh8rbmbg0NY9V_P7NUYbWak3-qCcaysboXwbbG10Dp6eOiMayLB0jDFwAhsQ5KMpP33OLXeDFbaD_2J1IgmkT9j9oHTq9HAjlcNggnpTHDVCy4Us2RUqXfykhVpmKwlNZYx3e33kOjAL4y4DLtYjKR_tuTUxZtVN_mZgrxxEcKfsRrq_evkR-T2UChWQV9NqDLFY6pCYavWzjIRxErg3VgKoo58HRw0lPqBoUWXARrbQndQEQZA3DKj50efF5TTpCDc2asTUvlYu-Z-wAFxhG4znZ5CP3kZ6CTSQHgGTGkkNBwCsAieCPPIOpGtybDB79CsvJ_RHqJvTF869fUuS7Ncnt_qdG2Yq3ZiGdiVMYR58BiANS7eADrhdMD92WvbpSBkLbiudLcl4Kxx4K2wYcokOgWphmPtlhGppoGEFJM56I6s4oIdqbIsM9zPMTpYstexxCbbb0ftvVF_Hs-dcYQ3YAWnrXvK-VrgX_id9YJiHiskYLAnvKhiaCrwaMdimWex5nR2sYhmHS-jERyvIeXJkxdNLk_U-N0gP23d3fD9YBIPnjkBk6EkonlJ_bWl54vXY9P3RzrmZRU4r7Ew0sIHv4zyziYY_GGCWLJaT7oDC-1FMX6GfGHaba34H48IE2C4t9uXK2gXDHMRrj9Z9fXnjDUn74SgHn11bcSaLRrgBBagubgAw9deOr5U3R02tV0C39XIqA28Ec_sdUCumpEJFYnguEnWahH4fqOHfZ66fIwhMsiGbuiJM8PPW45J7kwgtrxxkZ-3KvZLmgr5KkqG7iuJEItXrTWPtjo3vOsI5E-1qWX_SQQ2oR4g1WDqx1OThzUXeIzlLwDx858LRb6reDWJv4CjaTVpmQ4e0XooTqKP_-EelRwlLXyS5hjQAVc4sLgnNX_xJddBOx5cBrPfM1n6TKSCk_ZqfFTnJNU7SBAtYtN1KNyoVhVxWHuNP7UxMPKaFLULx1rk8LfXiREh6s5lNcCSnGgiTLALtEE7-UrTZsxRzOt_QNH89RErd4R3NN1q7riHEzlTHTh15pFlsVaIqmHyar7t9fOuXupHFV5MiyWasJLXWqHBP59gnd18IqSJ2M5ykiRRVli7pMyCFNGHKooN6Qez_-NBRRb-41RhitoA1BdRZ6-me395nA9Urpfnhhc5VUspmLequ2AXmQditjExVz-2lR__skctlru5peZsUZAa6nrY35ytEZ4NjRUvaVGihzpH0uiHwcIMR8jKpXJF86AkSlqDgwk0GDEtOSLDtCeOETgn0H08Twr_42yOXzJyhPnFTixlFMNBgrfBhHkDYM44xshLlj_Jkt0Tlx8BdG7InH_8FdeTH8zpSAOXnPC-Mpf97BYkAuZbZJZOgPKkxqOGpvOVa7OllpZruoi93f8t6M71Zolv54KFNgz-TZvYQSLCrxy_tDrw6-R6ab2dcb28gD1AyExylqW53Mj0NzKuF7d8bzZhmTneUYMyQKIsXNwHXSFiI1pDYY_O-AxqvZnSWfb1o0KrF4thp44VIF59KWqXeZZ0RF2AVE9iugpMFRmS1JpLlLDEzdsyFb56pXFwtTUD7xpgQ6qkK5VUr3kF_2_0TX4O7S6WKqqqPTnTOVFiuqaL3UtI4N1TuQkXLOzDX06vxVvX-QrWyR6vhv6asOyVvoD-L9KlVNXjFH_hEBVLCytHdMcoyqg0rwBS9xZ7D2XRlSL4ErNl6FjOSwnKLKJ8d5FLVZoY-2ckTOVtpAVh5JWaDtrvYPIKRR6tOd-Kgf-xsEpR8xz_fRObwKHaFcZdTi5deuDYMPe-eGJyDlFmggLVNk7XiJ4hDylNRiz3jDf1SRBzvZLQzGF4M2U-7e5Sy5bDindPHXzH7AQu-O5UuIsCsM2Tyazz9uJMNN54AkyFcqxBL7RKj0XjSWFtIlbLzRQTyYXdgZXe4PC500q8Bfu8J70XSsjluHXz1d4d3yBdeeG0CrKoDoUZ4WhrkF7lLFQyUAaMmAszAfd6oZcXcYlFgKLgm3NB-2d776opJV45l9QkOi1eziZO-q_HUzaWIfZ3u9pVEht5P9g9wFzQLSJZ39JqMT18YugnXkW6CmfKcqOMsvwwedbXQqyLLUhbcM0KABD7HJo-wbFXU_aZakSbsWsqGOIf44qFrJBmvUmtlCpKHIUA3lJSXAo4NjLJqbS9Pk4Z5mInm4gCx-tGuLvgXjpAuesCbR0ZiWyJT8MdUuIGyV7LeCC-e8fIOIIGLcQJSieazpcALZEDi_3ZdDhu8VtnsgWtWDfewyQnFR6p3Md4Ul6SYFHHHzmX_W_Y-P4dH4VzhSVMDP6oxh8CipcxbSbpxBV6vSBlAAWPMM5TNdTgh7WxypZi_2lu3]--></g></svg>