<svg xmlns="http://www.w3.org/2000/svg" xmlns:xlink="http://www.w3.org/1999/xlink" contentStyleType="text/css" data-diagram-type="SEQUENCE" height="2158px" preserveAspectRatio="none" style="width:1228px;height:2158px;background:#FFFFFF;" version="1.1" viewBox="0 0 1228 2158" width="1228px" zoomAndPan="magnify"><defs/><g><rect fill="#F8F8FF" height="2146.1875" style="stroke:#181818;stroke-width:0.5;" width="627.6787" x="39.793" y="6"/><text fill="#000000" font-family="Helvetica" font-size="10" font-weight="bold" x="345.1704" y="15.2822">LEI</text><rect fill="#E6E6FA" height="2129.5469" style="stroke:#181818;stroke-width:0.5;" width="409.3872" x="39.793" y="22.6406"/><text fill="#000000" font-family="Helvetica" font-size="10" font-weight="bold" x="205.3899" y="31.9229">Prim&#228;rsystem</text><rect fill="#F4A460" height="2112.9063" style="stroke:#181818;stroke-width:0.5;" width="89" x="39.793" y="39.2813"/><text fill="#000000" font-family="Helvetica" font-size="10" font-weight="bold" x="51.793" y="48.5635">ZETA Client</text><rect fill="#C9FFC9" height="2146.1875" style="stroke:#181818;stroke-width:0.5;" width="542.7002" x="679.4717" y="6"/><text fill="#000000" font-family="Helvetica" font-size="10" font-weight="bold" x="926.4614" y="15.2822">Anbieter</text><rect fill="#F4A460" height="2129.5469" style="stroke:#181818;stroke-width:0.5;" width="542.7002" x="679.4717" y="22.6406"/><text fill="#000000" font-family="Helvetica" font-size="10" font-weight="bold" x="917.6772" y="31.9229">ZETA Guard</text><g><title>User</title><rect fill="#000000" fill-opacity="0.00000" height="1947.9844" width="8" x="15.8965" y="126.5625"/><line style="stroke:#181818;stroke-width:0.5;stroke-dasharray:5.0,5.0;" x1="19.3965" x2="19.3965" y1="126.5625" y2="2074.5469"/></g><g><title>ZETA</title><rect fill="#000000" fill-opacity="0.00000" height="1947.9844" width="8" x="80.793" y="126.5625"/><line style="stroke:#181818;stroke-width:0.5;stroke-dasharray:5.0,5.0;" x1="84.293" x2="84.293" y1="126.5625" y2="2074.5469"/></g><g><title/><rect fill="#FFFFFF" height="1907.3438" style="stroke:#181818;stroke-width:1;" width="10" x="79.293" y="162.2031"/></g><g><title>TPM</title><rect fill="#000000" fill-opacity="0.00000" height="1947.9844" width="8" x="416.0586" y="126.5625"/><line style="stroke:#181818;stroke-width:0.5;stroke-dasharray:5.0,5.0;" x1="419.5586" x2="419.5586" y1="126.5625" y2="2074.5469"/></g><g><title>Konnektor or</title><rect fill="#000000" fill-opacity="0.00000" height="1947.9844" width="8" x="501.1069" y="126.5625"/><line style="stroke:#181818;stroke-width:0.5;stroke-dasharray:5.0,5.0;" x1="504.6069" x2="504.6069" y1="126.5625" y2="2074.5469"/></g><g><title/><rect fill="#FFFFFF" height="76.9219" style="stroke:#181818;stroke-width:1;" width="10" x="499.6069" y="316.25"/></g><g><title>SM(C)-B</title><rect fill="#000000" fill-opacity="0.00000" height="1947.9844" width="8" x="632.8569" y="126.5625"/><line style="stroke:#181818;stroke-width:0.5;stroke-dasharray:5.0,5.0;" x1="636.3569" x2="636.3569" y1="126.5625" y2="2074.5469"/></g><g><title/><rect fill="#FFFFFF" height="25.6406" style="stroke:#181818;stroke-width:1;" width="10" x="631.3569" y="341.8906"/></g><g><title>PDP</title><rect fill="#000000" fill-opacity="0.00000" height="1947.9844" width="8" x="738.4463" y="126.5625"/><line style="stroke:#181818;stroke-width:0.5;stroke-dasharray:5.0,5.0;" x1="741.9463" x2="741.9463" y1="126.5625" y2="2074.5469"/></g><g><title/><rect fill="#FFFFFF" height="25.6406" style="stroke:#181818;stroke-width:1;" width="10" x="736.9463" y="471.4531"/></g><g><title/><rect fill="#FFFFFF" height="1048.0313" style="stroke:#181818;stroke-width:1;" width="10" x="736.9463" y="916.3125"/></g><g><title>PDP</title><rect fill="#000000" fill-opacity="0.00000" height="1947.9844" width="8" x="1174.3857" y="126.5625"/><line style="stroke:#181818;stroke-width:0.5;stroke-dasharray:5.0,5.0;" x1="1177.8857" x2="1177.8857" y1="126.5625" y2="2074.5469"/></g><g><title/><rect fill="#FFFFFF" height="60.5625" style="stroke:#181818;stroke-width:1;" width="10" x="1172.8857" y="1485.3281"/></g><text fill="#000000" font-family="Helvetica" font-size="10" x="5" y="124.2041">User</text><ellipse cx="19.3965" cy="63.4219" fill="#E2E2F0" rx="8" ry="8" style="stroke:#181818;stroke-width:0.5;"/><path d="M19.3965,71.4219 L19.3965,98.4219 M6.3965,79.4219 L32.3965,79.4219 M19.3965,98.4219 L6.3965,113.4219 M19.3965,98.4219 L32.3965,113.4219" fill="none" style="stroke:#181818;stroke-width:0.5;"/><rect fill="#E2E2F0" height="37.2813" rx="2.5" ry="2.5" style="stroke:#181818;stroke-width:0.5;" width="42.9502" x="62.8179" y="88.2813"/><text fill="#000000" font-family="Helvetica" font-size="10" x="71.2339" y="104.5635">ZETA</text><text fill="#000000" font-family="Helvetica" font-size="10" x="69.8179" y="116.2041">Client</text><rect fill="#E2E2F0" height="25.6406" rx="2.5" ry="2.5" style="stroke:#181818;stroke-width:0.5;" width="34.7666" x="402.1753" y="99.9219"/><text fill="#000000" font-family="Helvetica" font-size="10" x="409.1753" y="116.2041">TPM</text><rect fill="#E2E2F0" height="37.2813" rx="2.5" ry="2.5" style="stroke:#181818;stroke-width:0.5;" width="78.8535" x="465.1802" y="88.2813"/><text fill="#000000" font-family="Helvetica" font-size="10" x="472.1802" y="104.5635">Konnektor or</text><text fill="#000000" font-family="Helvetica" font-size="10" x="476.1865" y="116.2041">TI-Gateway</text><rect fill="#E2E2F0" height="25.6406" rx="2.5" ry="2.5" style="stroke:#181818;stroke-width:0.5;" width="54.2295" x="609.2422" y="99.9219"/><text fill="#000000" font-family="Helvetica" font-size="10" x="616.2422" y="116.2041">SM(C)-B</text><rect fill="#E2E2F0" height="37.2813" rx="2.5" ry="2.5" style="stroke:#181818;stroke-width:0.5;" width="116.9492" x="683.4717" y="88.2813"/><text fill="#000000" font-family="Helvetica" font-size="10" x="732.0659" y="104.5635">PDP</text><text fill="#000000" font-family="Helvetica" font-size="10" x="690.4717" y="116.2041">Authorization Server</text><rect fill="#E2E2F0" height="37.2813" rx="2.5" ry="2.5" style="stroke:#181818;stroke-width:0.5;" width="80.5723" x="1137.5996" y="88.2813"/><text fill="#000000" font-family="Helvetica" font-size="10" x="1168.0054" y="104.5635">PDP</text><text fill="#000000" font-family="Helvetica" font-size="10" x="1144.5996" y="116.2041">Policy Engine</text><text fill="#000000" font-family="Helvetica" font-size="10" x="5" y="2143.8291">User</text><ellipse cx="19.3965" cy="2083.0469" fill="#E2E2F0" rx="8" ry="8" style="stroke:#181818;stroke-width:0.5;"/><path d="M19.3965,2091.0469 L19.3965,2118.0469 M6.3965,2099.0469 L32.3965,2099.0469 M19.3965,2118.0469 L6.3965,2133.0469 M19.3965,2118.0469 L32.3965,2133.0469" fill="none" style="stroke:#181818;stroke-width:0.5;"/><rect fill="#E2E2F0" height="37.2813" rx="2.5" ry="2.5" style="stroke:#181818;stroke-width:0.5;" width="42.9502" x="62.8179" y="2074.5469"/><text fill="#000000" font-family="Helvetica" font-size="10" x="71.2339" y="2090.8291">ZETA</text><text fill="#000000" font-family="Helvetica" font-size="10" x="69.8179" y="2102.4697">Client</text><rect fill="#E2E2F0" height="25.6406" rx="2.5" ry="2.5" style="stroke:#181818;stroke-width:0.5;" width="34.7666" x="402.1753" y="2074.5469"/><text fill="#000000" font-family="Helvetica" font-size="10" x="409.1753" y="2090.8291">TPM</text><rect fill="#E2E2F0" height="37.2813" rx="2.5" ry="2.5" style="stroke:#181818;stroke-width:0.5;" width="78.8535" x="465.1802" y="2074.5469"/><text fill="#000000" font-family="Helvetica" font-size="10" x="472.1802" y="2090.8291">Konnektor or</text><text fill="#000000" font-family="Helvetica" font-size="10" x="476.1865" y="2102.4697">TI-Gateway</text><rect fill="#E2E2F0" height="25.6406" rx="2.5" ry="2.5" style="stroke:#181818;stroke-width:0.5;" width="54.2295" x="609.2422" y="2074.5469"/><text fill="#000000" font-family="Helvetica" font-size="10" x="616.2422" y="2090.8291">SM(C)-B</text><rect fill="#E2E2F0" height="37.2813" rx="2.5" ry="2.5" style="stroke:#181818;stroke-width:0.5;" width="116.9492" x="683.4717" y="2074.5469"/><text fill="#000000" font-family="Helvetica" font-size="10" x="732.0659" y="2090.8291">PDP</text><text fill="#000000" font-family="Helvetica" font-size="10" x="690.4717" y="2102.4697">Authorization Server</text><rect fill="#E2E2F0" height="37.2813" rx="2.5" ry="2.5" style="stroke:#181818;stroke-width:0.5;" width="80.5723" x="1137.5996" y="2074.5469"/><text fill="#000000" font-family="Helvetica" font-size="10" x="1168.0054" y="2090.8291">PDP</text><text fill="#000000" font-family="Helvetica" font-size="10" x="1144.5996" y="2102.4697">Policy Engine</text><path d="M63.293,138.5625 L123.249,138.5625 L123.249,142.2031 L113.249,152.2031 L63.293,152.2031 L63.293,138.5625" fill="#EEEEEE" style="stroke:#000000;stroke-width:1.5;"/><rect fill="none" height="301.25" style="stroke:#000000;stroke-width:1.5;" width="636.6592" x="63.293" y="138.5625"/><text fill="#000000" font-family="Helvetica" font-size="10" font-weight="bold" x="78.293" y="148.8447">alt</text><text fill="#000000" font-family="Helvetica" font-size="10" font-weight="bold" x="138.249" y="149.8447">[Client has no valid refresh token]</text><line style="stroke:#181818;stroke-width:1;" x1="89.293" x2="131.293" y1="179.8438" y2="179.8438"/><line style="stroke:#181818;stroke-width:1;" x1="131.293" x2="131.293" y1="179.8438" y2="192.8438"/><line style="stroke:#181818;stroke-width:1;" x1="90.293" x2="131.293" y1="192.8438" y2="192.8438"/><polygon fill="#181818" points="100.293,188.8438,90.293,192.8438,100.293,196.8438,96.293,192.8438" style="stroke:#181818;stroke-width:1;"/><text fill="#000000" font-family="Helvetica" font-size="10" x="96.293" y="175.4854">(01)</text><text fill="#000000" font-family="Helvetica" font-size="10" x="120.8203" y="175.4854">Create "SM(C)-B Access Token" (JWT)</text><path d="M320.0762,167.2031 L320.0762,293.2031 L678.0762,293.2031 L678.0762,177.2031 L668.0762,167.2031 L320.0762,167.2031" fill="#ADD8E6" style="stroke:#181818;stroke-width:0.5;"/><path d="M668.0762,167.2031 L668.0762,177.2031 L678.0762,177.2031 L668.0762,167.2031" fill="#ADD8E6" style="stroke:#181818;stroke-width:0.5;"/><text fill="#000000" font-family="Helvetica" font-size="10" font-weight="bold" x="326.0762" y="181.4854">SM(C)-B Access Token Claims:</text><text fill="#000000" font-family="Helvetica" font-size="10" x="326.0762" y="193.126">{</text><text fill="#000000" font-family="Helvetica" font-size="10" x="332.4336" y="204.7666">"iss": "&lt;client_id&gt;", // Issuer is the client</text><text fill="#000000" font-family="Helvetica" font-size="10" x="332.4336" y="216.4072">"sub": "&lt;Telematik-ID from SM(C)-B&gt;", // Subject is the institution</text><text fill="#000000" font-family="Helvetica" font-size="10" x="332.4336" y="228.0479">"aud": "&lt;AS_Token_Endpoint_URL&gt;", // Audience is the AS</text><text fill="#000000" font-family="Helvetica" font-size="10" x="332.4336" y="239.6885">"exp": ..., // Short-lived</text><text fill="#000000" font-family="Helvetica" font-size="10" x="332.4336" y="251.3291">"iat": ...,</text><text fill="#000000" font-family="Helvetica" font-size="10" x="332.4336" y="262.9697">"jti": "...",</text><text fill="#000000" font-family="Helvetica" font-size="10" x="332.4336" y="274.6104">"scope": ... // As required for the Resource Server access</text><text fill="#000000" font-family="Helvetica" font-size="10" x="326.0762" y="286.251">}</text><polygon fill="#181818" points="487.6069,312.25,497.6069,316.25,487.6069,320.25,491.6069,316.25" style="stroke:#181818;stroke-width:1;"/><line style="stroke:#181818;stroke-width:1;" x1="89.293" x2="493.6069" y1="316.25" y2="316.25"/><text fill="#000000" font-family="Helvetica" font-size="10" x="96.293" y="311.8916">(02)</text><text fill="#000000" font-family="Helvetica" font-size="10" x="120.8203" y="311.8916">externalAuthenticate (JWT-hash)</text><polygon fill="#181818" points="619.3569,337.8906,629.3569,341.8906,619.3569,345.8906,623.3569,341.8906" style="stroke:#181818;stroke-width:1;"/><line style="stroke:#181818;stroke-width:1;" x1="509.6069" x2="625.3569" y1="341.8906" y2="341.8906"/><text fill="#000000" font-family="Helvetica" font-size="10" x="516.6069" y="337.5322">(03)</text><text fill="#000000" font-family="Helvetica" font-size="10" x="541.1343" y="337.5322">sign (JWT-hash)</text><polygon fill="#181818" points="520.6069,363.5313,510.6069,367.5313,520.6069,371.5313,516.6069,367.5313" style="stroke:#181818;stroke-width:1;"/><line style="stroke:#181818;stroke-width:1;" x1="514.6069" x2="630.3569" y1="367.5313" y2="367.5313"/><text fill="#000000" font-family="Helvetica" font-size="10" x="526.6069" y="363.1729">(04)</text><text fill="#000000" font-family="Helvetica" font-size="10" x="551.1343" y="363.1729">JWT-Signature</text><line style="stroke:#181818;stroke-width:1;" x1="90.293" x2="100.293" y1="393.1719" y2="389.1719"/><line style="stroke:#181818;stroke-width:1;" x1="90.293" x2="100.293" y1="393.1719" y2="397.1719"/><line style="stroke:#181818;stroke-width:1;stroke-dasharray:2.0,2.0;" x1="89.293" x2="498.6069" y1="393.1719" y2="393.1719"/><text fill="#000000" font-family="Helvetica" font-size="10" x="106.293" y="388.8135">(05)</text><text fill="#000000" font-family="Helvetica" font-size="10" x="130.8203" y="388.8135">JWT-signature</text><line style="stroke:#181818;stroke-width:1;" x1="89.293" x2="131.293" y1="418.8125" y2="418.8125"/><line style="stroke:#181818;stroke-width:1;" x1="131.293" x2="131.293" y1="418.8125" y2="431.8125"/><line style="stroke:#181818;stroke-width:1;" x1="90.293" x2="131.293" y1="431.8125" y2="431.8125"/><polygon fill="#181818" points="100.293,427.8125,90.293,431.8125,100.293,435.8125,96.293,431.8125" style="stroke:#181818;stroke-width:1;"/><text fill="#000000" font-family="Helvetica" font-size="10" x="96.293" y="414.4541">(06)</text><text fill="#000000" font-family="Helvetica" font-size="10" x="120.8203" y="414.4541">Create DPoP Key Pair (for Token Exchange)</text><polygon fill="#181818" points="724.9463,467.4531,734.9463,471.4531,724.9463,475.4531,728.9463,471.4531" style="stroke:#181818;stroke-width:1;"/><line style="stroke:#181818;stroke-width:1;" x1="89.293" x2="730.9463" y1="471.4531" y2="471.4531"/><text fill="#000000" font-family="Helvetica" font-size="10" x="96.293" y="467.0947">(07)</text><text fill="#000000" font-family="Helvetica" font-size="10" x="120.8203" y="467.0947">GET /nonce</text><polygon fill="#181818" points="100.293,493.0938,90.293,497.0938,100.293,501.0938,96.293,497.0938" style="stroke:#181818;stroke-width:1;"/><line style="stroke:#181818;stroke-width:1;stroke-dasharray:2.0,2.0;" x1="94.293" x2="735.9463" y1="497.0938" y2="497.0938"/><text fill="#000000" font-family="Helvetica" font-size="10" x="106.293" y="492.7354">(08)</text><text fill="#000000" font-family="Helvetica" font-size="10" x="130.8203" y="492.7354">return 200 OK new-nonce: nonce</text><line style="stroke:#181818;stroke-width:1;" x1="89.293" x2="131.293" y1="522.7344" y2="522.7344"/><line style="stroke:#181818;stroke-width:1;" x1="131.293" x2="131.293" y1="522.7344" y2="535.7344"/><line style="stroke:#181818;stroke-width:1;" x1="90.293" x2="131.293" y1="535.7344" y2="535.7344"/><polygon fill="#181818" points="100.293,531.7344,90.293,535.7344,100.293,539.7344,96.293,535.7344" style="stroke:#181818;stroke-width:1;"/><text fill="#000000" font-family="Helvetica" font-size="10" x="96.293" y="518.376">(09)</text><text fill="#000000" font-family="Helvetica" font-size="10" x="120.8203" y="518.376">Create DPoP Proof JWT for Token Exchange</text><path d="M349.3584,510.0938 L349.3584,717.0938 L627.3584,717.0938 L627.3584,520.0938 L617.3584,510.0938 L349.3584,510.0938" fill="#ADD8E6" style="stroke:#181818;stroke-width:0.5;"/><path d="M617.3584,510.0938 L617.3584,520.0938 L627.3584,520.0938 L617.3584,510.0938" fill="#ADD8E6" style="stroke:#181818;stroke-width:0.5;"/><text fill="#000000" font-family="Helvetica" font-size="10" font-weight="bold" x="355.3584" y="524.376">DPoP Proof JWT Claims (for Token Exchange):</text><text fill="#000000" font-family="Helvetica" font-size="10" x="355.3584" y="536.0166">{</text><text fill="#000000" font-family="Helvetica" font-size="10" x="361.7158" y="547.6572">"typ": "dpop+jwt",</text><text fill="#000000" font-family="Helvetica" font-size="10" x="361.7158" y="559.2979">"alg": "ES256",</text><text fill="#000000" font-family="Helvetica" font-size="10" x="361.7158" y="570.9385">"jwk": {</text><text fill="#000000" font-family="Helvetica" font-size="10" x="368.0732" y="582.5791">"kty": "EC",</text><text fill="#000000" font-family="Helvetica" font-size="10" x="368.0732" y="594.2197">"x": "...",</text><text fill="#000000" font-family="Helvetica" font-size="10" x="368.0732" y="605.8604">"y": "...",</text><text fill="#000000" font-family="Helvetica" font-size="10" x="368.0732" y="617.501">"crv": "P-256"</text><text fill="#000000" font-family="Helvetica" font-size="10" x="361.7158" y="629.1416">}</text><text fill="#000000" font-family="Helvetica" font-size="10" x="355.3584" y="640.7822">}.{</text><text fill="#000000" font-family="Helvetica" font-size="10" x="361.7158" y="652.4229">"jti": "...",</text><text fill="#000000" font-family="Helvetica" font-size="10" x="361.7158" y="664.0635">"htm": "POST",</text><text fill="#000000" font-family="Helvetica" font-size="10" x="361.7158" y="675.7041">"htu": "&lt;AS_Token_Endpoint_URL&gt;",</text><text fill="#000000" font-family="Helvetica" font-size="10" x="361.7158" y="687.3447">"nonce": "&lt;Challenge from AS&gt;", // Binding to AS</text><text fill="#000000" font-family="Helvetica" font-size="10" x="361.7158" y="698.9854">"iat": ...</text><text fill="#000000" font-family="Helvetica" font-size="10" x="355.3584" y="710.626">}.(sig by DPoP_Private_Key)</text><line style="stroke:#181818;stroke-width:1;" x1="89.293" x2="131.293" y1="740.625" y2="740.625"/><line style="stroke:#181818;stroke-width:1;" x1="131.293" x2="131.293" y1="740.625" y2="753.625"/><line style="stroke:#181818;stroke-width:1;" x1="90.293" x2="131.293" y1="753.625" y2="753.625"/><polygon fill="#181818" points="100.293,749.625,90.293,753.625,100.293,757.625,96.293,753.625" style="stroke:#181818;stroke-width:1;"/><text fill="#000000" font-family="Helvetica" font-size="10" x="96.293" y="736.2666">(10)</text><text fill="#000000" font-family="Helvetica" font-size="10" x="120.8203" y="736.2666">Create Client Assertion JWT for Token Exchange (for Auth)</text><path d="M424.5586,727.9844 L424.5586,865.9844 L753.5586,865.9844 L753.5586,737.9844 L743.5586,727.9844 L424.5586,727.9844" fill="#ADD8E6" style="stroke:#181818;stroke-width:0.5;"/><path d="M743.5586,727.9844 L743.5586,737.9844 L753.5586,737.9844 L743.5586,727.9844" fill="#ADD8E6" style="stroke:#181818;stroke-width:0.5;"/><text fill="#000000" font-family="Helvetica" font-size="10" font-weight="bold" x="430.5586" y="742.2666">Client Assertion JWT Claims (for Auth):</text><text fill="#000000" font-family="Helvetica" font-size="10" x="430.5586" y="753.9072">{</text><text fill="#000000" font-family="Helvetica" font-size="10" x="436.916" y="765.5479">"iss": "&lt;client_id&gt;",</text><text fill="#000000" font-family="Helvetica" font-size="10" x="436.916" y="777.1885">"sub": "&lt;client_id&gt;",</text><text fill="#000000" font-family="Helvetica" font-size="10" x="436.916" y="788.8291">"aud": "&lt;AS_Token_Endpoint_URL&gt;",</text><text fill="#000000" font-family="Helvetica" font-size="10" x="436.916" y="800.4697">"exp": ..., // Short-lived</text><text fill="#000000" font-family="Helvetica" font-size="10" x="436.916" y="812.1104">"jti": "...",</text><text fill="#000000" font-family="Helvetica" font-size="10" x="436.916" y="823.751">// Include DPoP public key hash</text><text fill="#000000" font-family="Helvetica" font-size="10" x="436.916" y="835.3916">"cnf": { "jkt": "&lt;Base64URL(SHA256(DPoP_Public_JWK))&gt;" }</text><text fill="#000000" font-family="Helvetica" font-size="10" x="430.5586" y="847.0322">}</text><text fill="#000000" font-family="Helvetica" font-size="10" x="430.5586" y="858.6729">(sig by Client_Instance_Private_Key)</text><path d="M68.293,875.0313 L128.249,875.0313 L128.249,878.6719 L118.249,888.6719 L68.293,888.6719 L68.293,875.0313" fill="#EEEEEE" style="stroke:#000000;stroke-width:1.5;"/><rect fill="none" height="473.7344" style="stroke:#000000;stroke-width:1.5;" width="1125.5928" x="68.293" y="875.0313"/><text fill="#000000" font-family="Helvetica" font-size="10" font-weight="bold" x="83.293" y="885.3135">alt</text><text fill="#000000" font-family="Helvetica" font-size="10" font-weight="bold" x="143.249" y="886.3135">[Client uses SM(C)-B Access Token]</text><line style="stroke:#000000;stroke-width:1;stroke-dasharray:2.0,2.0;" x1="68.293" x2="1193.8857" y1="1149" y2="1149"/><text fill="#000000" font-family="Helvetica" font-size="10" font-weight="bold" x="73.293" y="1160.2822">[Client uses Refresh Token]</text><polygon fill="#181818" points="724.9463,912.3125,734.9463,916.3125,724.9463,920.3125,728.9463,916.3125" style="stroke:#181818;stroke-width:1;"/><line style="stroke:#181818;stroke-width:1;" x1="89.293" x2="730.9463" y1="916.3125" y2="916.3125"/><text fill="#000000" font-family="Helvetica" font-size="10" x="96.293" y="911.9541">(11)</text><text fill="#000000" font-family="Helvetica" font-size="10" x="120.8203" y="911.9541">POST /token (RFC 8693) DPoP: &lt;signed_dpop_jwt&gt;</text><path d="M94.293,929.3125 L94.293,1055.3125 L507.293,1055.3125 L507.293,939.3125 L497.293,929.3125 L94.293,929.3125" fill="#ADD8E6" style="stroke:#181818;stroke-width:0.5;"/><path d="M497.293,929.3125 L497.293,939.3125 L507.293,939.3125 L497.293,929.3125" fill="#ADD8E6" style="stroke:#181818;stroke-width:0.5;"/><text fill="#000000" font-family="Helvetica" font-size="10" font-weight="bold" x="100.293" y="943.5947">Token Exchange Request Body:</text><text fill="#000000" font-family="Helvetica" font-size="10" x="100.293" y="955.2354">grant_type=urn:ietf:params:oauth:grant-type:token-exchange</text><text fill="#000000" font-family="Helvetica" font-size="10" x="100.293" y="966.876">&amp;requested_token_type=urn:ietf:params:oauth:token-type:access_token</text><text fill="#000000" font-family="Helvetica" font-size="10" x="100.293" y="978.5166">&amp;subject_token=&lt;SM(C)-B_Access_Token&gt;</text><text fill="#000000" font-family="Helvetica" font-size="10" x="100.293" y="990.1572">&amp;subject_token_type=urn:ietf:params:oauth:token-type:jwt // Or custom</text><text fill="#000000" font-family="Helvetica" font-size="10" x="100.293" y="1001.7979">&amp;client_assertion_type=urn:ietf:params:oauth:client-assertion-type:jwt-bearer</text><text fill="#000000" font-family="Helvetica" font-size="10" x="100.293" y="1013.4385">&amp;client_assertion=&lt;Client_Assertion_JWT_for_Auth&gt;</text><text fill="#000000" font-family="Helvetica" font-size="10" x="100.293" y="1025.0791">&amp;resource=&lt;Target Resource URI&gt;</text><text fill="#000000" font-family="Helvetica" font-size="10" x="100.293" y="1036.7197">&amp;audience=&lt;Target Audience&gt;</text><text fill="#000000" font-family="Helvetica" font-size="10" x="100.293" y="1048.3604">&amp;scope=&lt;Requested Scopes&gt;</text><line style="stroke:#181818;stroke-width:1;" x1="746.9463" x2="788.9463" y1="1078.3594" y2="1078.3594"/><line style="stroke:#181818;stroke-width:1;" x1="788.9463" x2="788.9463" y1="1078.3594" y2="1091.3594"/><line style="stroke:#181818;stroke-width:1;" x1="747.9463" x2="788.9463" y1="1091.3594" y2="1091.3594"/><polygon fill="#181818" points="757.9463,1087.3594,747.9463,1091.3594,757.9463,1095.3594,753.9463,1091.3594" style="stroke:#181818;stroke-width:1;"/><text fill="#000000" font-family="Helvetica" font-size="10" x="753.9463" y="1074.001">(12)</text><text fill="#000000" font-family="Helvetica" font-size="10" x="778.4736" y="1074.001">Validate subject_token (sig by SM(C)-B_PK, claims)</text><line style="stroke:#181818;stroke-width:1;" x1="746.9463" x2="788.9463" y1="1117" y2="1117"/><line style="stroke:#181818;stroke-width:1;" x1="788.9463" x2="788.9463" y1="1117" y2="1130"/><line style="stroke:#181818;stroke-width:1;" x1="747.9463" x2="788.9463" y1="1130" y2="1130"/><polygon fill="#181818" points="757.9463,1126,747.9463,1130,757.9463,1134,753.9463,1130" style="stroke:#181818;stroke-width:1;"/><text fill="#000000" font-family="Helvetica" font-size="10" x="753.9463" y="1112.6416">(13)</text><text fill="#000000" font-family="Helvetica" font-size="10" x="778.4736" y="1112.6416">Check if client_id is bound to the SM(C)-B identity (sub claim in subject_token)</text><polygon fill="#181818" points="724.9463,1181.2813,734.9463,1185.2813,724.9463,1189.2813,728.9463,1185.2813" style="stroke:#181818;stroke-width:1;"/><line style="stroke:#181818;stroke-width:1;" x1="89.293" x2="730.9463" y1="1185.2813" y2="1185.2813"/><text fill="#000000" font-family="Helvetica" font-size="10" x="96.293" y="1180.9229">(14)</text><text fill="#000000" font-family="Helvetica" font-size="10" x="120.8203" y="1180.9229">POST /token DPoP: &lt;signed_dpop_jwt&gt;</text><path d="M94.293,1198.2813 L94.293,1266.2813 L507.293,1266.2813 L507.293,1208.2813 L497.293,1198.2813 L94.293,1198.2813" fill="#ADD8E6" style="stroke:#181818;stroke-width:0.5;"/><path d="M497.293,1198.2813 L497.293,1208.2813 L507.293,1208.2813 L497.293,1198.2813" fill="#ADD8E6" style="stroke:#181818;stroke-width:0.5;"/><text fill="#000000" font-family="Helvetica" font-size="10" font-weight="bold" x="100.293" y="1212.5635">Token Exchange Request Body:</text><text fill="#000000" font-family="Helvetica" font-size="10" x="100.293" y="1224.2041">grant_type=refresh_token</text><text fill="#000000" font-family="Helvetica" font-size="10" x="100.293" y="1235.8447">&amp;refresh_token=&lt;Refresh_Token&gt;</text><text fill="#000000" font-family="Helvetica" font-size="10" x="100.293" y="1247.4854">&amp;client_assertion_type=urn:ietf:params:oauth:client-assertion-type:jwt-bearer</text><text fill="#000000" font-family="Helvetica" font-size="10" x="100.293" y="1259.126">&amp;client_assertion=&lt;Client_Assertion_JWT_for_Auth&gt;</text><line style="stroke:#181818;stroke-width:1;" x1="746.9463" x2="788.9463" y1="1289.125" y2="1289.125"/><line style="stroke:#181818;stroke-width:1;" x1="788.9463" x2="788.9463" y1="1289.125" y2="1302.125"/><line style="stroke:#181818;stroke-width:1;" x1="747.9463" x2="788.9463" y1="1302.125" y2="1302.125"/><polygon fill="#181818" points="757.9463,1298.125,747.9463,1302.125,757.9463,1306.125,753.9463,1302.125" style="stroke:#181818;stroke-width:1;"/><text fill="#000000" font-family="Helvetica" font-size="10" x="753.9463" y="1284.7666">(15)</text><text fill="#000000" font-family="Helvetica" font-size="10" x="778.4736" y="1284.7666">verify Refresh token and DPoP JWT</text><line style="stroke:#181818;stroke-width:1;" x1="746.9463" x2="788.9463" y1="1327.7656" y2="1327.7656"/><line style="stroke:#181818;stroke-width:1;" x1="788.9463" x2="788.9463" y1="1327.7656" y2="1340.7656"/><line style="stroke:#181818;stroke-width:1;" x1="747.9463" x2="788.9463" y1="1340.7656" y2="1340.7656"/><polygon fill="#181818" points="757.9463,1336.7656,747.9463,1340.7656,757.9463,1344.7656,753.9463,1340.7656" style="stroke:#181818;stroke-width:1;"/><text fill="#000000" font-family="Helvetica" font-size="10" x="753.9463" y="1323.4072">(16)</text><text fill="#000000" font-family="Helvetica" font-size="10" x="778.4736" y="1323.4072">invalidate Refresh token</text><line style="stroke:#181818;stroke-width:1;" x1="746.9463" x2="788.9463" y1="1380.4063" y2="1380.4063"/><line style="stroke:#181818;stroke-width:1;" x1="788.9463" x2="788.9463" y1="1380.4063" y2="1393.4063"/><line style="stroke:#181818;stroke-width:1;" x1="747.9463" x2="788.9463" y1="1393.4063" y2="1393.4063"/><polygon fill="#181818" points="757.9463,1389.4063,747.9463,1393.4063,757.9463,1397.4063,753.9463,1393.4063" style="stroke:#181818;stroke-width:1;"/><text fill="#000000" font-family="Helvetica" font-size="10" x="753.9463" y="1376.0479">(17)</text><text fill="#000000" font-family="Helvetica" font-size="10" x="778.4736" y="1376.0479">Validate client_assertion (sig by Client_Instance_PK, claims)</text><line style="stroke:#181818;stroke-width:1;" x1="746.9463" x2="788.9463" y1="1419.0469" y2="1419.0469"/><line style="stroke:#181818;stroke-width:1;" x1="788.9463" x2="788.9463" y1="1419.0469" y2="1432.0469"/><line style="stroke:#181818;stroke-width:1;" x1="747.9463" x2="788.9463" y1="1432.0469" y2="1432.0469"/><polygon fill="#181818" points="757.9463,1428.0469,747.9463,1432.0469,757.9463,1436.0469,753.9463,1432.0469" style="stroke:#181818;stroke-width:1;"/><text fill="#000000" font-family="Helvetica" font-size="10" x="753.9463" y="1414.6885">(18)</text><text fill="#000000" font-family="Helvetica" font-size="10" x="778.4736" y="1414.6885">Validate DPoP Proof JWT (sig by DPoP_Public_Key, claims)</text><path d="M49.293,1444.0469 L109.249,1444.0469 L109.249,1447.6875 L99.249,1457.6875 L49.293,1457.6875 L49.293,1444.0469" fill="#EEEEEE" style="stroke:#000000;stroke-width:1.5;"/><rect fill="none" height="606.5" style="stroke:#000000;stroke-width:1.5;" width="1149.5928" x="49.293" y="1444.0469"/><text fill="#000000" font-family="Helvetica" font-size="10" font-weight="bold" x="64.293" y="1454.3291">alt</text><text fill="#000000" font-family="Helvetica" font-size="10" font-weight="bold" x="124.249" y="1455.3291">[Validations Successful]</text><line style="stroke:#000000;stroke-width:1;stroke-dasharray:2.0,2.0;" x1="49.293" x2="1198.8857" y1="1928.0625" y2="1928.0625"/><text fill="#000000" font-family="Helvetica" font-size="10" font-weight="bold" x="54.293" y="1939.3447">[Validation Failed]</text><polygon fill="#181818" points="1160.8857,1481.3281,1170.8857,1485.3281,1160.8857,1489.3281,1164.8857,1485.3281" style="stroke:#181818;stroke-width:1;"/><line style="stroke:#181818;stroke-width:1;" x1="746.9463" x2="1166.8857" y1="1485.3281" y2="1485.3281"/><text fill="#000000" font-family="Helvetica" font-size="10" x="753.9463" y="1480.9697">(19)</text><text fill="#000000" font-family="Helvetica" font-size="10" x="778.4736" y="1480.9697">POST /v1/data/authz, body {  "input": {...}}</text><polygon fill="#181818" points="757.9463,1541.8906,747.9463,1545.8906,757.9463,1549.8906,753.9463,1545.8906" style="stroke:#181818;stroke-width:1;"/><line style="stroke:#181818;stroke-width:1;stroke-dasharray:2.0,2.0;" x1="751.9463" x2="1171.8857" y1="1545.8906" y2="1545.8906"/><text fill="#000000" font-family="Helvetica" font-size="10" x="763.9463" y="1524.0713">(20)</text><text fill="#000000" font-family="Helvetica" font-size="10" x="788.4736" y="1506.6104">200 OK, body {"allow": true,</text><text fill="#000000" font-family="Helvetica" font-size="10" x="794.8311" y="1518.251">"access_token_ttl": "360",</text><text fill="#000000" font-family="Helvetica" font-size="10" x="794.8311" y="1529.8916">"refresh_token_ttl": "43200",</text><text fill="#000000" font-family="Helvetica" font-size="10" x="794.8311" y="1541.5322">"scope": "RS specific scopes"}</text><path d="M68.293,1557.8906 L128.249,1557.8906 L128.249,1561.5313 L118.249,1571.5313 L68.293,1571.5313 L68.293,1557.8906" fill="#EEEEEE" style="stroke:#000000;stroke-width:1.5;"/><rect fill="none" height="345.1719" style="stroke:#000000;stroke-width:1.5;" width="1060.2432" x="68.293" y="1557.8906"/><text fill="#000000" font-family="Helvetica" font-size="10" font-weight="bold" x="83.293" y="1568.1729">alt</text><text fill="#000000" font-family="Helvetica" font-size="10" font-weight="bold" x="143.249" y="1569.1729">[Policy Decision allowed]</text><line style="stroke:#000000;stroke-width:1;stroke-dasharray:2.0,2.0;" x1="68.293" x2="1128.5361" y1="1774.5781" y2="1774.5781"/><text fill="#000000" font-family="Helvetica" font-size="10" font-weight="bold" x="73.293" y="1785.8604">[Policy Decision denied]</text><line style="stroke:#181818;stroke-width:1;" x1="746.9463" x2="788.9463" y1="1599.1719" y2="1599.1719"/><line style="stroke:#181818;stroke-width:1;" x1="788.9463" x2="788.9463" y1="1599.1719" y2="1612.1719"/><line style="stroke:#181818;stroke-width:1;" x1="747.9463" x2="788.9463" y1="1612.1719" y2="1612.1719"/><polygon fill="#181818" points="757.9463,1608.1719,747.9463,1612.1719,757.9463,1616.1719,753.9463,1612.1719" style="stroke:#181818;stroke-width:1;"/><text fill="#000000" font-family="Helvetica" font-size="10" x="753.9463" y="1594.8135">(21)</text><text fill="#000000" font-family="Helvetica" font-size="10" x="778.4736" y="1594.8135">Generate AS Access Token (AT) and Refresh Token (RT)</text><path d="M438.4707,1586.5313 L438.4707,1619.5313 L736.4707,1619.5313 L736.4707,1596.5313 L726.4707,1586.5313 L438.4707,1586.5313" fill="#FEFFDD" style="stroke:#181818;stroke-width:0.5;"/><path d="M726.4707,1586.5313 L726.4707,1596.5313 L736.4707,1596.5313 L726.4707,1586.5313" fill="#FEFFDD" style="stroke:#181818;stroke-width:0.5;"/><text fill="#000000" font-family="Helvetica" font-size="10" x="444.4707" y="1600.8135">AT is bound to DPoP key (cnf.jkt claim)</text><text fill="#000000" font-family="Helvetica" font-size="10" x="444.4707" y="1612.4541">AT contains claims about client_id and SM(C)-B Identity</text><line style="stroke:#181818;stroke-width:1;" x1="90.293" x2="100.293" y1="1642.4531" y2="1638.4531"/><line style="stroke:#181818;stroke-width:1;" x1="90.293" x2="100.293" y1="1642.4531" y2="1646.4531"/><line style="stroke:#181818;stroke-width:1;stroke-dasharray:2.0,2.0;" x1="89.293" x2="735.9463" y1="1642.4531" y2="1642.4531"/><text fill="#000000" font-family="Helvetica" font-size="10" x="106.293" y="1638.0947">(22)</text><text fill="#000000" font-family="Helvetica" font-size="10" x="130.8203" y="1638.0947">200 OK</text><path d="M751.9463,1655.4531 L751.9463,1758.4531 L1036.9463,1758.4531 L1036.9463,1665.4531 L1026.9463,1655.4531 L751.9463,1655.4531" fill="#90EE90" style="stroke:#181818;stroke-width:0.5;"/><path d="M1026.9463,1655.4531 L1026.9463,1665.4531 L1036.9463,1665.4531 L1026.9463,1655.4531" fill="#90EE90" style="stroke:#181818;stroke-width:0.5;"/><text fill="#000000" font-family="Helvetica" font-size="10" font-weight="bold" x="757.9463" y="1669.7354">Token Response Body:</text><text fill="#000000" font-family="Helvetica" font-size="10" x="757.9463" y="1681.376">{</text><text fill="#000000" font-family="Helvetica" font-size="10" x="764.3037" y="1693.0166">"access_token": "&lt;AS_Access_Token&gt;",</text><text fill="#000000" font-family="Helvetica" font-size="10" x="764.3037" y="1704.6572">"token_type": "DPoP", // Indicate DPoP is required</text><text fill="#000000" font-family="Helvetica" font-size="10" x="764.3037" y="1716.2979">"expires_in": 3600,</text><text fill="#000000" font-family="Helvetica" font-size="10" x="764.3037" y="1727.9385">"refresh_token": "&lt;AS_Refresh_Token&gt;" // Optional</text><text fill="#000000" font-family="Helvetica" font-size="10" x="764.3037" y="1739.5791">// ... other parameters</text><text fill="#000000" font-family="Helvetica" font-size="10" x="757.9463" y="1751.2197">}</text><line style="stroke:#181818;stroke-width:1;" x1="90.293" x2="100.293" y1="1810.8594" y2="1806.8594"/><line style="stroke:#181818;stroke-width:1;" x1="90.293" x2="100.293" y1="1810.8594" y2="1814.8594"/><line style="stroke:#181818;stroke-width:1;stroke-dasharray:2.0,2.0;" x1="89.293" x2="735.9463" y1="1810.8594" y2="1810.8594"/><text fill="#000000" font-family="Helvetica" font-size="10" x="106.293" y="1806.501">(23)</text><text fill="#000000" font-family="Helvetica" font-size="10" x="130.8203" y="1806.501">403 Forbidden</text><path d="M751.9463,1798.2188 L751.9463,1819.2188 L1106.9463,1819.2188 L1106.9463,1808.2188 L1096.9463,1798.2188 L751.9463,1798.2188" fill="#FEFFDD" style="stroke:#181818;stroke-width:0.5;"/><path d="M1096.9463,1798.2188 L1096.9463,1808.2188 L1106.9463,1808.2188 L1096.9463,1798.2188" fill="#FEFFDD" style="stroke:#181818;stroke-width:0.5;"/><text fill="#000000" font-family="Helvetica" font-size="10" x="757.9463" y="1812.501">The client can handle the error and decide whether to retry or not.</text><path d="M751.9463,1829.8594 L751.9463,1897.8594 L1002.9463,1897.8594 L1002.9463,1839.8594 L992.9463,1829.8594 L751.9463,1829.8594" fill="#FFC0CB" style="stroke:#181818;stroke-width:0.5;"/><path d="M992.9463,1829.8594 L992.9463,1839.8594 L1002.9463,1839.8594 L992.9463,1829.8594" fill="#FFC0CB" style="stroke:#181818;stroke-width:0.5;"/><text fill="#000000" font-family="Helvetica" font-size="10" font-weight="bold" x="757.9463" y="1844.1416">Error Response:</text><text fill="#000000" font-family="Helvetica" font-size="10" x="757.9463" y="1855.7822">{</text><text fill="#000000" font-family="Helvetica" font-size="10" x="764.3037" y="1867.4229">"error": "access_denied",</text><text fill="#000000" font-family="Helvetica" font-size="10" x="764.3037" y="1879.0635">"error_description": "Policy decision denied."</text><text fill="#000000" font-family="Helvetica" font-size="10" x="757.9463" y="1890.7041">}</text><line style="stroke:#181818;stroke-width:1;" x1="90.293" x2="100.293" y1="1964.3438" y2="1960.3438"/><line style="stroke:#181818;stroke-width:1;" x1="90.293" x2="100.293" y1="1964.3438" y2="1968.3438"/><line style="stroke:#181818;stroke-width:1;stroke-dasharray:2.0,2.0;" x1="89.293" x2="735.9463" y1="1964.3438" y2="1964.3438"/><text fill="#000000" font-family="Helvetica" font-size="10" x="106.293" y="1959.9854">(24)</text><text fill="#000000" font-family="Helvetica" font-size="10" x="130.8203" y="1959.9854">400 Bad Request</text><path d="M746.9463,1977.3438 L746.9463,2045.3438 L1052.9463,2045.3438 L1052.9463,1987.3438 L1042.9463,1977.3438 L746.9463,1977.3438" fill="#FFC0CB" style="stroke:#181818;stroke-width:0.5;"/><path d="M1042.9463,1977.3438 L1042.9463,1987.3438 L1052.9463,1987.3438 L1042.9463,1977.3438" fill="#FFC0CB" style="stroke:#181818;stroke-width:0.5;"/><text fill="#000000" font-family="Helvetica" font-size="10" font-weight="bold" x="752.9463" y="1991.626">Error Response:</text><text fill="#000000" font-family="Helvetica" font-size="10" x="752.9463" y="2003.2666">{</text><text fill="#000000" font-family="Helvetica" font-size="10" x="759.3037" y="2014.9072">"error": "invalid_grant", // Or "invalid_client"</text><text fill="#000000" font-family="Helvetica" font-size="10" x="759.3037" y="2026.5479">"error_description": "Token exchange validation failed."</text><text fill="#000000" font-family="Helvetica" font-size="10" x="752.9463" y="2038.1885">}</text><!--SRC=[pLZTRXkx4RxVfvZk0Hh9pje-IHgqWcD0bXN7nycnO2aDMWGGg5rAehNYwf1SsSf1tgPlqXVh3CdzquzpRbhqnhB8cU5mvfjlXcAvoMI-d705OUlih1q6UY7aYYcsX8HFMPwQzvaqG_6Dmyzd-pT_PKiE7tYwvaR4h2PpvMG-PJBJAnRpf9JkPRaINDLaKovdPjvD7d9jG6QIr_Oq_otdCkRtVCeL_NF9uiLCPRbCUbcQAVWo5wQkCDnMgExmAZXzyID1iqavJB8q2LwS1a7mfvLYioK3mxDlO5JEWw0R6ppsiyOhJB8d23_sRqBuwNgUQUDy0R3h0oMM__wNqXjj-18bFh8rbmbg0NY9V_P7NUYbWak3-qCcaysboXwbbG10Dp6eOiMayLB0jDFwAhsQ5KMpP33OLXeDFbaD_2J1IgmkT9j9oHTq9HAjlcNggnpTHDVCy4Us2RUqXfykhVpmKwlNZYx3e33kOjAL4y4DLtYjKR_tuTUxZtVN_mZgrxxEcKfsRrq_evkR-T2UChWQV9NqDLFY6pCYavWzjIRxErg3VgKoo58HRw0lPqBoUWXARrbQndQEQZA3DKj50efF5TTpCDc2asTUvlYu-Z-wAFxhG4znZ5CP3kZ6CTSQHgGTGkkNBwCsAieCPPIOpGtybDB79CsvJ_RHqJvTF869fUuS7Ncnt_qdG2Yq3ZiGdiVMYR58BiANS7eADrhdMD92WvbpSBkLbiudLcl4Kxx4K2wYcokOgWphmPtlhGppoGEFJM56I6s4oIdqbIsM9zPMTpYstexxCbbb0ftvVF_Hs-dcYQ3YAWnrXvK-VrgX_id9YJiHiskYLAnvKhiaCrwaMdimWex5nR1QVH4YSSJS-jERivGuXRkBNVNklJENGYP2pZ2hj5WBIfojk3l7-gmn_x_bGl44fbWAvFSzryXRU0y7F60sIzx4TmyjId3GG4XLJyV7Y1F-X4KXMKfOHWcaJ4G4mID2zCq98vK2QbELMJqjPh8fHriD-r64SYGnH5bcSiMRrgAB4g-bgAw97aRrrI0Rm2tVm8091IsAY0Dd_ocUCmmp-VEYXkuE1abhX4eqOHfZMEgIghKsSOauiOM8DHW4rV6kxEsrh_iZEBLv3Tng5DKkqS4ieVCINfsTmTqjIFuOMU4EE9tW1tSQg2oRKY1Wzqx1uM8zEjhITaMwDp95vHPr6veDOJx4EbaTFpoQ4i4XIsUqqH- - -ilRQlNXSO6hjQfVc8qLwzMm7pxjraEusRCMgpMj3Y8weuPT_7jIUhYdlCAvMLh5k-6elfW_M_w5tC72x0vtwxBaXwhqlOCjH2jCDZPrOsokQypZ6A7L3ghIEvnm_xshiM_R1h8_xIw91BRsimZOQwwE0sjY9_lxE3lOOkPzUpzYsk0FCkg-v5BBa76Q9xugLla4koOii6Y9R0hDM4u9YMXYOQmlbrZRRz_W-QtXXou2gkKIOxN7ltovRRSlmW9Tzc-HG1UxyGss58R8E9JBMclEDTUmhpysUAj670HKEBND6rhtxtlmrxT_Uzssz-l0ET4UJyPKWsEimOjcQyQYzZPtihw5bNkQ875alSoIJP7gcS8XP8nLpjyXDNLm2ffsxBofEnb31pjM82A1ZlKluWNZaFgVbRE9xjdTvomvTMl9TQDnCQsW7UtwjrjwT-w3DtR1So2ws2Fv1y_3g15kxXJ4EBDdIsV98vSLHV6SCISRbRAbtMZ2cV9Jyex5T-SUF6NX8T96OoouCMN_eeYXwzNlpaTCpRYfclVd-nilm_nSKieKWqeH5He9tftV5-c08IteYtgd1m-v4diT-3jDZyGtZQYMq2_ICBXzYPCPiKLxdvNUdCSB45CekO36fmazUeWZQHufga4aD4UO3HwHJvnD7DQQnxU3WAUQDwhftW-u1ygeMKB_sxhnitSTpOqboehxMeVn_mNu3aAZ0pWqYkccZBiBB3v-7EcYeJqwGguBF3Nqgh7fC02tlJzClpKi7ZQtDV8qcx7ZVEJlofAbRw-DfoDzvvPwfdcwCoqsdcdG6lJR1FUOPWMBzxWeX-f1OrzhZlMAYYYP4uhwhqSKduMrph3- -HJzOgU4XcyliRAI3ROsxCzobLDt-nqRvFVlzBX4lQYC1ysSRjWiT71iIxD7rA3V1bv-bTIhQrmyDYQbPldwxLdeTXj8BhRVl4QhNg1uYuJtGz0h7eifDcExg4FgenHN7x0htAKn6wmJlidlfF2QIwueXTrXystPwexQ5e4DBi1-QH-hlhPJFiKCTKSD0h9We06XXLF12Gu4BkrjVAIF8CwaOVXUz500XcgcncHqOi5UDvwzwfvN3vKYs9Kt9TCuMKSqCyLvzIejs0OvVuMuumsMQJwXjv9LJ5YD7baRdsbwBtia2LCO_9iRvzUuB1DHlH_hoZYSuP8U2pe94N7MCDq0Hk5Aa-X2stDNL4yihUdYAhrSCwm21PRewBSNNKfyBtybyjnaky4sY30LeecXUYRUdBs6zvcQY2JnmTwRa9MGYreg-ahXB5oauc0ME8dHdNqwd2lDq5iPtD6n4ZO4za7Yxf0qxt0I7huwD9XdL15Ap2IIYanIRjd47cUnIiPnDdwSSnjVX3y-EzK6S1jDdNZM9pQsOQqu3zupaHwAg7k4lq5yNxAaw8Z_jRZwHZAsNTP15cUtSZck_PZuNBXTPHK3AwohgqxjLGy7VkUT7mN_0G00]--></g></svg>