<svg xmlns="http://www.w3.org/2000/svg" xmlns:xlink="http://www.w3.org/1999/xlink" contentStyleType="text/css" data-diagram-type="SEQUENCE" height="2134px" preserveAspectRatio="none" style="width:1228px;height:2134px;background:#FFFFFF;" version="1.1" viewBox="0 0 1228 2134" width="1228px" zoomAndPan="magnify"><defs/><g><rect fill="#F8F8FF" height="2122.9063" style="stroke:#181818;stroke-width:0.5;" width="627.6787" x="39.793" y="6"/><text fill="#000000" font-family="Helvetica" font-size="10" font-weight="bold" x="345.1704" y="15.2822">LEI</text><rect fill="#E6E6FA" height="2106.2656" style="stroke:#181818;stroke-width:0.5;" width="409.3872" x="39.793" y="22.6406"/><text fill="#000000" font-family="Helvetica" font-size="10" font-weight="bold" x="205.3899" y="31.9229">Prim&#228;rsystem</text><rect fill="#F4A460" height="2089.625" style="stroke:#181818;stroke-width:0.5;" width="89" x="39.793" y="39.2813"/><text fill="#000000" font-family="Helvetica" font-size="10" font-weight="bold" x="51.793" y="48.5635">ZETA Client</text><rect fill="#C9FFC9" height="2122.9063" style="stroke:#181818;stroke-width:0.5;" width="542.7002" x="679.4717" y="6"/><text fill="#000000" font-family="Helvetica" font-size="10" font-weight="bold" x="926.4614" y="15.2822">Anbieter</text><rect fill="#F4A460" height="2106.2656" style="stroke:#181818;stroke-width:0.5;" width="542.7002" x="679.4717" y="22.6406"/><text fill="#000000" font-family="Helvetica" font-size="10" font-weight="bold" x="917.6772" y="31.9229">ZETA Guard</text><g><title>User</title><rect fill="#000000" fill-opacity="0.00000" height="1924.7031" width="8" x="15.8965" y="126.5625"/><line style="stroke:#181818;stroke-width:0.5;stroke-dasharray:5.0,5.0;" x1="19.3965" x2="19.3965" y1="126.5625" y2="2051.2656"/></g><g><title>ZETA</title><rect fill="#000000" fill-opacity="0.00000" height="1924.7031" width="8" x="80.793" y="126.5625"/><line style="stroke:#181818;stroke-width:0.5;stroke-dasharray:5.0,5.0;" x1="84.293" x2="84.293" y1="126.5625" y2="2051.2656"/></g><g><title/><rect fill="#FFFFFF" height="1884.0625" style="stroke:#181818;stroke-width:1;" width="10" x="79.293" y="162.2031"/></g><g><title>TPM</title><rect fill="#000000" fill-opacity="0.00000" height="1924.7031" width="8" x="416.0586" y="126.5625"/><line style="stroke:#181818;stroke-width:0.5;stroke-dasharray:5.0,5.0;" x1="419.5586" x2="419.5586" y1="126.5625" y2="2051.2656"/></g><g><title>Konnektor or</title><rect fill="#000000" fill-opacity="0.00000" height="1924.7031" width="8" x="501.1069" y="126.5625"/><line style="stroke:#181818;stroke-width:0.5;stroke-dasharray:5.0,5.0;" x1="504.6069" x2="504.6069" y1="126.5625" y2="2051.2656"/></g><g><title/><rect fill="#FFFFFF" height="76.9219" style="stroke:#181818;stroke-width:1;" width="10" x="499.6069" y="316.25"/></g><g><title>SM(C)-B</title><rect fill="#000000" fill-opacity="0.00000" height="1924.7031" width="8" x="632.8569" y="126.5625"/><line style="stroke:#181818;stroke-width:0.5;stroke-dasharray:5.0,5.0;" x1="636.3569" x2="636.3569" y1="126.5625" y2="2051.2656"/></g><g><title/><rect fill="#FFFFFF" height="25.6406" style="stroke:#181818;stroke-width:1;" width="10" x="631.3569" y="341.8906"/></g><g><title>PDP</title><rect fill="#000000" fill-opacity="0.00000" height="1924.7031" width="8" x="738.4463" y="126.5625"/><line style="stroke:#181818;stroke-width:0.5;stroke-dasharray:5.0,5.0;" x1="741.9463" x2="741.9463" y1="126.5625" y2="2051.2656"/></g><g><title/><rect fill="#FFFFFF" height="25.6406" style="stroke:#181818;stroke-width:1;" width="10" x="736.9463" y="471.4531"/></g><g><title/><rect fill="#FFFFFF" height="1024.75" style="stroke:#181818;stroke-width:1;" width="10" x="736.9463" y="916.3125"/></g><g><title>PDP</title><rect fill="#000000" fill-opacity="0.00000" height="1924.7031" width="8" x="1174.3857" y="126.5625"/><line style="stroke:#181818;stroke-width:0.5;stroke-dasharray:5.0,5.0;" x1="1177.8857" x2="1177.8857" y1="126.5625" y2="2051.2656"/></g><g><title/><rect fill="#FFFFFF" height="60.5625" style="stroke:#181818;stroke-width:1;" width="10" x="1172.8857" y="1462.0469"/></g><text fill="#000000" font-family="Helvetica" font-size="10" x="5" y="124.2041">User</text><ellipse cx="19.3965" cy="63.4219" fill="#E2E2F0" rx="8" ry="8" style="stroke:#181818;stroke-width:0.5;"/><path d="M19.3965,71.4219 L19.3965,98.4219 M6.3965,79.4219 L32.3965,79.4219 M19.3965,98.4219 L6.3965,113.4219 M19.3965,98.4219 L32.3965,113.4219" fill="none" style="stroke:#181818;stroke-width:0.5;"/><rect fill="#E2E2F0" height="37.2813" rx="2.5" ry="2.5" style="stroke:#181818;stroke-width:0.5;" width="42.9502" x="62.8179" y="88.2813"/><text fill="#000000" font-family="Helvetica" font-size="10" x="71.2339" y="104.5635">ZETA</text><text fill="#000000" font-family="Helvetica" font-size="10" x="69.8179" y="116.2041">Client</text><rect fill="#E2E2F0" height="25.6406" rx="2.5" ry="2.5" style="stroke:#181818;stroke-width:0.5;" width="34.7666" x="402.1753" y="99.9219"/><text fill="#000000" font-family="Helvetica" font-size="10" x="409.1753" y="116.2041">TPM</text><rect fill="#E2E2F0" height="37.2813" rx="2.5" ry="2.5" style="stroke:#181818;stroke-width:0.5;" width="78.8535" x="465.1802" y="88.2813"/><text fill="#000000" font-family="Helvetica" font-size="10" x="472.1802" y="104.5635">Konnektor or</text><text fill="#000000" font-family="Helvetica" font-size="10" x="476.1865" y="116.2041">TI-Gateway</text><rect fill="#E2E2F0" height="25.6406" rx="2.5" ry="2.5" style="stroke:#181818;stroke-width:0.5;" width="54.2295" x="609.2422" y="99.9219"/><text fill="#000000" font-family="Helvetica" font-size="10" x="616.2422" y="116.2041">SM(C)-B</text><rect fill="#E2E2F0" height="37.2813" rx="2.5" ry="2.5" style="stroke:#181818;stroke-width:0.5;" width="116.9492" x="683.4717" y="88.2813"/><text fill="#000000" font-family="Helvetica" font-size="10" x="732.0659" y="104.5635">PDP</text><text fill="#000000" font-family="Helvetica" font-size="10" x="690.4717" y="116.2041">Authorization Server</text><rect fill="#E2E2F0" height="37.2813" rx="2.5" ry="2.5" style="stroke:#181818;stroke-width:0.5;" width="80.5723" x="1137.5996" y="88.2813"/><text fill="#000000" font-family="Helvetica" font-size="10" x="1168.0054" y="104.5635">PDP</text><text fill="#000000" font-family="Helvetica" font-size="10" x="1144.5996" y="116.2041">Policy Engine</text><text fill="#000000" font-family="Helvetica" font-size="10" x="5" y="2120.5479">User</text><ellipse cx="19.3965" cy="2059.7656" fill="#E2E2F0" rx="8" ry="8" style="stroke:#181818;stroke-width:0.5;"/><path d="M19.3965,2067.7656 L19.3965,2094.7656 M6.3965,2075.7656 L32.3965,2075.7656 M19.3965,2094.7656 L6.3965,2109.7656 M19.3965,2094.7656 L32.3965,2109.7656" fill="none" style="stroke:#181818;stroke-width:0.5;"/><rect fill="#E2E2F0" height="37.2813" rx="2.5" ry="2.5" style="stroke:#181818;stroke-width:0.5;" width="42.9502" x="62.8179" y="2051.2656"/><text fill="#000000" font-family="Helvetica" font-size="10" x="71.2339" y="2067.5479">ZETA</text><text fill="#000000" font-family="Helvetica" font-size="10" x="69.8179" y="2079.1885">Client</text><rect fill="#E2E2F0" height="25.6406" rx="2.5" ry="2.5" style="stroke:#181818;stroke-width:0.5;" width="34.7666" x="402.1753" y="2051.2656"/><text fill="#000000" font-family="Helvetica" font-size="10" x="409.1753" y="2067.5479">TPM</text><rect fill="#E2E2F0" height="37.2813" rx="2.5" ry="2.5" style="stroke:#181818;stroke-width:0.5;" width="78.8535" x="465.1802" y="2051.2656"/><text fill="#000000" font-family="Helvetica" font-size="10" x="472.1802" y="2067.5479">Konnektor or</text><text fill="#000000" font-family="Helvetica" font-size="10" x="476.1865" y="2079.1885">TI-Gateway</text><rect fill="#E2E2F0" height="25.6406" rx="2.5" ry="2.5" style="stroke:#181818;stroke-width:0.5;" width="54.2295" x="609.2422" y="2051.2656"/><text fill="#000000" font-family="Helvetica" font-size="10" x="616.2422" y="2067.5479">SM(C)-B</text><rect fill="#E2E2F0" height="37.2813" rx="2.5" ry="2.5" style="stroke:#181818;stroke-width:0.5;" width="116.9492" x="683.4717" y="2051.2656"/><text fill="#000000" font-family="Helvetica" font-size="10" x="732.0659" y="2067.5479">PDP</text><text fill="#000000" font-family="Helvetica" font-size="10" x="690.4717" y="2079.1885">Authorization Server</text><rect fill="#E2E2F0" height="37.2813" rx="2.5" ry="2.5" style="stroke:#181818;stroke-width:0.5;" width="80.5723" x="1137.5996" y="2051.2656"/><text fill="#000000" font-family="Helvetica" font-size="10" x="1168.0054" y="2067.5479">PDP</text><text fill="#000000" font-family="Helvetica" font-size="10" x="1144.5996" y="2079.1885">Policy Engine</text><path d="M63.293,138.5625 L123.249,138.5625 L123.249,142.2031 L113.249,152.2031 L63.293,152.2031 L63.293,138.5625" fill="#EEEEEE" style="stroke:#000000;stroke-width:1.5;"/><rect fill="none" height="301.25" style="stroke:#000000;stroke-width:1.5;" width="636.6592" x="63.293" y="138.5625"/><text fill="#000000" font-family="Helvetica" font-size="10" font-weight="bold" x="78.293" y="148.8447">alt</text><text fill="#000000" font-family="Helvetica" font-size="10" font-weight="bold" x="138.249" y="149.8447">[Client has no valid refresh token]</text><line style="stroke:#181818;stroke-width:1;" x1="89.293" x2="131.293" y1="179.8438" y2="179.8438"/><line style="stroke:#181818;stroke-width:1;" x1="131.293" x2="131.293" y1="179.8438" y2="192.8438"/><line style="stroke:#181818;stroke-width:1;" x1="90.293" x2="131.293" y1="192.8438" y2="192.8438"/><polygon fill="#181818" points="100.293,188.8438,90.293,192.8438,100.293,196.8438,96.293,192.8438" style="stroke:#181818;stroke-width:1;"/><text fill="#000000" font-family="Helvetica" font-size="10" x="96.293" y="175.4854">(01)</text><text fill="#000000" font-family="Helvetica" font-size="10" x="120.8203" y="175.4854">Create "SM(C)-B Access Token" (JWT)</text><path d="M320.0762,167.2031 L320.0762,293.2031 L678.0762,293.2031 L678.0762,177.2031 L668.0762,167.2031 L320.0762,167.2031" fill="#ADD8E6" style="stroke:#181818;stroke-width:0.5;"/><path d="M668.0762,167.2031 L668.0762,177.2031 L678.0762,177.2031 L668.0762,167.2031" fill="#ADD8E6" style="stroke:#181818;stroke-width:0.5;"/><text fill="#000000" font-family="Helvetica" font-size="10" font-weight="bold" x="326.0762" y="181.4854">SM(C)-B Access Token Claims:</text><text fill="#000000" font-family="Helvetica" font-size="10" x="326.0762" y="193.126">{</text><text fill="#000000" font-family="Helvetica" font-size="10" x="332.4336" y="204.7666">"iss": "&lt;client_id&gt;", // Issuer is the client</text><text fill="#000000" font-family="Helvetica" font-size="10" x="332.4336" y="216.4072">"sub": "&lt;Telematik-ID from SM(C)-B&gt;", // Subject is the institution</text><text fill="#000000" font-family="Helvetica" font-size="10" x="332.4336" y="228.0479">"aud": "&lt;AS_Token_Endpoint_URL&gt;", // Audience is the AS</text><text fill="#000000" font-family="Helvetica" font-size="10" x="332.4336" y="239.6885">"exp": ..., // Short-lived</text><text fill="#000000" font-family="Helvetica" font-size="10" x="332.4336" y="251.3291">"iat": ...,</text><text fill="#000000" font-family="Helvetica" font-size="10" x="332.4336" y="262.9697">"jti": "...",</text><text fill="#000000" font-family="Helvetica" font-size="10" x="332.4336" y="274.6104">"scope": ... // As required for the Resource Server access</text><text fill="#000000" font-family="Helvetica" font-size="10" x="326.0762" y="286.251">}</text><polygon fill="#181818" points="487.6069,312.25,497.6069,316.25,487.6069,320.25,491.6069,316.25" style="stroke:#181818;stroke-width:1;"/><line style="stroke:#181818;stroke-width:1;" x1="89.293" x2="493.6069" y1="316.25" y2="316.25"/><text fill="#000000" font-family="Helvetica" font-size="10" x="96.293" y="311.8916">(02)</text><text fill="#000000" font-family="Helvetica" font-size="10" x="120.8203" y="311.8916">externalAuthenticate (JWT-hash)</text><polygon fill="#181818" points="619.3569,337.8906,629.3569,341.8906,619.3569,345.8906,623.3569,341.8906" style="stroke:#181818;stroke-width:1;"/><line style="stroke:#181818;stroke-width:1;" x1="509.6069" x2="625.3569" y1="341.8906" y2="341.8906"/><text fill="#000000" font-family="Helvetica" font-size="10" x="516.6069" y="337.5322">(03)</text><text fill="#000000" font-family="Helvetica" font-size="10" x="541.1343" y="337.5322">sign (JWT-hash)</text><polygon fill="#181818" points="520.6069,363.5313,510.6069,367.5313,520.6069,371.5313,516.6069,367.5313" style="stroke:#181818;stroke-width:1;"/><line style="stroke:#181818;stroke-width:1;" x1="514.6069" x2="630.3569" y1="367.5313" y2="367.5313"/><text fill="#000000" font-family="Helvetica" font-size="10" x="526.6069" y="363.1729">(04)</text><text fill="#000000" font-family="Helvetica" font-size="10" x="551.1343" y="363.1729">JWT-Signature</text><line style="stroke:#181818;stroke-width:1;" x1="90.293" x2="100.293" y1="393.1719" y2="389.1719"/><line style="stroke:#181818;stroke-width:1;" x1="90.293" x2="100.293" y1="393.1719" y2="397.1719"/><line style="stroke:#181818;stroke-width:1;stroke-dasharray:2.0,2.0;" x1="89.293" x2="498.6069" y1="393.1719" y2="393.1719"/><text fill="#000000" font-family="Helvetica" font-size="10" x="106.293" y="388.8135">(05)</text><text fill="#000000" font-family="Helvetica" font-size="10" x="130.8203" y="388.8135">JWT-signature</text><line style="stroke:#181818;stroke-width:1;" x1="89.293" x2="131.293" y1="418.8125" y2="418.8125"/><line style="stroke:#181818;stroke-width:1;" x1="131.293" x2="131.293" y1="418.8125" y2="431.8125"/><line style="stroke:#181818;stroke-width:1;" x1="90.293" x2="131.293" y1="431.8125" y2="431.8125"/><polygon fill="#181818" points="100.293,427.8125,90.293,431.8125,100.293,435.8125,96.293,431.8125" style="stroke:#181818;stroke-width:1;"/><text fill="#000000" font-family="Helvetica" font-size="10" x="96.293" y="414.4541">(06)</text><text fill="#000000" font-family="Helvetica" font-size="10" x="120.8203" y="414.4541">Create DPoP Key Pair (for Token Exchange)</text><polygon fill="#181818" points="724.9463,467.4531,734.9463,471.4531,724.9463,475.4531,728.9463,471.4531" style="stroke:#181818;stroke-width:1;"/><line style="stroke:#181818;stroke-width:1;" x1="89.293" x2="730.9463" y1="471.4531" y2="471.4531"/><text fill="#000000" font-family="Helvetica" font-size="10" x="96.293" y="467.0947">(07)</text><text fill="#000000" font-family="Helvetica" font-size="10" x="120.8203" y="467.0947">GET /nonce</text><polygon fill="#181818" points="100.293,493.0938,90.293,497.0938,100.293,501.0938,96.293,497.0938" style="stroke:#181818;stroke-width:1;"/><line style="stroke:#181818;stroke-width:1;stroke-dasharray:2.0,2.0;" x1="94.293" x2="735.9463" y1="497.0938" y2="497.0938"/><text fill="#000000" font-family="Helvetica" font-size="10" x="106.293" y="492.7354">(08)</text><text fill="#000000" font-family="Helvetica" font-size="10" x="130.8203" y="492.7354">return 200 OK new-nonce: nonce</text><line style="stroke:#181818;stroke-width:1;" x1="89.293" x2="131.293" y1="522.7344" y2="522.7344"/><line style="stroke:#181818;stroke-width:1;" x1="131.293" x2="131.293" y1="522.7344" y2="535.7344"/><line style="stroke:#181818;stroke-width:1;" x1="90.293" x2="131.293" y1="535.7344" y2="535.7344"/><polygon fill="#181818" points="100.293,531.7344,90.293,535.7344,100.293,539.7344,96.293,535.7344" style="stroke:#181818;stroke-width:1;"/><text fill="#000000" font-family="Helvetica" font-size="10" x="96.293" y="518.376">(09)</text><text fill="#000000" font-family="Helvetica" font-size="10" x="120.8203" y="518.376">Create DPoP Proof JWT for Token Exchange</text><path d="M349.3584,510.0938 L349.3584,717.0938 L627.3584,717.0938 L627.3584,520.0938 L617.3584,510.0938 L349.3584,510.0938" fill="#ADD8E6" style="stroke:#181818;stroke-width:0.5;"/><path d="M617.3584,510.0938 L617.3584,520.0938 L627.3584,520.0938 L617.3584,510.0938" fill="#ADD8E6" style="stroke:#181818;stroke-width:0.5;"/><text fill="#000000" font-family="Helvetica" font-size="10" font-weight="bold" x="355.3584" y="524.376">DPoP Proof JWT Claims (for Token Exchange):</text><text fill="#000000" font-family="Helvetica" font-size="10" x="355.3584" y="536.0166">{</text><text fill="#000000" font-family="Helvetica" font-size="10" x="361.7158" y="547.6572">"typ": "dpop+jwt",</text><text fill="#000000" font-family="Helvetica" font-size="10" x="361.7158" y="559.2979">"alg": "ES256",</text><text fill="#000000" font-family="Helvetica" font-size="10" x="361.7158" y="570.9385">"jwk": {</text><text fill="#000000" font-family="Helvetica" font-size="10" x="368.0732" y="582.5791">"kty": "EC",</text><text fill="#000000" font-family="Helvetica" font-size="10" x="368.0732" y="594.2197">"x": "...",</text><text fill="#000000" font-family="Helvetica" font-size="10" x="368.0732" y="605.8604">"y": "...",</text><text fill="#000000" font-family="Helvetica" font-size="10" x="368.0732" y="617.501">"crv": "P-256"</text><text fill="#000000" font-family="Helvetica" font-size="10" x="361.7158" y="629.1416">}</text><text fill="#000000" font-family="Helvetica" font-size="10" x="355.3584" y="640.7822">}.{</text><text fill="#000000" font-family="Helvetica" font-size="10" x="361.7158" y="652.4229">"jti": "...",</text><text fill="#000000" font-family="Helvetica" font-size="10" x="361.7158" y="664.0635">"htm": "POST",</text><text fill="#000000" font-family="Helvetica" font-size="10" x="361.7158" y="675.7041">"htu": "&lt;AS_Token_Endpoint_URL&gt;",</text><text fill="#000000" font-family="Helvetica" font-size="10" x="361.7158" y="687.3447">"nonce": "&lt;Challenge from AS&gt;", // Binding to AS</text><text fill="#000000" font-family="Helvetica" font-size="10" x="361.7158" y="698.9854">"iat": ...</text><text fill="#000000" font-family="Helvetica" font-size="10" x="355.3584" y="710.626">}.(sig by DPoP_Private_Key)</text><line style="stroke:#181818;stroke-width:1;" x1="89.293" x2="131.293" y1="740.625" y2="740.625"/><line style="stroke:#181818;stroke-width:1;" x1="131.293" x2="131.293" y1="740.625" y2="753.625"/><line style="stroke:#181818;stroke-width:1;" x1="90.293" x2="131.293" y1="753.625" y2="753.625"/><polygon fill="#181818" points="100.293,749.625,90.293,753.625,100.293,757.625,96.293,753.625" style="stroke:#181818;stroke-width:1;"/><text fill="#000000" font-family="Helvetica" font-size="10" x="96.293" y="736.2666">(10)</text><text fill="#000000" font-family="Helvetica" font-size="10" x="120.8203" y="736.2666">Create Client Assertion JWT for Token Exchange (for Auth)</text><path d="M424.5586,727.9844 L424.5586,865.9844 L753.5586,865.9844 L753.5586,737.9844 L743.5586,727.9844 L424.5586,727.9844" fill="#ADD8E6" style="stroke:#181818;stroke-width:0.5;"/><path d="M743.5586,727.9844 L743.5586,737.9844 L753.5586,737.9844 L743.5586,727.9844" fill="#ADD8E6" style="stroke:#181818;stroke-width:0.5;"/><text fill="#000000" font-family="Helvetica" font-size="10" font-weight="bold" x="430.5586" y="742.2666">Client Assertion JWT Claims (for Auth):</text><text fill="#000000" font-family="Helvetica" font-size="10" x="430.5586" y="753.9072">{</text><text fill="#000000" font-family="Helvetica" font-size="10" x="436.916" y="765.5479">"iss": "&lt;client_id&gt;",</text><text fill="#000000" font-family="Helvetica" font-size="10" x="436.916" y="777.1885">"sub": "&lt;client_id&gt;",</text><text fill="#000000" font-family="Helvetica" font-size="10" x="436.916" y="788.8291">"aud": "&lt;AS_Token_Endpoint_URL&gt;",</text><text fill="#000000" font-family="Helvetica" font-size="10" x="436.916" y="800.4697">"exp": ..., // Short-lived</text><text fill="#000000" font-family="Helvetica" font-size="10" x="436.916" y="812.1104">"jti": "...",</text><text fill="#000000" font-family="Helvetica" font-size="10" x="436.916" y="823.751">// Include DPoP public key hash</text><text fill="#000000" font-family="Helvetica" font-size="10" x="436.916" y="835.3916">"cnf": { "jkt": "&lt;Base64URL(SHA256(DPoP_Public_JWK))&gt;" }</text><text fill="#000000" font-family="Helvetica" font-size="10" x="430.5586" y="847.0322">}</text><text fill="#000000" font-family="Helvetica" font-size="10" x="430.5586" y="858.6729">(sig by Client_Instance_Private_Key)</text><path d="M68.293,875.0313 L128.249,875.0313 L128.249,878.6719 L118.249,888.6719 L68.293,888.6719 L68.293,875.0313" fill="#EEEEEE" style="stroke:#000000;stroke-width:1.5;"/><rect fill="none" height="450.4531" style="stroke:#000000;stroke-width:1.5;" width="1125.5928" x="68.293" y="875.0313"/><text fill="#000000" font-family="Helvetica" font-size="10" font-weight="bold" x="83.293" y="885.3135">alt</text><text fill="#000000" font-family="Helvetica" font-size="10" font-weight="bold" x="143.249" y="886.3135">[Client uses SM(C)-B Access Token]</text><line style="stroke:#000000;stroke-width:1;stroke-dasharray:2.0,2.0;" x1="68.293" x2="1193.8857" y1="1125.7188" y2="1125.7188"/><text fill="#000000" font-family="Helvetica" font-size="10" font-weight="bold" x="73.293" y="1137.001">[Client uses Refresh Token]</text><polygon fill="#181818" points="724.9463,912.3125,734.9463,916.3125,724.9463,920.3125,728.9463,916.3125" style="stroke:#181818;stroke-width:1;"/><line style="stroke:#181818;stroke-width:1;" x1="89.293" x2="730.9463" y1="916.3125" y2="916.3125"/><text fill="#000000" font-family="Helvetica" font-size="10" x="96.293" y="911.9541">(11)</text><text fill="#000000" font-family="Helvetica" font-size="10" x="120.8203" y="911.9541">POST /token (RFC 8693) DPoP: &lt;signed_dpop_jwt&gt;</text><path d="M94.293,929.3125 L94.293,1032.3125 L507.293,1032.3125 L507.293,939.3125 L497.293,929.3125 L94.293,929.3125" fill="#ADD8E6" style="stroke:#181818;stroke-width:0.5;"/><path d="M497.293,929.3125 L497.293,939.3125 L507.293,939.3125 L497.293,929.3125" fill="#ADD8E6" style="stroke:#181818;stroke-width:0.5;"/><text fill="#000000" font-family="Helvetica" font-size="10" font-weight="bold" x="100.293" y="943.5947">Token Exchange Request Body:</text><text fill="#000000" font-family="Helvetica" font-size="10" x="100.293" y="955.2354">grant_type=urn:ietf:params:oauth:grant-type:token-exchange</text><text fill="#000000" font-family="Helvetica" font-size="10" x="100.293" y="966.876">&amp;subject_token=&lt;SM(C)-B_Access_Token&gt;</text><text fill="#000000" font-family="Helvetica" font-size="10" x="100.293" y="978.5166">&amp;subject_token_type=urn:ietf:params:oauth:token-type:jwt // Or custom</text><text fill="#000000" font-family="Helvetica" font-size="10" x="100.293" y="990.1572">&amp;client_assertion_type=urn:ietf:params:oauth:client-assertion-type:jwt-bearer</text><text fill="#000000" font-family="Helvetica" font-size="10" x="100.293" y="1001.7979">&amp;client_assertion=&lt;Client_Assertion_JWT_for_Auth&gt;</text><text fill="#000000" font-family="Helvetica" font-size="10" x="100.293" y="1013.4385">&amp;resource=&lt;Target Resource URI&gt;</text><text fill="#000000" font-family="Helvetica" font-size="10" x="100.293" y="1025.0791">&amp;scope=&lt;Requested Scopes&gt;</text><line style="stroke:#181818;stroke-width:1;" x1="746.9463" x2="788.9463" y1="1055.0781" y2="1055.0781"/><line style="stroke:#181818;stroke-width:1;" x1="788.9463" x2="788.9463" y1="1055.0781" y2="1068.0781"/><line style="stroke:#181818;stroke-width:1;" x1="747.9463" x2="788.9463" y1="1068.0781" y2="1068.0781"/><polygon fill="#181818" points="757.9463,1064.0781,747.9463,1068.0781,757.9463,1072.0781,753.9463,1068.0781" style="stroke:#181818;stroke-width:1;"/><text fill="#000000" font-family="Helvetica" font-size="10" x="753.9463" y="1050.7197">(12)</text><text fill="#000000" font-family="Helvetica" font-size="10" x="778.4736" y="1050.7197">Validate subject_token (sig by SM(C)-B_PK, claims)</text><line style="stroke:#181818;stroke-width:1;" x1="746.9463" x2="788.9463" y1="1093.7188" y2="1093.7188"/><line style="stroke:#181818;stroke-width:1;" x1="788.9463" x2="788.9463" y1="1093.7188" y2="1106.7188"/><line style="stroke:#181818;stroke-width:1;" x1="747.9463" x2="788.9463" y1="1106.7188" y2="1106.7188"/><polygon fill="#181818" points="757.9463,1102.7188,747.9463,1106.7188,757.9463,1110.7188,753.9463,1106.7188" style="stroke:#181818;stroke-width:1;"/><text fill="#000000" font-family="Helvetica" font-size="10" x="753.9463" y="1089.3604">(13)</text><text fill="#000000" font-family="Helvetica" font-size="10" x="778.4736" y="1089.3604">Check if client_id is bound to the SM(C)-B identity (sub claim in subject_token)</text><polygon fill="#181818" points="724.9463,1158,734.9463,1162,724.9463,1166,728.9463,1162" style="stroke:#181818;stroke-width:1;"/><line style="stroke:#181818;stroke-width:1;" x1="89.293" x2="730.9463" y1="1162" y2="1162"/><text fill="#000000" font-family="Helvetica" font-size="10" x="96.293" y="1157.6416">(14)</text><text fill="#000000" font-family="Helvetica" font-size="10" x="120.8203" y="1157.6416">POST /token DPoP: &lt;signed_dpop_jwt&gt;</text><path d="M94.293,1175 L94.293,1243 L507.293,1243 L507.293,1185 L497.293,1175 L94.293,1175" fill="#ADD8E6" style="stroke:#181818;stroke-width:0.5;"/><path d="M497.293,1175 L497.293,1185 L507.293,1185 L497.293,1175" fill="#ADD8E6" style="stroke:#181818;stroke-width:0.5;"/><text fill="#000000" font-family="Helvetica" font-size="10" font-weight="bold" x="100.293" y="1189.2822">Token Exchange Request Body:</text><text fill="#000000" font-family="Helvetica" font-size="10" x="100.293" y="1200.9229">grant_type=refresh_token</text><text fill="#000000" font-family="Helvetica" font-size="10" x="100.293" y="1212.5635">&amp;refresh_token=&lt;Refresh_Token&gt;</text><text fill="#000000" font-family="Helvetica" font-size="10" x="100.293" y="1224.2041">&amp;client_assertion_type=urn:ietf:params:oauth:client-assertion-type:jwt-bearer</text><text fill="#000000" font-family="Helvetica" font-size="10" x="100.293" y="1235.8447">&amp;client_assertion=&lt;Client_Assertion_JWT_for_Auth&gt;</text><line style="stroke:#181818;stroke-width:1;" x1="746.9463" x2="788.9463" y1="1265.8438" y2="1265.8438"/><line style="stroke:#181818;stroke-width:1;" x1="788.9463" x2="788.9463" y1="1265.8438" y2="1278.8438"/><line style="stroke:#181818;stroke-width:1;" x1="747.9463" x2="788.9463" y1="1278.8438" y2="1278.8438"/><polygon fill="#181818" points="757.9463,1274.8438,747.9463,1278.8438,757.9463,1282.8438,753.9463,1278.8438" style="stroke:#181818;stroke-width:1;"/><text fill="#000000" font-family="Helvetica" font-size="10" x="753.9463" y="1261.4854">(15)</text><text fill="#000000" font-family="Helvetica" font-size="10" x="778.4736" y="1261.4854">verify Refresh token and DPoP JWT</text><line style="stroke:#181818;stroke-width:1;" x1="746.9463" x2="788.9463" y1="1304.4844" y2="1304.4844"/><line style="stroke:#181818;stroke-width:1;" x1="788.9463" x2="788.9463" y1="1304.4844" y2="1317.4844"/><line style="stroke:#181818;stroke-width:1;" x1="747.9463" x2="788.9463" y1="1317.4844" y2="1317.4844"/><polygon fill="#181818" points="757.9463,1313.4844,747.9463,1317.4844,757.9463,1321.4844,753.9463,1317.4844" style="stroke:#181818;stroke-width:1;"/><text fill="#000000" font-family="Helvetica" font-size="10" x="753.9463" y="1300.126">(16)</text><text fill="#000000" font-family="Helvetica" font-size="10" x="778.4736" y="1300.126">invalidate Refresh token</text><line style="stroke:#181818;stroke-width:1;" x1="746.9463" x2="788.9463" y1="1357.125" y2="1357.125"/><line style="stroke:#181818;stroke-width:1;" x1="788.9463" x2="788.9463" y1="1357.125" y2="1370.125"/><line style="stroke:#181818;stroke-width:1;" x1="747.9463" x2="788.9463" y1="1370.125" y2="1370.125"/><polygon fill="#181818" points="757.9463,1366.125,747.9463,1370.125,757.9463,1374.125,753.9463,1370.125" style="stroke:#181818;stroke-width:1;"/><text fill="#000000" font-family="Helvetica" font-size="10" x="753.9463" y="1352.7666">(17)</text><text fill="#000000" font-family="Helvetica" font-size="10" x="778.4736" y="1352.7666">Validate client_assertion (sig by Client_Instance_PK, claims)</text><line style="stroke:#181818;stroke-width:1;" x1="746.9463" x2="788.9463" y1="1395.7656" y2="1395.7656"/><line style="stroke:#181818;stroke-width:1;" x1="788.9463" x2="788.9463" y1="1395.7656" y2="1408.7656"/><line style="stroke:#181818;stroke-width:1;" x1="747.9463" x2="788.9463" y1="1408.7656" y2="1408.7656"/><polygon fill="#181818" points="757.9463,1404.7656,747.9463,1408.7656,757.9463,1412.7656,753.9463,1408.7656" style="stroke:#181818;stroke-width:1;"/><text fill="#000000" font-family="Helvetica" font-size="10" x="753.9463" y="1391.4072">(18)</text><text fill="#000000" font-family="Helvetica" font-size="10" x="778.4736" y="1391.4072">Validate DPoP Proof JWT (sig by DPoP_Public_Key, claims)</text><path d="M49.293,1420.7656 L109.249,1420.7656 L109.249,1424.4063 L99.249,1434.4063 L49.293,1434.4063 L49.293,1420.7656" fill="#EEEEEE" style="stroke:#000000;stroke-width:1.5;"/><rect fill="none" height="606.5" style="stroke:#000000;stroke-width:1.5;" width="1149.5928" x="49.293" y="1420.7656"/><text fill="#000000" font-family="Helvetica" font-size="10" font-weight="bold" x="64.293" y="1431.0479">alt</text><text fill="#000000" font-family="Helvetica" font-size="10" font-weight="bold" x="124.249" y="1432.0479">[Validations Successful]</text><line style="stroke:#000000;stroke-width:1;stroke-dasharray:2.0,2.0;" x1="49.293" x2="1198.8857" y1="1904.7813" y2="1904.7813"/><text fill="#000000" font-family="Helvetica" font-size="10" font-weight="bold" x="54.293" y="1916.0635">[Validation Failed]</text><polygon fill="#181818" points="1160.8857,1458.0469,1170.8857,1462.0469,1160.8857,1466.0469,1164.8857,1462.0469" style="stroke:#181818;stroke-width:1;"/><line style="stroke:#181818;stroke-width:1;" x1="746.9463" x2="1166.8857" y1="1462.0469" y2="1462.0469"/><text fill="#000000" font-family="Helvetica" font-size="10" x="753.9463" y="1457.6885">(19)</text><text fill="#000000" font-family="Helvetica" font-size="10" x="778.4736" y="1457.6885">POST /v1/data/authz, body {  "input": {...}}</text><polygon fill="#181818" points="757.9463,1518.6094,747.9463,1522.6094,757.9463,1526.6094,753.9463,1522.6094" style="stroke:#181818;stroke-width:1;"/><line style="stroke:#181818;stroke-width:1;stroke-dasharray:2.0,2.0;" x1="751.9463" x2="1171.8857" y1="1522.6094" y2="1522.6094"/><text fill="#000000" font-family="Helvetica" font-size="10" x="763.9463" y="1500.79">(20)</text><text fill="#000000" font-family="Helvetica" font-size="10" x="788.4736" y="1483.3291">200 OK, body {"allow": true,</text><text fill="#000000" font-family="Helvetica" font-size="10" x="794.8311" y="1494.9697">"access_token_ttl": "360",</text><text fill="#000000" font-family="Helvetica" font-size="10" x="794.8311" y="1506.6104">"refresh_token_ttl": "43200",</text><text fill="#000000" font-family="Helvetica" font-size="10" x="794.8311" y="1518.251">"scope": "RS specific scopes"}</text><path d="M68.293,1534.6094 L128.249,1534.6094 L128.249,1538.25 L118.249,1548.25 L68.293,1548.25 L68.293,1534.6094" fill="#EEEEEE" style="stroke:#000000;stroke-width:1.5;"/><rect fill="none" height="345.1719" style="stroke:#000000;stroke-width:1.5;" width="1060.2432" x="68.293" y="1534.6094"/><text fill="#000000" font-family="Helvetica" font-size="10" font-weight="bold" x="83.293" y="1544.8916">alt</text><text fill="#000000" font-family="Helvetica" font-size="10" font-weight="bold" x="143.249" y="1545.8916">[Policy Decision allowed]</text><line style="stroke:#000000;stroke-width:1;stroke-dasharray:2.0,2.0;" x1="68.293" x2="1128.5361" y1="1751.2969" y2="1751.2969"/><text fill="#000000" font-family="Helvetica" font-size="10" font-weight="bold" x="73.293" y="1762.5791">[Policy Decision denied]</text><line style="stroke:#181818;stroke-width:1;" x1="746.9463" x2="788.9463" y1="1575.8906" y2="1575.8906"/><line style="stroke:#181818;stroke-width:1;" x1="788.9463" x2="788.9463" y1="1575.8906" y2="1588.8906"/><line style="stroke:#181818;stroke-width:1;" x1="747.9463" x2="788.9463" y1="1588.8906" y2="1588.8906"/><polygon fill="#181818" points="757.9463,1584.8906,747.9463,1588.8906,757.9463,1592.8906,753.9463,1588.8906" style="stroke:#181818;stroke-width:1;"/><text fill="#000000" font-family="Helvetica" font-size="10" x="753.9463" y="1571.5322">(21)</text><text fill="#000000" font-family="Helvetica" font-size="10" x="778.4736" y="1571.5322">Generate AS Access Token (AT) and Refresh Token (RT)</text><path d="M438.4707,1563.25 L438.4707,1596.25 L736.4707,1596.25 L736.4707,1573.25 L726.4707,1563.25 L438.4707,1563.25" fill="#FEFFDD" style="stroke:#181818;stroke-width:0.5;"/><path d="M726.4707,1563.25 L726.4707,1573.25 L736.4707,1573.25 L726.4707,1563.25" fill="#FEFFDD" style="stroke:#181818;stroke-width:0.5;"/><text fill="#000000" font-family="Helvetica" font-size="10" x="444.4707" y="1577.5322">AT is bound to DPoP key (cnf.jkt claim)</text><text fill="#000000" font-family="Helvetica" font-size="10" x="444.4707" y="1589.1729">AT contains claims about client_id and SM(C)-B Identity</text><line style="stroke:#181818;stroke-width:1;" x1="90.293" x2="100.293" y1="1619.1719" y2="1615.1719"/><line style="stroke:#181818;stroke-width:1;" x1="90.293" x2="100.293" y1="1619.1719" y2="1623.1719"/><line style="stroke:#181818;stroke-width:1;stroke-dasharray:2.0,2.0;" x1="89.293" x2="735.9463" y1="1619.1719" y2="1619.1719"/><text fill="#000000" font-family="Helvetica" font-size="10" x="106.293" y="1614.8135">(22)</text><text fill="#000000" font-family="Helvetica" font-size="10" x="130.8203" y="1614.8135">200 OK</text><path d="M751.9463,1632.1719 L751.9463,1735.1719 L1036.9463,1735.1719 L1036.9463,1642.1719 L1026.9463,1632.1719 L751.9463,1632.1719" fill="#90EE90" style="stroke:#181818;stroke-width:0.5;"/><path d="M1026.9463,1632.1719 L1026.9463,1642.1719 L1036.9463,1642.1719 L1026.9463,1632.1719" fill="#90EE90" style="stroke:#181818;stroke-width:0.5;"/><text fill="#000000" font-family="Helvetica" font-size="10" font-weight="bold" x="757.9463" y="1646.4541">Token Response Body:</text><text fill="#000000" font-family="Helvetica" font-size="10" x="757.9463" y="1658.0947">{</text><text fill="#000000" font-family="Helvetica" font-size="10" x="764.3037" y="1669.7354">"access_token": "&lt;AS_Access_Token&gt;",</text><text fill="#000000" font-family="Helvetica" font-size="10" x="764.3037" y="1681.376">"token_type": "DPoP", // Indicate DPoP is required</text><text fill="#000000" font-family="Helvetica" font-size="10" x="764.3037" y="1693.0166">"expires_in": 3600,</text><text fill="#000000" font-family="Helvetica" font-size="10" x="764.3037" y="1704.6572">"refresh_token": "&lt;AS_Refresh_Token&gt;" // Optional</text><text fill="#000000" font-family="Helvetica" font-size="10" x="764.3037" y="1716.2979">// ... other parameters</text><text fill="#000000" font-family="Helvetica" font-size="10" x="757.9463" y="1727.9385">}</text><line style="stroke:#181818;stroke-width:1;" x1="90.293" x2="100.293" y1="1787.5781" y2="1783.5781"/><line style="stroke:#181818;stroke-width:1;" x1="90.293" x2="100.293" y1="1787.5781" y2="1791.5781"/><line style="stroke:#181818;stroke-width:1;stroke-dasharray:2.0,2.0;" x1="89.293" x2="735.9463" y1="1787.5781" y2="1787.5781"/><text fill="#000000" font-family="Helvetica" font-size="10" x="106.293" y="1783.2197">(23)</text><text fill="#000000" font-family="Helvetica" font-size="10" x="130.8203" y="1783.2197">403 Forbidden</text><path d="M751.9463,1774.9375 L751.9463,1795.9375 L1106.9463,1795.9375 L1106.9463,1784.9375 L1096.9463,1774.9375 L751.9463,1774.9375" fill="#FEFFDD" style="stroke:#181818;stroke-width:0.5;"/><path d="M1096.9463,1774.9375 L1096.9463,1784.9375 L1106.9463,1784.9375 L1096.9463,1774.9375" fill="#FEFFDD" style="stroke:#181818;stroke-width:0.5;"/><text fill="#000000" font-family="Helvetica" font-size="10" x="757.9463" y="1789.2197">The client can handle the error and decide whether to retry or not.</text><path d="M751.9463,1806.5781 L751.9463,1874.5781 L1002.9463,1874.5781 L1002.9463,1816.5781 L992.9463,1806.5781 L751.9463,1806.5781" fill="#FFC0CB" style="stroke:#181818;stroke-width:0.5;"/><path d="M992.9463,1806.5781 L992.9463,1816.5781 L1002.9463,1816.5781 L992.9463,1806.5781" fill="#FFC0CB" style="stroke:#181818;stroke-width:0.5;"/><text fill="#000000" font-family="Helvetica" font-size="10" font-weight="bold" x="757.9463" y="1820.8604">Error Response:</text><text fill="#000000" font-family="Helvetica" font-size="10" x="757.9463" y="1832.501">{</text><text fill="#000000" font-family="Helvetica" font-size="10" x="764.3037" y="1844.1416">"error": "access_denied",</text><text fill="#000000" font-family="Helvetica" font-size="10" x="764.3037" y="1855.7822">"error_description": "Policy decision denied."</text><text fill="#000000" font-family="Helvetica" font-size="10" x="757.9463" y="1867.4229">}</text><line style="stroke:#181818;stroke-width:1;" x1="90.293" x2="100.293" y1="1941.0625" y2="1937.0625"/><line style="stroke:#181818;stroke-width:1;" x1="90.293" x2="100.293" y1="1941.0625" y2="1945.0625"/><line style="stroke:#181818;stroke-width:1;stroke-dasharray:2.0,2.0;" x1="89.293" x2="735.9463" y1="1941.0625" y2="1941.0625"/><text fill="#000000" font-family="Helvetica" font-size="10" x="106.293" y="1936.7041">(24)</text><text fill="#000000" font-family="Helvetica" font-size="10" x="130.8203" y="1936.7041">400 Bad Request</text><path d="M746.9463,1954.0625 L746.9463,2022.0625 L1052.9463,2022.0625 L1052.9463,1964.0625 L1042.9463,1954.0625 L746.9463,1954.0625" fill="#FFC0CB" style="stroke:#181818;stroke-width:0.5;"/><path d="M1042.9463,1954.0625 L1042.9463,1964.0625 L1052.9463,1964.0625 L1042.9463,1954.0625" fill="#FFC0CB" style="stroke:#181818;stroke-width:0.5;"/><text fill="#000000" font-family="Helvetica" font-size="10" font-weight="bold" x="752.9463" y="1968.3447">Error Response:</text><text fill="#000000" font-family="Helvetica" font-size="10" x="752.9463" y="1979.9854">{</text><text fill="#000000" font-family="Helvetica" font-size="10" x="759.3037" y="1991.626">"error": "invalid_grant", // Or "invalid_client"</text><text fill="#000000" font-family="Helvetica" font-size="10" x="759.3037" y="2003.2666">"error_description": "Token exchange validation failed."</text><text fill="#000000" font-family="Helvetica" font-size="10" x="752.9463" y="2014.9072">}</text><!--SRC=[pLZhRXkx4Vw_Jp7T0pIIdRLzaZHe1SU0B2kEZvDZmL8Qj0WWKBkKH6l5rI6vifM3lCrvaxvOPqZkJHUdVrhqZsMHCyEvV7CJoqqcy-M4AmXRPsVjCD0B8LTCiIKaVChorBpFf1cARnn-Fjj_-IjRSlZ0qpKt8cOrcYj7yocJcLwnc2SbTI_BbU2gHfjoEJFpRlAGQmCoaxnsf_blEPSnl-TJhkYVInOlPYhBPTBBqap1bxamTORXDaDbmwlWzCMF2CqcvJ39qYHuSHe4mPzMYisM30pFle5HEG-2RcpmsSyQJPXaJn1-xD-4yDFrFDF6wG9WpmTABF_rXz8RRVWIAJwoDPS9SW5uYd_sHrtefO9BW_T39fFDfSeUfQK0G3NHgMB5fF5KmBJZ-YezcoL5iIGms6OQ3JvP3lmamegiJdIRISaNP1AHLjyozLMERg9hPlWZsuHRNCDFbvP- -AdLQqUNOL08TpxfoedWXYiqQzJlVVZrxkFTzJ-2kjdNELF9hjNrDxgvcG_jAuEhmLT9NpCblZ4ZCedHKskIlyCrw5SiWomLyGRwSYOahxkWr9QbfM_do2OpMBDK9A3uL74z1vCjE6dcQOwFg_-ZY-A_3lGKHp-Lxe1k77EjOKJS8RH- -J9g8wFCa4Q9sTp0JobzJDAS-s0V7UtZnHUOMEhEqP4d-zr_0eH2wx03uNbibHYBv29y2QUdSADrZYajD9Wv1tTRSUbyOhb6FELBTEKYkhc2gSem7zpxNiemdppms1HYXDH6c9nSNybYUM9bTOTZg-suBvDL9b2Pp_SVlPnkdWXAha9GTrZnywSLyf-SdBWNCRecIiMQ9pKZcV4arTc34VGi7eRLwOiG2qVChJwzEKkffd1ds5NltYjpAMGYv0oZIeSrfyJPYhjthCuQu_zRBXHFO8gfG7hVSurr2-rmm0Dce-H5VFVGeW073OHK-NHyZ3ZXJvWKagM4PQJ0aec887X4YBuvOQHYG6xACikdnKmswUYg8J-Aa8ueXaZBJAvuKrfqKUAr9DKrqiEelXfa0xZb6nWmeQ157d7Wx3_5SuPk9drUrD3TGITfZL299aoZ3qjUOhNI9YuG9pOHCGU3e7hUfRqr-xe_WbCRry2THb7DY0v62PMNyEhi3EvkGVB7o19tmF44Fx1feB9iIew0NPk2mybwTBJ5xP9qhsUAp2toDZGRmdo8UR8wVdWq9O93bixeeZzyzPUtrUd3um9FQrc_C1jBrgjXFtpQpOTmi-SiLciw7KJqHWsx-FUar71FUeLpixICTyDH_J1_DlqBkeE9sHtkvcLP7whKzmgs4AqmsTZGZR6vhZ6EOuHMEwXIxt30_VUknhvj6yZ-iBiW4jZQpo9WhxWw3go8dUZlgzd1LcNUT_UZIXlyXnLrNt2fPSWupHEV5QjyWbqJ5fYqL6mApbXE2OaeOc6iBfUOss_VuFkjuOSk0ghb0cEvnxzykMstBy82NVPl4K3dk_4DjXI6o3WKorfhpZNNiAy_DkfMhN0GKE7KDczetR_lmL_V_krrszhNWNCgUpmPKmwECGSlcgqPazhBt8dw5bRkQOB4aVKoIpP5g6SAXv0nPZb_XwMfWrFGj6FdJTt962hOiGGH4NIiVX4lAWwn_rcxlZksT-_ElT5ZPxGB_iKUokTUTC_O5z5QYlUTWXXdxMpf97d4iGBCpmbpj559MygD9fmfFztkI7ntxeDU9WmYP3J6H1bJrBn5olVOT-SZfcRSL4tty_rDOJMrwdVdtlNON8Pqe2_g7HWy54fCTE3lDDLH7MXuhOHauUR1xKkSc2YBs_kazEOyNe2OGfcZDDPCQ1cXsaLpGe5IaL1_Dnjy8fyucJX4DPzl1m5FDM-W_DuFdWVWtOJs_nRFVYOU5pEnZLZjYABYljPX-dy1heFGw00ESsAwAVtk78jBYIk6A6WFZv3h0ayDlcgSEGp0RUqFbyKQ5W-Bsnf5catIrMAigvKaMrOzDxwEPJMtfMMQfpjJN6DzWjQWtoQunzJ3BTxZ8XsgHSDkKMusBZ92bQbQv7VTexYkrIhs-kTJr8kT4Xg-lSJCIZROSh1lobLENUTtR5pVlzFIXtnHwG-Q1TqGMF3WE9LcZyX1E_lBhv9wg2kXlboQb9hOwxTdeRjj8BcuVlCQfNg2OaS8xuUWLpmMKsoIzb27rD_8hzvXLtXBuozO9NpptGdXDPTSKGYxm-REr-gEsXQ1ZLg0VSmkaJwtKpx527L7ZG9amK2DkuNT-WGRjGjx6vVd4SIPD0ptE0y5OCXcQfMCNYogruslNdNDgmMYS7QbJLbf7AqhD3F5URKj5jK6Q_eASSSRLQQvscu5gvXy6ZsmDjRIL5tsG28cD_XT6EVAk4mJKUrrTMOScl18ZmMzX8WuQuXk0ADGfLdeGjjJLvHFBAtnuYbjb1bcWG9RwEWt4LrIV2z_lV6roNQ3RH1XA4GJG_L8l3bx3UypDH59ufszDo0h8HUrKFILmXcr2CN1A70Y8vjzE9mgJTTR6hpHiHBM1NPHS3OaJHjEmiEcGwFoZAg24ZE9HKKcARVLn3vdiKh2SMPzd7FhNuG_heDg0tYDeavyrQTgRDrQrJnupqHwoADkENw3-BvaIT4H_sj-zOraRBkiWopEPkLnNFkHxpbtkymg1abOLwPEhQc77R-pVqV1lm40]--></g></svg>