<svg xmlns="http://www.w3.org/2000/svg" xmlns:xlink="http://www.w3.org/1999/xlink" contentStyleType="text/css" data-diagram-type="SEQUENCE" height="773px" preserveAspectRatio="none" style="width:1112px;height:773px;background:#FFFFFF;" version="1.1" viewBox="0 0 1112 773" width="1112px" zoomAndPan="magnify"><defs/><g><rect fill="#F8F8FF" height="761.1875" style="stroke:#181818;stroke-width:0.5;" width="494.2036" x="126.5586" y="6"/><text fill="#000000" font-family="Helvetica" font-size="10" font-weight="bold" x="365.1985" y="15.2822">LEI</text><rect fill="#E6E6FA" height="744.5469" style="stroke:#181818;stroke-width:0.5;" width="331.1206" x="126.5586" y="22.6406"/><text fill="#000000" font-family="Helvetica" font-size="10" font-weight="bold" x="253.0222" y="31.9229">Prim&#228;rsystem</text><rect fill="#F4A460" height="727.9063" style="stroke:#181818;stroke-width:0.5;" width="89" x="126.5586" y="39.2813"/><text fill="#000000" font-family="Helvetica" font-size="10" font-weight="bold" x="138.5586" y="48.5635">ZETA Client</text><rect fill="#C9FFC9" height="761.1875" style="stroke:#181818;stroke-width:0.5;" width="442.0239" x="632.7622" y="6"/><text fill="#000000" font-family="Helvetica" font-size="10" font-weight="bold" x="829.4138" y="15.2822">Anbieter</text><rect fill="#F4A460" height="744.5469" style="stroke:#181818;stroke-width:0.5;" width="330.9604" x="632.7622" y="22.6406"/><text fill="#000000" font-family="Helvetica" font-size="10" font-weight="bold" x="765.0979" y="31.9229">ZETA Guard</text><rect fill="#8FBC8F" height="744.5469" style="stroke:#181818;stroke-width:0.5;" width="99.0635" x="975.7227" y="22.6406"/><text fill="#000000" font-family="Helvetica" font-size="10" font-weight="bold" x="987.7227" y="31.9229">TI 2.0 Dienst</text><g><title>User</title><rect fill="#000000" fill-opacity="0.00000" height="562.9844" width="8" x="15.8965" y="126.5625"/><line style="stroke:#181818;stroke-width:0.5;stroke-dasharray:5.0,5.0;" x1="19.3965" x2="19.3965" y1="126.5625" y2="689.5469"/></g><g><title>ZETA</title><rect fill="#000000" fill-opacity="0.00000" height="562.9844" width="8" x="167.5586" y="126.5625"/><line style="stroke:#181818;stroke-width:0.5;stroke-dasharray:5.0,5.0;" x1="171.0586" x2="171.0586" y1="126.5625" y2="689.5469"/></g><g><title/><rect fill="#FFFFFF" height="496.0625" style="stroke:#181818;stroke-width:1;" width="10" x="166.0586" y="175.4844"/></g><g><title>ZETA Attestation Service</title><rect fill="#000000" fill-opacity="0.00000" height="562.9844" width="8" x="336.0713" y="126.5625"/><line style="stroke:#181818;stroke-width:0.5;stroke-dasharray:5.0,5.0;" x1="339.5713" x2="339.5713" y1="126.5625" y2="689.5469"/></g><g><title>TPM</title><rect fill="#000000" fill-opacity="0.00000" height="562.9844" width="8" x="432.7959" y="126.5625"/><line style="stroke:#181818;stroke-width:0.5;stroke-dasharray:5.0,5.0;" x1="436.2959" x2="436.2959" y1="126.5625" y2="689.5469"/></g><g><title>Konnektor or</title><rect fill="#000000" fill-opacity="0.00000" height="562.9844" width="8" x="509.606" y="126.5625"/><line style="stroke:#181818;stroke-width:0.5;stroke-dasharray:5.0,5.0;" x1="513.106" x2="513.106" y1="126.5625" y2="689.5469"/></g><g><title>SM(C)-B</title><rect fill="#000000" fill-opacity="0.00000" height="562.9844" width="8" x="586.1475" y="126.5625"/><line style="stroke:#181818;stroke-width:0.5;stroke-dasharray:5.0,5.0;" x1="589.6475" x2="589.6475" y1="126.5625" y2="689.5469"/></g><g><title>PEP</title><rect fill="#000000" fill-opacity="0.00000" height="562.9844" width="8" x="666.1631" y="126.5625"/><line style="stroke:#181818;stroke-width:0.5;stroke-dasharray:5.0,5.0;" x1="669.6631" x2="669.6631" y1="126.5625" y2="689.5469"/></g><g><title/><rect fill="#FFFFFF" height="212.4063" style="stroke:#181818;stroke-width:1;" width="10" x="664.6631" y="433.5"/></g><g><title>PDP</title><rect fill="#000000" fill-opacity="0.00000" height="562.9844" width="8" x="807.1758" y="126.5625"/><line style="stroke:#181818;stroke-width:0.5;stroke-dasharray:5.0,5.0;" x1="810.6758" x2="810.6758" y1="126.5625" y2="689.5469"/></g><g><title>PDP</title><rect fill="#000000" fill-opacity="0.00000" height="562.9844" width="8" x="915.9365" y="126.5625"/><line style="stroke:#181818;stroke-width:0.5;stroke-dasharray:5.0,5.0;" x1="919.4365" x2="919.4365" y1="126.5625" y2="689.5469"/></g><g><title>Resource</title><rect fill="#000000" fill-opacity="0.00000" height="562.9844" width="8" x="1021.7544" y="126.5625"/><line style="stroke:#181818;stroke-width:0.5;stroke-dasharray:5.0,5.0;" x1="1025.2544" x2="1025.2544" y1="126.5625" y2="689.5469"/></g><g><title/><rect fill="#FFFFFF" height="87.5625" style="stroke:#181818;stroke-width:1;" width="10" x="1020.2544" y="532.7031"/></g><text fill="#000000" font-family="Helvetica" font-size="10" x="5" y="124.2041">User</text><ellipse cx="19.3965" cy="63.4219" fill="#E2E2F0" rx="8" ry="8" style="stroke:#181818;stroke-width:0.5;"/><path d="M19.3965,71.4219 L19.3965,98.4219 M6.3965,79.4219 L32.3965,79.4219 M19.3965,98.4219 L6.3965,113.4219 M19.3965,98.4219 L32.3965,113.4219" fill="none" style="stroke:#181818;stroke-width:0.5;"/><rect fill="#E2E2F0" height="37.2813" rx="2.5" ry="2.5" style="stroke:#181818;stroke-width:0.5;" width="42.9502" x="149.5835" y="88.2813"/><text fill="#000000" font-family="Helvetica" font-size="10" x="157.9995" y="104.5635">ZETA</text><text fill="#000000" font-family="Helvetica" font-size="10" x="156.5835" y="116.2041">Client</text><rect fill="#E2E2F0" height="37.2813" rx="2.5" ry="2.5" style="stroke:#181818;stroke-width:0.5;" width="138.6826" x="270.23" y="88.2813"/><text fill="#000000" font-family="Helvetica" font-size="10" x="277.23" y="104.5635">ZETA Attestation Service</text><text fill="#000000" font-family="Helvetica" font-size="10" x="303.7046" y="116.2041">(Admin rights)</text><rect fill="#E2E2F0" height="25.6406" rx="2.5" ry="2.5" style="stroke:#181818;stroke-width:0.5;" width="34.7666" x="418.9126" y="99.9219"/><text fill="#000000" font-family="Helvetica" font-size="10" x="425.9126" y="116.2041">TPM</text><rect fill="#E2E2F0" height="37.2813" rx="2.5" ry="2.5" style="stroke:#181818;stroke-width:0.5;" width="78.8535" x="473.6792" y="88.2813"/><text fill="#000000" font-family="Helvetica" font-size="10" x="480.6792" y="104.5635">Konnektor or</text><text fill="#000000" font-family="Helvetica" font-size="10" x="484.6855" y="116.2041">TI-Gateway</text><rect fill="#E2E2F0" height="25.6406" rx="2.5" ry="2.5" style="stroke:#181818;stroke-width:0.5;" width="54.2295" x="562.5327" y="99.9219"/><text fill="#000000" font-family="Helvetica" font-size="10" x="569.5327" y="116.2041">SM(C)-B</text><rect fill="#E2E2F0" height="37.2813" rx="2.5" ry="2.5" style="stroke:#181818;stroke-width:0.5;" width="65.8018" x="636.7622" y="88.2813"/><text fill="#000000" font-family="Helvetica" font-size="10" x="660.4736" y="104.5635">PEP</text><text fill="#000000" font-family="Helvetica" font-size="10" x="643.7622" y="116.2041">http Proxy</text><rect fill="#E2E2F0" height="37.2813" rx="2.5" ry="2.5" style="stroke:#181818;stroke-width:0.5;" width="116.9492" x="752.2012" y="88.2813"/><text fill="#000000" font-family="Helvetica" font-size="10" x="800.7954" y="104.5635">PDP</text><text fill="#000000" font-family="Helvetica" font-size="10" x="759.2012" y="116.2041">Authorization Server</text><rect fill="#E2E2F0" height="37.2813" rx="2.5" ry="2.5" style="stroke:#181818;stroke-width:0.5;" width="80.5723" x="879.1504" y="88.2813"/><text fill="#000000" font-family="Helvetica" font-size="10" x="909.5562" y="104.5635">PDP</text><text fill="#000000" font-family="Helvetica" font-size="10" x="886.1504" y="116.2041">Policy Engine</text><rect fill="#E2E2F0" height="37.2813" rx="2.5" ry="2.5" style="stroke:#181818;stroke-width:0.5;" width="60.5283" x="994.9902" y="88.2813"/><text fill="#000000" font-family="Helvetica" font-size="10" x="1001.9902" y="104.5635">Resource</text><text fill="#000000" font-family="Helvetica" font-size="10" x="1008.8579" y="116.2041">Server</text><text fill="#000000" font-family="Helvetica" font-size="10" x="5" y="758.8291">User</text><ellipse cx="19.3965" cy="698.0469" fill="#E2E2F0" rx="8" ry="8" style="stroke:#181818;stroke-width:0.5;"/><path d="M19.3965,706.0469 L19.3965,733.0469 M6.3965,714.0469 L32.3965,714.0469 M19.3965,733.0469 L6.3965,748.0469 M19.3965,733.0469 L32.3965,748.0469" fill="none" style="stroke:#181818;stroke-width:0.5;"/><rect fill="#E2E2F0" height="37.2813" rx="2.5" ry="2.5" style="stroke:#181818;stroke-width:0.5;" width="42.9502" x="149.5835" y="689.5469"/><text fill="#000000" font-family="Helvetica" font-size="10" x="157.9995" y="705.8291">ZETA</text><text fill="#000000" font-family="Helvetica" font-size="10" x="156.5835" y="717.4697">Client</text><rect fill="#E2E2F0" height="37.2813" rx="2.5" ry="2.5" style="stroke:#181818;stroke-width:0.5;" width="138.6826" x="270.23" y="689.5469"/><text fill="#000000" font-family="Helvetica" font-size="10" x="277.23" y="705.8291">ZETA Attestation Service</text><text fill="#000000" font-family="Helvetica" font-size="10" x="303.7046" y="717.4697">(Admin rights)</text><rect fill="#E2E2F0" height="25.6406" rx="2.5" ry="2.5" style="stroke:#181818;stroke-width:0.5;" width="34.7666" x="418.9126" y="689.5469"/><text fill="#000000" font-family="Helvetica" font-size="10" x="425.9126" y="705.8291">TPM</text><rect fill="#E2E2F0" height="37.2813" rx="2.5" ry="2.5" style="stroke:#181818;stroke-width:0.5;" width="78.8535" x="473.6792" y="689.5469"/><text fill="#000000" font-family="Helvetica" font-size="10" x="480.6792" y="705.8291">Konnektor or</text><text fill="#000000" font-family="Helvetica" font-size="10" x="484.6855" y="717.4697">TI-Gateway</text><rect fill="#E2E2F0" height="25.6406" rx="2.5" ry="2.5" style="stroke:#181818;stroke-width:0.5;" width="54.2295" x="562.5327" y="689.5469"/><text fill="#000000" font-family="Helvetica" font-size="10" x="569.5327" y="705.8291">SM(C)-B</text><rect fill="#E2E2F0" height="37.2813" rx="2.5" ry="2.5" style="stroke:#181818;stroke-width:0.5;" width="65.8018" x="636.7622" y="689.5469"/><text fill="#000000" font-family="Helvetica" font-size="10" x="660.4736" y="705.8291">PEP</text><text fill="#000000" font-family="Helvetica" font-size="10" x="643.7622" y="717.4697">http Proxy</text><rect fill="#E2E2F0" height="37.2813" rx="2.5" ry="2.5" style="stroke:#181818;stroke-width:0.5;" width="116.9492" x="752.2012" y="689.5469"/><text fill="#000000" font-family="Helvetica" font-size="10" x="800.7954" y="705.8291">PDP</text><text fill="#000000" font-family="Helvetica" font-size="10" x="759.2012" y="717.4697">Authorization Server</text><rect fill="#E2E2F0" height="37.2813" rx="2.5" ry="2.5" style="stroke:#181818;stroke-width:0.5;" width="80.5723" x="879.1504" y="689.5469"/><text fill="#000000" font-family="Helvetica" font-size="10" x="909.5562" y="705.8291">PDP</text><text fill="#000000" font-family="Helvetica" font-size="10" x="886.1504" y="717.4697">Policy Engine</text><rect fill="#E2E2F0" height="37.2813" rx="2.5" ry="2.5" style="stroke:#181818;stroke-width:0.5;" width="60.5283" x="994.9902" y="689.5469"/><text fill="#000000" font-family="Helvetica" font-size="10" x="1001.9902" y="705.8291">Resource</text><text fill="#000000" font-family="Helvetica" font-size="10" x="1008.8579" y="717.4697">Server</text><polygon fill="#181818" points="154.0586,171.4844,164.0586,175.4844,154.0586,179.4844,158.0586,175.4844" style="stroke:#181818;stroke-width:1;"/><line style="stroke:#181818;stroke-width:1;" x1="19.3965" x2="160.0586" y1="175.4844" y2="175.4844"/><text fill="#000000" font-family="Helvetica" font-size="10" x="26.3965" y="159.4854">(01)</text><text fill="#000000" font-family="Helvetica" font-size="10" x="50.9238" y="147.8447">User wants to</text><text fill="#000000" font-family="Helvetica" font-size="10" x="50.9238" y="159.4854">access resource</text><text fill="#000000" font-family="Helvetica" font-size="10" x="50.9238" y="171.126">on Resource Server</text><rect fill="#FFFFFF" height="37.9375" style="stroke:#000000;stroke-width:1.5;" width="715.5669" x="151.5835" y="183.4844"/><path d="M151.5835,183.4844 L215.5835,183.4844 L215.5835,188.4844 L205.5835,198.4844 L151.5835,198.4844 L151.5835,183.4844" fill="#EEEEEE" style="stroke:#000000;stroke-width:2;"/><text fill="#000000" font-family="Helvetica" font-size="12" font-weight="bold" x="164.5835" y="196.623">ref</text><text fill="#000000" font-family="Helvetica" font-size="12" font-weight="bold" x="413.0798" y="213.623">Discovery and Configuration</text><path d="M133.5835,230.4219 L193.5396,230.4219 L193.5396,234.0625 L183.5396,244.0625 L133.5835,244.0625 L133.5835,230.4219" fill="#EEEEEE" style="stroke:#000000;stroke-width:1.5;"/><rect fill="none" height="66.5781" style="stroke:#000000;stroke-width:1.5;" width="751.5669" x="133.5835" y="230.4219"/><text fill="#000000" font-family="Helvetica" font-size="10" font-weight="bold" x="148.5835" y="240.7041">alt</text><text fill="#000000" font-family="Helvetica" font-size="10" font-weight="bold" x="208.5396" y="241.7041">[Client has no client_id]</text><rect fill="#FFFFFF" height="37.9375" style="stroke:#000000;stroke-width:1.5;" width="715.5669" x="151.5835" y="254.0625"/><path d="M151.5835,254.0625 L215.5835,254.0625 L215.5835,259.0625 L205.5835,269.0625 L151.5835,269.0625 L151.5835,254.0625" fill="#EEEEEE" style="stroke:#000000;stroke-width:2;"/><text fill="#000000" font-family="Helvetica" font-size="12" font-weight="bold" x="164.5835" y="267.2012">ref</text><text fill="#000000" font-family="Helvetica" font-size="12" font-weight="bold" x="340.8572" y="284.2012">Dynamic Client Registration with TPM Attestation</text><rect fill="#FFFFFF" height="37.9375" style="stroke:#000000;stroke-width:1.5;" width="806.1392" x="151.5835" y="311"/><path d="M151.5835,311 L215.5835,311 L215.5835,316 L205.5835,326 L151.5835,326 L151.5835,311" fill="#EEEEEE" style="stroke:#000000;stroke-width:2;"/><text fill="#000000" font-family="Helvetica" font-size="12" font-weight="bold" x="164.5835" y="324.1387">ref</text><text fill="#000000" font-family="Helvetica" font-size="12" font-weight="bold" x="393.4968" y="341.1387">Token Exchange with Client Assertion JWT Auth</text><line style="stroke:#181818;stroke-width:1;" x1="176.0586" x2="218.0586" y1="371.5781" y2="371.5781"/><line style="stroke:#181818;stroke-width:1;" x1="218.0586" x2="218.0586" y1="371.5781" y2="384.5781"/><line style="stroke:#181818;stroke-width:1;" x1="177.0586" x2="218.0586" y1="384.5781" y2="384.5781"/><polygon fill="#181818" points="187.0586,380.5781,177.0586,384.5781,187.0586,388.5781,183.0586,384.5781" style="stroke:#181818;stroke-width:1;"/><text fill="#000000" font-family="Helvetica" font-size="10" x="183.0586" y="367.2197">(02)</text><text fill="#000000" font-family="Helvetica" font-size="10" x="207.5859" y="367.2197">Create DPoP Proof for RS</text><polygon fill="#181818" points="652.6631,429.5,662.6631,433.5,652.6631,437.5,656.6631,433.5" style="stroke:#181818;stroke-width:1;"/><line style="stroke:#181818;stroke-width:1;" x1="176.0586" x2="658.6631" y1="433.5" y2="433.5"/><text fill="#000000" font-family="Helvetica" font-size="10" x="183.0586" y="417.501">(03)</text><text fill="#000000" font-family="Helvetica" font-size="10" x="207.5859" y="405.8604">GET /resource</text><text fill="#000000" font-family="Helvetica" font-size="10" x="213.9434" y="417.501">Authorization: DPoP ... (Accesss token)</text><text fill="#000000" font-family="Helvetica" font-size="10" x="213.9434" y="429.1416">DPoP: ... (DPoP token)</text><line style="stroke:#181818;stroke-width:1;" x1="674.6631" x2="716.6631" y1="470.7813" y2="470.7813"/><line style="stroke:#181818;stroke-width:1;" x1="716.6631" x2="716.6631" y1="470.7813" y2="483.7813"/><line style="stroke:#181818;stroke-width:1;" x1="675.6631" x2="716.6631" y1="483.7813" y2="483.7813"/><polygon fill="#181818" points="685.6631,479.7813,675.6631,483.7813,685.6631,487.7813,681.6631,483.7813" style="stroke:#181818;stroke-width:1;"/><text fill="#000000" font-family="Helvetica" font-size="10" x="681.6631" y="460.6025">(04)</text><text fill="#000000" font-family="Helvetica" font-size="10" x="706.1904" y="454.7822">verify Access token</text><text fill="#000000" font-family="Helvetica" font-size="10" x="706.1904" y="466.4229">and DPoP Proof</text><polygon fill="#181818" points="1008.2544,528.7031,1018.2544,532.7031,1008.2544,536.7031,1012.2544,532.7031" style="stroke:#181818;stroke-width:1;"/><line style="stroke:#181818;stroke-width:1;" x1="674.6631" x2="1014.2544" y1="532.7031" y2="532.7031"/><text fill="#000000" font-family="Helvetica" font-size="10" x="681.6631" y="516.7041">(05)</text><text fill="#000000" font-family="Helvetica" font-size="10" x="706.1904" y="505.0635">forward GET /resource</text><text fill="#000000" font-family="Helvetica" font-size="10" x="706.1904" y="516.7041">with header and</text><text fill="#000000" font-family="Helvetica" font-size="10" x="706.1904" y="528.3447">PEP header as json</text><line style="stroke:#181818;stroke-width:1;" x1="1030.2544" x2="1072.2544" y1="581.625" y2="581.625"/><line style="stroke:#181818;stroke-width:1;" x1="1072.2544" x2="1072.2544" y1="581.625" y2="594.625"/><line style="stroke:#181818;stroke-width:1;" x1="1031.2544" x2="1072.2544" y1="594.625" y2="594.625"/><polygon fill="#181818" points="1041.2544,590.625,1031.2544,594.625,1041.2544,598.625,1037.2544,594.625" style="stroke:#181818;stroke-width:1;"/><text fill="#000000" font-family="Helvetica" font-size="10" x="1037.2544" y="565.626">(06)</text><text fill="#000000" font-family="Helvetica" font-size="10" x="1061.7817" y="553.9854">provide</text><text fill="#000000" font-family="Helvetica" font-size="10" x="1061.7817" y="565.626">resource</text><text fill="#000000" font-family="Helvetica" font-size="10" x="1061.7817" y="577.2666">access</text><polygon fill="#181818" points="685.6631,616.2656,675.6631,620.2656,685.6631,624.2656,681.6631,620.2656" style="stroke:#181818;stroke-width:1;"/><line style="stroke:#181818;stroke-width:1;stroke-dasharray:2.0,2.0;" x1="679.6631" x2="1019.2544" y1="620.2656" y2="620.2656"/><text fill="#000000" font-family="Helvetica" font-size="10" x="691.6631" y="615.9072">(07)</text><text fill="#000000" font-family="Helvetica" font-size="10" x="716.1904" y="615.9072">200 OK, Resource</text><polygon fill="#181818" points="187.0586,641.9063,177.0586,645.9063,187.0586,649.9063,183.0586,645.9063" style="stroke:#181818;stroke-width:1;"/><line style="stroke:#181818;stroke-width:1;stroke-dasharray:2.0,2.0;" x1="181.0586" x2="663.6631" y1="645.9063" y2="645.9063"/><text fill="#000000" font-family="Helvetica" font-size="10" x="193.0586" y="641.5479">(08)</text><text fill="#000000" font-family="Helvetica" font-size="10" x="217.5859" y="641.5479">200 OK, Resource</text><polygon fill="#181818" points="30.3965,667.5469,20.3965,671.5469,30.3965,675.5469,26.3965,671.5469" style="stroke:#181818;stroke-width:1;"/><line style="stroke:#181818;stroke-width:1;stroke-dasharray:2.0,2.0;" x1="24.3965" x2="165.0586" y1="671.5469" y2="671.5469"/><text fill="#000000" font-family="Helvetica" font-size="10" x="36.3965" y="667.1885">(09)</text><text fill="#000000" font-family="Helvetica" font-size="10" x="60.9238" y="667.1885">Resource</text><!--SRC=[XLJRRjf047ttLqp9GyW5GlF8GoG7N9BcPW5Lr0YfMkm1Rp2xT7STudnF_wG_rl6kOpi1gKzWvioPCsUEOPcH8blFKK6htUiTjJozucB355j3Z0kMfUQR56R2tn2-zlONxzaQuGhJ5pGyOWtCq67kf91wmoACA_H0PegZQc1J54kJ-F5pfWq8AR1Hq_WxGn7X61UeYY-NB5ejbSn4F92fLF2OSDDic7nkg7SuzyuE_mSqUOembsdi7PvvtfUDOiir0uFo3OpAqFFyoD3K7vescCjNQDq6roqu62LI6oS5mFuUAhx- -qVfN1jS4-AMlQ28gGkWH3m5Kny6AKTXg3vX8iulbTmAYm0WbUGftp1XIXGmxRfcecopKA8j2BtFJK_-fEe0tnZKXXak1MskNdY4Cz7supKNeFWoCVgejSCm3Uyi0tqMnNfG4tGZXS1LOKe1hP-acedfTMV436vPtlhKDRcxjFZ9NNjmrBbiUU_apbLVp3aQL6JCD1XStJ_SFen-UatZHXbJyQvlpHbNeHqH1k5C9CPi85JoDTzTqyzCugmAXmGj7gNYRxLPXOwThZ2eMqAPyYY7G2ovm8zMEStJQpZlzc18LwEC7moPMasGZHJYldEFdPenQdfNYaEL8ZwSkpAio29qBjv3Sd82VPjFs1AN1YDdWaKHQWsg8gJ5tjdB3JrFuG8aVIk9Jic_K-TD7uwFXrn7HJK7CfnUOh7WoqnPZuwFFPPM8Kr8kf0GsQTVFBQYTxXhtbomDO_UkyUuvDeuNjXoazWGDj9BmsZpFMejuocTfM2ToXKA25wZX8abEg9oWg_96ql__N5gkuZIAukLZNqOAAJemZ2KOH4SkO05fNeyQK0fODRjKJ25izfSW0yHwZkERhSBRTyUeZWAwJige4MjxueMvYeUKTi1VQ0T-I87r-dAT52wGQsiH5Dih1pIkQMNuxCiQqA2ZFw4YXjIQeEmUjRmhANmYC8IzM6Zv0kFgQqcS2co6BTyfqFJpdizUBWvhV9anTHnt8-fYXSkgXPLLVy1]--></g></svg>